<?xml version="1.0" encoding="UTF-8"?>
<svg id="Regions" xmlns="http://www.w3.org/2000/svg" viewBox="0 0 448.77 407.98">
  <defs>
    <style>
      .cls-1 {
        fill: #d9d9d9;
        stroke: #fff;
        stroke-width: .5px;
      }
    </style>
  </defs>
  <path id="R_94" class="cls-1" d="M359.95 325.4 360.21 323.78 359.88 321.54 359.99 320.62 359.83 319.24 358.25 316.77 357.86 315.23 358.42 312.54 358.94 311.51 358.53 308.91 358.4 306.88 357.98 305.99 358.19 305.23 357.23 304.4 355.33 304.83 355.72 307.33 354.91 308.05 355.14 309.28 354.51 310.35 355.3 311.62 355.32 313.66 354.78 314.89 353.95 315.56 353.19 314.22 352.35 313.62 350.93 313.55 349.57 313.95 348.46 314.96 348.37 316.01 347.37 316.66 344.07 317.17 343.7 317.8 342.19 318.01 342.13 319.08 341.24 319.55 340.25 319.31 339.88 320.15 338.32 322.23 338.31 324.29 337.33 324.15 337.4 325.12 336.51 325.32 337.18 327.39 338.93 328.2 339.33 329.22 337.33 329.65 336.15 330.14 336.87 332.25 336.97 333.2 338.41 334.05 339.63 334.24 340.11 335.79 340.77 336.33 338.59 337.55 338.35 338.92 337.01 339.1 338.28 340.87 339.98 340.91 340.6 340.24 341.53 340.35 342.11 341.43 341.35 344.1 340.82 344.12 339.67 346.44 339.85 347.01 341.29 346.41 341.71 347.63 342.36 347.3 343.08 347.82 344.79 348.04 343.91 349.35 341.87 350.06 341.54 351.32 342.57 352.76 344.82 354.01 345.01 354.61 346.03 354.59 348.91 356.17 349.8 356.2 349.18 357.53 352.3 358.58 352.45 356.15 353.95 354.8 353.65 353.43 355.44 352.19 355.5 350.4 356.3 349.38 356.06 348.49 356.7 347.92 356.88 345.63 356.6 344.55 356.77 342.54 356.64 342.02 357.1 340.24 357.04 339.37 360.36 334.48 360.59 331.45 360.61 328.58 359.95 325.4z"/>
  <path id="R_76" class="cls-1" d="M270.1,284.36l-.76,1.05-1.84,1.38-.73,.88-1.65,1.04,.24,2.82-.97,2.02,.36,1.12-.7,.17-1.48-.69-1.26,.28-1.45,2.47-.04,1.39-1.3,1.19-1.93,1.18-1.2,.43-.34,1.39-1.62-.41-1.12-1.13,.46-.87-.88-.76-1.55-.07-1.67,.54-1.5,.78-2,1.71-.77,.89-1.7,.82v.48l-1.45,.29-1.13,.85-2.73,3.2-1.93-.6-1.57,.43-2.28,1.48-.75,.69-2.24,2.46-1.57,2.78-1.02,3.21,.42,1.41-.4,2.66-.19,6.57,.18,1.35,.2,1.82,.95,.67,1.13,.3,.92,2.69-2.17,.29-1.09-1.57-2.93,.54-1.22-.31-1.77,1.56-.64,.25-1.18-.35-1.71,1.16,.52,1.06-.29,.49-2.48-.53-.7,.78-1.18-.22-1.82-1.72-1.32-.4-.92-.69-1.51-.45-1.36,.72-1.67,.08-1.15,1.67-1.79,.47-1.05-.9-.88-2.57-1.14,.14-1.36-1.1-2.49-.43,.21-1.9,1.17-.67-1.41-.53,.2-.94-2.48-.38-.79,.09-1.31-.97-1.7,.16-.14,1.32-.86,.23-1.25-2.76-.75-1.07-2.47,.14-.66-.42-1.57,.61-.72-.59-.17-.91-1.36-.94-1.65-.27-1.12-.49-.72,.56-1.76-1.22-1.93-.35-1.73-.84-1.12,.68,.18,1.25-.25,1.71,.5,1.48-.18,.54-3.51-.38-1.27,.09-1.27,.31-1.6-1.11-1.58,1.64-.87-1.36-2.07-.66-.95,.45-1.17,.18-.9,.65-1.43,.41-1.25-.29-.27-.74-.91-.2-1.28-2.45-.59,.3-1.31-.7-1.88-1.39-.27-1.8,1.1-1.3-.21-2.11,.66-1.09,.89,.15,.81-.59-.17-1.63,1.25-.94,.73-1.71,1.18,.07-.15-1.52,.71-.38,.65-1.19-.63-1.13,.46-.9,.93,.07,.39-.64-.81-.98,.35-1.56-.64-.73-.65,1.14h-.59l.04-1.79,.54-2-1.06-.65-.24-1.35-1.6,.02-.35-.51-1.62,.4-.77-1.05,.85-1.86-.19-1.28,1.3-.94-.6-2.02,.58-.43,.22-1.95-.92-.87,.34-.65,.8-.81,1.26-.27,.56,.55,1.43-1.23,1.22,.27-.63,.89,1.31,.99,1.02-.5-.48-1.44,.5-.88,1.53,.22,1.25-1.3,2.77,.81,1.32-.82,.62,.24,1.47-.7,.42-.9,1.27-.25,.66,.33,1.33-.89,1.45,1.24,2.19-.76,.31-1.35,.95-.46,.08-.91,1.77,.63,.47-.76-.7-1.5,1.06,.09,1.16-2.9-1.99-1.17,.65-1.26-.21-.63,.79-.68,.74,.85,2.69-.22,.09-.43-.16-1.68-.87-.65-.21-3.07,1.51-1.41,1.85-1.91-.1-1.3,1.9-.46,1.11-1.3,1.12-.63,.13-.71-.5-1.26,1.54-.48,.03-1.15,1.87-1.15-.5-.62,.48-.77-.67-1.9-.13-1.13,.96-.43,2.25-.88,2.73,.67,2.49,2.92,1.72,.44,.17-.53,1.36-.45,.51-.76,.79,.22,2.56-.41,.43,.25,.33,1.44,.78,.83-.55,.88,2.1,3.26-.44,1.28,.03,1.85,.6,.86-.24,1.25,.93,.77,.02-.97,1.9-.78,.93-.09,.66,.96,.73-.29,2.13,.23,.79-1.58,1.36-1.15,.2-1.92,.87-.54,.1-1.7,.61-1.01,.59,.09,.7-1.3,.85-.74,.51-.4,1.64,2.3,1.14,.06,.93,2.88,1.08,.26-.26,1.79,.39,1.76,1.03,1.13,1.21-3.61,.41-.51v-1.37l1.14-1.76,.2-1.01,.97-.61,1.16,1.37,1.09-.91,.23-1.48,1,.19,1.85-1.56,1.02,.5,.17,1.35,1.12,2.98,1.25,.24,1.5-.34,.71-.85,1.14-.64,.72,.79-.18,.87,1.89-.31,1.54,2.42,1.36,.82,.22,2.22,.57,1.01-.02,1.19,.72,1.49,.62-.03,.93,2.42,.28,1.45,1.15,.9-.07,1.35,.77,2.22,1.29-.3,.39,.83,1.07,.46,1.43,1.08,.7-.13,.36-1.48,.91-.8,1.87,.11,.03,1.6,1.1-.29,.39-1.54,1.01,.05,1.25,1.23,1.85,.65,.4,.5,.69,1.21-.09,.69,.64-.05,.44,2.57-.32,1.11,.44,.98,.84-.29,.93,1.36,1.21,1.78Zm-121.08,23.06h.33l.78-1.37-.7-.68-.35,.11,.49,1.24-.67,.4,.12,.31Zm-.75,1.38l.54,1.02,.95-1.02-.72-1.25-.21,.05-.56,1.2Z"/>
  <path id="R_53" class="cls-1" d="M126.07 140.15L125.45 136.09L124.83 133.6L126.15 131.35L125.98 129.46L125.32 128.12L125.69 126.3L125.56 124.77L124.41 124.28L121.18 123.47L120.46 124.74L118.94 125.48L117.92 126.67L116.83 126.47L116.19 125.53L115.31 125.47L114.26 123.25L114.56 122.6L113.34 120.41L110.97 121L108.53 121.3L106.63 120.78L106.01 119.77L106.58 117.9L103.93 117.96L103.02 119.14L102.15 119.65L102.57 121.45L104.13 123.64L102.69 122.63L101.63 120.05L100.09 119.85L99.21 120.31L99.83 121.22L97.38 121.63L96.47 119.72L95.24 120.94L94.6 120.66L95.89 118.85L94.76 118.7L92.68 119.86L92.13 119.45L90.65 121.11L89.43 121.49L87.49 123.6L87.44 124.1L86.77 124.13L86.03 125.22L85.3 124.09L85.35 123.06L83.97 122.47L83.08 121.67L82.58 119.32L79.68 116.68L80.12 115.6L78 115.18L77.28 114.44L77.25 113.34L76.35 112.2L76.33 111.48L74.29 112.06L73.54 113.07L73.02 111.53L71.94 112.71L70.58 112.6L68.9 113.85L67.64 114.04L66.69 112.58L65.22 113.08L65.4 113.79L64.1 115.03L64.87 116.6L64.17 116.91L64.23 118.76L63.37 118.25L62.29 119.19L62.4 118.36L60.76 117.47L59.04 117.57L58.27 116.94L57.32 118.71L56.47 119.65L55.17 119.48L54.61 117.54L53.1 117.26L52.36 118.24L51.6 117.9L50 118.07L49.39 118.25L48.6 119.58L45.43 118.56L43.48 119.63L42.66 120.39L40.17 120.48L39.16 121.22L39.67 122.76L41.57 123.13L40.99 123.28L39.79 123.04L39.29 122.42L36.81 122.46L35.66 123.47L35.1 124.55V125.87L34.57 128.17L35.35 129.82L35.28 131.4L36.55 131.29L37.37 130.4L38.65 131.06L41.86 129.55L43.36 128.9L44.03 129.12L46.29 128.19L44.09 129.43L43.33 130.17L42.87 131.47L44.84 131.49L46.58 130.4L47.4 130.33L46.2 131.2L46.39 131.84L47.64 132.11L44.99 133.27L43.94 133.31L42.73 132.71L41.69 133.15L40.46 132.64L39.01 133.87L40.22 134.99L40.51 136.15L41.21 136.47L41.95 134.85L42.71 134.77L46.54 136.29L47.25 137.75L46.72 140.07L45.11 139.4L40.91 140.21L38.79 140.94L36.55 141.06L36.94 142.46L40.55 143L41.76 143.38L43.69 144.88L44.84 146.9L45.48 148.95L44.69 150.01L44.9 150.8L46.63 150.71L47.48 151.08L49.29 150.89L49.94 150.22L50.01 148.92L51.19 148.09L49.68 146.83L50.53 147.1L51.51 148.47L52.99 149.02L54.6 148.74L54.22 147.72L55.29 146.93L56.46 149.48L57.98 150.86L59.83 151.11L60.51 150.67L61.87 151.61L65.28 152.06L65.65 150.63L65.14 149.92L65.63 148.94L65.37 149.87L65.82 150.57L65.55 152.02L66.15 152.99L67.25 154.45L68.84 154.31L69.85 152.78L69.31 151.8H69.61L69.98 152.81L71.02 151.95L71.21 150.97L71.5 151.49L70.03 153.79L73.18 156.34L73.6 157.12L75.27 158.03L76.02 159.26L77.39 158.76L79.05 159L79.98 157.08V158.51L81.85 157.19L83.85 157.27L85.33 158.1L85.06 160L83.78 160.2L83.11 159.62L81.61 160.52L82.15 161.68L83.42 162.14L85.09 161.4L86.26 161.81L86.65 160.92L87.62 161.43L89.77 160.68L92.58 161.79L91.51 162.15L90.7 163.07L91.65 163.48L92.82 163.09L95.12 162.96L95.56 161.04L99.05 161.68L99.09 160.8L100.42 160.39L100.47 158.97V156.84L101.68 155.66L102.54 155.56L103.49 154.55L104.42 154.82L106.19 154.07L109.44 154.36L111.68 153.53L111.95 152.16L112.76 151.57L114.32 151.25L115.83 150.48L115.5 149.54L117.71 149.67L118.38 150.68L121.27 151.55L121.46 150.34L122.66 148.24L123.47 144.71L124.66 143.82L126.54 143.69L126.76 140.92L126.08 140.14Z M75.97 168.24L76.51 169.28L74.16 168.79L72.99 168.96L72.03 166.89L72.32 165.72L74.49 166.53L74.84 167.57L75.96 168.24ZM26.97 126.12L26.72 127.37L28.07 126.91L27.94 125.77L26.97 126.12Z"/>
  <path id="R_27" class="cls-1" d="M325.34 159.73 324.83 158.22 322.97 157.99 323.23 156.13 323.85 155.42 323.42 154.15 323.66 153.56 323.03 152.83 321.24 151.76 319.45 151.27 318.99 149.87 318.44 150.23 317.49 148.9 316.35 148.45 314.08 146.92 313 145.45 312.21 145.81 311.56 146.97 310 147.6 308.87 145.47 307.23 144.78 306.19 145.24 305.09 145.1 304.13 145.87 302.25 144.94 302.13 143.17 300.98 142.96 299.21 143.37 298.37 145.02 297.03 144.16 295.5 146.12 294.68 146.85 293.96 148.19 292.48 148.55 291.75 150.07 290.94 149.86 290.41 151.47 291.16 151.88 290.73 153.11 290.71 154.89 288.46 155.37 287.74 154.08 286.84 155.29 283.81 155.3 283.02 157.8 282.57 158.27 281.36 157.71 280.14 158.82 279.04 156.46 278.11 156.03 276.99 156.21 275.02 155.23 275.25 154.53 273.18 154.7 272.88 152.09 271.87 151.54 273.54 150.58 272.76 148.28 271.58 146.47 270.81 146.36 270.09 144.86 268.69 144.69 268.73 143.13 267.76 143.26 266.65 142.68 265.89 142.87 264.51 142.27 263.58 142.38 262.53 143.18 263.13 144.46 260.36 145.02 259.62 144.58 258.06 145 257.09 144.79 256.61 146.13 255.46 145.96 254.91 145.3 253.53 144.88 252.22 146.04 251.64 145.46 250.78 145.97 247.06 145.67 247.35 144.31 245.78 144.02 246.27 142.82 245.09 141.81 244.6 139.52 243.09 138.35 241.33 138.33 240.66 136.66 239.06 136.51 240.2 135.16 240.25 133.93 239.36 132.49 237.33 130.02 236.01 129.75 235.14 129.11 233.9 129.66 231.93 129.44 231.14 130.04 229.43 129.69 228 129.91 226.22 130.23 225.39 132.16 226.08 133.47 225.15 135.76 224.32 135.98 223.45 137.44 225.33 138.17 226.24 140.78 227.34 141.45 228.1 143.74 227.58 145.36 225.3 146.89 225.29 147.97 225.83 149.11 225.35 149.55 225.59 151.2 224.74 151.21 223.43 152.04 221.5 152.1 221.32 153.73 223.16 154.98 223.89 156.31 223.35 156.99 223.55 158.03 224.44 159.08 224 159.51 222.91 159.2 221.51 159.73 221.94 160.85 223.34 163.73 223.05 164.82 221.84 167.28 224.36 169.89 224.5 171.36 225.7 174.98 225.55 177.31 226.84 178.51 226.57 180.41 226.92 181.26 226.24 182.84 226.56 183.53 226.7 184.87 225.79 186.92 226.22 188.25 228.16 189.33 229.1 190.63 230 191.06 231.57 189.74 232.29 189.74 232.78 190.72 233.96 190.64 234.31 189.87 235.62 189.87 236.13 192 236.9 191.71 238.42 190.11 240.39 188.54 240.23 188.85 241.38 191.29 242.01 191.68 242.44 193.48 242.96 193.73 243.48 196.14 246.12 196.97 246.15 197.79 247.4 197.56 248.59 198.2 249.41 198.66 249.51 199.53 248.89 201.04 249.24 202.01 249.05 203.87 247.05 204.75 246.99 205.36 247.21 205.9 246.76 207.53 248.59 207.94 249.16 209.1 250.11 209.11 251.98 208.09 252.7 208.84 253.8 208.97 254.48 208.23 255.44 208.45 256.34 209.56 258.32 208.09 258.93 207.34 259.19 205.06 259.88 204.41 261.38 204.93 261.76 205.67 263.77 205.61 265.05 204.45 266.05 204.35 266.73 205.05 266.68 206.24 267.43 206.87 267.26 208.76 268.51 208.86 269.26 206.11 270.25 203.58 270.42 202.1 271.15 200.86 271.3 199.36 271.79 198.12 272.3 196.91 274.03 197.07 275.22 197.98 277.32 197.11 278.79 197.14 279.13 198.54 280.56 199.24 281.47 199.31 281.43 200.6 283.11 201.59 283 202.66 284.23 202.82 284.56 203.97 285.49 203.96 285.06 205.32 286.37 205.77 287.68 204.76 288.49 204.58 289.45 203.22 290.61 204.12 291.34 204.22 291.6 205.89 292.6 205.63 294.07 205.86 296.09 205.07 296.88 204.18 297.92 202.29 299.88 200.39 300.42 199.44 300.12 198.68 302.11 195.8 301.69 195.37 301.07 194.75 304.86 191.13 308.67 188.36 309.48 187.15 308.93 186.66 309.55 184.9 309.66 183.53 308.89 182.17 310.68 180.8 313.8 179.64 314.3 178.79 315.81 177.76 315.33 177.2 316.41 175.75 318.51 174.42 318.94 173.41 321.65 170.86 321.3 169.29 322.95 168.71 323.82 167.84 323.92 166.63 322.73 166.47 319.81 166.92 319.91 166.24 321.28 164.85 321.26 163.99 322.7 163.34 322.33 161.8 323.34 161.44 324.67 161.98 325.93 161.48 326.22 160.68 325.34 159.73z"/>
  <path id="R_24" class="cls-1" d="M227.58 145.36 228.1 143.74 227.34 141.45 226.24 140.78 225.33 138.17 223.45 137.44 221.75 137.71 220.63 138.68 219.66 137.3 217.84 138.86 216.82 139.01 216.2 138.34 213.33 138.84 211.84 138.36 213.35 136.15 212.94 134.69 210.84 133.65 210.41 131.67 209.61 132.11 208.21 131.32 207.15 131.88 205.63 130.78 204.52 132.49 201.86 132.6 200.43 132.92 199.58 132.11 200.26 130.09 200.02 128.79 199.08 127.94 198.67 126.63 198.24 127.27 196.84 127.04 195.74 126.25 195.36 125.39 195.11 124.08 195.38 123.09 194.75 122.43 193.47 122.19 193.61 120.89 192.42 120.87 191.8 119.72 190.87 119.05 191.08 118.11 190.37 117.52 191.41 115.86 190.38 115.18 190.57 113.33 190.38 111.84 189.29 109.46 188.39 108.74 187.08 109.35 187.64 110.34 187.32 111.32 186.03 111.72 184.93 112.82 185.35 114.27 184.14 115.44 183.39 115.16 180.12 115.11 179.04 114.61 178.92 115.97 177.68 115.5 176.53 116.61 175.26 116.71 174.21 117.34 173.13 117.1 172.78 118.12 171.61 118.79 171.8 121.05 172.9 122.34 174.32 122.87 174.29 123.67 175.35 124.19 174.99 125.8 174.88 128.69 173.88 129.85 171.93 130.88 170.9 130.95 170.2 132.41 171.19 132.75 170.94 133.85 171.97 135.68 171.2 136.3 172.24 137.36 173.32 137.5 174.05 138.45 172.48 138.55 172.26 139.65 172.3 140.76 171.34 140.8 171.13 141.7 172.24 142.72 171.85 144.09 172.36 145.56 171.65 145.82 170.27 147.14 170.48 149.58 169.12 151.05 166.58 153.42 166.72 154.55 166.2 155.36 163.88 156.35 162.97 156.38 162.02 157.26 161.06 156.41 160.61 157.17 161.54 158.75 160.95 159.11 159.58 158.14 157.32 157.66 157.44 158.74 156.59 160.03 157.08 161.52 156.12 163.28 156.16 165.85 155.3 167.17 154.57 167.64 153.72 169.28 153.47 171.69 153.49 171.89 153.02 173.68 153.61 175.15 154.93 175.23 156.79 177.68 157.66 177.04 158.16 177.92 159.28 178.58 158.99 180.62 159.65 182.06 160.61 181.43 162.42 182.11 164.05 181.02 166.32 181.15 165.72 180.18 166.13 179.35 168.57 180.48 168.92 183.06 170.11 184.58 171.45 185.7 171.58 187.04 172.9 188.59 173.76 189.22 174.3 190.3 173.75 191.1 174.08 192.06 173.55 192.85 174.08 193.99 175.9 195.08 176.64 196.1 178.34 196.08 179.78 197.34 179.45 198.45 179.83 199.18 181.35 199.79 180.47 201.53 181.47 202.09 183.73 201.87 184.56 200.91 186.08 202.29 186.28 202.83 188.98 200.02 189.49 201.11 190.82 200.27 191.8 201.48 192.84 200.32 193.47 201.2 194.48 200.77 194.41 199.19 195.64 199.02 196.14 199.85 200.4 199.87 202.34 200.25 204.67 200.11 207.44 200.24 208.04 198.29 209.57 196.76 211.48 196.67 212.37 196.26 213.69 196.72 215.5 195.59 215.2 194.03 214.68 193.63 215.07 192.21 217.14 190.14 217.8 188.92 219.5 189.63 219.96 189.11 221.24 189.36 222.09 187.81 224.03 186.6 225.79 186.92 226.7 184.87 226.56 183.53 226.24 182.84 226.92 181.26 226.57 180.41 226.84 178.51 225.55 177.31 225.7 174.98 224.5 171.36 224.36 169.89 221.84 167.28 223.05 164.82 223.34 163.73 221.94 160.85 221.51 159.73 222.91 159.2 224 159.51 224.44 159.08 223.55 158.03 223.35 156.99 223.89 156.31 223.16 154.98 221.32 153.73 221.5 152.1 223.43 152.04 224.74 151.21 225.59 151.2 225.35 149.55 225.83 149.11 225.29 147.97 225.3 146.89 227.58 145.36z"/>
  <path id="R_84" class="cls-1" d="M327.21 235.84 325.52 234.89 325.23 233.69 323.96 233.55 323.99 232.73 322.75 232.43 322.6 229.98 322.23 229.5 322.73 227.77 321.93 227.22 320.67 227.3 320.34 226.34 318.99 225.94 318.09 224.71 317.92 222.87 318.39 220.81 319.57 221.11 322.57 219.63 322.96 218.48 323.77 217.73 323.24 215.74 322.42 214.91 321.55 213.34 320.84 212.88 320.01 213.54 319.94 211.68 320.23 210.76 318.23 210.53 317.63 209.65 318.15 208.63 317.95 207.93 319.42 205.22 317.24 202.83 317.9 201.38 315.84 200.69 313.92 200.77 311.61 201.15 310.85 200.8 309.92 201.83 308.43 202.41 307.74 203.07 306.84 202.12 305.7 202.16 304.62 203.63 304.15 205.38 304.7 206.19 305.52 205.76 305.51 207.16 304.03 207.83 301.62 210.11 299.71 209.76 299.18 210.29 298.15 210.02 297.24 210.43 298.15 208.57 297.42 208.15 299.16 206.72 301.31 206.15 300.81 205.04 302.43 202.12 300.7 200.67 299.88 200.39 297.92 202.29 296.88 204.18 296.09 205.07 294.07 205.86 292.6 205.63 291.6 205.89 291.34 204.22 290.61 204.12 289.45 203.22 288.49 204.58 287.68 204.76 286.37 205.77 285.06 205.32 285.49 203.96 284.56 203.97 284.23 202.82 283 202.66 283.11 201.59 281.43 200.6 281.47 199.31 280.56 199.24 279.13 198.54 278.79 197.14 277.32 197.11 275.22 197.98 274.03 197.07 272.3 196.91 271.79 198.12 271.3 199.36 271.15 200.86 270.42 202.1 270.25 203.58 269.26 206.11 268.51 208.86 267.26 208.76 267.43 206.87 266.68 206.24 266.73 205.05 266.05 204.35 265.05 204.45 263.77 205.61 261.76 205.67 261.38 204.93 259.88 204.41 259.19 205.06 258.93 207.34 258.32 208.09 256.34 209.56 255.44 208.45 254.48 208.23 253.8 208.97 252.7 208.84 251.98 208.09 250.11 209.11 249.16 209.1 248.59 207.94 246.76 207.53 247.21 205.9 246.99 205.36 247.05 204.75 249.05 203.87 249.24 202.01 248.89 201.04 249.51 199.53 249.41 198.66 248.59 198.2 247.4 197.56 246.15 197.79 246.12 196.97 243.48 196.14 242.96 193.73 242.44 193.48 242.01 191.68 241.38 191.29 240.23 188.85 240.39 188.54 238.42 190.11 236.9 191.71 236.13 192 235.62 189.87 234.31 189.87 233.96 190.64 232.78 190.72 232.29 189.74 231.57 189.74 230 191.06 229.1 190.63 228.16 189.33 226.22 188.25 225.79 186.92 224.03 186.6 222.09 187.81 221.24 189.36 219.96 189.11 219.5 189.63 217.8 188.92 217.14 190.14 215.07 192.21 214.68 193.63 215.2 194.03 215.5 195.59 213.69 196.72 212.37 196.26 211.48 196.67 209.57 196.76 208.04 198.29 207.44 200.24 207.59 201.56 208.21 201.81 208.26 203.28 209.32 203.68 210.01 203.37 212.06 204.99 212.52 206.27 213.16 206.68 213.49 208.57 214.24 208.94 214.39 210.05 214.03 212.04 214.58 213.44 215.3 213.93 215.07 215.22 215.4 216.27 214.47 216.57 212.6 219.86 210.05 221.15 211.1 222.51 211.18 223.17 212.6 224.29 213.32 225.21 213.49 226.23 213.13 227.73 212.46 227.68 211.9 229.29 213.18 230.72 213 233.34 212.49 235.45 213.36 236.72 211.36 236.62 209.88 235.61 209.21 238.52 208.3 238.79 207.16 239.91 206.43 241.33 205.24 242.23 205.72 244.86 204.8 247.14 204.08 246.96 202.9 248.01 204.02 249.76 203.83 250.44 202.11 250.76 202.44 252.2 203.22 253.04 202.66 253.92 204.77 257.18 204.32 258.46 204.35 260.31 204.95 261.17 204.71 262.42 205.64 263.19 205.67 262.22 207.57 261.44 208.49 261.35 209.15 262.31 209.88 262.02 212.01 262.25 212.8 260.67 214.17 259.52 214.37 257.6 215.24 257.07 215.34 255.36 215.95 254.36 216.53 254.44 217.24 253.15 218.09 252.41 218.6 252.01 220.24 254.31 221.38 254.37 222.31 257.25 223.39 257.51 223.13 259.3 223.53 261.06 224.56 262.19 225.77 258.58 226.19 258.08 226.19 256.7 227.33 254.94 227.53 253.93 228.5 253.32 229.66 254.69 230.75 253.79 230.98 252.31 231.99 252.49 233.84 250.94 234.86 251.44 235.04 252.79 236.15 255.77 237.41 256.01 238.91 255.67 239.62 254.83 240.75 254.19 241.47 254.98 241.29 255.86 243.18 255.55 244.73 257.96 246.08 258.78 246.31 261 246.87 262.01 246.86 263.2 247.58 264.69 248.19 264.65 249.12 267.08 249.4 268.53 250.55 269.43 250.48 270.78 251.25 273 252.54 272.7 252.93 273.54 254 274 255.43 275.08 256.13 274.96 256.49 273.48 257.4 272.68 259.27 272.8 259.3 274.4 260.41 274.1 260.8 272.57 261.81 272.62 263.06 273.85 264.9 274.5 265.31 275 265.34 272.97 267.08 273.08 268.09 273.14 269.1 273.86 269.09 275.04 269.61 276.43 270.95 275.3 272.24 275.28 273.19 274.69 273.39 274.09 271.97 273.69 271.18 273.86 270.69 272.45 271.61 271.44 271.89 270.31 273.16 269.55 274.33 270.83 274.49 271.91 273.56 274.24 273.62 274.48 275.36 273.71 275.75 274.54 276.55 274.66 277.53 273.97 278.17 276.69 279.7 276.95 280.15 276.38 281.3 277.1 282.57 276.94 283.27 277.36 283.24 278.93 284.04 278.95 284.99 280.15 286.07 280.27 287.12 279.68 287.95 277.87 288.77 277.72 290.46 279.24 290.4 277.7 290.66 275.15 289.68 275.12 288.92 272.89 285.92 272.72 284.69 271.22 284.59 269.43 285.43 269.86 285.06 267.22 286.36 267.44 288.63 268.33 289.35 267.08 288.71 264.81 289.75 263.06 289.56 261.97 291.61 262.35 292.3 261.65 293.2 261.89 294.16 260.59 293.46 260.06 294.14 258.83 297.12 258.24 298.4 256.15 299.05 255.54 299.69 256.3 301.5 254.69 304.39 255.04 305.75 254.34 307 254.96 307.06 251.97 306.38 251.75 305.61 249.82 304.57 250.08 303.28 249.52 303.91 246.26 304.68 245.56 305.48 246.19 306.48 245.7 308.01 247.81 310.21 248 310.08 246.82 311.39 246.53 312.4 245.69 313.71 246.17 315.69 244.94 316.36 245.19 317.12 244.44 319.19 245.5 320.19 245.1 320.13 244.22 321.32 244.04 321.92 242.8 324 242.15 324.37 242.63 326.05 241.13 326.05 240.19 325.45 238.63 326.65 237.48 327.21 235.84z"/>
  <path id="R_28" class="cls-1" d="M195.01 95.57 195.05 94 194.69 92.78 193.58 91.24 193.88 90.15 195.09 88.82 194.45 88.07 193.97 85.52 193.19 85.11 193.09 84.02 193.77 83.18 193.44 82.32 193.83 81.35 193.55 79.15 195.32 78.1 194.07 75.99 193.88 74.99 192.72 72.03 190.7 70.89 190.17 69.92 187.19 67.29 187.36 66.54 185.42 66.44 184.42 67.02 180.89 70.13 178.61 71.35 176.77 72.09 175.07 72 173.66 72.7 170.37 73.78 169.05 73.74 165.91 74.53 164.51 75.54 160.67 77.74 159.53 78.72 156.72 79.79 155.73 80.79 154.85 83.68 153.61 86.32 153.41 87.59 153.94 88.29 154.49 88.93 157.51 89.63 158.92 90.16 159.99 90.05 158.97 90.46 157.15 90.56 154.94 91.45 153.55 92.86 151.37 94.54 149.45 95.4 146.19 96.01 144.68 95.54 141.99 94.09 138.19 93.61 137.2 93.8 133.25 93.55 130.16 92.65 129.09 91.86 127.16 91.72 125.47 91.98 124.35 93.25 122.89 92.51 123.09 91.13 121.06 88.51 119.88 86.5 119.93 84.86 121.68 83.86 121.39 82.02 120.65 80.98 119.14 80.18 116.59 80.26 115 81.62 112.03 82.4 109.68 81.05 108.63 81.09 107.06 80.56 106.33 79.67 105.52 80.01 104.21 79.44 104.23 81.25 105.92 81.88 106.4 82.52 106.7 84.71 106.31 85.89 105.61 86.42 106.46 87.46 107.15 90.13 107.51 92.63 108.32 92.71 110.77 95.8 111.58 98.24 112.59 98.43 112.7 101.17 112.35 102.67 112.76 105.75 113.66 106.12 113.5 109.32 113.15 111.67 112.55 112.65 113.21 113.14 113.23 115.69 114.24 116.52 114.88 118.03 116.9 118.9 117.17 119.83 116.31 120.51 114.67 120.7 113.32 120.4 114.54 122.6 114.24 123.25 115.3 125.46 116.17 125.52 116.82 126.46 117.91 126.66 118.93 125.47 120.45 124.73 121.17 123.46 124.4 124.27 125.56 124.76 127.2 125.47 128.4 124.45 129.81 125.26 130.68 125.02 131.77 126.13 132.7 126.35 133.22 127.39 134.21 126.88 133.98 126.05 135.62 126 135.72 127.11 137.21 126.15 138.19 126.07 139.26 124.74 140.79 124.52 142.71 125.32 143.88 124.23 145.15 124.31 145.78 122.56 146.64 122.76 148.17 124.05 147.5 124.99 148.07 126.59 149.06 126.99 150.47 126.89 150.37 129.42 151.79 128.9 152.27 129.48 154.43 127.57 155.45 127.36 155.92 126.4 158.98 125.82 159.4 126.06 160.58 126.86 161.37 131.65 163.79 133.04 165.07 134.26 166.69 134.53 167.65 133.78 168.5 134.61 169.39 136.17 170.26 136.83 171.2 136.3 171.97 135.68 170.94 133.85 171.19 132.75 170.2 132.41 170.9 130.95 171.93 130.88 173.88 129.85 174.88 128.69 174.99 125.8 175.35 124.19 174.29 123.67 174.32 122.87 172.9 122.34 171.8 121.05 171.61 118.79 172.78 118.12 173.13 117.1 174.21 117.34 175.26 116.71 176.53 116.61 177.68 115.5 178.92 115.97 179.04 114.61 180.12 115.11 183.39 115.16 184.14 115.44 185.35 114.27 184.93 112.82 186.03 111.72 187.32 111.32 187.64 110.34 187.08 109.35 188.39 108.74 187.65 107.48 187.8 105.99 187.32 105.56 188.88 103.99 191.01 103.64 192.17 101.68 192.66 98.62 193.35 97.87 193.53 96.66 195.75 96.33 195.01 95.57z"/>
  <path id="R_93" class="cls-1" d="M340.25,281.49l-1.18-1.72,.3-1.55-.95-.05-.61,.94-1.2-.1-1.61,.36-1.81,1-1.66-.14-.44-.96-1.91-.1-1.02-.72-.84-1.06-1.1-.05-1.6-1.02-.92,.23-.78-.44-.27-1.27-1.88-2.63-.77-.31,.19-1.96,1.12-.37-1.95-2.51-.15-.95,1.84-1.52,.57-1.54-.14-1.21,.93-1.15,1.04-.1,.34-.97-.47-1.68-.59-.74,.49-.84-.39-.91-1.77-.72-.46,.55-1.15-.18-2.78-1.89,.32-2.1-.94-1.88h-1.22l-.37-1.71-.75-1.35-1.31-.48-1.01,.84-1.31,.29,.13,1.18-2.2-.19-1.53-2.11-1,.5-.8-.63-.76,.69-.64,3.26,1.3,.56,1.04-.26,.76,1.93,.69,.21-.07,2.99-1.25-.62-1.36,.7-2.89-.34-1.81,1.61-.64-.77-.65,.61-1.28,2.09-2.98,.59-.68,1.23,.7,.53-.96,1.3-.9-.25-.69,.7-2.05-.38,.19,1.09-1.03,1.75,.64,2.27-.72,1.25-2.26-.89-1.3-.23,.36,2.64-.83-.43,.1,1.79,1.23,1.51,3,.16,.76,2.23,.97,.03-.26,2.55,.06,1.54-1.69-1.52-.82,.15-.82,1.8-1.06,.6-1.08-.12-.95-1.21-.8-.02,.03-1.56-.7-.42-1.27,.16-1.15-.72-.45,.57-1.53-.26-.64-2.72-.98,.69-.81-.12-.39-.82-1.73,.76-.44,.22-.95,.59h-1.29l-1.34,1.15-.52-1.39v-1.18l-1-.72-1.01-.05-1.74-.11-.03,2.03,.69,1.21-.09,.69,.64-.05,.44,2.57-.32,1.11,.44,.98,.84-.29,.93,1.36,1.21,1.78-.76,1.05-1.84,1.38-.73,.88-1.65,1.04,.24,2.82-.97,2.02,.36,1.12-.7,.17-1.48-.69-1.26,.28-1.45,2.47-.04,1.39-1.3,1.19-1.93,1.18-1.2,.43-.34,1.39,3.59,.26,3.52-.05,1.61,.94,.24,.68-.86,.63,.74,1.01,1.75,.36,2.63-.09,1.86,.75,.86-1.02-.78-.74,.21-.74,1.77-1.08,.99,.39,.08,.68,1.93,2.52,.83-.2,3.32,.14,1.42-.85,.76-.2,.78,.78,.4,.71v.67h.29l-.06,.05h-.34l-.21,.36,.62,.82-.82,1.47,1,.16,1.88-.02,1.26,.41,.71-.44,.76,1.23,.84,.41,.44-.78,1.2,.21,.59,1.14,.73,.29,1.09-.08,.9,.78-.23,1.56,1.54,.67,1.14-1.71-.53-.57,.04,.03,1.01,.39,1.23-.07,1.76,.92,.74-.27,1.07,.33,1.85-1.27,1.73-.19,1.33,.95,.93,.1,.1-1.54,2.38-.71,.7,.2,1.65-1.27,.8,.14,.65,.78,1.08-1.68v-1.04l-.52-1.05-1.22,.38-.21-.57,2.02-1.18,.34-.9,.77-.16,.53-2.08,1.28-.04,1.77-.75,.73,.11,.76-.78,.3-.97,.11-1.22,1.12-1.06,1.8-.09,1.69-.73,.07-1.55,.74-1.25h.95l.65-.21,.53-1,1.49-.06,1.2-.98,1.15,.11,1.3-1.39,1.75-.84-.76-2.99,1.53-.92,.25-1.62,1.98-.98,.39-.73-.14-1.05,.94-.49,.35-1.26Zm-63.02,22.98l-1-.03-.89-.12-.17-1.87-1.15-.31-.17-1.12,.38-1.77,.18-.02,.62,1.1,1.4-.07,1.05,2.28,1.35-1.12,.5,.41,.08,.85-2.19,1.8Zm-6.05-30.62l-.49-1.4,.92-1.01,.28-1.13,1.27-.75,1.17,1.27,.16,1.08-.93,2.33-.17-.15-1.42-.39-.79,.16Z"/>
  <path id="R_52" class="cls-1" d="M172.48,138.55l-.22,1.1,.04,1.11-.96,.04-.21,.9,1.12,1.02-.4,1.36,.51,1.48-.7,.25-1.38,1.32,.21,2.44-1.36,1.48-2.54,2.37,.14,1.13-.52,.81-2.32,.98-.91,.03-.95,.88-.96-.85-.45,.76,.93,1.58-.59,.36-1.38-.97-2.25-.48,.11,1.08-.84,1.28,.49,1.49-.96,1.76,.03,2.57-.85,1.32-.73,.47-.86,1.64-.24,2.41v.19l-.46,1.79-.85-.4-1.29,1.73-.26,1.24-1.01-.26-.41,1.28-.65,.38-.92-.96-1.8-.87-2.44,.64-1.37-.11-.12,.7-2.03,.15-.2-.58-1.66,.76-.04,1.15-.63,.84-.8,.46-1.24-.27-1.06,.54-1.78-.69-2.55,1.05,.27,1.05,1.23,.55,.37,1.87,.83,1.28,1.74,.77-.24,2.35,1.56,1.97,.46,1.32-.28,.58,.84,.96,.29,3.09-.57,1.3,.36,2.97,1.79,.94-.53,.9-1.06,.05-.99,1.42-1.31-.2-1.3,.74-2.21-1.25-2.28,.96-.61-.38,.6-1.3-2.04,.25-1.48,1.19-1.25,.32-.84-.5-.94,.29-.14,1.17-.6,.25-1.74-1.59-1.26-.89-2.69,.11-.97-2.01-2.91-.52-2.2-1.59-1.67-1.25h-.73l-1.06-4.05-1.03-1.17-1.15-1.88-2.76-2.88-2.05-1.57-.31-2.47,.84-.15,.31-.9,1.22-1.22,.73-2.08,1.17-.69-.57-1.12-1.23-1.22-4.59-1.36,.48-.77,1.35-.49,.17-1.57-.21-2.05,2.72-.53,1.14-.53-.61-.65-2.6,.55-3.14,2.19-.8,.08-1.33-1.28-.81-.31-.75,.81-3.06-1.18,1.11-.94-.77-2.38,1.52-1.2,.3-1.13,1.17-.39,2.3-.13,.44-1.92,3.49,.64,.04-.88,1.33-.41,.05-1.42v-2.13l1.21-1.18,.86-.1,.95-1.01,.93,.27,1.77-.75,3.25,.29,2.24-.83,.27-1.37,.81-.59,1.56-.32,1.51-.77-.33-.94,2.21,.13,.67,1.01,2.89,.87,.19-1.21,1.2-2.1,.81-3.53,1.19-.89,1.88-.13,.22-2.77-.68-.78-.62-4.06-.62-2.49,1.32-2.25-.17-1.89-.66-1.34,.37-1.82-.13-1.53,1.64,.72,1.2-1.02,1.41,.81,.87-.24,1.08,1.12,.93,.21,.52,1.05,.99-.51-.23-.83,1.64-.05,.1,1.12,1.49-.97,.98-.08,1.07-1.32,1.53-.22,1.93,.8,1.17-1.1,1.27,.08,.63-1.75,.86,.2,1.53,1.28-.67,.94,.57,1.6,.99,.4,1.41-.09-.09,2.53,1.41-.51,.48,.58,2.16-1.92,1.02-.21,.46-.95,3.07-.59,.41,.24,1.18,.8,.79,4.79,2.42,1.39,1.28,1.22,1.62,.27,.96-.76,.85,.83,.89,1.56,.87,.66,.94-.53,1.05,1.06,1.07,.14,.73,.95-1.56,.1Zm-75.06,40.6l-.83-.54-1.12,.08v1.26l.84,.92,1.95,.1-1.21-.71,.38-1.12Zm-4.18,10.8l1.21,.61,.6-.95-1.51-.47-.29,.8Z"/>
  <path id="R_75" class="cls-1" d="M212.6 219.86L210.05 221.15L211.1 222.51L211.18 223.17L212.6 224.3L213.32 225.22L213.5 226.24L213.14 227.73L212.46 227.68L211.9 229.29L213.18 230.71L213 233.34L212.49 235.44L213.37 236.71L211.37 236.61L209.89 235.6L209.22 238.51L208.31 238.78L207.18 239.9L206.45 241.33L205.26 242.22L205.73 244.85L204.81 247.13L204.09 246.96L202.91 248.01L204.03 249.76L203.84 250.44L202.12 250.76L201.69 250.51L199.13 250.92L198.34 250.7L197.83 251.46L196.47 251.91L196.3 252.44L194.58 252L192.09 249.08L189.36 248.41L187.11 249.29L186.15 249.72L186.28 250.85L186.95 252.75L186.47 253.52L186.97 254.14L185.1 255.29L185.07 256.44L183.53 256.92L184.03 258.18L183.9 258.89L182.78 259.52L181.67 260.82L179.77 261.28L179.87 262.58L178.02 264.49L176.51 265.9L176.72 268.97L177.59 269.62L177.75 271.3L177.66 271.73L174.97 271.95L174.23 271.1L173.44 271.78L173.65 272.41L173 273.67L174.99 274.84L173.83 277.74L172.77 277.65L173.47 279.15L173 279.91L171.23 279.28L171.15 280.19L170.2 280.65L169.89 282L167.7 282.76L166.25 281.52L164.92 282.41L164.26 282.08L162.99 282.33L162.57 283.23L161.1 283.93L160.48 283.69L159.16 284.51L156.39 283.7L155.14 285L153.61 284.78L153.11 285.66L153.59 287.1L152.57 287.6L151.26 286.61L151.89 285.72L150.67 285.45L149.24 286.68L148.68 286.13L147.42 286.4L146.62 287.21L146.28 287.86L147.2 288.73L146.98 290.68L146.4 291.11L147 293.13L145.7 294.07L145.89 295.35L145.04 297.21L145.81 298.26L147.43 297.86L147.78 298.37L149.38 298.35L149.62 299.7L150.68 300.35L150.14 302.35L150.1 304.14H150.69L151.34 303.01L151.98 303.74L151.63 305.3L152.44 306.28L152.05 306.92L151.12 306.85L150.66 307.75L151.29 308.88L150.64 310.07L149.93 310.45L150.08 311.97L148.9 311.9L148.17 313.61L146.92 314.55L147.09 316.18L146.28 316.77L145.39 316.62L144.73 317.71L144.94 319.82L143.84 321.12L144.11 322.92L143.24 323.39L142.27 324.54L140.99 324.66L139.32 323.72L138.9 324.74L137.11 324.34L137.06 323.55L135.75 322.58L135.18 321.79L133.98 321.39L133.87 319.68L133.39 318.99L131.95 319.51L128.63 319.38L126.99 318.12L125.58 317.93L124.6 317.16L122.86 316.74L121.71 316.05L121.3 316.47L118.91 314.77L118.63 316.91L116.6 316.34L115.83 315.16L117.18 313.6L117.57 311.85L117.94 311.58L117.99 309.43L117.25 308.72H115.89L114.99 308.05L113.62 308.21L113.33 309.41L112.51 309.39L111.96 308.38L112.11 307.69L110.98 307.34L109.47 307.85L109.28 306.84L108.13 306.12L108.3 305.43L111.6 304.23L112.45 303.53L113.91 301.28L114.52 300.09L116.38 296.32L116.9 292.94L117.97 288.1L119.61 279.8L120.63 272.74L121.14 268.24L121 265.61L121.67 264.77L122.34 263.22L122.61 261.71L125.29 262.29L127.2 261.82L126.45 260.47L123.4 257.69L123.03 258.73L122.01 259.93L121 261.76L121.67 256.52L122.12 252.66L123.34 240.05L123.59 233.23L125.14 230.36L126.29 231L125.68 232.05L127.86 234.02L129 234.68L132.16 238.01L133.76 242L134.93 241.75L134.49 238.59L133.39 235.29L132.91 234.39L130.88 232.12L129.87 231.6L129.33 230.8L128.43 230.69L126.58 228.44L124.6 227.48L122.24 225.77L121.61 225.86L121.48 222.62L122.77 222.46L124.12 221.86L123.59 219.91L124.77 219.76L125.54 218.18L125.78 216.74L125.12 215.33L126.06 214.96L125.82 213.46L125.18 213.17L124.83 211.75L123.71 210.41L121.72 209.74L122.48 207.6L123.97 206.14L124.64 205.88L124.2 204.14L125.45 203.82L126.93 202.63L128.97 202.38L128.37 203.68L128.98 204.06L131.26 203.1L133.47 204.35L134.77 203.61L136.08 203.81L137.07 202.39L138.13 202.34L138.66 201.44L136.87 200.5L136.51 197.53L137.08 196.23L136.79 193.14L135.95 192.18L136.23 191.6L135.77 190.28L134.21 188.31L134.45 185.96L132.71 185.19L131.88 183.91L131.51 182.04L130.28 181.49L130.01 180.44L132.56 179.39L134.34 180.08L135.4 179.54L136.64 179.81L137.44 179.35L138.07 178.51L138.11 177.36L139.77 176.6L139.97 177.18L142 177.03L142.12 176.33L143.49 176.44L145.93 175.8L147.73 176.67L148.65 177.63L149.3 177.25L149.71 175.97L150.72 176.23L150.98 174.99L152.27 173.26L153.12 173.66L153.71 175.13L155.03 175.21L156.89 177.66L157.76 177.02L158.26 177.9L159.38 178.56L159.09 180.59L159.75 182.03L160.71 181.4L162.52 182.08L164.14 180.99L166.41 181.11L165.81 180.14L166.22 179.3L168.65 180.44L169 183.02L170.19 184.53L171.52 185.65L171.65 186.99L172.97 188.54L173.83 189.18L174.37 190.26L173.82 191.06L174.15 192.02L173.62 192.8L174.15 193.94L175.97 195.03L176.71 196.05L178.41 196.03L179.85 197.29L179.52 198.4L179.9 199.13L181.42 199.74L180.55 201.48L181.54 202.04L183.8 201.82L184.63 200.86L186.15 202.24L186.35 202.79L189.04 199.98L189.55 201.07L190.88 200.23L191.87 201.44L192.91 200.29L193.54 201.17L194.55 200.74L194.48 199.17L195.72 199L196.21 199.83L200.48 199.85L202.42 200.23L204.75 200.09L207.52 200.22L207.66 201.53L208.28 201.79L208.33 203.26L209.39 203.66L210.08 203.36L212.14 204.97L212.6 206.25L213.24 206.66L213.56 208.55L214.31 208.92L214.46 210.03L214.1 212.02L214.66 213.41L215.38 213.9L215.15 215.2L215.48 216.24L214.55 216.54L212.68 219.84ZM114.88 208.23L113.62 206.87L114.76 206L115.6 206.88L117.09 207.02L116.89 207.85L118.35 207.78L120.05 208.45L120.52 209.39L119.75 210.05L116.03 207.98L114.88 208.22ZM117.23 213.45L117.81 215.19L117.83 216.73L118.92 217.9L120.14 218.64L120.91 219.73L121.27 221.74L122.45 221.03L122.2 220.33L122.66 219.08L121.57 217.63L121.24 215.44L120.03 215.46L117.24 213.44ZM148.27 308.8L148.81 309.82L149.76 308.8L149.04 307.55L149.35 307.41L150.13 306.05L149.43 305.37L149.08 305.48L149.57 306.72L148.9 307.12L149.02 307.43L148.83 307.61L148.27 308.81Z"/>
  <path id="R_44" class="cls-1" d="M351.91 107.42 349.41 106.94 348.43 106.07 346.6 105.49 345.64 104.45 343.94 105.29 342.29 104.15 341.47 104.8 340.6 104.51 339.14 104.83 338.27 104.52 338.08 103.81 336.64 103.56 335.73 102.92 334.71 101.45 334.75 100.25 333.63 99.67 331.69 100.12 331.61 101.13 330.71 101.19 329.92 102.25 328.74 101.7 326.63 102.04 325.29 101.37 324.16 102.34 323.12 99.4 321.15 98.25 320.16 98.7 318.78 98.66 319.35 99.88 318.7 100.89 317.22 100.29 316.34 100.4 315.24 98.42 314.63 96.07 313.36 95.23 312.13 93.49 312.96 92.84 311.8 91.79 311.4 90.3 309.75 89.15 306.47 89.07 305.06 87.69 302.14 87.72 300.76 89.07 299.34 89.79 297.68 89.09 296.98 87.84 295.71 87.94 294.31 87.07 294.31 86.25 292.76 85.47 292.38 86.22 291.01 86.34 290.02 85.85 288.39 87.02 287.41 86.78 285.38 87.93 284.8 87.15 284.41 84.35 283.49 83.41 282.35 82.9 282.01 82.04 280.44 80.44 279.89 80.78 277.94 80.55 276.07 77.84 274.24 77.28 273.67 76.49 272.2 77.01 270.5 76.91 270.79 75.78 270.25 74.13 271.02 72.77 270.91 71.88 270.1 70.86 268.77 70.5 269.97 67.4 269.97 65.38 270.76 65.41 270.82 63.08 269.05 63.16 268.14 63.69 267.8 64.66 266.62 65.28 266.21 68.73 262.66 70.12 261.94 70.94 260.34 71.3 259.2 70.88 257.98 70.73 257.03 70.11 255.14 70.52 254.76 72.1 255.69 72.56 254.57 77.18 255.36 77.81 254.95 79.25 253.97 80.33 252.55 81.12 252.27 82.8 250.68 82.74 250.09 83.31 251.32 85.16 250.71 86.13 251.26 87.13 250.44 87.5 250.36 90.15 250.62 91.37 250.31 93.09 248.5 92.43 247.61 91.29 246.02 92.28 245.93 92.77 243.12 93.55 241.36 94.41 240.73 95.49 241.55 97.69 241.54 98.81 243.3 100.63 240.15 101.04 240 102.22 240.46 103.33 239.37 104.33 239.31 105.09 240.89 105 241.57 105.94 240.64 106.39 240.19 107.81 239.04 108.81 238.86 109.76 237.92 109.81 236.86 112.05 236.87 113.03 235.87 113.54 235.81 114.54 234.71 115.41 236.43 116.25 236.51 118.15 235.83 118.7 238.58 120.63 237.43 121.18 236.38 122.47 236.79 123.23 236.02 124.01 235.64 125.19 234.39 125.88 234.92 126.79 234.61 127.83 235.14 129.11 236.01 129.75 237.33 130.02 239.36 132.49 240.25 133.93 240.2 135.16 239.06 136.51 240.66 136.66 241.33 138.33 243.09 138.35 244.6 139.52 245.09 141.81 246.27 142.82 245.78 144.02 247.35 144.31 247.06 145.67 250.78 145.97 251.64 145.46 252.22 146.04 253.53 144.88 254.91 145.3 255.46 145.96 256.61 146.13 257.09 144.79 258.06 145 259.62 144.58 260.36 145.02 263.13 144.46 262.53 143.18 263.58 142.38 264.51 142.27 265.89 142.87 266.65 142.68 267.76 143.26 268.73 143.13 268.69 144.69 270.09 144.86 270.81 146.36 271.58 146.47 272.76 148.28 273.54 150.58 271.87 151.54 272.88 152.09 273.18 154.7 275.25 154.53 275.02 155.23 276.99 156.21 278.11 156.03 279.04 156.46 280.14 158.82 281.36 157.71 282.57 158.27 283.02 157.8 283.81 155.3 286.84 155.29 287.74 154.08 288.46 155.37 290.71 154.89 290.73 153.11 291.16 151.88 290.41 151.47 290.94 149.86 291.75 150.07 292.48 148.55 293.96 148.19 294.68 146.85 295.5 146.12 297.03 144.16 298.37 145.02 299.21 143.37 300.98 142.96 302.13 143.17 302.25 144.94 304.13 145.87 305.09 145.1 306.19 145.24 307.23 144.78 308.87 145.47 310 147.6 311.56 146.97 312.21 145.81 313 145.45 314.08 146.92 316.35 148.45 317.49 148.9 318.44 150.23 318.99 149.87 319.45 151.27 321.24 151.76 323.03 152.83 323.66 153.56 323.42 154.15 323.85 155.42 323.23 156.13 322.97 157.99 324.83 158.22 325.34 159.73 326.22 160.68 325.93 161.48 326.87 161.97 327.02 163.66 328.51 163.87 328.79 164.44 330.17 163.82 332.19 164.05 333.83 162.54 335.16 161.73 335.39 159.93 337.02 158.85 337.24 157.94 335.57 155.79 335.3 154.24 336.15 153.06 335.7 151.31 336.51 148.85 336.37 147.76 336.94 146.31 337.95 144.38 336.64 142.09 336.87 138.98 338.43 135.95 339.02 135.33 339.7 132.35 340.96 131.34 340.61 129.41 341.16 127.48 341.6 125.35 342.42 124.57 342.26 121.74 343.17 120.14 345.34 118.03 346.25 116.93 346.45 115.6 347.61 115.36 349.65 113.39 350.64 110.41 352 108.14 351.91 107.42z"/>
  <path id="R_11" class="cls-1" d="M238.58 120.63 235.83 118.7 236.51 118.15 236.43 116.25 234.71 115.41 235.81 114.54 235.87 113.54 236.87 113.03 236.86 112.05 234.35 111.24 233.85 109.53 232.66 109.47 231.59 108.87 231.11 107.5 228.99 105.8 229.67 104.68 228.82 103.35 229.05 102.83 226.76 102.16 226.38 102.74 224.39 103.75 222.6 103.36 221.49 103.93 220.35 102.9 219.16 104.19 217.75 104.13 216.05 102.5 215 103.57 212.77 101.98 211.3 101.26 209.69 100.6 209.35 101.05 208.44 99.66 207.57 100.58 206.48 100.89 205.96 99.85 204.69 100.39 204.31 99.68 202.92 99.45 202.55 98.81 200.56 99.99 199.94 99.7 197.7 100.48 195.12 99.63 194.29 99.83 193.35 97.87 192.66 98.62 192.17 101.68 191.01 103.64 188.88 103.99 187.32 105.56 187.8 105.99 187.65 107.48 188.39 108.74 189.29 109.46 190.38 111.84 190.57 113.33 190.38 115.18 191.41 115.86 190.37 117.52 191.08 118.11 190.87 119.05 191.8 119.72 192.42 120.87 193.61 120.89 193.47 122.19 194.75 122.43 195.38 123.09 195.11 124.08 195.36 125.39 195.74 126.25 196.84 127.04 198.24 127.27 198.67 126.63 199.08 127.94 200.02 128.79 200.26 130.09 199.58 132.11 200.43 132.92 201.86 132.6 204.52 132.49 205.63 130.78 207.15 131.88 208.21 131.32 209.61 132.11 210.41 131.67 210.84 133.65 212.94 134.69 213.35 136.15 211.84 138.36 213.33 138.84 216.2 138.34 216.82 139.01 217.84 138.86 219.66 137.3 220.63 138.68 221.75 137.71 223.45 137.44 224.32 135.98 225.15 135.76 226.08 133.47 225.39 132.16 226.22 130.23 228 129.91 229.43 129.69 231.14 130.04 231.93 129.44 233.9 129.66 235.14 129.11 234.61 127.83 234.92 126.79 234.39 125.88 235.64 125.19 236.02 124.01 236.79 123.23 236.38 122.47 237.43 121.18 238.58 120.63z"/>
  <path id="R_32" class="cls-1" d="M255.69 72.56 254.76 72.1 255.14 70.52 252.89 69.72 252.8 68.09 253.37 67.11 254.92 66.47 254.21 63.79 252.54 63.78 253.19 62.81 253.51 60.72 254.84 59.22 253.83 58.36 252.47 58.52 252.34 57.39 250.06 55.26 246.66 56.44 245.54 55.41 243.16 55.64 242.37 57.35 241.47 56.14 241.08 54.78 241.45 54.07 241.35 52.25 239.86 49.94 239.26 50.15 237.75 50.02 237.65 49.12 236.61 48.53 235.65 49.46 234.23 50.16 233.19 49.51 232.01 48.75 231.81 46.19 231 43.98 231.21 42.45 229.61 40.56 228.6 38.64 226.98 39.3 226.44 38.99 223.49 40.47 223.47 40.95 222.81 42.33 221.84 42 220.45 41.46 218.29 38.41 216.95 37.43 216.09 37.75 215.51 35.79 215.35 34.13 215.97 32.6 215.39 30.93 214.7 30.5 213.92 27.03 210.25 28.52 209.14 28.16 206.44 29 203.28 30.33 202.23 30.25 201.53 30.6 198.43 31.17 197.88 31.56 194.94 32.38 193.06 33.78 191.69 35.27 190.28 36.11 191.03 38.08 190.64 40.82 189.86 42.14 190.28 44.45 190.28 46.71 190.45 48.43 189.72 53.69 191.49 54.79 191.82 55.48 189.74 55.06 189.29 58.23 190.61 59.14 191.22 60.56 192.3 60.77 192.63 62.23 190.71 61.82 189.47 60.76 187.94 62.34 187.23 64.73 185.42 66.44 187.36 66.54 187.19 67.29 190.17 69.92 190.7 70.89 192.72 72.03 193.88 74.99 194.07 75.99 195.32 78.1 193.55 79.15 193.83 81.35 193.44 82.32 193.77 83.18 193.09 84.02 193.19 85.11 193.97 85.52 194.45 88.07 195.09 88.82 193.88 90.15 193.58 91.24 194.69 92.78 195.05 94 195.01 95.57 195.75 96.33 193.53 96.66 193.35 97.87 194.29 99.83 195.12 99.63 197.7 100.48 199.94 99.7 200.56 99.99 202.55 98.81 202.92 99.45 204.31 99.68 204.69 100.39 205.96 99.85 206.48 100.89 207.57 100.58 208.44 99.66 209.35 101.05 209.69 100.6 211.3 101.26 212.77 101.98 215 103.57 216.05 102.5 217.75 104.13 219.16 104.19 220.35 102.9 221.49 103.93 222.6 103.36 224.39 103.75 226.38 102.74 226.76 102.16 229.05 102.83 228.82 103.35 229.67 104.68 228.99 105.8 231.11 107.5 231.59 108.87 232.66 109.47 233.85 109.53 234.35 111.24 236.86 112.05 237.92 109.81 238.86 109.76 239.04 108.81 240.19 107.81 240.64 106.39 241.57 105.94 240.89 105 239.31 105.09 239.37 104.33 240.46 103.33 240 102.22 240.15 101.04 243.3 100.63 241.54 98.81 241.55 97.69 240.73 95.49 241.36 94.41 243.12 93.55 245.93 92.77 246.02 92.28 247.61 91.29 248.5 92.43 250.31 93.09 250.62 91.37 250.36 90.15 250.44 87.5 251.26 87.13 250.71 86.13 251.32 85.16 250.09 83.31 250.68 82.74 252.27 82.8 252.55 81.12 253.97 80.33 254.95 79.25 255.36 77.81 254.57 77.18 255.69 72.56z"/>
  <path id="R_ZA" class="cls-1" d="M406.6,52.78l.13,.47-.05,.49-.21,.45-.41,.24-.63,.57-.44,.22-.35,.05-.33,.13h-.35l-.8-.28-.68-.46-.18-.32-.23-1.42,.05-.11,.41-.24,.13-.19,.11-.72,.23-.07,.56-.8,.46-.12,.48,.15,.95,.54,.35,.73,.8,.71Zm6.39-13.86l-.09-.15-.23,.05-.11,.15h-.12l-.29,.19-.47,.24h-.06l-.11,.12h-.06l-.23,.19-.23,.1-.24,.02-.13,.21-.35,.07-.24,.28-.02,.3,.1,.04,.72-.33,.84-.21,.69-.52,.57-.22,.21-.13-.12-.41Zm-4.03,5.95l-.05,.02,.05,.1,.29,.09,.35-.07,.05-.1-.16-.07-.54,.04Zm-1.95-2.78l.39,.28-.57-.15-1.95-.19-1.38,.38-.83,.12-.22-.1-1.36,.34-.46,.38h-.35l-.43,.18-.17,.18-.34,.07-.6,.06-.41,.24-.58,.1-1.17-.27-.23-.26-.46-.04-.12-.16h0l-.72-1.17,.07-.1-.1-1.11,.18-.15-.05-.22,.38-.48v-.71l.24-.27,.21-.11,.35,.04,.21-.26,.34-.12h0l-.16-.13,.07-.67-.38-.43-.11,.05-.33-.15-.24-.26-.4-1.39,.15-.45,.58-.6,.33-.16,.19-.32,.52-.3,.56-.62,.12,.02,.19,.3,.47,.09,.18,.31,.67,.49,.28,.24,.24,.78,.19,.82-.23,1.01v.24l.16,.46,.81,1.07,1.17,.33,.24-.05,.72,.12,1.11,.46,.66,.52,.39,.78,.24,.27,1.1,.52,.61,.09Zm-11.97,.63l.13,.19-.1,.22-.4-.39-.11,.06-.56-.13-.1,.07-.15,.46,.11,.57-.17,.32v.12l.05,.23,.24,.27v.12l-.13,.18,.05,.23,.09,.23,.18,.13v.34l.44,.34-.26,.37v.34l.21,.13,.13,.46-.05,.97,.12,.46-.49,.97-1.39,1.17-.02,.12-.27,.5-.33,.13h-.6l-.29,.21-.23-.05-.32,.35-.69,.18-.34-.09-.1-.71-.22-.41-.21-.1-.78-.86-.16-.83-.45-.54-.16-.33,.11-1.06-.21-.09-.04-.85,.1-.47-.26-.39,.09-.72-.02-.24-.24-.23,.05-.37h0l-.15-.32,.13-.47-.09-.47-.52-.67-.16-.83-.1-.09,.18-.3,.04-.61,.17-.33-.09-.22,.04-.11,.3-.22,.11-.46,.29-.37,.41-.26,.47-.04,.29-.19,.55,.26,.49,.55,.47,.11,.94,.52,.72,.02,.18,.3,.54,.27,.37-.06h.3l.09,.06-.15,.13-.24,.4-.21-.02-.17,.17v.22l.37-.1,.12,.32,.28-.22,.16,.26,.12,.02,.11-.04,.11-.06,.28-.4,.48-.11,.23,.05v.23l.22,.11,.05,.23-.07,.61,.06,.49Zm-1.27-3.79h.18l.05-.05v-.12l-.16-.1-.17,.02-.16,.27,.13-.05,.12,.02Zm.58,16.06l-.07-.09h-.05l-.1,.22h-.05l-.11-.11-.05,.02-.06,.11,.04,.23-.07,.1-.43,.05-.18,.15-.02,.06,.15,.09,.23,.09,.13-.19,.35,.06,.05-.29,.29-.19-.06-.11v-.18Zm-1.81,.47l-.05-.04-.29-.09-.21,.21-.16,.09-.12,.41,.54,.29,.16-.1,.23-.35,.16-.02,.04-.1-.26-.13-.04-.17Z"/>
  <path id="R_ZB" class="cls-1" d="M409 86.85 409.31 86.86 409.47 86.58 409.31 86.12 409.22 85.98 408.93 85.85 408.89 85.69 408.85 85.05 408.39 84.95 408.43 84.64 408.8 84.36 408.79 84.04 408.46 84.05 408.6 83.75 408.33 83.14 408.6 82.52 408.52 82.43 408.07 82.6 407.7 82.26 407.61 82.12 407.78 81.84 407.67 81.53 407.7 81.38 407.47 81.18 406.9 81.27 406.68 81 406.74 80.67 406.46 80.25 406.49 79.94 405.53 79.74 405.68 78.95 405.2 78.51 405.31 78.4 405.64 78.42 406 78.15 406.11 77.84 406.03 77.7 405.6 77.9 404.81 77.77 404.17 78.27 404.01 78.27 403.8 78.01 403.4 77.5 403.61 77.05 404.04 76.89 404.22 76.62 404.86 76.44 405 76.35 405.14 76.06 404.83 75.92 404.65 75.46 404.5 75.41 403.91 75.64 403.82 75.5 403.98 75.21 404.05 75.06 403.6 75.18 403.28 74.82 403.47 74.41 403.31 74.13 403.57 73.73 403.7 73.62 404.2 73.65 404.66 73.87 404.96 74.27 405.46 74.3 405.59 74.22 405.56 73.89 405.78 73.47 405.68 73.01 405.98 72.9 406.4 73.17 406.55 73.1 406.61 72.62 406.37 72.39 405.88 72.29 404.46 73.16 403.81 73.09 403.22 73.41 402.67 74.22 402.44 74 402.22 73.22 401.97 73.01 401.57 72.31 400.81 71.7 400.47 70.8 400.15 70.89 399.84 70.78 399.71 70.32 399.32 70.04 399.32 69.87 398.88 69.73 398.68 69.48 398.4 69.65 398.08 69.59 397.61 69.15 397.14 69.01 396.79 68.69 396.47 68.6 396.13 68.22 394.89 67.71 393.81 67.46 392.99 67.53 392.37 67.66 391.25 68.26 390.97 68.44 390.53 69.15 390.09 70.26 390.19 71.1 390.78 72.12 391.24 72.28 391.57 72.86 392.39 73.68 392.52 74.16 392.4 74.47 392.2 75.44 392.18 75.76 392.94 77.22 393.57 78.15 393.69 78.46 394.12 78.7 394.5 79.23 395.26 79.5 395.81 79.87 396.5 80.82 397.84 80.78 398.11 80.97 398.77 81.06 398.92 80.97 398.88 80.64 399.02 80.55 399.02 80.55 399.61 80.28 399.74 80.38 399.89 80.85 399.68 81.46 400.14 81.92 400.23 82.58 400.69 82.75 400.85 82.74 401.21 83.27 400.93 83.18 400.59 83.64 400.49 83.77 399.33 83.78 398.88 83.56 398.88 83.11 398.27 82.92 397.63 83.66 397.29 83.66 397.13 83.63 396.64 84.1 396.27 84.65 396.17 85.14 396.72 85.47 396.68 85.95 396.99 86.32 396.95 86.98 397.53 87.27 397.78 87.71 398.09 87.82 398.24 87.74 398.5 87.53 398.65 87.06 399.22 86.72 399.7 86.59 401.04 87.08 401.43 86.78 401.52 86.46 401.93 87.1 402.4 86.98 402.82 87.25 403.79 87.39 404.54 87.06 404.86 87.1 404.82 87.42 405.02 87.66 405.38 88.02 406.5 87.04 406.83 87.06 407 87.31 406.92 87.76 406.63 87.74 406.63 88.1 406.42 88.16 406.16 87.91 406.09 88.12 406.3 88.56 405.69 89.44 406.03 89.95 406.11 90.1 406.45 90.49 406.6 90.57 406.94 90.6 407.11 90.57 407.4 90.41 407.79 89.85 408.13 89.86 408.23 89.72 407.94 89.57 407.78 89.27 407.9 89.16 408.36 89.17 408.82 88.49 408.98 87.84 409.31 87.47 408.9 86.99 409 86.85z"/>
  <path id="R_ZC" class="cls-1" d="M409.2 111.57 409.15 111.49 409.09 111.42 409.03 111.39 409.04 111.34 409.03 111.3 408.92 111.21 408.9 111.13 408.74 110.91 408.67 110.74 408.67 110.72 408.65 110.6 408.66 110.58 408.73 110.44 408.81 110.39 408.82 110.35 408.79 110.32 408.71 110.36 408.54 110.25 408.43 110.14 408.47 109.99 408.34 109.86 408.3 109.74 408.31 109.65 408.23 109.18 408.14 108.92 408.09 108.88 408.06 108.82 407.98 108.78 407.91 108.67 407.74 108.56 407.67 108.55 407.52 108.53 407.37 108.56 406.85 108.38 406.64 108.18 406.42 108.05 406.32 107.96 406.24 107.93 406.16 107.84 406.02 107.77 405.96 107.8 405.94 107.79 405.85 107.69 405.81 107.66 405.75 107.6 405.68 107.59 405.66 107.53 405.56 107.39 405.41 107.35 405.37 107.3 405.3 107.18 405.21 107.11 405.2 107.07 405.22 107.03 405.09 106.9 405.06 106.85 405 106.84 404.93 106.78 404.74 106.84 404.73 106.85 404.74 106.9 404.67 106.95 404.66 106.99 404.61 107.03 404.61 107.03 404.66 106.99 404.67 106.95 404.59 106.99 404.49 106.93 404.4 106.83 404.31 106.7 404.24 106.64 404.22 106.6 403.97 106.41 403.56 106 403.44 105.9 403.37 105.9 403.35 105.89 403.36 105.84 403.32 105.79 403.28 105.8 403.21 105.79 403.01 105.61 402.87 105.53 402.86 105.51 402.88 105.45 402.81 105.4 402.64 105.21 402.63 105.19 402.27 104.95 401.96 104.67 401.86 104.52 401.7 104.4 401.62 104.37 401.58 104.34 401.56 104.25 401.47 104.15 401.43 104.07 401.33 104.01 401.3 103.95 400.99 103.72 400.95 103.65 400.83 103.58 400.76 103.59 400.7 103.57 400.54 103.55 400.52 103.56 400.5 103.57 400.5 103.59 400.55 103.68 400.54 103.7 400.52 103.7 400.41 103.56 400.05 103.48 399.77 103.32 399.67 103.23 399.43 103.14 398.85 102.97 398.75 102.88 398.64 102.92 398.62 102.95 398.65 102.98 398.75 102.98 398.81 103.01 398.88 103.07 398.91 103.13 398.81 103.05 398.75 103.01 398.52 103.04 398.5 103.03 398.4 102.99 398.22 102.96 397.96 102.88 397.59 102.84 397.53 102.87 397.19 102.75 396.83 102.59 396.72 102.58 396.51 102.44 396.23 102.29 395.92 102.09 395.83 102.07 395.52 101.89 395.3 101.82 395.19 101.8 394.82 101.79 394.56 101.71 394.48 101.73 394.36 101.72 394.34 101.78 394.09 102.23 394.07 102.37 394.12 102.53 394.12 102.71 394.14 102.82 394.1 103 394.05 103.13 393.92 103.22 393.87 103.32 393.76 103.4 393.57 103.66 393.41 103.82 393.35 103.92 393.33 104 393.25 104.12 393.24 104.14 393.06 104.28 393 104.4 392.91 104.44 392.83 104.54 392.74 104.56 392.64 104.65 392.49 104.71 392.39 104.8 392.35 104.88 392.21 105.03 392.04 105.36 391.96 105.44 391.93 105.55 391.85 105.59 391.81 105.65 391.81 105.72 391.78 105.78 391.77 105.79 391.65 105.87 391.57 105.9 391.55 105.91 391.52 105.94 391.51 105.96 391.51 106.08 391.49 106.17 391.45 106.27 391.38 106.37 391.39 106.5 391.35 106.58 391.37 106.69 391.35 106.85 391.15 107.06 391.12 107.12 391.13 107.14 391.18 107.18 391.19 107.29 391.19 107.67 391.24 107.87 391.2 108.12 391.21 108.14 391.25 108.22 391.27 108.23 391.29 108.24 391.38 108.23 391.45 108.29 391.41 108.42 391.45 108.5 391.46 108.61 391.4 108.68 391.38 108.76 391.4 108.83 391.49 108.93 391.52 108.99 391.5 109.15 391.46 109.3 391.45 109.32 391.31 109.5 391.41 109.87 391.36 110.07 391.41 110.22 391.37 110.47 391.37 110.5 391.4 110.52 391.5 110.47 391.52 110.47 391.55 110.47 391.63 110.51 391.65 110.52 391.66 110.54 391.69 110.57 391.7 110.62 391.7 110.64 391.67 110.75 391.66 110.89 391.66 110.91 391.67 111.03 391.72 111.13 391.73 111.17 391.67 111.41 391.65 111.55 391.65 111.57 391.7 111.7 391.83 111.73 391.95 111.8 391.99 111.85 392.08 111.88 392.11 111.92 392.11 111.98 391.97 112.13 391.96 112.2 391.97 112.25 391.91 112.44 391.91 112.55 392.01 112.6 392.14 112.76 392.23 112.96 392.32 113.24 392.34 113.28 392.4 113.35 392.57 113.43 392.56 113.54 392.65 113.72 392.71 113.76 392.88 113.79 392.94 113.82 392.95 113.86 392.95 113.89 392.89 113.96 392.88 113.98 392.89 114.05 392.91 114.09 392.97 114.12 393.13 114.09 393.33 114.12 393.39 114.18 393.46 114.35 393.52 114.42 393.56 114.55 393.63 114.61 393.66 114.67 393.66 114.72 393.61 114.82 393.65 114.93 393.82 115.03 393.84 115.08 393.83 115.14 393.84 115.17 393.86 115.18 393.97 115.18 394.04 115.09 394.08 115.08 394.12 115.09 394.14 115.11 394.23 115.29 394.27 115.34 394.28 115.37 394.25 115.5 394.17 115.58 394.13 115.66 394.11 115.8 394.15 115.87 394.11 116 394.11 116.23 394.06 116.3 394.03 116.39 394.04 116.43 394.08 116.49 394.04 116.57 394.03 116.59 393.93 116.65 393.86 116.74 393.84 116.75 393.79 116.78 393.82 116.89 393.77 116.97 393.75 117.12 393.76 117.19 393.75 117.21 393.74 117.26 393.71 117.32 393.7 117.34 393.68 117.34 393.61 117.35 393.58 117.35 393.53 117.32 393.42 117.4 393.37 117.48 393.29 117.53 393.2 117.66 393.18 117.72 393.12 117.76 393.05 117.88 392.97 117.9 392.93 117.96 392.87 118.13 392.88 118.19 392.81 118.24 392.82 118.28 392.85 118.31 392.82 118.36 392.82 118.38 392.83 118.39 392.87 118.41 392.97 118.36 393.02 118.43 393.05 118.54 393.02 118.63 393.02 118.65 393.05 118.73 392.96 118.76 392.94 118.82 393 118.91 393.07 119.08 393.08 119.1 393.08 119.13 393.07 119.17 393 119.23 393.04 119.36 393.13 119.41 393.12 119.43 393.06 119.45 393.04 119.49 393.06 119.53 393.04 119.55 393.05 119.61 393.04 119.63 392.96 119.7 392.98 119.79 392.93 119.94 392.93 119.97 392.95 120.03 393.01 120.1 392.99 120.19 392.98 120.21 392.96 120.25 392.94 120.26 392.86 120.29 392.89 120.46 392.84 120.54 392.83 120.63 392.78 120.7 392.75 120.73 392.72 120.79 392.68 120.8 392.67 120.82 392.61 120.86 392.59 120.92 392.52 120.94 392.49 120.97 392.44 121.14 392.45 121.2 392.41 121.23 392.4 121.3 392.39 121.32 392.22 121.47 392.16 121.56 392.16 121.65 392.06 121.93 391.97 122.02 391.97 122.13 391.93 122.24 391.88 122.28 391.85 122.33 391.81 122.34 391.79 122.42 391.77 122.46 391.71 122.49 391.69 122.57 391.63 122.6 391.51 122.77 391.49 122.78 391.37 122.82 391.21 122.8 391.16 122.81 391.15 122.82 391.08 122.94 390.99 123.01 390.96 123.07 390.92 123.25 390.94 123.42 390.85 123.43 390.81 123.46 390.77 123.44 390.76 123.4 390.7 123.37 390.62 123.34 390.53 123.32 390.41 123.35 390.4 123.39 390.34 123.45 390.38 123.46 390.4 123.5 390.44 123.52 390.61 123.48 390.72 123.51 390.74 123.52 390.77 123.56 390.75 123.62 390.75 123.65 390.77 123.69 390.78 123.71 390.86 123.74 390.88 123.78 390.87 123.8 390.72 123.84 390.7 123.85 390.71 123.87 390.72 123.89 390.84 123.95 390.86 123.96 390.97 123.96 391 124 391.02 124.08 391.11 124.12 391.16 124.21 391.33 124.27 391.43 124.21 391.47 124.21 391.51 124.23 391.5 124.3 391.51 124.32 391.62 124.31 391.67 124.27 391.7 124.27 391.76 124.28 391.84 124.24 391.87 124.23 391.88 124.25 391.9 124.29 391.87 124.35 391.86 124.42 391.9 124.46 391.99 124.49 391.99 124.57 392.01 124.59 392.03 124.59 392.16 124.57 392.33 124.63 392.44 124.64 392.56 124.59 392.72 124.61 392.84 124.55 392.98 124.45 393 124.58 393.01 124.6 393.06 124.65 393.06 124.69 393.09 124.74 393.14 124.75 393.18 124.79 393.26 124.83 393.37 124.79 393.49 124.85 393.5 124.84 393.51 124.77 393.61 124.68 393.65 124.48 393.75 124.33 393.77 124.32 393.85 124.37 394.05 124.4 394.1 124.36 394.15 124.28 394.22 124.24 394.33 124.25 394.39 124.18 394.53 124.18 394.57 124.05 394.55 123.92 394.59 123.79 394.7 123.82 394.71 123.88 394.75 123.9 394.87 123.81 394.89 123.66 394.91 123.62 395.02 123.62 395.06 123.59 395.11 123.63 395.17 123.64 395.21 123.63 395.34 123.58 395.34 123.56 395.32 123.52 395.24 123.5 395.22 123.46 395.34 123.41 395.38 123.33 395.46 123.28 395.52 123.26 395.55 123.23 395.65 123.19 395.74 123.21 395.81 123.21 395.81 123.24 395.76 123.28 395.84 123.29 395.91 123.35 395.91 123.4 395.84 123.45 395.84 123.52 395.78 123.54 395.77 123.56 395.8 123.61 395.86 123.63 395.89 123.59 396.02 123.62 396.08 123.6 396.15 123.69 396.27 123.65 396.35 123.69 396.34 123.76 396.37 123.79 396.59 123.82 396.67 123.79 396.8 123.88 396.84 123.86 396.89 123.87 396.95 123.89 397.04 123.96 397.05 123.94 397.13 123.97 397.21 123.92 397.29 123.93 397.43 123.91 397.51 123.95 397.58 123.95 397.65 123.9 397.7 123.82 397.77 123.76 397.79 123.75 397.9 123.74 397.92 123.73 397.98 123.64 398.05 123.62 398.15 123.57 398.17 123.56 398.22 123.49 398.23 123.4 398.24 123.38 398.26 123.37 398.35 123.34 398.37 123.35 398.38 123.37 398.41 123.43 398.45 123.42 398.49 123.39 398.5 123.41 398.52 123.52 398.56 123.57 398.61 123.62 398.72 123.64 398.84 123.75 398.88 123.83 398.89 123.85 399.03 123.87 399.05 123.88 399.06 123.9 399.07 123.92 399.06 123.94 398.96 124 398.94 124.01 398.88 124.01 398.87 124.12 398.84 124.16 398.77 124.19 398.76 124.28 398.73 124.33 398.8 124.36 398.85 124.35 398.96 124.23 399 124.23 399.1 124.28 399.15 124.27 399.2 124.23 399.37 124.21 399.52 124.16 399.59 124.17 399.67 124.14 400 124.16 400.06 124.2 400.13 124.31 400.18 124.35 400.46 124.44 400.53 124.45 400.62 124.5 400.68 124.48 400.87 124.44 400.93 124.35 401.11 124.36 401.22 124.17 401.24 124.08 401.3 124.02 401.33 123.93 401.43 123.88 401.43 123.8 401.52 123.77 401.53 123.73 401.75 123.66 401.89 123.6 401.91 123.56 401.95 123.56 402.17 123.44 402.29 123.39 402.32 123.33 402.35 123.29 402.37 123.28 402.5 123.23 402.52 123.23 402.61 123.21 402.66 123.17 402.7 123.07 402.7 123 402.76 122.9 402.78 122.82 402.82 122.76 402.84 122.75 402.95 122.73 402.96 122.71 402.97 122.69 402.97 122.67 402.92 122.62 402.93 122.58 402.94 122.56 402.96 122.55 403.07 122.54 403.18 122.39 403.28 122.29 403.35 122.25 403.36 122.21 403.31 122.08 403.38 122 403.44 122.02 403.46 122.01 403.45 121.96 403.51 121.85 403.48 121.76 403.39 121.69 403.41 121.59 403.35 121.52 403.35 121.5 403.39 121.44 403.4 121.43 403.49 121.42 403.51 121.4 403.58 121.21 403.63 121.14 403.71 120.97 403.76 120.9 403.8 120.82 403.87 120.52 404.04 120.17 404.19 119.91 404.25 119.89 404.3 119.84 404.31 119.86 404.38 119.86 404.46 119.76 404.47 119.73 404.41 119.72 404.37 119.67 404.38 119.56 404.43 119.51 404.5 119.39 404.51 119.37 404.57 119.13 404.62 119.06 404.79 118.74 404.78 118.69 404.68 118.6 404.68 118.55 404.7 118.47 404.65 118.43 404.64 118.41 404.64 118.38 404.65 118.37 404.67 118.36 404.74 118.34 404.74 118.32 404.71 118.29 404.78 118.12 404.84 118.12 404.9 118.09 404.95 118.11 404.96 118.09 404.94 117.95 405.02 117.77 405.12 117.71 405.21 117.61 405.27 117.62 405.33 117.69 405.39 117.67 405.4 117.65 405.53 117.46 405.64 117.32 405.68 117.19 405.74 117.13 405.79 117.02 405.88 116.9 406.17 116.35 406.27 116.25 406.3 116.12 406.41 116.01 406.41 115.92 406.49 115.89 406.59 115.71 406.75 115.43 406.93 115.23 406.92 115.12 406.94 115.06 406.95 114.96 406.95 114.94 407 114.86 407.04 114.73 407.16 114.63 407.27 114.63 407.36 114.6 407.39 114.47 407.35 114.32 407.37 114.25 407.46 114.24 407.52 114.21 407.53 114.19 407.47 114.15 407.48 114.13 407.58 114.14 407.61 114.11 407.68 114.08 407.78 113.91 407.98 113.75 408 113.69 408.14 113.57 408.15 113.55 408.25 113.34 408.26 113.05 408.28 113.01 408.3 112.99 408.47 112.85 408.93 112.61 409.05 112.5 409.1 112.35 409.17 111.99 409.19 111.71 409.24 111.61 409.29 111.57 409.2 111.57z"/>
  <path id="R_ZD" class="cls-1" d="M412.61 148.82 412.25 148.12 411.69 147.85 411.09 147.33 410.48 147.23 409.85 146.32 408.56 144.73 408.34 144.31 408.31 143.84 407.84 143.2 407.32 142.86 407.07 141.95 407.07 140.73 406.89 140.12 406.33 139.18 405.61 138.38 404.81 137.89 404.06 137.68 403.75 137.69 402.55 137.04 402.11 137.1 401.83 136.97 401.21 136.85 400.43 136.95 398.76 136.41 398.16 136.57 398.16 136.57 397.38 136.49 396.61 135.94 396.2 136.15 395.42 136.06 394.36 136.37 393.49 137.03 392.5 137.72 392.15 138.21 391.59 138.46 391.24 138.66 390.05 138.35 389.76 138.38 389.75 138.81 389.38 139.79 389.37 141.65 388.53 142.38 388.22 142.49 388.22 142.49 388.08 142.54 387.61 142.54 386.95 143.24 386.88 143.38 386.87 143.54 387.12 144.13 386.99 145.12 387.55 145.88 388.4 146.6 388.46 146.89 389.12 147.75 389.1 148.23 389.76 148.9 389.78 149.86 389.56 150.79 390.06 151.97 391.19 152.83 391.24 153.02 391.61 153.32 391.7 153.93 392 154.27 393.09 154.43 394.13 154.8 394.66 155.29 394.66 155.28 395.23 156.03 395.65 156.27 396.58 156.45 396.98 156.93 397.12 157.01 397.73 157.1 398.08 157.41 398.71 157.43 400.19 157.96 400.82 158.41 401.12 158.36 401.71 158.54 402.15 158.38 402.31 158.36 403.2 159 404.29 158.84 404.86 159.08 405.29 158.88 405.92 158.81 406.27 158.5 407.06 158.56 409.07 158.16 409.35 158 409.98 158.06 410.14 158.04 410.42 157.89 411.16 157.28 411.51 156.74 411.57 156.59 411.4 155.65 411.53 154.54 411.31 153.45 411.4 152.99 411.56 152.19 411.82 151.29 412.22 150.81 412.28 150.18 412.65 149.92 412.68 149.77 412.61 148.82z"/>
  <path id="R_ZS" class="cls-1" d="M401.33 186.68C401.36 186.15 400.89 185.7 400.92 185.21C400.32 185.67 400.04 184.3 399.36 184.99C398.9 184.83 398.39 184.44 397.98 184.12C397.65 182.96 397.84 181.7 398.28 180.6C398.92 180.15 398.14 179.15 397.82 180.01C397.05 180.75 396.89 179.01 396.53 178.6C397.1 178.23 398.06 179.24 398.67 178.53C398.99 178.75 399 179.51 398.4 179.71C398.91 179.99 399.46 179.23 399.84 178.95C400.18 178.2 400.28 177.36 400.69 176.63C400.78 175.85 400.76 174.7 399.72 174.61C398.81 174.46 398 173.97 397.43 173.24C396.82 172.5 395.64 173.46 395.47 172.23C395.37 171.59 396.34 171.63 396.56 171.06C397.08 170.96 397.04 170.54 396.87 170.13C396.27 170.83 395.04 170.64 394.84 171.66C394.45 172.11 394.52 172.65 394.99 172.92C395.44 173.8 395.28 174.78 395.11 175.68C395.38 176.5 395 177.87 396.06 178.21C396.5 178.99 396.81 179.91 397.2 180.75C397.59 181.96 397.72 183.23 397.58 184.5C396.8 185.07 397.37 186.2 396.47 186.65C395.62 186.83 395.2 187.49 394.69 188.11C394.42 188.31 394.69 189.17 394.78 189.13C395.25 188.41 396.43 189.09 395.85 189.91C395.71 190.43 395.8 191.14 396.33 190.58C396.48 190.86 396.91 190.72 396.82 191.23C396.83 191.84 397.62 190.86 397.83 190.71C398.4 190.02 399.18 189.51 399.93 189.03C400.63 188.42 401.55 187.76 401.33 186.69ZM404.92 192.22C404.39 192 404.48 191.38 404.35 190.93C405.05 190.65 404.86 189.71 404.29 189.41H404.29C403.31 189.52 402.72 190.2 402.21 190.97C401.94 191.54 401.62 192.08 401.26 192.6C401.73 192.64 401.79 192.75 401.85 193.17C402.35 193.63 402.14 192.47 402.75 192.73C403.16 192.5 403.26 192.28 403.26 192.91C403.42 193.02 403.89 192.91 403.96 193.01C403.88 192.59 405.15 192.91 404.92 192.23Z M404.43 188.85C404.63 188.84 404.74 189.08 404.5 189.15C403.9 189.5 403.84 188.78 404.43 188.85Z"/>
  <path id="R_ZM" class="cls-1" d="M404.32 212.98L404.34 212.46L403.94 213.19L404.29 213.32L404.58 213.69L404.46 213.78L403.72 214.27L403.24 214.99L402.71 215.38L402.6 216.02L402.23 216.26H402.21L401.95 216.58L402 216.98L401.52 217.35L401.46 217.54L401.65 217.61L402.04 217.73L402.12 218.15L402.59 218.85L403 218.97L403.09 219.39L403.7 219.42L403.33 220.39L402.82 220.76L402.24 221L402 221.59L402.11 222L402.54 222.45L401.52 222.36L400.9 223.16L401.04 223.74L400.96 223.93L400.55 223.99L400.39 224.37L401.15 225.55L402.33 226.16L402.3 226.37L401.96 226.66L401.29 226.71L400.79 227.06L400.65 226.43L400.37 226.11L399.94 226.02L399.65 226.34L399.67 226.56L399.69 226.72V226.94L399.15 227.58L398.73 227.51L398.33 227.02L397.78 227.32L397.61 226.48L397.2 226.41L396.64 227.03L396.48 226.9L396.77 225.44L396.7 225.01L396.5 224.92L395.64 225.47L394.82 225.16L395.71 224.7L396.11 224.24L396.31 223.41L396.2 223.01L395.4 222.95L395.02 222.47L394.35 221.18L394.98 221.13L396.07 221.23L396.2 221.86L396.45 222.66L397.43 223.05L397.71 223.36H397.75L398.39 223.56L399.03 223.41L399.52 222.67L399.46 222.45L398.51 220.68L398.11 220.5L398.05 220.38L397.54 220.01L396.8 218.94L396.05 218.56L395.78 218.2L395.9 218.01L396.25 217.73L397.29 217.41L396.46 217.13L396.17 216.88L396.46 215.86L396.11 215.35L396.08 214.92L396.27 214.62L396.84 214.52L396.79 214.33L395.99 214.26L395.84 213.87L396.2 213.38L396.27 212.96L396.02 212.64L395.64 212.86L395.07 212.55L394.65 212.67L393.68 211.77L393.05 211.85L392.53 211.44H392.53V211.21L393.42 210.27L393.24 209.9L392.62 209.83L393.08 208.45L393.13 208.4L393.73 208.51L394.33 207.89L394.26 207.29L394.7 207.34L395.02 207.04L395.18 206.4L395.68 205.96L395.63 205.73L396.25 205.55L396.18 205.94L395.47 206.47L395.84 206.65L396.78 207.52L397.03 208.12L397.81 208.51L397.63 208.9L397.91 209.47L397.73 210.07L397.94 210.14L398.44 210.42L398.94 210.21L399.15 210.23L399.36 210.62H399.75L400.25 209.68L400.87 210.25L401.67 210.27L402.52 210.32L403.07 210.6L403.21 210.46L403.14 210.87L403.28 211.03L403.85 211.24L404.64 211.85H404.64L404.67 212.47L404.45 213.09L404.29 212.94Z M391.65 204.43L391.54 204.45L391.1 204.93L391.15 205.02L391.68 205.2L391.86 205.57L392.48 205.13L392.46 205.04L391.66 204.42Z M408.45 213.6L408.38 213.81L408.36 213.83L408.31 214.47L407.69 215.09L407.53 215.69L406.75 214.36L405.97 213.81L406.59 213.99L407.03 213.26L407.63 212.37L408.09 212.81L408.46 213.61Z"/>
  <path id="R_ZX" class="cls-1" d="M396.35 243.95C396.04 244.75 395.34 243.47 395.99 243.25C397.1 242.55 395.65 242.66 395.54 241.97C395.31 241.57 395.1 240.78 395.4 240.47C396.45 240.19 395.65 238.37 394.6 238.9C394.44 238.9 394.28 238.87 394.12 238.88H394.12C393.77 239.21 393.93 240.1 393.18 239.43C392.37 239.08 392.87 241.95 391.47 240.82C390.69 240.98 390.92 242.03 390.03 242.33C390.47 242.96 390.33 243.82 389.71 244.27C389.2 244.5 388.66 245.05 388.11 244.6C387.06 244.58 388.2 242.42 387.11 243.58C386.57 244.5 385.85 243.32 385.13 243.56C384.16 243.75 383.99 245.02 385.15 245.09C385.7 246.2 386.42 244.41 387.15 244.29C387.91 244.53 387.88 245.45 388.65 245.2C389.51 245.31 389.02 244.54 389.69 244.74C389.96 244.46 389.77 246.1 389.2 245.51C389.06 246.4 390.52 246.21 390.91 245.67C391.29 245.33 391.6 244.8 392.02 244.59C392.67 244.66 393.29 244.9 393.83 245.27C394.52 245.41 395.3 245.08 395.97 245.27C396.82 246 396.28 244.14 396.36 243.95Z M399.82 238.75L399.69 238.88C399.87 239.41 399.2 239.87 398.39 239.9C397.49 239.67 399.21 238.62 399.79 238.7L399.82 238.74Z M414.71 259.25C414.8 258.22 414.08 259.41 414.12 258.55C413.53 258.9 413.58 258.74 413.58 258.18C413.07 258.52 412.99 257.59 412.7 258.58C412.49 259.28 411.43 258.88 411.13 259.47C410.79 258.89 410.42 258.33 410.01 257.79C409.1 258.03 408.8 258.1 408.49 257.13C407.77 257.28 408.65 258.05 407.75 257.88C407.89 258.05 408.44 258.31 408.78 258.68C409.21 259.08 409.8 259.37 409.95 259.98C409.25 260.02 410.06 260.76 410.24 261.05C410.64 261.93 411.27 262.11 411.64 261.42C412.08 262.32 412.7 260.43 413.18 261.59C413.42 261.08 413.59 260.52 414.21 260.39C414.65 259.84 415.1 260.95 415.06 259.96C415.17 259.44 415.44 258.29 414.71 259.23Z"/>
  <path id="R_ZW" class="cls-1" d="M394.18 278.95C393.4 278.54 393.3 277.22 393.38 276.39C392.81 276.23 393.12 274.41 392.4 274.17C391.95 273.73 391.65 273.03 391.38 273.09V272.94H391.37C391.1 273.72 389.95 273.79 390 274.83C389.38 275.57 389.54 276.51 389.36 277.4C389.21 278.45 388.98 279.45 388.93 280.51C389.27 281.4 389.3 282.77 388.93 283.59C388.89 284.54 387.63 284.42 387.22 285.02C385.99 285.53 387.41 287.09 386.71 288.04C386.79 288.77 386.9 289.7 387.65 289.64C387.86 289.85 388.37 289.28 388.13 290.01C388.27 290.58 388.85 290.7 388.89 290.77C389.34 290.24 388.64 292.12 389.55 292.14C389.69 292.91 390.02 294.15 389.55 294.57C388.86 294.12 389.77 294.73 389.76 295.24C389.88 294.98 389.95 295.57 390.04 295.69C390.38 295.15 391.05 296.81 391.09 295.6C391.33 294.97 391.64 294.07 392.02 294.81C392.46 294.71 392.87 296.32 393.26 295.17C394.2 294.87 393.57 293.36 392.78 293.79C392.21 293.15 393.23 292.26 392.35 292.46C392.44 291.66 392.86 291.14 392.51 290.46C392.67 289.58 393.07 289.11 392.67 288.3C392.8 287.64 393.39 288.77 393.33 287.83C393 286.78 393.1 285.63 393.62 284.66C393.77 284.12 394.31 284.47 394.37 284.54C393.81 283.61 394.86 282.41 394.96 281.39C394.67 280.68 394.93 279.38 394.15 278.95Z M411.13 290.77C410.38 291.69 409.61 292.61 409.07 293.65C408.44 293.55 408.5 292.78 408.25 292.15C407.81 291.05 406.72 292.07 406.35 291.37C405.97 290.45 406.35 288.95 407.1 288.14C407.47 287.34 408.28 287.27 408.95 286.87C409.09 286.86 409.23 286.89 409.36 286.96C410.24 286.81 410.3 287.57 410.52 288.27C411.15 289.23 412.48 287.95 412.78 289.05C413.19 289.62 411.56 290.26 411.14 290.77Z M407.76 283.81C406.78 284.2 406.57 282.82 405.74 282.62C405.2 282.5 405.14 282.32 404.59 282.21C403.83 281.36 403.37 280.44 402.78 279.44C401.95 278.6 402 277.97 401.27 277.15C401.28 276.69 400.7 276.57 400.58 275.99C399.86 276.13 399.76 274.96 398.94 275.22C398.28 275.09 398.64 273.91 398.05 273.88C397.55 275.1 397.06 272.77 396.35 272.93H396.35C396.04 273.8 395.73 274.92 396.15 275.88C396.33 277.03 396.66 278.22 396.92 279.31C397.09 280.1 396.86 281.61 397.94 281.56C398.07 282.18 397.85 282.46 398.21 283.2C398.69 283.9 399.45 284.04 399.86 284.63C400.28 284.66 400.75 284.96 400.88 284.35C401.74 284.42 402.76 284.92 403.55 284.42C404.33 283.87 404.95 285.23 405.95 284.83C406.67 285.09 408.07 284.37 407.76 283.83Z"/>
  <path id="R_ZP" class="cls-1" d="M418.54 324.95C418.47 324.61 418.61 323.8 418.29 323.52C417.95 322.82 417.07 322.61 416.95 321.9C416.76 322.16 416.61 322.49 416.15 322.25C415.38 322.4 415.07 321.66 414.42 321.89C414.17 321.34 413.48 321.53 412.95 321.42C412.12 322 411.23 321.25 410.42 321.08C409.9 320.48 410.25 319.47 410.25 318.72C409.94 318.34 409.64 317.64 409.89 317.1C410.03 316.51 410.44 315.74 410.25 315.06C410.02 314.47 409.93 314.3 409.87 313.81C409.59 313.33 408.88 313.17 408.85 312.54C408.27 311.76 407.24 312.14 406.55 311.7C406.07 311.24 405.54 310.74 404.85 310.75C404.3 310.23 403.53 310.59 402.85 310.39C402.19 310.65 401.67 309.88 401.07 309.85C401.32 310.38 400.59 310.56 400.58 310.93C400.58 310.97 400.56 310.95 400.56 310.95C400.27 311.07 399.93 311.47 399.63 311.16C399.39 311.53 398.82 310.94 398.57 311.39C398.13 311.31 397.68 311.43 397.34 311.71C397.92 311.92 397.19 312.21 397.34 312.39C397.29 312.35 397.22 312.33 397.18 312.28H397.18C396.97 312.38 396.74 312.4 396.52 312.34C396.28 312.32 396.13 312.58 395.93 312.67C395.84 312.83 395.73 312.74 395.6 312.71C395.36 312.65 395.56 313.11 395.3 313.1C395.06 313.29 395.58 313.43 395.4 313.63C395.22 313.47 395.21 313.8 395.35 313.84C395.26 313.99 395.49 314.11 395.4 314.29C395.49 314.48 395.57 314.68 395.62 314.89C395.65 315.09 395.49 315.23 395.56 315.45C395.53 315.59 395.58 315.74 395.42 315.82C395.56 315.95 395.44 316.17 395.61 316.27C395.7 316.45 395.35 316.79 395.69 316.73V316.78C395.62 317.05 396.52 317.92 396.57 318.57C397.14 319.21 396.88 320.12 397.15 320.86C397.2 321.58 397.29 322.08 398.02 322.29C398.53 322.56 399.06 322.52 399.68 322.58C400.11 322.89 400.65 323.01 401.26 323.14C402.03 323.05 402.03 324.02 402.76 323.7C403.26 324.08 403.65 323.3 404.13 323.43C404.73 323.42 405.34 323.36 405.93 323.26C406.01 322.68 406.65 322.8 407.1 322.74C407.6 322.91 408.3 322.55 408.61 322.19C408.51 321.58 408.76 321.64 409.11 321.23C409.17 321.26 409.78 321.73 409.31 321.7C408.31 322 409.73 322.3 409.51 322.77C410.06 322.98 409.9 323.63 410.05 323.77C410.58 324.19 410.94 325.03 410.65 325.64C410.91 326.02 411.45 326.3 411.81 326.78C412.01 327.21 412.68 327.31 412.98 327.7C413.65 327.74 414.32 327.85 414.97 328.04C415.5 328.44 416.04 328.41 416.71 328.57C417.16 328.66 417.93 328.16 417.97 327.72C418.32 327.36 418.5 326.87 418.49 326.37C418.94 325.87 418.42 325.35 418.59 324.97Z M388.38 310.41C388.25 310.76 388.08 311.1 387.87 311.42C387.92 311.49 387.95 311.56 387.98 311.64C388.14 312.11 387.88 312.62 387.41 312.78C387.16 312.94 387.23 313.61 386.97 313.79C387 314.32 386.44 314.44 386.46 314.82C385.95 314.85 385.04 315.08 384.76 314.66C384.71 314.24 384.64 314.65 384.3 314.59C384.25 314.04 383.55 314.21 383.38 313.63C383.18 313.02 382.56 312.8 382.05 312.43C381.69 312.12 381.44 311.7 381.33 311.24C380.89 310.95 381.49 309.97 381.04 310.03C380.61 309.88 381.53 309.39 381.53 309.72C381.23 310.14 381.41 309.81 381.78 309.85C382.21 309.85 382.32 309.76 382.78 309.85C382.82 309.85 382.85 309.84 382.89 309.84C383.48 309.8 383.98 310.24 384.02 310.83C384.44 311.49 384.21 310.65 384.08 310.37C384.13 309.72 384.61 309.33 385.23 309.49C385.67 309.6 385.51 310.27 385.67 310.56C386.04 310.23 385.4 309.43 386.13 309.36C386.7 309.23 387.35 309.22 387.87 308.88H387.87C388.35 308.99 388.3 309.56 388.73 309.71C389.39 310.01 388.56 310.18 388.39 310.41Z"/>
  <path id="R_ZN" class="cls-1" d="M409.01 360.65C407.73 360.46 407.39 358.99 406.3 358.49C405.35 357.72 403.99 357.76 403.38 356.58C403.03 355.82 402.02 356.46 401.59 356C400.77 354.86 399.86 353.52 398.39 353.23C397.24 353.2 397.16 351.65 396.64 350.87C396.38 350.29 396.13 349.7 395.87 349.12C394.68 349.12 393.4 349.24 392.35 348.54C391.93 347.41 391.99 346.11 391.44 345.05C390.49 345.01 389.5 344.95 389.14 343.97C388.02 343.74 386.9 343.41 385.75 343.23C385.23 343.01 384.86 342.99 384.97 343.66C385.04 344.54 384.28 345.84 385.45 346.22C386.01 346.9 385.88 348.03 386.66 348.69C386.9 349.04 387.09 349.48 387.59 349.38C388.4 349.47 389.72 349.6 389.71 350.66C389.6 351.18 389.91 351.41 390.37 351.54L392.91 352.7C393.11 353.7 392.99 354.73 393.2 355.73C393.96 356.46 395.01 356.78 396.04 357.18C396.62 357.47 397.15 357.93 397.74 358.18C398.41 358.18 399.16 357.92 399.78 358.23C399.7 359.41 401.15 359.38 401.84 360.08C402.33 360.38 402.79 360.76 403.3 361L404.01 361.21C404.28 361.87 404.35 362.65 404.84 363.19C405.23 363.27 405.92 364.04 406.15 363.9H406.15L406.46 364.52C407.76 364.44 409.05 364.37 410.35 364.37H411.6C411.6 363.74 411.74 363.08 411.58 362.46C411.03 361.37 409.58 361.81 408.99 360.63Z M398.26 343.85C398.12 343.12 398.63 342.62 398.67 341.92C399.47 341.97 400.1 341.4 400.84 341.39V342.74C400.84 343.19 400.84 343.64 400.84 344.09H399.04C398.78 344.01 398.15 344.3 398.26 343.85ZM405.06 347.78C405.54 348.17 405.98 348.78 406.69 348.64C407.05 348.56 407.69 348.77 407.89 348.43C407.89 347.41 407.62 346.46 407.31 345.51C406.71 345.16 406.28 344.59 405.48 344.79C404.98 344.63 405.06 345.05 405.07 345.41V347.78ZM414.74 350.13C414.07 349.99 413.35 349.87 412.73 350.26C412.33 350.34 412.14 350.55 412.2 350.97C412.16 351.55 412.11 352.13 412.07 352.71C412.53 353.23 413.22 353.29 413.87 353.16C414.13 353.14 414.38 353.12 414.64 353.09H414.64C414.69 352.11 414.71 351.13 414.74 350.14Z"/>
  <path id="R_ZZ" class="cls-1" d="M410.53,382.35c0,4.91-4.1,8.89-9.16,8.89s-9.16-3.98-9.16-8.89h0c0-4.91,4.1-8.89,9.16-8.89s9.16,3.98,9.16,8.89Z"/>
</svg>