<svg xmlns="http://www.w3.org/2000/svg" xmlns:xlink="http://www.w3.org/1999/xlink" viewBox="0 0 629.91 28.35"><defs><style>.cls-1{fill:none;}.cls-2{clip-path:url(#clip-path);}.cls-3{fill:#dadada;}.cls-3,.cls-4,.cls-5,.cls-6,.cls-7,.cls-8{stroke:#1d1d1b;stroke-miterlimit:10;stroke-width:0.5px;}.cls-4{fill:#fff;}.cls-5{fill:#fce9ed;}.cls-6{fill:#f4a7b7;}.cls-7{fill:#eb6581;}.cls-8{fill:#e3234a;}</style><clipPath id="clip-path"><rect class="cls-1" x="-124.39" y="-674.51" width="750.74" height="629.42"/></clipPath></defs><title>LIB-2020-03-23-Plan de travail 1</title><g id="Calque_10" data-name="Calque 10"><rect class="cls-3" x="1.43" y="6.13" width="13.86" height="13.86"/><path d="M21.71,14.64v3.67H20.44V7.72h2.68c1.78,0,2.51.75,2.51,2.22v2.55c0,1.43-.73,2.15-2.51,2.15Zm0-5.66v4.39h1.38c.87,0,1.26-.26,1.26-1.2v-1.9c0-1-.39-1.29-1.26-1.29Z"/><path d="M28.28,18.38c-1.24,0-1.91-.61-1.91-2V14.84c0-2.19,2.3-1.91,3.76-2.32V11.36c0-1-.37-1.21-1.23-1.21s-1.1.23-1.1.86v.9H26.52V10.84c0-1.31.76-2,2.38-2,1.77,0,2.5.61,2.5,2.27v7.16H30.13V16.57A1.62,1.62,0,0,1,28.28,18.38Zm1.85-2.12V13.53c-1.66.29-2.49.34-2.49,1.16v1.52c0,.62.25,1,.95,1S30.13,17,30.13,16.26Z"/><path d="M33.54,14.77v1.06c0,1,.46,1.37,1.34,1.37s1.33-.24,1.33-.93v-1c0-.69-.18-.87-1.52-1.13-1.9-.31-2.42-.68-2.42-2V11c0-1.5.77-2.12,2.61-2.12s2.6.74,2.6,2.29v1.26H36.21V11.31c0-.9-.43-1.24-1.34-1.24s-1.35.27-1.35,1v1c0,.53.15.73,1.51,1,2,.39,2.45.75,2.45,2.17v1.16c0,1.47-.8,2-2.6,2s-2.6-.68-2.61-2.42V14.77Z"/><path d="M44.82,7.72h1.27V18.31H44.82V16.57A1.6,1.6,0,0,1,43,18.38c-1.6,0-2.27-1-2.27-2.82V11.7c0-1.82.67-2.82,2.27-2.82a1.6,1.6,0,0,1,1.8,1.8ZM42,15.32c0,1.45.44,1.86,1.42,1.86.71,0,1.38-.15,1.38-.92V11c0-.78-.67-.94-1.38-.94-.95,0-1.42.42-1.42,1.87Z"/><path d="M49.68,18.38c-2,0-2.68-1-2.68-2.82V11.7c0-1.82.74-2.81,2.72-2.81s2.62.83,2.62,2.42V14H48.27v1.37c0,1.37.43,1.79,1.38,1.79s1.42-.28,1.42-1.24v-1h1.27V16.1C52.34,17.6,51.56,18.38,49.68,18.38Zm-1.41-5.53h2.8v-1.3c0-1.09-.43-1.4-1.38-1.4s-1.42.42-1.42,1.79Z"/><path d="M59.71,7.72H61V18.31H59.71V16.57a1.59,1.59,0,0,1-1.79,1.81c-1.6,0-2.28-1-2.28-2.82V11.7c0-1.82.68-2.82,2.28-2.82a1.59,1.59,0,0,1,1.79,1.8Zm-2.79,7.6c0,1.45.44,1.86,1.41,1.86.72,0,1.38-.15,1.38-.92V11c0-.78-.66-.94-1.38-.94-.94,0-1.41.42-1.41,1.87Z"/><path d="M64.58,18.38c-1.95,0-2.68-1-2.68-2.82V11.7c0-1.82.73-2.81,2.68-2.81s2.66,1,2.66,2.81v3.86C67.24,17.39,66.46,18.38,64.58,18.38Zm0-8.22c-.95,0-1.38.42-1.38,1.78v3.38c0,1.37.43,1.79,1.38,1.79S66,16.7,66,15.32V11.94C66,10.57,65.52,10.16,64.55,10.16Z"/><path d="M71.19,8.89c1.29,0,2,.69,2,2.22v7.2H71.91v-7c0-.77-.28-1.22-1.11-1.22s-1.38.15-1.38.92v7.3H68.15V9h1.27V10.7A1.59,1.59,0,0,1,71.19,8.89Z"/><path d="M77.13,8.89c1.29,0,2,.69,2,2.22v7.2H77.85v-7c0-.77-.27-1.22-1.11-1.22s-1.37.15-1.37.92v7.3H74.09V9h1.28V10.7A1.58,1.58,0,0,1,77.13,8.89Z"/><path d="M82.71,18.38c-1.95,0-2.68-1-2.68-2.82V11.7c0-1.82.74-2.81,2.72-2.81s2.63.83,2.63,2.42V14H81.31v1.37c0,1.37.43,1.79,1.37,1.79s1.42-.28,1.42-1.24v-1h1.28V16.1C85.38,17.6,84.6,18.38,82.71,18.38Zm-1.4-5.53H84.1v-1.3c0-1.09-.43-1.4-1.38-1.4s-1.41.42-1.41,1.79Zm.74-4.19.28-.81H84l-1,.81Z"/><path d="M89,18.38c-1.95,0-2.67-1-2.67-2.82V11.7c0-1.82.74-2.81,2.71-2.81s2.63.83,2.63,2.42V14H87.56v1.37c0,1.37.43,1.79,1.38,1.79s1.41-.28,1.41-1.24v-1h1.28V16.1C91.63,17.6,90.85,18.38,89,18.38Zm-1.4-5.53h2.79v-1.3c0-1.09-.42-1.4-1.37-1.4s-1.42.42-1.42,1.79Z"/><path d="M93.77,14.77v1.06c0,1,.46,1.37,1.34,1.37s1.33-.24,1.33-.93v-1c0-.69-.18-.87-1.52-1.13-1.9-.31-2.42-.68-2.42-2V11c0-1.5.77-2.12,2.61-2.12s2.6.74,2.6,2.29v1.26H96.44V11.31c0-.9-.43-1.24-1.34-1.24s-1.35.27-1.35,1v1c0,.53.15.73,1.5,1,2,.39,2.46.75,2.46,2.17v1.16c0,1.47-.8,2-2.6,2S92.51,17.7,92.5,16V14.77Z"/><rect class="cls-4" x="106.86" y="6.13" width="13.86" height="13.86"/><path d="M127.73,15.23h-2.25l-.62,3.08H123.6l2.15-10.59h1.71l2.17,10.59h-1.28Zm-1.12-5.56-.87,4.3h1.73Z"/><path d="M132.07,18.38c-1.28,0-2-.7-2-2.22V9h1.28v7c0,.76.27,1.21,1.1,1.21s1.38-.15,1.38-.92V9h1.27v9.36h-1.27V16.57A1.58,1.58,0,0,1,132.07,18.38Z"/><path d="M141.37,14.34V16c0,1.6-.78,2.43-2.67,2.43s-2.68-1-2.68-2.82V11.7c0-1.82.73-2.81,2.68-2.81s2.67.84,2.67,2.42v1.58h-1.28V11.55c0-1.07-.44-1.39-1.41-1.39s-1.38.42-1.38,1.78v3.38c0,1.37.43,1.79,1.38,1.79s1.41-.32,1.41-1.4V14.34Z"/><path d="M144.27,18.38c-1.29,0-2-.7-2-2.22V9h1.27v7c0,.76.27,1.21,1.11,1.21S146,17,146,16.26V9h1.28v9.36H146V16.57A1.58,1.58,0,0,1,144.27,18.38Z"/><path d="M151.26,8.89c1.29,0,2,.69,2,2.22v7.2H152v-7c0-.77-.27-1.22-1.1-1.22s-1.38.15-1.38.92v7.3h-1.27V9h1.27V10.7A1.59,1.59,0,0,1,151.26,8.89Z"/><path d="M161.89,14.34V16c0,1.6-.78,2.43-2.66,2.43s-2.68-1-2.68-2.82V11.7c0-1.82.73-2.81,2.68-2.81s2.66.84,2.66,2.42v1.58h-1.27V11.55c0-1.07-.44-1.39-1.42-1.39s-1.38.42-1.38,1.78v3.38c0,1.37.43,1.79,1.38,1.79s1.42-.32,1.42-1.4V14.34Z"/><path d="M164.65,18.38c-1.23,0-1.91-.61-1.91-2V14.84c0-2.19,2.3-1.91,3.76-2.32V11.36c0-1-.37-1.21-1.23-1.21s-1.1.23-1.1.86v.9h-1.28V10.84c0-1.31.76-2,2.38-2s2.5.61,2.5,2.27v7.16H166.5V16.57A1.62,1.62,0,0,1,164.65,18.38Zm1.85-2.12V13.53c-1.66.29-2.49.34-2.49,1.16v1.52c0,.62.25,1,1,1S166.5,17,166.5,16.26Z"/><path d="M169.91,14.77v1.06c0,1,.46,1.37,1.34,1.37s1.33-.24,1.33-.93v-1c0-.69-.18-.87-1.52-1.13-1.9-.31-2.42-.68-2.42-2V11c0-1.5.77-2.12,2.61-2.12s2.6.74,2.6,2.29v1.26h-1.27V11.31c0-.9-.43-1.24-1.34-1.24s-1.35.27-1.35,1v1c0,.53.15.73,1.51,1,2,.39,2.45.75,2.45,2.17v1.16c0,1.47-.8,2-2.6,2s-2.6-.68-2.61-2.42V14.77Z"/><rect class="cls-5" x="183" y="6.13" width="13.86" height="13.86"/><path d="M203.87,15.23h-2.25L201,18.31h-1.26l2.15-10.59h1.71l2.17,10.59h-1.28Zm-1.12-5.56-.87,4.3h1.73Z"/><path d="M208.21,18.38c-1.29,0-2-.7-2-2.22V9h1.28v7c0,.76.27,1.21,1.1,1.21S210,17,210,16.26V9h1.27v9.36H210V16.57A1.58,1.58,0,0,1,208.21,18.38Z"/><path d="M217.6,8.89a1.76,1.76,0,0,1,2,1.68,1.6,1.6,0,0,1,1.79-1.68c1.29,0,2,.69,2,2.21v7.21h-1.27v-7c0-.75-.27-1.2-1.11-1.2s-1.37.15-1.37,1.14v7.08h-1.28v-7c0-.75-.26-1.2-1.1-1.2s-1.38.15-1.38.92v7.3h-1.28V9h1.28v1.73A1.58,1.58,0,0,1,217.6,8.89Z"/><path d="M226.93,18.38c-2,0-2.68-1-2.68-2.82V11.7c0-1.82.73-2.81,2.68-2.81s2.67,1,2.67,2.81v3.86C229.6,17.39,228.82,18.38,226.93,18.38Zm0-8.22c-.95,0-1.38.42-1.38,1.78v3.38c0,1.37.43,1.79,1.38,1.79s1.41-.41,1.41-1.79V11.94C228.32,10.57,227.88,10.16,226.91,10.16Z"/><path d="M230.51,7.73h1.27v.95h-1.27Zm0,1.22h1.27v9.36h-1.27Z"/><path d="M235.73,8.89c1.29,0,2,.69,2,2.22v7.2h-1.27v-7c0-.77-.28-1.22-1.11-1.22S234,10.24,234,11v7.3h-1.27V9H234V10.7A1.59,1.59,0,0,1,235.73,8.89Z"/><path d="M239.87,14.77v1.06c0,1,.45,1.37,1.34,1.37s1.32-.24,1.32-.93v-1c0-.69-.18-.87-1.52-1.13-1.9-.31-2.42-.68-2.42-2V11c0-1.5.77-2.12,2.62-2.12s2.59.74,2.59,2.29v1.26h-1.27V11.31c0-.9-.43-1.24-1.34-1.24s-1.35.27-1.35,1v1c0,.53.16.73,1.51,1,2,.39,2.45.75,2.45,2.17v1.16c0,1.47-.8,2-2.59,2s-2.6-.68-2.62-2.42V14.77Z"/><path d="M249.06,18.38c-1.29,0-2-.7-2-2.22V9h1.27v7c0,.76.27,1.21,1.11,1.21s1.37-.15,1.37-.92V9h1.28v9.36h-1.28V16.57A1.58,1.58,0,0,1,249.06,18.38Z"/><path d="M256.05,8.89c1.29,0,2,.69,2,2.22v7.2h-1.27v-7c0-.77-.28-1.22-1.11-1.22s-1.38.15-1.38.92v7.3H253V9h1.27V10.7A1.59,1.59,0,0,1,256.05,8.89Z"/><path d="M266.69,14.34V16c0,1.6-.78,2.43-2.67,2.43s-2.68-1-2.68-2.82V11.7c0-1.82.73-2.81,2.68-2.81s2.67.84,2.67,2.42v1.58h-1.28V11.55c0-1.07-.44-1.39-1.42-1.39s-1.37.42-1.37,1.78v3.38c0,1.37.42,1.79,1.37,1.79s1.42-.32,1.42-1.4V14.34Z"/><path d="M269.44,18.38c-1.23,0-1.91-.61-1.91-2V14.84c0-2.19,2.3-1.91,3.76-2.32V11.36c0-1-.37-1.21-1.23-1.21s-1.1.23-1.1.86v.9h-1.27V10.84c0-1.31.75-2,2.37-2s2.5.61,2.5,2.27v7.16h-1.27V16.57A1.62,1.62,0,0,1,269.44,18.38Zm1.85-2.12V13.53c-1.65.29-2.49.34-2.49,1.16v1.52c0,.62.25,1,.95,1S271.29,17,271.29,16.26Z"/><path d="M274.71,14.77v1.06c0,1,.45,1.37,1.33,1.37s1.33-.24,1.33-.93v-1c0-.69-.18-.87-1.52-1.13-1.9-.31-2.42-.68-2.42-2V11c0-1.5.77-2.12,2.61-2.12s2.6.74,2.6,2.29v1.26h-1.27V11.31c0-.9-.43-1.24-1.34-1.24s-1.35.27-1.35,1v1c0,.53.16.73,1.51,1,2,.39,2.45.75,2.45,2.17v1.16c0,1.47-.8,2-2.6,2s-2.59-.68-2.61-2.42V14.77Z"/><rect class="cls-6" x="287.79" y="6.13" width="13.86" height="13.86"/><path d="M308.66,15.23h-2.25l-.62,3.08h-1.26l2.15-10.59h1.71l2.17,10.59h-1.28Zm-1.12-5.56-.87,4.3h1.73Z"/><path d="M313,18.38c-1.28,0-2-.7-2-2.22V9h1.28v7c0,.76.27,1.21,1.1,1.21s1.38-.15,1.38-.92V9H316v9.36h-1.27V16.57A1.58,1.58,0,0,1,313,18.38Z"/><path d="M322.39,8.89a1.75,1.75,0,0,1,2,1.68,1.6,1.6,0,0,1,1.8-1.68c1.28,0,2,.69,2,2.21v7.21h-1.27v-7c0-.75-.27-1.2-1.11-1.2s-1.37.15-1.37,1.14v7.08H323.1v-7c0-.75-.26-1.2-1.1-1.2s-1.38.15-1.38.92v7.3h-1.27V9h1.27v1.73A1.58,1.58,0,0,1,322.39,8.89Z"/><path d="M331.72,18.38c-2,0-2.68-1-2.68-2.82V11.7c0-1.82.73-2.81,2.68-2.81s2.67,1,2.67,2.81v3.86C334.39,17.39,333.61,18.38,331.72,18.38Zm0-8.22c-.95,0-1.38.42-1.38,1.78v3.38c0,1.37.43,1.79,1.38,1.79s1.41-.41,1.41-1.79V11.94C333.11,10.57,332.67,10.16,331.7,10.16Z"/><path d="M335.3,7.73h1.27v.95H335.3Zm0,1.22h1.27v9.36H335.3Z"/><path d="M340.52,8.89c1.29,0,2,.69,2,2.22v7.2h-1.27v-7c0-.77-.28-1.22-1.11-1.22s-1.38.15-1.38.92v7.3h-1.27V9h1.27V10.7A1.59,1.59,0,0,1,340.52,8.89Z"/><path d="M344.66,14.77v1.06c0,1,.45,1.37,1.34,1.37s1.32-.24,1.32-.93v-1c0-.69-.18-.87-1.52-1.13-1.9-.31-2.42-.68-2.42-2V11c0-1.5.77-2.12,2.62-2.12s2.6.74,2.6,2.29v1.26h-1.28V11.31c0-.9-.43-1.24-1.34-1.24s-1.35.27-1.35,1v1c0,.53.16.73,1.51,1,2,.39,2.46.75,2.46,2.17v1.16c0,1.47-.81,2-2.6,2s-2.6-.68-2.62-2.42V14.77Z"/><path d="M353.85,18.38c-1.29,0-2-.7-2-2.22V9h1.27v7c0,.76.28,1.21,1.11,1.21s1.38-.15,1.38-.92V9h1.27v9.36h-1.27V16.57A1.59,1.59,0,0,1,353.85,18.38Z"/><path d="M360.84,8.89c1.29,0,2,.69,2,2.22v7.2h-1.27v-7c0-.77-.28-1.22-1.11-1.22s-1.38.15-1.38.92v7.3H357.8V9h1.27V10.7A1.59,1.59,0,0,1,360.84,8.89Z"/><path d="M369.17,8.89a1.76,1.76,0,0,1,2,1.68,1.59,1.59,0,0,1,1.79-1.68c1.29,0,2,.69,2,2.21v7.21h-1.27v-7c0-.75-.28-1.2-1.11-1.2s-1.38.15-1.38,1.14v7.08h-1.27v-7c0-.75-.26-1.2-1.1-1.2s-1.38.15-1.38.92v7.3h-1.28V9h1.28v1.73A1.57,1.57,0,0,1,369.17,8.89Z"/><path d="M378.51,18.38c-1.95,0-2.68-1-2.68-2.82V11.7c0-1.82.73-2.81,2.68-2.81s2.66,1,2.66,2.81v3.86C381.17,17.39,380.39,18.38,378.51,18.38Zm0-8.22c-1,0-1.38.42-1.38,1.78v3.38c0,1.37.43,1.79,1.38,1.79s1.42-.41,1.42-1.79V11.94C379.9,10.57,379.46,10.16,378.48,10.16Z"/><path d="M385.07,8.89a1,1,0,0,1,.33,0v1.45c-.7-.17-2-.22-2,.64v7.3h-1.28V9h1.28v1.73C383.36,9.64,383.81,8.89,385.07,8.89Z"/><path d="M388.53,10v8.34h-1.27V10h-1V9h1V7.72h1.27V9H390v1Z"/><rect class="cls-7" x="399.11" y="6.13" width="13.86" height="13.86"/><path d="M415.94,10.8c0-2,.85-3.13,3.14-3.13s3.11,1,3.13,2.81v1.57h-1.27V10.61c0-1.16-.61-1.67-1.88-1.67s-1.85.48-1.85,2.08v4c0,1.52.56,2.1,1.85,2.1s1.87-.45,1.88-1.73V13.75h1.27v1.76c0,2-.89,2.87-3.13,2.87s-3.14-.81-3.14-3.19Z"/><path d="M425.8,18.38c-1.95,0-2.68-1-2.68-2.82V11.7c0-1.82.73-2.81,2.68-2.81s2.67,1,2.67,2.81v3.86C428.47,17.39,427.69,18.38,425.8,18.38Zm0-8.22c-.95,0-1.38.42-1.38,1.78v3.38c0,1.37.43,1.79,1.38,1.79s1.41-.41,1.41-1.79V11.94C427.19,10.57,426.75,10.16,425.78,10.16Z"/><path d="M432.42,8.89c1.29,0,2,.69,2,2.22v7.2h-1.28v-7c0-.77-.27-1.22-1.1-1.22s-1.38.15-1.38.92v7.3h-1.27V9h1.27V10.7A1.59,1.59,0,0,1,432.42,8.89Z"/><path d="M437.41,10.21v8.1h-1.27v-8.1h-1.06v-1h1.06V9a1.16,1.16,0,0,1,1.28-1.31H439v1h-1.32c-.16,0-.24.1-.24.27v.2h1.52v1Zm1.77-2.48h1.27v.95h-1.27Zm0,1.22h1.27v9.36h-1.27Z"/><path d="M444.41,8.89c1.28,0,2,.69,2,2.22v7.2h-1.27v-7c0-.77-.27-1.22-1.1-1.22s-1.38.15-1.38.92v7.3h-1.28V9h1.28V10.7A1.58,1.58,0,0,1,444.41,8.89Z"/><path d="M450,18.38c-2,0-2.68-1-2.68-2.82V11.7c0-1.82.75-2.81,2.72-2.81s2.63.83,2.63,2.42V14h-4.07v1.37c0,1.37.43,1.79,1.38,1.79s1.41-.28,1.41-1.24v-1h1.28V16.1C452.65,17.6,451.87,18.38,450,18.38Zm-1.4-5.53h2.79v-1.3c0-1.09-.42-1.4-1.37-1.4s-1.42.42-1.42,1.79Z"/><path d="M456.6,8.89a1.75,1.75,0,0,1,2,1.68,1.61,1.61,0,0,1,1.8-1.68c1.28,0,2,.69,2,2.21v7.21h-1.28v-7c0-.75-.27-1.2-1.1-1.2s-1.38.15-1.38,1.14v7.08h-1.28v-7c0-.75-.26-1.2-1.1-1.2s-1.38.15-1.38.92v7.3h-1.27V9h1.27v1.73A1.58,1.58,0,0,1,456.6,8.89Z"/><path d="M465.93,18.38c-1.95,0-2.67-1-2.67-2.82V11.7c0-1.82.74-2.81,2.71-2.81s2.63.83,2.63,2.42V14h-4.07v1.37c0,1.37.43,1.79,1.38,1.79s1.42-.28,1.42-1.24v-1h1.27V16.1C468.6,17.6,467.82,18.38,465.93,18.38Zm-1.4-5.53h2.8v-1.3c0-1.09-.43-1.4-1.38-1.4s-1.42.42-1.42,1.79Z"/><path d="M472.55,8.89c1.29,0,2,.69,2,2.22v7.2h-1.27v-7c0-.77-.28-1.22-1.11-1.22s-1.38.15-1.38.92v7.3h-1.27V9h1.27V10.7A1.59,1.59,0,0,1,472.55,8.89Z"/><path d="M477.53,10v8.34h-1.27V10h-1V9h1V7.72h1.27V9H479v1Z"/><path d="M485.29,8.89c1.6,0,2.28,1,2.28,2.78v3.41c0,1.8-.68,2.78-2.28,2.78a1.58,1.58,0,0,1-1.79-1.79V19h-1.28V9h1.28V10.7A1.6,1.6,0,0,1,485.29,8.89Zm1,3c0-1.42-.45-1.83-1.41-1.83-.72,0-1.38.15-1.38.92v4.73c0,.78.66.92,1.38.92,1,0,1.41-.4,1.41-1.82Z"/><path d="M490.32,18.38c-1.23,0-1.91-.61-1.91-2V14.84c0-2.19,2.3-1.91,3.76-2.32V11.36c0-1-.37-1.21-1.22-1.21s-1.11.23-1.11.86v.9h-1.27V10.84c0-1.31.75-2,2.38-2s2.49.61,2.49,2.27v7.16h-1.27V16.57A1.62,1.62,0,0,1,490.32,18.38Zm1.85-2.12V13.53c-1.65.29-2.49.34-2.49,1.16v1.52c0,.62.25,1,.95,1S492.17,17,492.17,16.26Z"/><path d="M497.34,8.89a1.06,1.06,0,0,1,.33,0v1.45c-.71-.17-2-.22-2,.64v7.3h-1.28V9h1.28v1.73C495.63,9.64,496.08,8.89,497.34,8.89Z"/><path d="M500.8,10v8.34h-1.27V10h-1V9h1V7.72h1.27V9h1.45v1Z"/><path d="M503.1,7.73h1.27v.95H503.1Zm0,1.22h1.27v9.36H503.1Z"/><path d="M508,18.38c-1.95,0-2.68-1-2.68-2.82V11.7c0-1.82.75-2.81,2.72-2.81s2.63.83,2.63,2.42V14h-4.07v1.37c0,1.37.43,1.79,1.38,1.79s1.41-.28,1.41-1.24v-1h1.28V16.1C510.63,17.6,509.85,18.38,508,18.38Zm-1.4-5.53h2.79v-1.3c0-1.09-.43-1.4-1.37-1.4s-1.42.42-1.42,1.79Z"/><path d="M511.54,7.72h1.27V18.31h-1.27Z"/><rect class="cls-8" x="522" y="6.13" width="13.86" height="13.86"/><path d="M538.82,10.8c0-2,.86-3.13,3.15-3.13s3.11,1,3.13,2.81v1.57h-1.27V10.61c0-1.16-.61-1.67-1.89-1.67s-1.84.48-1.84,2.08v4c0,1.52.56,2.1,1.84,2.1s1.88-.45,1.89-1.73V13.75h1.27v1.76c0,2-.89,2.87-3.13,2.87s-3.15-.81-3.15-3.19Z"/><path d="M548.69,18.38c-2,0-2.68-1-2.68-2.82V11.7c0-1.82.73-2.81,2.68-2.81s2.67,1,2.67,2.81v3.86C551.36,17.39,550.58,18.38,548.69,18.38Zm0-8.22c-.95,0-1.37.42-1.37,1.78v3.38c0,1.37.42,1.79,1.37,1.79s1.42-.41,1.42-1.79V11.94C550.08,10.57,549.64,10.16,548.66,10.16Z"/><path d="M555.31,8.89c1.28,0,2,.69,2,2.22v7.2H556v-7c0-.77-.27-1.22-1.1-1.22s-1.38.15-1.38.92v7.3h-1.28V9h1.28V10.7A1.58,1.58,0,0,1,555.31,8.89Z"/><path d="M560.3,10.21v8.1H559v-8.1H558v-1H559V9a1.16,1.16,0,0,1,1.28-1.31h1.55v1h-1.33c-.15,0-.23.1-.23.27v.2h1.52v1Zm1.77-2.48h1.27v.95h-1.27Zm0,1.22h1.27v9.36h-1.27Z"/><path d="M567.29,8.89c1.29,0,2,.69,2,2.22v7.2H568v-7c0-.77-.27-1.22-1.11-1.22s-1.37.15-1.37.92v7.3h-1.28V9h1.28V10.7A1.58,1.58,0,0,1,567.29,8.89Z"/><path d="M572.87,18.38c-2,0-2.68-1-2.68-2.82V11.7c0-1.82.74-2.81,2.72-2.81s2.63.83,2.63,2.42V14h-4.07v1.37c0,1.37.43,1.79,1.37,1.79s1.42-.28,1.42-1.24v-1h1.28V16.1C575.54,17.6,574.76,18.38,572.87,18.38Zm-1.4-5.53h2.79v-1.3c0-1.09-.43-1.4-1.38-1.4s-1.41.42-1.41,1.79Z"/><path d="M579.49,8.89a1.76,1.76,0,0,1,2,1.68,1.6,1.6,0,0,1,1.8-1.68c1.28,0,2,.69,2,2.21v7.21H584v-7c0-.75-.27-1.2-1.11-1.2s-1.37.15-1.37,1.14v7.08H580.2v-7c0-.75-.26-1.2-1.1-1.2s-1.38.15-1.38.92v7.3h-1.27V9h1.27v1.73A1.58,1.58,0,0,1,579.49,8.89Z"/><path d="M588.82,18.38c-2,0-2.68-1-2.68-2.82V11.7c0-1.82.74-2.81,2.72-2.81s2.63.83,2.63,2.42V14h-4.07v1.37c0,1.37.43,1.79,1.38,1.79s1.41-.28,1.41-1.24v-1h1.28V16.1C591.49,17.6,590.71,18.38,588.82,18.38Zm-1.4-5.53h2.79v-1.3c0-1.09-.43-1.4-1.38-1.4s-1.41.42-1.41,1.79Z"/><path d="M595.44,8.89c1.29,0,2,.69,2,2.22v7.2h-1.28v-7c0-.77-.27-1.22-1.1-1.22s-1.38.15-1.38.92v7.3H592.4V9h1.27V10.7A1.59,1.59,0,0,1,595.44,8.89Z"/><path d="M600.42,10v8.34h-1.28V10h-1V9h1V7.72h1.28V9h1.45v1Z"/><path d="M607.36,10v8.34h-1.27V10h-1V9h1V7.72h1.27V9h1.46v1Z"/><path d="M611.91,18.38c-1.95,0-2.68-1-2.68-2.82V11.7c0-1.82.73-2.81,2.68-2.81s2.67,1,2.67,2.81v3.86C614.58,17.39,613.79,18.38,611.91,18.38Zm0-8.22c-1,0-1.37.42-1.37,1.78v3.38c0,1.37.42,1.79,1.37,1.79s1.42-.41,1.42-1.79V11.94C613.3,10.57,612.86,10.16,611.88,10.16Z"/><path d="M617.3,10v8.34H616V10h-1V9h1V7.72h1.27V9h1.46v1Z"/><path d="M621.26,18.38c-1.24,0-1.91-.61-1.91-2V14.84c0-2.19,2.3-1.91,3.75-2.32V11.36c0-1-.36-1.21-1.22-1.21s-1.1.23-1.1.86v.9H619.5V10.84c0-1.31.75-2,2.38-2s2.5.61,2.5,2.27v7.16H623.1V16.57A1.62,1.62,0,0,1,621.26,18.38Zm1.84-2.12V13.53c-1.65.29-2.48.34-2.48,1.16v1.52c0,.62.25,1,1,1S623.1,17,623.1,16.26Z"/><path d="M625.29,7.72h1.27V18.31h-1.27Z"/></g></svg>