<?xml version="1.0" encoding="utf-8"?>
<!-- Generator: Adobe Illustrator 22.1.0, SVG Export Plug-In . SVG Version: 6.00 Build 0)  -->
<svg version="1.1" id="Calque_1" xmlns="http://www.w3.org/2000/svg" xmlns:xlink="http://www.w3.org/1999/xlink" x="0px" y="0px"
	 viewBox="0 0 500 500" style="enable-background:new 0 0 500 500;" xml:space="preserve">
<style type="text/css">
	.st0{fill:none;}
	.st1{fill:#354DFC;}
	.st2{fill:#002C49;}
	.st3{fill:#00FF8B;}
	.st4{fill:#FF0000;}
	.st5{fill:#FFFFFF;}
</style>
<g id="Calque_1_1_">
</g>
<g id="Vert">
	<g>
		<path class="st0" d="M293.2,143.3v-13.9c0-1,0-1.8-0.1-2.7c-0.3,0-0.6,0-0.9,0h-4.7v28.4C291.2,153.9,293.2,150.7,293.2,143.3z"/>
		<path class="st0" d="M389,362.7c0,14.2,3.5,20.7,10.8,23.2c7.4-2.4,10.8-9,10.8-23.2v-51c0-5.9-0.6-10.5-1.8-14.1
			c-2.5-0.8-5.5-1.1-9-1.1c-3.4,0-6.4,0.3-8.9,1.2c-1.3,3.5-1.9,8.1-1.9,14.1L389,362.7L389,362.7z"/>
		<path class="st0" d="M293.2,312.5v-13.9c0-1,0-1.8-0.1-2.7c-0.3,0-0.6,0-0.9,0h-4.7v28.4C291.5,323.3,293.2,320.1,293.2,312.5z"/>
		<polygon class="st0" points="188.3,351 187.7,347.7 187.2,351 		"/>
		<path class="st0" d="M298.1,203.7v-16.6c0-1.5-0.1-2.8-0.2-3.9c-1.3-0.2-2.8-0.3-4.5-0.3h-6.1v35.1
			C294.8,217.4,298.1,213.8,298.1,203.7z"/>
		<path class="st1" d="M298,352.5c-0.9-6.5-4.2-8.8-10.5-9.3v9.1h6.1C295.2,352.2,296.8,352.3,298,352.5z"/>
		<g>
			<polygon class="st1" points="68.3,236.9 59.2,236.9 59.2,246.1 118.3,246.1 118.3,236.9 			"/>
			<path class="st1" d="M320.7,163.5c0.6-0.9,1.1-2,1.4-3c-2.7,1.1-6.1,1.7-10.1,1.9C315.1,162.6,318,162.9,320.7,163.5z"/>
			<path class="st1" d="M266.6,236.9L266.6,236.9h-9.2v9.2h36.2c17.4,0,27.3-4.4,31.8-13.4c-5.4,2.8-12.8,4.2-22.6,4.2H266.6z"/>
			<path class="st1" d="M298,183.1c-0.9-6.5-4.2-8.8-10.5-9.3v9.1h6.1C295.2,182.9,296.7,183,298,183.1z"/>
			<path class="st1" d="M293.1,126.7c-0.4-5.4-2.2-7.8-5.6-8.7v8.7h4.7C292.4,126.7,292.8,126.7,293.1,126.7z"/>
			<polygon class="st1" points="215.7,406.2 206.6,406.2 203.5,406.2 205,415.3 225.6,415.3 224,406.2 218,406.2 			"/>
			<polygon class="st1" points="184.1,369.4 182.6,378.6 192.9,378.6 191.4,369.4 			"/>
			<polygon class="st1" points="157.3,406.2 148.2,406.2 148.2,406.2 146.6,415.3 167.2,415.3 168.7,406.2 159.7,406.2 			"/>
			<path class="st1" d="M408.7,297.7c-1.7-4.8-4.7-7.7-8.9-9.1c-4.3,1.4-7.2,4.3-9,9.1c2.5-0.8,5.5-1.2,8.9-1.2
				C403.2,296.6,406.2,296.9,408.7,297.7z"/>
			<path class="st1" d="M404.3,406.9c-1.5,0.1-3,0.2-4.5,0.2c-1.6,0-3.1-0.1-4.6-0.2c-1.5,0.1-3,0.2-4.5,0.2c-10.7,0-19-2-25.4-5.9
				c6.3,9.9,17.4,15.1,34.5,15.1c17,0,28.3-5.3,34.7-15.3c-6.4,4-14.8,6.1-25.5,6.1C407.4,407,405.8,407,404.3,406.9z"/>
			<polygon class="st1" points="186.4,236.9 177.2,236.9 177.2,246.1 198,246.1 198,236.9 			"/>
			<polygon class="st1" points="109.3,406.2 68.6,406.2 59.5,406.2 59.5,406.2 59.5,415.3 118.6,415.3 118.6,406.2 118.6,406.2 			
				"/>
			<path class="st1" d="M293.2,296.1c-0.4-5.4-2.2-7.8-5.6-8.7v8.7h4.7C292.5,296.1,292.8,296.1,293.2,296.1z"/>
			<path class="st1" d="M293.8,406.2h-9.2h-17.9h-9.2l0,0v9.2h36.2c17.4,0,27.3-4.4,31.8-13.4c-5.4,2.8-12.8,4.2-22.6,4.2
				L293.8,406.2L293.8,406.2z"/>
			<path class="st1" d="M320.7,332.9c0.6-0.9,1-2,1.4-3c-2.7,1.1-6.1,1.7-10.1,1.9C315.4,331.8,318.3,332.2,320.7,332.9z"/>
			<polygon class="st1" points="406.7,119.1 406.7,128.3 440.7,128.3 440.7,119.1 431.6,119.1 			"/>
			<rect x="406.7" y="175.5" class="st1" width="32.7" height="9.2"/>
			<polygon class="st1" points="385.9,236.9 376.7,236.9 376.7,236.9 376.7,246.1 440.7,246.1 440.7,236.9 			"/>
			<polygon class="st1" points="421.5,94.2 414.9,94.2 414.9,94.2 405.8,94.2 400.3,94.2 400.2,94.2 398.7,98.9 416.4,98.9 			"/>
		</g>
		<polygon class="st2" points="109.1,236.9 68.3,236.9 68.3,236.9 118.3,236.9 118.3,236.9 		"/>
		<path class="st2" d="M287.5,126.7v-8.7c-1.3-0.3-2.7-0.5-4.5-0.5h-4.7v9.2H287.5z"/>
		<path class="st2" d="M287.5,182.9v-9.1c-1-0.1-2-0.1-3.1-0.1h-6.1v9.2H287.5L287.5,182.9z"/>
		<path class="st2" d="M328.3,208.6c0,19.1-9.5,28.3-34.7,28.3h-9.2h-17.9l0,0h36.2c9.8,0,17.2-1.4,22.6-4.2c2-4,2.9-9,2.9-14.9
			v-9.2L328.3,208.6L328.3,208.6z"/>
		<path class="st2" d="M323.1,133.5L323.1,133.5v10.6c0,10.8-5.6,17.4-20.3,18.3c6.7,0.3,11.8,1.6,15.7,3.7c0.8-0.8,1.5-1.6,2.1-2.6
			c-2.6-0.6-5.4-0.9-8.7-1.1c4-0.2,7.4-0.9,10.1-1.9c0.7-2.1,1.1-4.5,1.1-7.2L323.1,133.5L323.1,133.5z"/>
		<polygon class="st2" points="174.9,369.4 173.3,378.6 182.6,378.6 184.1,369.4 		"/>
		<path class="st2" d="M379.9,311.7v9.2c0-14.2,3.5-20.8,11-23.2c1.7-4.8,4.7-7.7,9-9.1c-1.4-0.5-2.9-0.8-4.6-1
			C384.7,288.9,379.9,295,379.9,311.7z"/>
		<path class="st2" d="M440.7,365.3c0,25.6-11.2,40.1-36.4,41.7c1.5,0.1,3,0.2,4.6,0.2c10.7,0,19.1-2.1,25.5-6.1
			c4.3-6.7,6.3-15.6,6.3-26.5L440.7,365.3L440.7,365.3z"/>
		<polygon class="st2" points="188.9,236.9 186.4,236.9 186.4,236.9 198,236.9 198,236.9 		"/>
		<rect x="118.6" y="395" class="st2" width="0" height="11.1"/>
		<rect x="80.3" y="277.4" class="st2" width="0" height="108.5"/>
		<path class="st2" d="M278.4,352.2h9.2v-9.1c-1-0.1-2-0.1-3.1-0.1h-6.1"/>
		<path class="st2" d="M287.6,296.1v-8.7c-1.3-0.3-2.7-0.5-4.5-0.5h-4.7v38.1l0,0v-28.9H287.6z"/>
		<path class="st2" d="M328.5,377.9c0,19.1-9.5,28.3-34.7,28.3h9.2c9.8,0,17.2-1.4,22.6-4.2c2-4,2.9-9,2.9-14.9L328.5,377.9
			L328.5,377.9z"/>
		<path class="st2" d="M323.2,313.4c0,10.8-5.6,17.4-20.3,18.3c6.7,0.3,11.8,1.6,15.7,3.7c0.8-0.8,1.5-1.6,2.1-2.6
			c-2.6-0.6-5.4-0.9-8.7-1.1c4-0.2,7.4-0.9,10.1-1.9c0.7-2.1,1.1-4.5,1.1-7.2L323.2,313.4L323.2,313.4z"/>
		<polygon class="st2" points="431.6,236.9 385.9,236.9 385.9,236.9 440.7,236.9 440.7,236.9 		"/>
		<rect x="397.5" y="119.1" class="st2" width="9.2" height="9.2"/>
		<rect x="397.5" y="175.5" class="st2" width="9.2" height="9.2"/>
		<path class="st2" d="M397.5,175.5"/>
		<g>
			<rect x="80" y="98.9" class="st3" width="9.2" height="117.7"/>
			<polygon class="st3" points="127.4,216.6 118.3,216.6 118.3,236.9 118.3,236.9 118.3,236.9 127.4,236.9 			"/>
			<path class="st3" d="M287.5,155.1v-28.4h-9.2v28.9h4.7C284.7,155.7,286.1,155.5,287.5,155.1z"/>
			<path class="st3" d="M323.1,124.3v9.1l0,0v19.8c0,2.6-0.3,5-1.1,7.2c7.3-2.8,10.2-8.5,10.2-16.3v-19.8c0-17.6-8.1-25.4-30-25.4
				h-9.1C314.9,98.9,323.1,106.7,323.1,124.3z"/>
			<path class="st3" d="M287.5,217.9v-35.1h-9.2V218h6.1C285.5,218.1,286.4,218.1,287.5,217.9z"/>
			<path class="st3" d="M318.6,166.1c6.9,3.7,9.8,10.2,9.8,19v9.2v14.4v9.2c0,5.9-0.9,10.9-2.9,14.9c8.5-4.4,12.1-12.4,12.1-24.1
				v-23.5c0-11.5-4.8-18.9-16.9-21.6C320,164.5,319.4,165.3,318.6,166.1z"/>
			<polygon class="st3" points="168.9,406.2 178,406.2 182.6,378.6 173.3,378.6 			"/>
			<polygon class="st3" points="178,351 187.2,351 187.7,347.7 183.2,320.5 			"/>
			<polygon class="st3" points="203.1,268.2 227.2,406.2 236.4,406.2 212.2,268.2 			"/>
			<path class="st3" d="M409,267.4c-1.4,0-2.8,0.1-4.2,0.2c25.2,1.7,36,16.2,36,41.7v9.2v46.9v9.2c0,10.9-2,19.8-6.3,26.5
				c10.6-6.7,15.5-18.8,15.5-35.7v-56C449.9,282.2,437.8,267.4,409,267.4z"/>
			<path class="st3" d="M389,362.7v-51c0-5.9,0.6-10.5,1.9-14.1c-7.5,2.4-11,9-11,23.2v41.8c0,16.9,4.9,22.9,15.4,24.1
				c1.7-0.2,3.2-0.5,4.6-1C392.4,383.4,389,376.9,389,362.7z"/>
			<polygon class="st3" points="207.2,98.9 198,98.9 198,108.1 198,236.9 198,236.9 207.2,236.9 			"/>
			<polygon class="st3" points="118.6,395 118.6,395 118.6,406.2 127.7,406.2 127.7,385.9 118.6,385.9 			"/>
			<polygon class="st3" points="80.3,277.4 80.3,277.4 80.3,385.9 89.5,385.9 89.5,268.2 80.3,268.2 			"/>
			<path class="st3" d="M320.7,332.9c-0.6,0.9-1.3,1.8-2.1,2.6c6.9,3.7,9.8,10.2,9.8,19v9.2l0,0v23.5c0,5.9-0.9,10.9-2.9,14.9
				c8.5-4.4,12.1-12.4,12.1-24.1v-23.5C337.6,342.9,332.8,335.5,320.7,332.9z"/>
			<path class="st3" d="M323.2,313.4L323.2,313.4v9.2c0,2.7-0.3,5-1.1,7.2c7.3-2.8,10.2-8.5,10.2-16.3v-19.8
				c0-17.6-8.1-25.4-30-25.4h-9.2c21.8,0,30,7.8,30,25.4L323.2,313.4L323.2,313.4z"/>
			<path class="st3" d="M278.4,324.9h4.7c1.7,0,3.2-0.1,4.5-0.5v-28.4h-9.2V324.9z"/>
			<path class="st3" d="M278.4,387.4h6.1c1.1,0,2.1,0,3.1-0.1v-35.1h-9.2V387.4z"/>
			<rect x="397.5" y="184.7" class="st3" width="9.2" height="31.8"/>
			<polygon class="st3" points="440.7,225.8 440.7,236.9 440.7,236.9 449.9,236.9 449.9,216.6 440.7,216.6 			"/>
			<rect x="397.5" y="128.3" class="st3" width="9.2" height="27.6"/>
			<polygon class="st3" points="439.4,175.5 448.5,175.5 448.5,155.9 439.4,155.9 439.4,165.1 439.4,165.1 			"/>
			<polygon class="st3" points="440.7,98.9 440.7,108.1 440.7,119.1 449.9,119.1 449.9,98.9 			"/>
			<polygon class="st3" points="426.1,83.7 416.3,92.9 422.9,92.9 421.5,94.2 424,94.2 435.2,83.7 413,83.7 413,83.7 417,83.7 			
				"/>
		</g>
		<polygon class="st2" points="416.3,92.9 414.9,94.2 421.5,94.2 422.9,92.9 		"/>
		<g>
			<rect x="50" y="98.9" class="st4" width="9.2" height="138"/>
			<path class="st4" d="M287.5,155.1c-1.3,0.4-2.7,0.5-4.5,0.5h4.5h4.7c6.9,0,10.2-2.4,10.2-12.3l0,0v-13.8
				c0-9.6-3.2-11.8-10.1-11.9l0,0h-9.3c1.7,0,3.2,0.1,4.5,0.5c3.4,0.9,5.2,3.3,5.6,8.7c0.1,0.8,0.1,1.7,0.1,2.7v13.9
				C293.2,150.7,291.2,153.9,287.5,155.1z"/>
			<rect x="248.3" y="98.9" class="st4" width="9.2" height="138"/>
			<path class="st4" d="M287.5,173.8h-3.1C285.5,173.8,286.4,173.8,287.5,173.8c6.3,0.6,9.7,2.9,10.5,9.4c0.2,1.2,0.2,2.5,0.2,3.9
				v16.6c0,10.2-3.3,13.6-10.8,14.3c-1,0.1-2,0.1-3.1,0.1h3.1h6.1c9.7,0,13.9-2.9,13.9-14.4v-7.5v-9.1c0-10.8-4.2-13.4-13.9-13.4h-6
				L287.5,173.8L287.5,173.8z"/>
			<polygon class="st4" points="138.9,406.2 148.2,406.2 148.2,406.2 170.8,277.4 172.4,268.2 163.3,268.2 			"/>
			<polygon class="st4" points="197.5,351 192.4,320.5 187.7,293.3 186.1,302.7 183.2,320.5 187.7,347.7 188.3,351 194.3,351 			"/>
			<polygon class="st4" points="191.4,369.4 192.9,378.6 197.5,406.2 203.5,406.2 206.6,406.2 200.4,369.4 			"/>
			<path class="st4" d="M395.2,267.5c-1.5-0.1-3-0.2-4.6-0.2c-28.8,0-40.8,14.7-40.8,41.8v56c0,17.1,4.8,29.3,15.4,35.9
				c6.3,3.9,14.7,5.9,25.4,5.9c1.6,0,3.1-0.1,4.5-0.2c-25.4-1.5-36.2-15.9-36.2-41.6l0,0v-56C358.9,283.5,369.8,269,395.2,267.5z"/>
			<path class="st4" d="M404.5,287.7c-1.5-0.2-3.1-0.3-4.8-0.3c-1.6,0-3.1,0.1-4.6,0.2c1.7,0.2,3.2,0.5,4.6,1
				c4.3,1.4,7.2,4.2,8.9,9.1c1.2,3.5,1.8,8.1,1.8,14.1v51c0,14.2-3.4,20.7-10.8,23.2c-1.4,0.5-2.9,0.8-4.6,1
				c1.4,0.2,2.9,0.2,4.6,0.2c1.6,0,3.2-0.1,4.6-0.2c10.6-1.2,15.4-7.3,15.4-24.1v-41.9v-9.1C419.7,295,415,288.9,404.5,287.7z"/>
			<rect x="168" y="98.9" class="st4" width="9.2" height="138"/>
			<polygon class="st4" points="50.3,406.2 59.5,406.2 59.5,406.2 59.5,277.4 59.5,268.2 50.3,268.2 			"/>
			<path class="st4" d="M287.6,324.5c-1.3,0.4-2.7,0.5-4.5,0.5h4.5h4.7c6.9,0,10.2-2.4,10.2-12.4v-4.7v-9.2
				c0-9.6-3.2-11.8-10.1-11.9l0,0h-9.2c1.7,0,3.2,0.1,4.5,0.5c3.4,0.9,5.2,3.3,5.6,8.7c0.1,0.8,0.1,1.7,0.1,2.7v13.9
				C293.2,320.1,291.5,323.3,287.6,324.5z"/>
			<polygon class="st4" points="248.4,406.2 257.6,406.2 257.6,406.2 257.6,277.4 257.6,268.2 248.4,268.2 			"/>
			<path class="st4" d="M293.6,343L293.6,343h-9.2c1.1,0,2.1,0,3.1,0.1c6.3,0.5,9.7,2.8,10.5,9.3c0.2,1.2,0.2,2.5,0.2,3.9v16.6
				c0,10.2-3.3,13.6-10.8,14.3c-1,0.1-2,0.1-3.1,0.1h3.1h6.1c9.6,0,13.9-2.9,13.9-14.4l0,0v-16.6C307.5,345.7,303.2,343,293.6,343z"
				/>
			<polygon class="st4" points="376.7,236.9 376.7,108.1 376.7,98.9 367.5,98.9 367.5,236.9 			"/>
			<polygon class="st4" points="400.3,94.2 400.8,92.9 403.9,83.7 394.7,83.7 391.1,94.2 400.2,94.2 			"/>
		</g>
		<g>
			<polygon class="st5" points="109.1,236.9 118.3,236.9 118.3,236.9 118.3,216.6 118.3,216.6 109.1,216.6 89.2,216.6 80,216.6 
				80,98.9 80,98.9 70.8,98.9 59.2,98.9 59.2,236.9 59.2,236.9 68.3,236.9 			"/>
			<path class="st5" d="M284.4,236.9h9.2c25.2,0,34.7-9.1,34.7-28.3v-14.4V185c0-8.9-2.9-15.3-9.8-19c-3.9-2.1-9.1-3.4-15.7-3.7
				c14.7-0.8,20.3-7.5,20.3-18.3v-10.7v-9c0-17.6-8.1-25.4-29.9-25.4l0,0H284h-26.6v138l0,0h9.2h17.9v0.2H284.4z M302.3,129.4v13.9
				l0,0c0,10-3.2,12.3-10.2,12.3h-4.7h-4.4h-4.7v-29v-9.2h4.7h9.2l0,0C299.1,117.5,302.3,119.8,302.3,129.4z M278.3,182.9v-9.2h6.1
				h3.1h6.1c9.7,0,13.9,2.5,13.9,13.4v9.1v7.5c0,11.5-4.2,14.4-13.9,14.4h-6.1h-3.1h-6.1V182.9z"/>
			<path class="st5" d="M193.9,268.2h-12.3h-9.2l-1.6,9.2l-22.6,128.8h9.2h2.3h9h0.1l4.6-27.6l1.5-9.2h9.2h7.2h9.2l6.1,36.7h9.2h2.3
				h5.9h3.3l-24.2-138L193.9,268.2L193.9,268.2z M197.5,351h-3.2h-6h-1.1H178l5.2-30.5l3-17.8l1.6-9.4l4.5,27.2L197.5,351z"/>
			<path class="st5" d="M404.8,267.5c-1.6-0.1-3.3-0.2-5-0.2c-1.6,0-3.1,0.1-4.6,0.2c-25.5,1.5-36.2,16.1-36.2,41.7v56l0,0
				c0,25.7,10.7,40.1,36.2,41.6c1.5,0.1,3,0.2,4.6,0.2c1.6,0,3.1-0.1,4.5-0.2c25.2-1.5,36.4-16.1,36.4-41.7v-46.9V309
				C440.7,283.8,429.9,269.1,404.8,267.5z M404.3,386.9c-1.4,0.2-3,0.2-4.6,0.2s-3.1-0.1-4.6-0.2c-10.5-1.2-15.4-7.3-15.4-24.1V321
				v-9.2c0-16.7,4.9-22.9,15.4-24.1c1.4-0.2,2.9-0.2,4.6-0.2c1.7,0,3.3,0.1,4.8,0.3c10.5,1.3,15.2,7.5,15.2,24.1v9.1v41.9
				C419.7,379.5,415,385.7,404.3,386.9z"/>
			<polygon class="st5" points="186.4,236.9 188.9,236.9 198,236.9 198,108.1 198,98.9 198,98.9 188.9,98.9 177.2,98.9 177.2,236.9 
				177.2,236.9 			"/>
			<polygon class="st5" points="89.5,385.9 80.3,385.9 80.3,385.9 80.3,277.4 80.3,268.2 71.1,268.2 68.6,268.2 59.5,268.2 
				59.5,277.4 59.5,406.2 68.6,406.2 109.3,406.2 118.6,406.2 118.6,395 118.6,385.9 118.6,385.9 109.3,385.9 			"/>
			<path class="st5" d="M318.7,335.3c-3.9-2.1-9.1-3.4-15.7-3.7c14.7-0.8,20.3-7.4,20.3-18.3l0,0v-19.8c0-17.6-8.1-25.4-30-25.4
				h-9.2h-17.4h-9.2v9.2v128.8h9.2h17.9h9.2c25.2,0,34.7-9.1,34.7-28.3v-14.4v-9.2C328.5,345.5,325.5,339.1,318.7,335.3z
				 M278.4,286.9h4.7h9.2l0,0c6.9,0,10.1,2.2,10.1,11.9v9.2v4.7c0,10-3.2,12.4-10.2,12.4h-4.7h-4.5h-4.7l0,0v-38.2H278.4z
				 M278.4,343h6.1h9.2h0.1c9.6,0,13.8,2.6,13.8,13.4v16.6l0,0c0,11.5-4.2,14.4-13.9,14.4h-6h-3.1h-6.1l0,0V343z"/>
			<polygon class="st5" points="431.6,98.9 416.4,98.9 398.7,98.9 376.7,98.9 376.7,108.1 376.7,236.9 385.9,236.9 431.6,236.9 
				440.7,236.9 440.7,225.8 440.7,216.6 440.7,216.6 431.6,216.6 406.7,216.6 397.5,216.6 397.5,216.6 397.5,175.5 430.2,175.5 
				439.4,175.5 439.4,165.1 439.4,155.9 439.4,155.9 430.2,155.9 406.7,155.9 397.5,155.9 397.5,155.9 397.5,119.1 406.7,119.1 
				431.6,119.1 440.7,119.1 440.7,108.1 440.7,98.9 440.7,98.9 			"/>
			<polygon class="st5" points="409.5,94.2 414.9,94.2 416.3,92.9 426.1,83.7 417,83.7 413,83.7 403.9,83.7 400.8,92.9 400.3,94.2 
				405.8,94.2 			"/>
		</g>
	</g>
	<g>
		<path class="st0" d="M293.2,143.3v-13.9c0-1,0-1.8-0.1-2.7c-0.3,0-0.6,0-0.9,0h-4.7v28.4C291.2,153.9,293.2,150.7,293.2,143.3z"/>
		<path class="st0" d="M389,362.7c0,14.2,3.5,20.7,10.8,23.2c7.4-2.4,10.8-9,10.8-23.2v-51c0-5.9-0.6-10.5-1.8-14.1
			c-2.5-0.8-5.5-1.1-9-1.1c-3.4,0-6.4,0.3-8.9,1.2c-1.3,3.5-1.9,8.1-1.9,14.1L389,362.7L389,362.7z"/>
		<path class="st0" d="M293.2,312.5v-13.9c0-1,0-1.8-0.1-2.7c-0.3,0-0.6,0-0.9,0h-4.7v28.4C291.5,323.3,293.2,320.1,293.2,312.5z"/>
		<polygon class="st0" points="188.3,351 187.7,347.7 187.2,351 		"/>
		<path class="st0" d="M298.1,203.7v-16.6c0-1.5-0.1-2.8-0.2-3.9c-1.3-0.2-2.8-0.3-4.5-0.3h-6.1v35.1
			C294.8,217.4,298.1,213.8,298.1,203.7z"/>
		<path class="st1" d="M298,352.5c-0.9-6.5-4.2-8.8-10.5-9.3v9.1h6.1C295.2,352.2,296.8,352.3,298,352.5z"/>
		<g>
			<polygon class="st1" points="68.3,236.9 59.2,236.9 59.2,246.1 118.3,246.1 118.3,236.9 			"/>
			<path class="st1" d="M320.7,163.5c0.6-0.9,1.1-2,1.4-3c-2.7,1.1-6.1,1.7-10.1,1.9C315.1,162.6,318,162.9,320.7,163.5z"/>
			<path class="st1" d="M266.6,236.9L266.6,236.9h-9.2v9.2h36.2c17.4,0,27.3-4.4,31.8-13.4c-5.4,2.8-12.8,4.2-22.6,4.2H266.6z"/>
			<path class="st1" d="M298,183.1c-0.9-6.5-4.2-8.8-10.5-9.3v9.1h6.1C295.2,182.9,296.7,183,298,183.1z"/>
			<path class="st1" d="M293.1,126.7c-0.4-5.4-2.2-7.8-5.6-8.7v8.7h4.7C292.4,126.7,292.8,126.7,293.1,126.7z"/>
			<polygon class="st1" points="215.7,406.2 206.6,406.2 203.5,406.2 205,415.3 225.6,415.3 224,406.2 218,406.2 			"/>
			<polygon class="st1" points="184.1,369.4 182.6,378.6 192.9,378.6 191.4,369.4 			"/>
			<polygon class="st1" points="157.3,406.2 148.2,406.2 148.2,406.2 146.6,415.3 167.2,415.3 168.7,406.2 159.7,406.2 			"/>
			<path class="st1" d="M408.7,297.7c-1.7-4.8-4.7-7.7-8.9-9.1c-4.3,1.4-7.2,4.3-9,9.1c2.5-0.8,5.5-1.2,8.9-1.2
				C403.2,296.6,406.2,296.9,408.7,297.7z"/>
			<path class="st1" d="M404.3,406.9c-1.5,0.1-3,0.2-4.5,0.2c-1.6,0-3.1-0.1-4.6-0.2c-1.5,0.1-3,0.2-4.5,0.2c-10.7,0-19-2-25.4-5.9
				c6.3,9.9,17.4,15.1,34.5,15.1c17,0,28.3-5.3,34.7-15.3c-6.4,4-14.8,6.1-25.5,6.1C407.4,407,405.8,407,404.3,406.9z"/>
			<polygon class="st1" points="186.4,236.9 177.2,236.9 177.2,246.1 198,246.1 198,236.9 			"/>
			<polygon class="st1" points="109.3,406.2 68.6,406.2 59.5,406.2 59.5,406.2 59.5,415.3 118.6,415.3 118.6,406.2 118.6,406.2 			
				"/>
			<path class="st1" d="M293.2,296.1c-0.4-5.4-2.2-7.8-5.6-8.7v8.7h4.7C292.5,296.1,292.8,296.1,293.2,296.1z"/>
			<path class="st1" d="M293.8,406.2h-9.2h-17.9h-9.2l0,0v9.2h36.2c17.4,0,27.3-4.4,31.8-13.4c-5.4,2.8-12.8,4.2-22.6,4.2
				L293.8,406.2L293.8,406.2z"/>
			<path class="st1" d="M320.7,332.9c0.6-0.9,1-2,1.4-3c-2.7,1.1-6.1,1.7-10.1,1.9C315.4,331.8,318.3,332.2,320.7,332.9z"/>
			<polygon class="st1" points="406.7,119.1 406.7,128.3 440.7,128.3 440.7,119.1 431.6,119.1 			"/>
			<rect x="406.7" y="175.5" class="st1" width="32.7" height="9.2"/>
			<polygon class="st1" points="385.9,236.9 376.7,236.9 376.7,236.9 376.7,246.1 440.7,246.1 440.7,236.9 			"/>
			<polygon class="st1" points="421.5,94.2 414.9,94.2 414.9,94.2 405.8,94.2 400.3,94.2 400.2,94.2 398.7,98.9 416.4,98.9 			"/>
		</g>
		<polygon class="st2" points="109.1,236.9 68.3,236.9 68.3,236.9 118.3,236.9 118.3,236.9 		"/>
		<path class="st2" d="M287.5,126.7v-8.7c-1.3-0.3-2.7-0.5-4.5-0.5h-4.7v9.2H287.5z"/>
		<path class="st2" d="M287.5,182.9v-9.1c-1-0.1-2-0.1-3.1-0.1h-6.1v9.2H287.5L287.5,182.9z"/>
		<path class="st2" d="M328.3,208.6c0,19.1-9.5,28.3-34.7,28.3h-9.2h-17.9l0,0h36.2c9.8,0,17.2-1.4,22.6-4.2c2-4,2.9-9,2.9-14.9
			v-9.2L328.3,208.6L328.3,208.6z"/>
		<path class="st2" d="M323.1,133.5L323.1,133.5v10.6c0,10.8-5.6,17.4-20.3,18.3c6.7,0.3,11.8,1.6,15.7,3.7c0.8-0.8,1.5-1.6,2.1-2.6
			c-2.6-0.6-5.4-0.9-8.7-1.1c4-0.2,7.4-0.9,10.1-1.9c0.7-2.1,1.1-4.5,1.1-7.2L323.1,133.5L323.1,133.5z"/>
		<polygon class="st2" points="174.9,369.4 173.3,378.6 182.6,378.6 184.1,369.4 		"/>
		<path class="st2" d="M379.9,311.7v9.2c0-14.2,3.5-20.8,11-23.2c1.7-4.8,4.7-7.7,9-9.1c-1.4-0.5-2.9-0.8-4.6-1
			C384.7,288.9,379.9,295,379.9,311.7z"/>
		<path class="st2" d="M440.7,365.3c0,25.6-11.2,40.1-36.4,41.7c1.5,0.1,3,0.2,4.6,0.2c10.7,0,19.1-2.1,25.5-6.1
			c4.3-6.7,6.3-15.6,6.3-26.5L440.7,365.3L440.7,365.3z"/>
		<polygon class="st2" points="188.9,236.9 186.4,236.9 186.4,236.9 198,236.9 198,236.9 		"/>
		<rect x="118.6" y="395" class="st2" width="0" height="11.1"/>
		<rect x="80.3" y="277.4" class="st2" width="0" height="108.5"/>
		<path class="st2" d="M278.4,352.2h9.2v-9.1c-1-0.1-2-0.1-3.1-0.1h-6.1"/>
		<path class="st2" d="M287.6,296.1v-8.7c-1.3-0.3-2.7-0.5-4.5-0.5h-4.7v38.1l0,0v-28.9H287.6z"/>
		<path class="st2" d="M328.5,377.9c0,19.1-9.5,28.3-34.7,28.3h9.2c9.8,0,17.2-1.4,22.6-4.2c2-4,2.9-9,2.9-14.9L328.5,377.9
			L328.5,377.9z"/>
		<path class="st2" d="M323.2,313.4c0,10.8-5.6,17.4-20.3,18.3c6.7,0.3,11.8,1.6,15.7,3.7c0.8-0.8,1.5-1.6,2.1-2.6
			c-2.6-0.6-5.4-0.9-8.7-1.1c4-0.2,7.4-0.9,10.1-1.9c0.7-2.1,1.1-4.5,1.1-7.2L323.2,313.4L323.2,313.4z"/>
		<polygon class="st2" points="431.6,236.9 385.9,236.9 385.9,236.9 440.7,236.9 440.7,236.9 		"/>
		<rect x="397.5" y="119.1" class="st2" width="9.2" height="9.2"/>
		<rect x="397.5" y="175.5" class="st2" width="9.2" height="9.2"/>
		<path class="st2" d="M397.5,175.5"/>
		<g>
			<rect x="80" y="98.9" class="st3" width="9.2" height="117.7"/>
			<polygon class="st3" points="127.4,216.6 118.3,216.6 118.3,236.9 118.3,236.9 118.3,236.9 127.4,236.9 			"/>
			<path class="st3" d="M287.5,155.1v-28.4h-9.2v28.9h4.7C284.7,155.7,286.1,155.5,287.5,155.1z"/>
			<path class="st3" d="M323.1,124.3v9.1l0,0v19.8c0,2.6-0.3,5-1.1,7.2c7.3-2.8,10.2-8.5,10.2-16.3v-19.8c0-17.6-8.1-25.4-30-25.4
				h-9.1C314.9,98.9,323.1,106.7,323.1,124.3z"/>
			<path class="st3" d="M287.5,217.9v-35.1h-9.2V218h6.1C285.5,218.1,286.4,218.1,287.5,217.9z"/>
			<path class="st3" d="M318.6,166.1c6.9,3.7,9.8,10.2,9.8,19v9.2v14.4v9.2c0,5.9-0.9,10.9-2.9,14.9c8.5-4.4,12.1-12.4,12.1-24.1
				v-23.5c0-11.5-4.8-18.9-16.9-21.6C320,164.5,319.4,165.3,318.6,166.1z"/>
			<polygon class="st3" points="168.9,406.2 178,406.2 182.6,378.6 173.3,378.6 			"/>
			<polygon class="st3" points="178,351 187.2,351 187.7,347.7 183.2,320.5 			"/>
			<polygon class="st3" points="203.1,268.2 227.2,406.2 236.4,406.2 212.2,268.2 			"/>
			<path class="st3" d="M409,267.4c-1.4,0-2.8,0.1-4.2,0.2c25.2,1.7,36,16.2,36,41.7v9.2v46.9v9.2c0,10.9-2,19.8-6.3,26.5
				c10.6-6.7,15.5-18.8,15.5-35.7v-56C449.9,282.2,437.8,267.4,409,267.4z"/>
			<path class="st3" d="M389,362.7v-51c0-5.9,0.6-10.5,1.9-14.1c-7.5,2.4-11,9-11,23.2v41.8c0,16.9,4.9,22.9,15.4,24.1
				c1.7-0.2,3.2-0.5,4.6-1C392.4,383.4,389,376.9,389,362.7z"/>
			<polygon class="st3" points="207.2,98.9 198,98.9 198,108.1 198,236.9 198,236.9 207.2,236.9 			"/>
			<polygon class="st3" points="118.6,395 118.6,395 118.6,406.2 127.7,406.2 127.7,385.9 118.6,385.9 			"/>
			<polygon class="st3" points="80.3,277.4 80.3,277.4 80.3,385.9 89.5,385.9 89.5,268.2 80.3,268.2 			"/>
			<path class="st3" d="M320.7,332.9c-0.6,0.9-1.3,1.8-2.1,2.6c6.9,3.7,9.8,10.2,9.8,19v9.2l0,0v23.5c0,5.9-0.9,10.9-2.9,14.9
				c8.5-4.4,12.1-12.4,12.1-24.1v-23.5C337.6,342.9,332.8,335.5,320.7,332.9z"/>
			<path class="st3" d="M323.2,313.4L323.2,313.4v9.2c0,2.7-0.3,5-1.1,7.2c7.3-2.8,10.2-8.5,10.2-16.3v-19.8
				c0-17.6-8.1-25.4-30-25.4h-9.2c21.8,0,30,7.8,30,25.4L323.2,313.4L323.2,313.4z"/>
			<path class="st3" d="M278.4,324.9h4.7c1.7,0,3.2-0.1,4.5-0.5v-28.4h-9.2V324.9z"/>
			<path class="st3" d="M278.4,387.4h6.1c1.1,0,2.1,0,3.1-0.1v-35.1h-9.2V387.4z"/>
			<rect x="397.5" y="184.7" class="st3" width="9.2" height="31.8"/>
			<polygon class="st3" points="440.7,225.8 440.7,236.9 440.7,236.9 449.9,236.9 449.9,216.6 440.7,216.6 			"/>
			<rect x="397.5" y="128.3" class="st3" width="9.2" height="27.6"/>
			<polygon class="st3" points="439.4,175.5 448.5,175.5 448.5,155.9 439.4,155.9 439.4,165.1 439.4,165.1 			"/>
			<polygon class="st3" points="440.7,98.9 440.7,108.1 440.7,119.1 449.9,119.1 449.9,98.9 			"/>
			<polygon class="st3" points="426.1,83.7 416.3,92.9 422.9,92.9 421.5,94.2 424,94.2 435.2,83.7 413,83.7 413,83.7 417,83.7 			
				"/>
		</g>
		<polygon class="st2" points="416.3,92.9 414.9,94.2 421.5,94.2 422.9,92.9 		"/>
		<g>
			<rect x="50" y="98.9" class="st4" width="9.2" height="138"/>
			<path class="st4" d="M287.5,155.1c-1.3,0.4-2.7,0.5-4.5,0.5h4.5h4.7c6.9,0,10.2-2.4,10.2-12.3l0,0v-13.8
				c0-9.6-3.2-11.8-10.1-11.9l0,0h-9.3c1.7,0,3.2,0.1,4.5,0.5c3.4,0.9,5.2,3.3,5.6,8.7c0.1,0.8,0.1,1.7,0.1,2.7v13.9
				C293.2,150.7,291.2,153.9,287.5,155.1z"/>
			<rect x="248.3" y="98.9" class="st4" width="9.2" height="138"/>
			<path class="st4" d="M287.5,173.8h-3.1C285.5,173.8,286.4,173.8,287.5,173.8c6.3,0.6,9.7,2.9,10.5,9.4c0.2,1.2,0.2,2.5,0.2,3.9
				v16.6c0,10.2-3.3,13.6-10.8,14.3c-1,0.1-2,0.1-3.1,0.1h3.1h6.1c9.7,0,13.9-2.9,13.9-14.4v-7.5v-9.1c0-10.8-4.2-13.4-13.9-13.4h-6
				L287.5,173.8L287.5,173.8z"/>
			<polygon class="st4" points="138.9,406.2 148.2,406.2 148.2,406.2 170.8,277.4 172.4,268.2 163.3,268.2 			"/>
			<polygon class="st4" points="197.5,351 192.4,320.5 187.7,293.3 186.1,302.7 183.2,320.5 187.7,347.7 188.3,351 194.3,351 			"/>
			<polygon class="st4" points="191.4,369.4 192.9,378.6 197.5,406.2 203.5,406.2 206.6,406.2 200.4,369.4 			"/>
			<path class="st4" d="M395.2,267.5c-1.5-0.1-3-0.2-4.6-0.2c-28.8,0-40.8,14.7-40.8,41.8v56c0,17.1,4.8,29.3,15.4,35.9
				c6.3,3.9,14.7,5.9,25.4,5.9c1.6,0,3.1-0.1,4.5-0.2c-25.4-1.5-36.2-15.9-36.2-41.6l0,0v-56C358.9,283.5,369.8,269,395.2,267.5z"/>
			<path class="st4" d="M404.5,287.7c-1.5-0.2-3.1-0.3-4.8-0.3c-1.6,0-3.1,0.1-4.6,0.2c1.7,0.2,3.2,0.5,4.6,1
				c4.3,1.4,7.2,4.2,8.9,9.1c1.2,3.5,1.8,8.1,1.8,14.1v51c0,14.2-3.4,20.7-10.8,23.2c-1.4,0.5-2.9,0.8-4.6,1
				c1.4,0.2,2.9,0.2,4.6,0.2c1.6,0,3.2-0.1,4.6-0.2c10.6-1.2,15.4-7.3,15.4-24.1v-41.9v-9.1C419.7,295,415,288.9,404.5,287.7z"/>
			<rect x="168" y="98.9" class="st4" width="9.2" height="138"/>
			<polygon class="st4" points="50.3,406.2 59.5,406.2 59.5,406.2 59.5,277.4 59.5,268.2 50.3,268.2 			"/>
			<path class="st4" d="M287.6,324.5c-1.3,0.4-2.7,0.5-4.5,0.5h4.5h4.7c6.9,0,10.2-2.4,10.2-12.4v-4.7v-9.2
				c0-9.6-3.2-11.8-10.1-11.9l0,0h-9.2c1.7,0,3.2,0.1,4.5,0.5c3.4,0.9,5.2,3.3,5.6,8.7c0.1,0.8,0.1,1.7,0.1,2.7v13.9
				C293.2,320.1,291.5,323.3,287.6,324.5z"/>
			<polygon class="st4" points="248.4,406.2 257.6,406.2 257.6,406.2 257.6,277.4 257.6,268.2 248.4,268.2 			"/>
			<path class="st4" d="M293.6,343L293.6,343h-9.2c1.1,0,2.1,0,3.1,0.1c6.3,0.5,9.7,2.8,10.5,9.3c0.2,1.2,0.2,2.5,0.2,3.9v16.6
				c0,10.2-3.3,13.6-10.8,14.3c-1,0.1-2,0.1-3.1,0.1h3.1h6.1c9.6,0,13.9-2.9,13.9-14.4l0,0v-16.6C307.5,345.7,303.2,343,293.6,343z"
				/>
			<polygon class="st4" points="376.7,236.9 376.7,108.1 376.7,98.9 367.5,98.9 367.5,236.9 			"/>
			<polygon class="st4" points="400.3,94.2 400.8,92.9 403.9,83.7 394.7,83.7 391.1,94.2 400.2,94.2 			"/>
		</g>
		<g>
			<polygon class="st5" points="109.1,236.9 118.3,236.9 118.3,236.9 118.3,216.6 118.3,216.6 109.1,216.6 89.2,216.6 80,216.6 
				80,98.9 80,98.9 70.8,98.9 59.2,98.9 59.2,236.9 59.2,236.9 68.3,236.9 			"/>
			<path class="st5" d="M284.4,236.9h9.2c25.2,0,34.7-9.1,34.7-28.3v-14.4V185c0-8.9-2.9-15.3-9.8-19c-3.9-2.1-9.1-3.4-15.7-3.7
				c14.7-0.8,20.3-7.5,20.3-18.3v-10.7v-9c0-17.6-8.1-25.4-29.9-25.4l0,0H284h-26.6v138l0,0h9.2h17.9v0.2H284.4z M302.3,129.4v13.9
				l0,0c0,10-3.2,12.3-10.2,12.3h-4.7h-4.4h-4.7v-29v-9.2h4.7h9.2l0,0C299.1,117.5,302.3,119.8,302.3,129.4z M278.3,182.9v-9.2h6.1
				h3.1h6.1c9.7,0,13.9,2.5,13.9,13.4v9.1v7.5c0,11.5-4.2,14.4-13.9,14.4h-6.1h-3.1h-6.1V182.9z"/>
			<path class="st5" d="M193.9,268.2h-12.3h-9.2l-1.6,9.2l-22.6,128.8h9.2h2.3h9h0.1l4.6-27.6l1.5-9.2h9.2h7.2h9.2l6.1,36.7h9.2h2.3
				h5.9h3.3l-24.2-138L193.9,268.2L193.9,268.2z M197.5,351h-3.2h-6h-1.1H178l5.2-30.5l3-17.8l1.6-9.4l4.5,27.2L197.5,351z"/>
			<path class="st5" d="M404.8,267.5c-1.6-0.1-3.3-0.2-5-0.2c-1.6,0-3.1,0.1-4.6,0.2c-25.5,1.5-36.2,16.1-36.2,41.7v56l0,0
				c0,25.7,10.7,40.1,36.2,41.6c1.5,0.1,3,0.2,4.6,0.2c1.6,0,3.1-0.1,4.5-0.2c25.2-1.5,36.4-16.1,36.4-41.7v-46.9V309
				C440.7,283.8,429.9,269.1,404.8,267.5z M404.3,386.9c-1.4,0.2-3,0.2-4.6,0.2s-3.1-0.1-4.6-0.2c-10.5-1.2-15.4-7.3-15.4-24.1V321
				v-9.2c0-16.7,4.9-22.9,15.4-24.1c1.4-0.2,2.9-0.2,4.6-0.2c1.7,0,3.3,0.1,4.8,0.3c10.5,1.3,15.2,7.5,15.2,24.1v9.1v41.9
				C419.7,379.5,415,385.7,404.3,386.9z"/>
			<polygon class="st5" points="186.4,236.9 188.9,236.9 198,236.9 198,108.1 198,98.9 198,98.9 188.9,98.9 177.2,98.9 177.2,236.9 
				177.2,236.9 			"/>
			<polygon class="st5" points="89.5,385.9 80.3,385.9 80.3,385.9 80.3,277.4 80.3,268.2 71.1,268.2 68.6,268.2 59.5,268.2 
				59.5,277.4 59.5,406.2 68.6,406.2 109.3,406.2 118.6,406.2 118.6,395 118.6,385.9 118.6,385.9 109.3,385.9 			"/>
			<path class="st5" d="M318.7,335.3c-3.9-2.1-9.1-3.4-15.7-3.7c14.7-0.8,20.3-7.4,20.3-18.3l0,0v-19.8c0-17.6-8.1-25.4-30-25.4
				h-9.2h-17.4h-9.2v9.2v128.8h9.2h17.9h9.2c25.2,0,34.7-9.1,34.7-28.3v-14.4v-9.2C328.5,345.5,325.5,339.1,318.7,335.3z
				 M278.4,286.9h4.7h9.2l0,0c6.9,0,10.1,2.2,10.1,11.9v9.2v4.7c0,10-3.2,12.4-10.2,12.4h-4.7h-4.5h-4.7l0,0v-38.2H278.4z
				 M278.4,343h6.1h9.2h0.1c9.6,0,13.8,2.6,13.8,13.4v16.6l0,0c0,11.5-4.2,14.4-13.9,14.4h-6h-3.1h-6.1l0,0V343z"/>
			<polygon class="st5" points="431.6,98.9 416.4,98.9 398.7,98.9 376.7,98.9 376.7,108.1 376.7,236.9 385.9,236.9 431.6,236.9 
				440.7,236.9 440.7,225.8 440.7,216.6 440.7,216.6 431.6,216.6 406.7,216.6 397.5,216.6 397.5,216.6 397.5,175.5 430.2,175.5 
				439.4,175.5 439.4,165.1 439.4,155.9 439.4,155.9 430.2,155.9 406.7,155.9 397.5,155.9 397.5,155.9 397.5,119.1 406.7,119.1 
				431.6,119.1 440.7,119.1 440.7,108.1 440.7,98.9 440.7,98.9 			"/>
			<polygon class="st5" points="409.5,94.2 414.9,94.2 416.3,92.9 426.1,83.7 417,83.7 413,83.7 403.9,83.7 400.8,92.9 400.3,94.2 
				405.8,94.2 			"/>
		</g>
	</g>
	<g>
		<path class="st0" d="M293.2,143.3v-13.9c0-1,0-1.8-0.1-2.7c-0.3,0-0.6,0-0.9,0h-4.7v28.4C291.2,153.9,293.2,150.7,293.2,143.3z"/>
		<path class="st0" d="M389,362.7c0,14.2,3.5,20.7,10.8,23.2c7.4-2.4,10.8-9,10.8-23.2v-51c0-5.9-0.6-10.5-1.8-14.1
			c-2.5-0.8-5.5-1.1-9-1.1c-3.4,0-6.4,0.3-8.9,1.2c-1.3,3.5-1.9,8.1-1.9,14.1L389,362.7L389,362.7z"/>
		<path class="st0" d="M293.2,312.5v-13.9c0-1,0-1.8-0.1-2.7c-0.3,0-0.6,0-0.9,0h-4.7v28.4C291.5,323.3,293.2,320.1,293.2,312.5z"/>
		<polygon class="st0" points="188.3,351 187.7,347.7 187.2,351 		"/>
		<path class="st0" d="M298.1,203.7v-16.6c0-1.5-0.1-2.8-0.2-3.9c-1.3-0.2-2.8-0.3-4.5-0.3h-6.1v35.1
			C294.8,217.4,298.1,213.8,298.1,203.7z"/>
		<path class="st1" d="M298,352.5c-0.9-6.5-4.2-8.8-10.5-9.3v9.1h6.1C295.2,352.2,296.8,352.3,298,352.5z"/>
		<g>
			<polygon class="st1" points="68.3,236.9 59.2,236.9 59.2,246.1 118.3,246.1 118.3,236.9 			"/>
			<path class="st1" d="M320.7,163.5c0.6-0.9,1.1-2,1.4-3c-2.7,1.1-6.1,1.7-10.1,1.9C315.1,162.6,318,162.9,320.7,163.5z"/>
			<path class="st1" d="M266.6,236.9L266.6,236.9h-9.2v9.2h36.2c17.4,0,27.3-4.4,31.8-13.4c-5.4,2.8-12.8,4.2-22.6,4.2H266.6z"/>
			<path class="st1" d="M298,183.1c-0.9-6.5-4.2-8.8-10.5-9.3v9.1h6.1C295.2,182.9,296.7,183,298,183.1z"/>
			<path class="st1" d="M293.1,126.7c-0.4-5.4-2.2-7.8-5.6-8.7v8.7h4.7C292.4,126.7,292.8,126.7,293.1,126.7z"/>
			<polygon class="st1" points="215.7,406.2 206.6,406.2 203.5,406.2 205,415.3 225.6,415.3 224,406.2 218,406.2 			"/>
			<polygon class="st1" points="184.1,369.4 182.6,378.6 192.9,378.6 191.4,369.4 			"/>
			<polygon class="st1" points="157.3,406.2 148.2,406.2 148.2,406.2 146.6,415.3 167.2,415.3 168.7,406.2 159.7,406.2 			"/>
			<path class="st1" d="M408.7,297.7c-1.7-4.8-4.7-7.7-8.9-9.1c-4.3,1.4-7.2,4.3-9,9.1c2.5-0.8,5.5-1.2,8.9-1.2
				C403.2,296.6,406.2,296.9,408.7,297.7z"/>
			<path class="st1" d="M404.3,406.9c-1.5,0.1-3,0.2-4.5,0.2c-1.6,0-3.1-0.1-4.6-0.2c-1.5,0.1-3,0.2-4.5,0.2c-10.7,0-19-2-25.4-5.9
				c6.3,9.9,17.4,15.1,34.5,15.1c17,0,28.3-5.3,34.7-15.3c-6.4,4-14.8,6.1-25.5,6.1C407.4,407,405.8,407,404.3,406.9z"/>
			<polygon class="st1" points="186.4,236.9 177.2,236.9 177.2,246.1 198,246.1 198,236.9 			"/>
			<polygon class="st1" points="109.3,406.2 68.6,406.2 59.5,406.2 59.5,406.2 59.5,415.3 118.6,415.3 118.6,406.2 118.6,406.2 			
				"/>
			<path class="st1" d="M293.2,296.1c-0.4-5.4-2.2-7.8-5.6-8.7v8.7h4.7C292.5,296.1,292.8,296.1,293.2,296.1z"/>
			<path class="st1" d="M293.8,406.2h-9.2h-17.9h-9.2l0,0v9.2h36.2c17.4,0,27.3-4.4,31.8-13.4c-5.4,2.8-12.8,4.2-22.6,4.2
				L293.8,406.2L293.8,406.2z"/>
			<path class="st1" d="M320.7,332.9c0.6-0.9,1-2,1.4-3c-2.7,1.1-6.1,1.7-10.1,1.9C315.4,331.8,318.3,332.2,320.7,332.9z"/>
			<polygon class="st1" points="406.7,119.1 406.7,128.3 440.7,128.3 440.7,119.1 431.6,119.1 			"/>
			<rect x="406.7" y="175.5" class="st1" width="32.7" height="9.2"/>
			<polygon class="st1" points="385.9,236.9 376.7,236.9 376.7,236.9 376.7,246.1 440.7,246.1 440.7,236.9 			"/>
			<polygon class="st1" points="421.5,94.2 414.9,94.2 414.9,94.2 405.8,94.2 400.3,94.2 400.2,94.2 398.7,98.9 416.4,98.9 			"/>
		</g>
		<polygon class="st2" points="109.1,236.9 68.3,236.9 68.3,236.9 118.3,236.9 118.3,236.9 		"/>
		<path class="st2" d="M287.5,126.7v-8.7c-1.3-0.3-2.7-0.5-4.5-0.5h-4.7v9.2H287.5z"/>
		<path class="st2" d="M287.5,182.9v-9.1c-1-0.1-2-0.1-3.1-0.1h-6.1v9.2H287.5L287.5,182.9z"/>
		<path class="st2" d="M328.3,208.6c0,19.1-9.5,28.3-34.7,28.3h-9.2h-17.9l0,0h36.2c9.8,0,17.2-1.4,22.6-4.2c2-4,2.9-9,2.9-14.9
			v-9.2L328.3,208.6L328.3,208.6z"/>
		<path class="st2" d="M323.1,133.5L323.1,133.5v10.6c0,10.8-5.6,17.4-20.3,18.3c6.7,0.3,11.8,1.6,15.7,3.7c0.8-0.8,1.5-1.6,2.1-2.6
			c-2.6-0.6-5.4-0.9-8.7-1.1c4-0.2,7.4-0.9,10.1-1.9c0.7-2.1,1.1-4.5,1.1-7.2L323.1,133.5L323.1,133.5z"/>
		<polygon class="st2" points="174.9,369.4 173.3,378.6 182.6,378.6 184.1,369.4 		"/>
		<path class="st2" d="M379.9,311.7v9.2c0-14.2,3.5-20.8,11-23.2c1.7-4.8,4.7-7.7,9-9.1c-1.4-0.5-2.9-0.8-4.6-1
			C384.7,288.9,379.9,295,379.9,311.7z"/>
		<path class="st2" d="M440.7,365.3c0,25.6-11.2,40.1-36.4,41.7c1.5,0.1,3,0.2,4.6,0.2c10.7,0,19.1-2.1,25.5-6.1
			c4.3-6.7,6.3-15.6,6.3-26.5L440.7,365.3L440.7,365.3z"/>
		<polygon class="st2" points="188.9,236.9 186.4,236.9 186.4,236.9 198,236.9 198,236.9 		"/>
		<rect x="118.6" y="395" class="st2" width="0" height="11.1"/>
		<rect x="80.3" y="277.4" class="st2" width="0" height="108.5"/>
		<path class="st2" d="M278.4,352.2h9.2v-9.1c-1-0.1-2-0.1-3.1-0.1h-6.1"/>
		<path class="st2" d="M287.6,296.1v-8.7c-1.3-0.3-2.7-0.5-4.5-0.5h-4.7v38.1l0,0v-28.9H287.6z"/>
		<path class="st2" d="M328.5,377.9c0,19.1-9.5,28.3-34.7,28.3h9.2c9.8,0,17.2-1.4,22.6-4.2c2-4,2.9-9,2.9-14.9L328.5,377.9
			L328.5,377.9z"/>
		<path class="st2" d="M323.2,313.4c0,10.8-5.6,17.4-20.3,18.3c6.7,0.3,11.8,1.6,15.7,3.7c0.8-0.8,1.5-1.6,2.1-2.6
			c-2.6-0.6-5.4-0.9-8.7-1.1c4-0.2,7.4-0.9,10.1-1.9c0.7-2.1,1.1-4.5,1.1-7.2L323.2,313.4L323.2,313.4z"/>
		<polygon class="st2" points="431.6,236.9 385.9,236.9 385.9,236.9 440.7,236.9 440.7,236.9 		"/>
		<rect x="397.5" y="119.1" class="st2" width="9.2" height="9.2"/>
		<rect x="397.5" y="175.5" class="st2" width="9.2" height="9.2"/>
		<path class="st2" d="M397.5,175.5"/>
		<g>
			<rect x="80" y="98.9" class="st3" width="9.2" height="117.7"/>
			<polygon class="st3" points="127.4,216.6 118.3,216.6 118.3,236.9 118.3,236.9 118.3,236.9 127.4,236.9 			"/>
			<path class="st3" d="M287.5,155.1v-28.4h-9.2v28.9h4.7C284.7,155.7,286.1,155.5,287.5,155.1z"/>
			<path class="st3" d="M323.1,124.3v9.1l0,0v19.8c0,2.6-0.3,5-1.1,7.2c7.3-2.8,10.2-8.5,10.2-16.3v-19.8c0-17.6-8.1-25.4-30-25.4
				h-9.1C314.9,98.9,323.1,106.7,323.1,124.3z"/>
			<path class="st3" d="M287.5,217.9v-35.1h-9.2V218h6.1C285.5,218.1,286.4,218.1,287.5,217.9z"/>
			<path class="st3" d="M318.6,166.1c6.9,3.7,9.8,10.2,9.8,19v9.2v14.4v9.2c0,5.9-0.9,10.9-2.9,14.9c8.5-4.4,12.1-12.4,12.1-24.1
				v-23.5c0-11.5-4.8-18.9-16.9-21.6C320,164.5,319.4,165.3,318.6,166.1z"/>
			<polygon class="st3" points="168.9,406.2 178,406.2 182.6,378.6 173.3,378.6 			"/>
			<polygon class="st3" points="178,351 187.2,351 187.7,347.7 183.2,320.5 			"/>
			<polygon class="st3" points="203.1,268.2 227.2,406.2 236.4,406.2 212.2,268.2 			"/>
			<path class="st3" d="M409,267.4c-1.4,0-2.8,0.1-4.2,0.2c25.2,1.7,36,16.2,36,41.7v9.2v46.9v9.2c0,10.9-2,19.8-6.3,26.5
				c10.6-6.7,15.5-18.8,15.5-35.7v-56C449.9,282.2,437.8,267.4,409,267.4z"/>
			<path class="st3" d="M389,362.7v-51c0-5.9,0.6-10.5,1.9-14.1c-7.5,2.4-11,9-11,23.2v41.8c0,16.9,4.9,22.9,15.4,24.1
				c1.7-0.2,3.2-0.5,4.6-1C392.4,383.4,389,376.9,389,362.7z"/>
			<polygon class="st3" points="207.2,98.9 198,98.9 198,108.1 198,236.9 198,236.9 207.2,236.9 			"/>
			<polygon class="st3" points="118.6,395 118.6,395 118.6,406.2 127.7,406.2 127.7,385.9 118.6,385.9 			"/>
			<polygon class="st3" points="80.3,277.4 80.3,277.4 80.3,385.9 89.5,385.9 89.5,268.2 80.3,268.2 			"/>
			<path class="st3" d="M320.7,332.9c-0.6,0.9-1.3,1.8-2.1,2.6c6.9,3.7,9.8,10.2,9.8,19v9.2l0,0v23.5c0,5.9-0.9,10.9-2.9,14.9
				c8.5-4.4,12.1-12.4,12.1-24.1v-23.5C337.6,342.9,332.8,335.5,320.7,332.9z"/>
			<path class="st3" d="M323.2,313.4L323.2,313.4v9.2c0,2.7-0.3,5-1.1,7.2c7.3-2.8,10.2-8.5,10.2-16.3v-19.8
				c0-17.6-8.1-25.4-30-25.4h-9.2c21.8,0,30,7.8,30,25.4L323.2,313.4L323.2,313.4z"/>
			<path class="st3" d="M278.4,324.9h4.7c1.7,0,3.2-0.1,4.5-0.5v-28.4h-9.2V324.9z"/>
			<path class="st3" d="M278.4,387.4h6.1c1.1,0,2.1,0,3.1-0.1v-35.1h-9.2V387.4z"/>
			<rect x="397.5" y="184.7" class="st3" width="9.2" height="31.8"/>
			<polygon class="st3" points="440.7,225.8 440.7,236.9 440.7,236.9 449.9,236.9 449.9,216.6 440.7,216.6 			"/>
			<rect x="397.5" y="128.3" class="st3" width="9.2" height="27.6"/>
			<polygon class="st3" points="439.4,175.5 448.5,175.5 448.5,155.9 439.4,155.9 439.4,165.1 439.4,165.1 			"/>
			<polygon class="st3" points="440.7,98.9 440.7,108.1 440.7,119.1 449.9,119.1 449.9,98.9 			"/>
			<polygon class="st3" points="426.1,83.7 416.3,92.9 422.9,92.9 421.5,94.2 424,94.2 435.2,83.7 413,83.7 413,83.7 417,83.7 			
				"/>
		</g>
		<polygon class="st2" points="416.3,92.9 414.9,94.2 421.5,94.2 422.9,92.9 		"/>
		<g>
			<rect x="50" y="98.9" class="st4" width="9.2" height="138"/>
			<path class="st4" d="M287.5,155.1c-1.3,0.4-2.7,0.5-4.5,0.5h4.5h4.7c6.9,0,10.2-2.4,10.2-12.3l0,0v-13.8
				c0-9.6-3.2-11.8-10.1-11.9l0,0h-9.3c1.7,0,3.2,0.1,4.5,0.5c3.4,0.9,5.2,3.3,5.6,8.7c0.1,0.8,0.1,1.7,0.1,2.7v13.9
				C293.2,150.7,291.2,153.9,287.5,155.1z"/>
			<rect x="248.3" y="98.9" class="st4" width="9.2" height="138"/>
			<path class="st4" d="M287.5,173.8h-3.1C285.5,173.8,286.4,173.8,287.5,173.8c6.3,0.6,9.7,2.9,10.5,9.4c0.2,1.2,0.2,2.5,0.2,3.9
				v16.6c0,10.2-3.3,13.6-10.8,14.3c-1,0.1-2,0.1-3.1,0.1h3.1h6.1c9.7,0,13.9-2.9,13.9-14.4v-7.5v-9.1c0-10.8-4.2-13.4-13.9-13.4h-6
				L287.5,173.8L287.5,173.8z"/>
			<polygon class="st4" points="138.9,406.2 148.2,406.2 148.2,406.2 170.8,277.4 172.4,268.2 163.3,268.2 			"/>
			<polygon class="st4" points="197.5,351 192.4,320.5 187.7,293.3 186.1,302.7 183.2,320.5 187.7,347.7 188.3,351 194.3,351 			"/>
			<polygon class="st4" points="191.4,369.4 192.9,378.6 197.5,406.2 203.5,406.2 206.6,406.2 200.4,369.4 			"/>
			<path class="st4" d="M395.2,267.5c-1.5-0.1-3-0.2-4.6-0.2c-28.8,0-40.8,14.7-40.8,41.8v56c0,17.1,4.8,29.3,15.4,35.9
				c6.3,3.9,14.7,5.9,25.4,5.9c1.6,0,3.1-0.1,4.5-0.2c-25.4-1.5-36.2-15.9-36.2-41.6l0,0v-56C358.9,283.5,369.8,269,395.2,267.5z"/>
			<path class="st4" d="M404.5,287.7c-1.5-0.2-3.1-0.3-4.8-0.3c-1.6,0-3.1,0.1-4.6,0.2c1.7,0.2,3.2,0.5,4.6,1
				c4.3,1.4,7.2,4.2,8.9,9.1c1.2,3.5,1.8,8.1,1.8,14.1v51c0,14.2-3.4,20.7-10.8,23.2c-1.4,0.5-2.9,0.8-4.6,1
				c1.4,0.2,2.9,0.2,4.6,0.2c1.6,0,3.2-0.1,4.6-0.2c10.6-1.2,15.4-7.3,15.4-24.1v-41.9v-9.1C419.7,295,415,288.9,404.5,287.7z"/>
			<rect x="168" y="98.9" class="st4" width="9.2" height="138"/>
			<polygon class="st4" points="50.3,406.2 59.5,406.2 59.5,406.2 59.5,277.4 59.5,268.2 50.3,268.2 			"/>
			<path class="st4" d="M287.6,324.5c-1.3,0.4-2.7,0.5-4.5,0.5h4.5h4.7c6.9,0,10.2-2.4,10.2-12.4v-4.7v-9.2
				c0-9.6-3.2-11.8-10.1-11.9l0,0h-9.2c1.7,0,3.2,0.1,4.5,0.5c3.4,0.9,5.2,3.3,5.6,8.7c0.1,0.8,0.1,1.7,0.1,2.7v13.9
				C293.2,320.1,291.5,323.3,287.6,324.5z"/>
			<polygon class="st4" points="248.4,406.2 257.6,406.2 257.6,406.2 257.6,277.4 257.6,268.2 248.4,268.2 			"/>
			<path class="st4" d="M293.6,343L293.6,343h-9.2c1.1,0,2.1,0,3.1,0.1c6.3,0.5,9.7,2.8,10.5,9.3c0.2,1.2,0.2,2.5,0.2,3.9v16.6
				c0,10.2-3.3,13.6-10.8,14.3c-1,0.1-2,0.1-3.1,0.1h3.1h6.1c9.6,0,13.9-2.9,13.9-14.4l0,0v-16.6C307.5,345.7,303.2,343,293.6,343z"
				/>
			<polygon class="st4" points="376.7,236.9 376.7,108.1 376.7,98.9 367.5,98.9 367.5,236.9 			"/>
			<polygon class="st4" points="400.3,94.2 400.8,92.9 403.9,83.7 394.7,83.7 391.1,94.2 400.2,94.2 			"/>
		</g>
		<g>
			<polygon class="st5" points="109.1,236.9 118.3,236.9 118.3,236.9 118.3,216.6 118.3,216.6 109.1,216.6 89.2,216.6 80,216.6 
				80,98.9 80,98.9 70.8,98.9 59.2,98.9 59.2,236.9 59.2,236.9 68.3,236.9 			"/>
			<path class="st5" d="M284.4,236.9h9.2c25.2,0,34.7-9.1,34.7-28.3v-14.4V185c0-8.9-2.9-15.3-9.8-19c-3.9-2.1-9.1-3.4-15.7-3.7
				c14.7-0.8,20.3-7.5,20.3-18.3v-10.7v-9c0-17.6-8.1-25.4-29.9-25.4l0,0H284h-26.6v138l0,0h9.2h17.9v0.2H284.4z M302.3,129.4v13.9
				l0,0c0,10-3.2,12.3-10.2,12.3h-4.7h-4.4h-4.7v-29v-9.2h4.7h9.2l0,0C299.1,117.5,302.3,119.8,302.3,129.4z M278.3,182.9v-9.2h6.1
				h3.1h6.1c9.7,0,13.9,2.5,13.9,13.4v9.1v7.5c0,11.5-4.2,14.4-13.9,14.4h-6.1h-3.1h-6.1V182.9z"/>
			<path class="st5" d="M193.9,268.2h-12.3h-9.2l-1.6,9.2l-22.6,128.8h9.2h2.3h9h0.1l4.6-27.6l1.5-9.2h9.2h7.2h9.2l6.1,36.7h9.2h2.3
				h5.9h3.3l-24.2-138L193.9,268.2L193.9,268.2z M197.5,351h-3.2h-6h-1.1H178l5.2-30.5l3-17.8l1.6-9.4l4.5,27.2L197.5,351z"/>
			<path class="st5" d="M404.8,267.5c-1.6-0.1-3.3-0.2-5-0.2c-1.6,0-3.1,0.1-4.6,0.2c-25.5,1.5-36.2,16.1-36.2,41.7v56l0,0
				c0,25.7,10.7,40.1,36.2,41.6c1.5,0.1,3,0.2,4.6,0.2c1.6,0,3.1-0.1,4.5-0.2c25.2-1.5,36.4-16.1,36.4-41.7v-46.9V309
				C440.7,283.8,429.9,269.1,404.8,267.5z M404.3,386.9c-1.4,0.2-3,0.2-4.6,0.2s-3.1-0.1-4.6-0.2c-10.5-1.2-15.4-7.3-15.4-24.1V321
				v-9.2c0-16.7,4.9-22.9,15.4-24.1c1.4-0.2,2.9-0.2,4.6-0.2c1.7,0,3.3,0.1,4.8,0.3c10.5,1.3,15.2,7.5,15.2,24.1v9.1v41.9
				C419.7,379.5,415,385.7,404.3,386.9z"/>
			<polygon class="st5" points="186.4,236.9 188.9,236.9 198,236.9 198,108.1 198,98.9 198,98.9 188.9,98.9 177.2,98.9 177.2,236.9 
				177.2,236.9 			"/>
			<polygon class="st5" points="89.5,385.9 80.3,385.9 80.3,385.9 80.3,277.4 80.3,268.2 71.1,268.2 68.6,268.2 59.5,268.2 
				59.5,277.4 59.5,406.2 68.6,406.2 109.3,406.2 118.6,406.2 118.6,395 118.6,385.9 118.6,385.9 109.3,385.9 			"/>
			<path class="st5" d="M318.7,335.3c-3.9-2.1-9.1-3.4-15.7-3.7c14.7-0.8,20.3-7.4,20.3-18.3l0,0v-19.8c0-17.6-8.1-25.4-30-25.4
				h-9.2h-17.4h-9.2v9.2v128.8h9.2h17.9h9.2c25.2,0,34.7-9.1,34.7-28.3v-14.4v-9.2C328.5,345.5,325.5,339.1,318.7,335.3z
				 M278.4,286.9h4.7h9.2l0,0c6.9,0,10.1,2.2,10.1,11.9v9.2v4.7c0,10-3.2,12.4-10.2,12.4h-4.7h-4.5h-4.7l0,0v-38.2H278.4z
				 M278.4,343h6.1h9.2h0.1c9.6,0,13.8,2.6,13.8,13.4v16.6l0,0c0,11.5-4.2,14.4-13.9,14.4h-6h-3.1h-6.1l0,0V343z"/>
			<polygon class="st5" points="431.6,98.9 416.4,98.9 398.7,98.9 376.7,98.9 376.7,108.1 376.7,236.9 385.9,236.9 431.6,236.9 
				440.7,236.9 440.7,225.8 440.7,216.6 440.7,216.6 431.6,216.6 406.7,216.6 397.5,216.6 397.5,216.6 397.5,175.5 430.2,175.5 
				439.4,175.5 439.4,165.1 439.4,155.9 439.4,155.9 430.2,155.9 406.7,155.9 397.5,155.9 397.5,155.9 397.5,119.1 406.7,119.1 
				431.6,119.1 440.7,119.1 440.7,108.1 440.7,98.9 440.7,98.9 			"/>
			<polygon class="st5" points="409.5,94.2 414.9,94.2 416.3,92.9 426.1,83.7 417,83.7 413,83.7 403.9,83.7 400.8,92.9 400.3,94.2 
				405.8,94.2 			"/>
		</g>
	</g>
</g>
</svg>
