<svg id="Departements" xmlns="http://www.w3.org/2000/svg" viewBox="0 0 448.77 407.98">
  <defs>
    <style>
      .cls-1 {
        fill: #d9d9d9;
        stroke: #fff;
        stroke-width: .5px;
      }
    </style>
  </defs>
  <path id="D_2B" class="cls-1" d="M339.51499938964844,341.9499969482422A7,7,0,1,1,353.51499938964844,341.9499969482422A7,7,0,1,1,339.51499938964844,341.9499969482422Z" style="fill: rgb(235, 64, 76); fill-opacity: 1; stroke: rgb(170, 170, 170); stroke-width: 0px;" transform=""></path>
  <path id="D_2A" class="cls-1" d="M341.55999755859375,323.9049987792969A7,7,0,1,1,355.55999755859375,323.9049987792969A7,7,0,1,1,341.55999755859375,323.9049987792969Z" style="fill: rgb(235, 64, 76); fill-opacity: 1; stroke: rgb(170, 170, 170); stroke-width: 0px;" transform=""></path>
  <path id="D_09" class="cls-1" d="M181.26499938964844,319.7099914550781A7,7,0,1,1,195.26499938964844,319.7099914550781A7,7,0,1,1,181.26499938964844,319.7099914550781Z" style="fill: rgb(36, 88, 165); fill-opacity: 1; stroke: rgb(170, 170, 170); stroke-width: 0px;" transform="translate(3, 6)"></path>
  <path id="D_11" class="cls-1" d="M202.9250030517578,316.0699920654297A9,9,0,1,1,220.9250030517578,316.0699920654297A9,9,0,1,1,202.9250030517578,316.0699920654297Z" style="fill: rgb(235, 64, 76); fill-opacity: 1; stroke: rgb(170, 170, 170); stroke-width: 0px;" transform="translate(0, -3)"></path>
  <path id="D_12" class="cls-1" d="M208.35499572753906,273.3149948120117A8,8,0,1,1,224.35499572753906,273.3149948120117A8,8,0,1,1,208.35499572753906,273.3149948120117Z" style="fill: rgb(247, 186, 0); fill-opacity: 1; stroke: rgb(170, 170, 170); stroke-width: 0px;" transform=""></path>
  <path id="D_30" class="cls-1" d="M238.77000427246094,285.4949951171875A12,12,0,1,1,262.77000427246094,285.4949951171875A12,12,0,1,1,238.77000427246094,285.4949951171875Z" style="fill: rgb(235, 64, 76); fill-opacity: 1; stroke: rgb(170, 170, 170); stroke-width: 0px;" transform="translate(1, -3)"></path>
  <path id="D_32" class="cls-1" d="M156.01499938964844,294.49501037597656A7,7,0,1,1,170.01499938964844,294.49501037597656A7,7,0,1,1,156.01499938964844,294.49501037597656Z" style="fill: rgb(247, 186, 0); fill-opacity: 1; stroke: rgb(170, 170, 170); stroke-width: 0px;" transform=""></path>
  <path id="D_46" class="cls-1" d="M184.0500030517578,262.52000427246094A7,7,0,1,1,198.0500030517578,262.52000427246094A7,7,0,1,1,184.0500030517578,262.52000427246094Z" style="fill: rgb(247, 186, 0); fill-opacity: 1; stroke: rgb(170, 170, 170); stroke-width: 0px;" transform=""></path>
  <path id="D_48" class="cls-1" d="M231.97999572753906,265.4950256347656A5,5,0,1,1,241.97999572753906,265.4950256347656A5,5,0,1,1,231.97999572753906,265.4950256347656Z" vector-effect="non-scaling-stroke" style="fill: rgb(29, 34, 69); fill-opacity: 1; stroke: rgb(170, 170, 170); stroke-width: 0px;" transform="translate(0, 2)"></path>
  <path id="D_65" class="cls-1" d="M147.63500213623047,313.1499786376953A8,8,0,1,1,163.63500213623047,313.1499786376953A8,8,0,1,1,147.63500213623047,313.1499786376953Z" style="fill: rgb(247, 186, 0); fill-opacity: 1; stroke: rgb(170, 170, 170); stroke-width: 0px;" transform=""></path>
  <path id="D_66" class="cls-1" d="M201.61499786376953,330.3300018310547A10,10,0,1,1,221.61499786376953,330.3300018310547A10,10,0,1,1,201.61499786376953,330.3300018310547Z" style="fill: rgb(235, 64, 76); fill-opacity: 1; stroke: rgb(170, 170, 170); stroke-width: 0px;" transform="translate(0, 2)"></path>
  <path id="D_81" class="cls-1" d="M197.52999877929688,291.2300109863281A9,9,0,1,1,215.52999877929688,291.2300109863281A9,9,0,1,1,197.52999877929688,291.2300109863281Z" style="fill: rgb(235, 64, 76); fill-opacity: 1; stroke: rgb(170, 170, 170); stroke-width: 0px;" transform=""></path>
  <path id="D_82" class="cls-1" d="M177.0800018310547,281.5899963378906A8,8,0,1,1,193.0800018310547,281.5899963378906A8,8,0,1,1,177.0800018310547,281.5899963378906Z" style="fill: rgb(235, 64, 76); fill-opacity: 1; stroke: rgb(170, 170, 170); stroke-width: 0px;" transform=""></path>
  <path id="D_31" class="cls-1" d="M166.8949966430664,307.5800018310547A15,15,0,1,1,196.8949966430664,307.5800018310547A15,15,0,1,1,166.8949966430664,307.5800018310547Z" style="fill: rgb(247, 186, 0); fill-opacity: 1; stroke: rgb(170, 170, 170); stroke-width: 0px;" transform="translate(-1, -1)"></path>
  <path id="D_34" class="cls-1" d="M219.9749984741211,297.98500061035156A14,14,0,1,1,247.9749984741211,297.98500061035156A14,14,0,1,1,219.9749984741211,297.98500061035156Z" style="fill: rgb(235, 64, 76); fill-opacity: 1; stroke: rgb(170, 170, 170); stroke-width: 0px;" transform="translate(-2, 1)"></path>
  <path id="D_22" class="cls-1" d="M72.67499923706055,126.85499954223633A11,11,0,1,1,94.67499923706055,126.85499954223633A11,11,0,1,1,72.67499923706055,126.85499954223633Z" style="fill: rgb(247, 186, 0); fill-opacity: 1; stroke: rgb(170, 170, 170); stroke-width: 0px;" transform=""></path>
  <path id="D_56" class="cls-1" d="M69.20499801635742,152.50499725341797A12,12,0,1,1,93.20499801635742,152.50499725341797A12,12,0,1,1,69.20499801635742,152.50499725341797Z" style="fill: rgb(247, 186, 0); fill-opacity: 1; stroke: rgb(170, 170, 170); stroke-width: 0px;" transform=""></path>
  <path id="D_29" class="cls-1" d="M34.829999923706055,134.4900016784668A13,13,0,1,1,60.829999923706055,134.4900016784668A13,13,0,1,1,34.829999923706055,134.4900016784668Z" style="fill: rgb(247, 186, 0); fill-opacity: 1; stroke: rgb(170, 170, 170); stroke-width: 0px;" transform=""></path>
  <path id="D_35" class="cls-1" d="M97.31996536254883,137.3499984741211A14,14,0,1,1,125.31996536254883,137.3499984741211A14,14,0,1,1,97.31996536254883,137.3499984741211Z" style="fill: rgb(247, 186, 0); fill-opacity: 1; stroke: rgb(170, 170, 170); stroke-width: 0px;" transform="translate(0, -1)"></path>
  <path id="D_39" class="cls-1" d="M283.7349853515625,187.2750015258789A8,8,0,1,1,299.7349853515625,187.2750015258789A8,8,0,1,1,283.7349853515625,187.2750015258789Z" style="fill: rgb(235, 64, 76); fill-opacity: 1; stroke: rgb(170, 170, 170); stroke-width: 0px;" transform="translate(0, -1)"></path>
  <path id="D_58" class="cls-1" d="M231.2949981689453,175.22000122070312A7,7,0,1,1,245.2949981689453,175.22000122070312A7,7,0,1,1,231.2949981689453,175.22000122070312Z" style="fill: rgb(235, 64, 76); fill-opacity: 1; stroke: rgb(170, 170, 170); stroke-width: 0px;" transform=""></path>
  <path id="D_70" class="cls-1" d="M292.72999572753906,156.60000610351562A8,8,0,1,1,308.72999572753906,156.60000610351562A8,8,0,1,1,292.72999572753906,156.60000610351562Z" style="fill: rgb(235, 64, 76); fill-opacity: 1; stroke: rgb(170, 170, 170); stroke-width: 0px;" transform=""></path>
  <path id="D_71" class="cls-1" d="M252.66999053955078,191.78499603271484A10,10,0,1,1,272.6699905395508,191.78499603271484A10,10,0,1,1,252.66999053955078,191.78499603271484Z" style="fill: rgb(235, 64, 76); fill-opacity: 1; stroke: rgb(170, 170, 170); stroke-width: 0px;" transform="translate(-1, -4)"></path>
  <path id="D_89" class="cls-1" d="M230.4250030517578,148.71500396728516A9,9,0,1,1,248.4250030517578,148.71500396728516A9,9,0,1,1,230.4250030517578,148.71500396728516Z" style="fill: rgb(235, 64, 76); fill-opacity: 1; stroke: rgb(170, 170, 170); stroke-width: 0px;" transform="translate(5, 5)"></path>
  <path id="D_90" class="cls-1" d="M315.52000427246094,156.93000030517578A6,6,0,1,1,327.52000427246094,156.93000030517578A6,6,0,1,1,315.52000427246094,156.93000030517578Z" style="fill: rgb(235, 64, 76); fill-opacity: 1; stroke: rgb(170, 170, 170); stroke-width: 0px;" transform="translate(-4, 5)"></path>
  <path id="D_25" class="cls-1" d="M297.4350128173828,177.34500122070312A10,10,0,1,1,317.4350128173828,177.34500122070312A10,10,0,1,1,297.4350128173828,177.34500122070312Z" style="fill: rgb(235, 64, 76); fill-opacity: 1; stroke: rgb(170, 170, 170); stroke-width: 0px;" transform=""></path>
  <path id="D_21" class="cls-1" d="M258.8849792480469,162.71997833251953A10,10,0,1,1,278.8849792480469,162.71997833251953A10,10,0,1,1,258.8849792480469,162.71997833251953Z" style="fill: rgb(247, 186, 0); fill-opacity: 1; stroke: rgb(170, 170, 170); stroke-width: 0px;" transform=""></path>
  <path id="D_18" class="cls-1" d="M202.98999786376953,178.5800018310547A8,8,0,1,1,218.98999786376953,178.5800018310547A8,8,0,1,1,202.98999786376953,178.5800018310547Z" style="fill: rgb(235, 64, 76); fill-opacity: 1; stroke: rgb(170, 170, 170); stroke-width: 0px;" transform="translate(2, 4)"></path>
  <path id="D_36" class="cls-1" d="M182.2249984741211,186.23500061035156A7,7,0,1,1,196.2249984741211,186.23500061035156A7,7,0,1,1,182.2249984741211,186.23500061035156Z" style="fill: rgb(235, 64, 76); fill-opacity: 1; stroke: rgb(170, 170, 170); stroke-width: 0px;" transform=""></path>
  <path id="D_41" class="cls-1" d="M177.59000396728516,155.72999572753906A9,9,0,1,1,195.59000396728516,155.72999572753906A9,9,0,1,1,177.59000396728516,155.72999572753906Z" style="fill: rgb(235, 64, 76); fill-opacity: 1; stroke: rgb(170, 170, 170); stroke-width: 0px;" transform="translate(-3, 8)"></path>
  <path id="D_28" class="cls-1" d="M176.31499481201172,126.92499923706055A9,9,0,1,1,194.31499481201172,126.92499923706055A9,9,0,1,1,176.31499481201172,126.92499923706055Z" style="fill: rgb(235, 64, 76); fill-opacity: 1; stroke: rgb(170, 170, 170); stroke-width: 0px;" transform="translate(-15, 10)"></path>
  <path id="D_37" class="cls-1" d="M158.0250015258789,171.46500396728516A11,11,0,1,1,180.0250015258789,171.46500396728516A11,11,0,1,1,158.0250015258789,171.46500396728516Z" style="fill: rgb(247, 186, 0); fill-opacity: 1; stroke: rgb(170, 170, 170); stroke-width: 0px;" transform="translate(-4, 1)"></path>
  <path id="D_45" class="cls-1" d="M197.4050064086914,146.48999786376953A11,11,0,1,1,219.4050064086914,146.48999786376953A11,11,0,1,1,197.4050064086914,146.48999786376953Z" style="fill: rgb(235, 64, 76); fill-opacity: 1; stroke: rgb(170, 170, 170); stroke-width: 0px;" transform="translate(-5, 19)"></path>
  <path id="D_01" class="cls-1" d="M273.86000061035156,212.7750015258789A11,11,0,1,1,295.86000061035156,212.7750015258789A11,11,0,1,1,273.86000061035156,212.7750015258789Z" style="fill: rgb(235, 64, 76); fill-opacity: 1; stroke: rgb(170, 170, 170); stroke-width: 0px;" transform="translate(8, -7)"></path>
  <path id="D_03" class="cls-1" d="M219.4749984741211,202.05500030517578A9,9,0,1,1,237.4749984741211,202.05500030517578A9,9,0,1,1,219.4749984741211,202.05500030517578Z" style="fill: rgb(247, 186, 0); fill-opacity: 1; stroke: rgb(170, 170, 170); stroke-width: 0px;" transform="translate(0, -1)"></path>
  <path id="D_07" class="cls-1" d="M249.5949935913086,256.1749954223633A9,9,0,1,1,267.5949935913086,256.1749954223633A9,9,0,1,1,249.5949935913086,256.1749954223633Z" style="fill: rgb(235, 64, 76); fill-opacity: 1; stroke: rgb(170, 170, 170); stroke-width: 0px;" transform="translate(-2, -1)"></path>
  <path id="D_15" class="cls-1" d="M210.9749984741211,248.26000213623047A7,7,0,1,1,224.9749984741211,248.26000213623047A7,7,0,1,1,210.9749984741211,248.26000213623047Z" style="fill: rgb(247, 186, 0); fill-opacity: 1; stroke: rgb(170, 170, 170); stroke-width: 0px;" transform=""></path>
  <path id="D_26" class="cls-1" d="M269.72999572753906,259.1499938964844A10,10,0,1,1,289.72999572753906,259.1499938964844A10,10,0,1,1,269.72999572753906,259.1499938964844Z" style="fill: rgb(235, 64, 76); fill-opacity: 1; stroke: rgb(170, 170, 170); stroke-width: 0px;" transform="translate(-4, 1)"></path>
  <path id="D_43" class="cls-1" d="M236.3949966430664,246.9499969482422A8,8,0,1,1,252.3949966430664,246.9499969482422A8,8,0,1,1,236.3949966430664,246.9499969482422Z" style="fill: rgb(247, 186, 0); fill-opacity: 1; stroke: rgb(170, 170, 170); stroke-width: 0px;" transform="translate(-4, 7)"></path>
  <path id="D_38" class="cls-1" d="M272.3300018310547,239.80001068115234A15,15,0,1,1,302.3300018310547,239.80001068115234A15,15,0,1,1,272.3300018310547,239.80001068115234Z" style="fill: rgb(247, 186, 0); fill-opacity: 1; stroke: rgb(170, 170, 170); stroke-width: 0px;" transform="translate(1, -1)"></path>
  <path id="D_63" class="cls-1" d="M218.44000244140625,223.0199966430664A11,11,0,1,1,240.44000244140625,223.0199966430664A11,11,0,1,1,218.44000244140625,223.0199966430664Z" style="fill: rgb(247, 186, 0); fill-opacity: 1; stroke: rgb(170, 170, 170); stroke-width: 0px;" transform="translate(-4, -2)"></path>
  <path id="D_73" class="cls-1" d="M298.1649932861328,232.625A10,10,0,1,1,318.1649932861328,232.625A10,10,0,1,1,298.1649932861328,232.625Z" style="fill: rgb(247, 186, 0); fill-opacity: 1; stroke: rgb(170, 170, 170); stroke-width: 0px;" transform="translate(5, 2)"></path>
  <path id="D_74" class="cls-1" d="M296.73500061035156,213.4550018310547A12,12,0,1,1,320.73500061035156,213.4550018310547A12,12,0,1,1,296.73500061035156,213.4550018310547Z" style="fill: rgb(29, 34, 69); fill-opacity: 1; stroke: rgb(170, 170, 170); stroke-width: 0px;" transform="translate(6, 0)"></path>
  <path id="D_42" class="cls-1" d="M242.95000457763672,223.55999755859375A12,12,0,1,1,266.9500045776367,223.55999755859375A12,12,0,1,1,242.95000457763672,223.55999755859375Z" style="fill: rgb(235, 64, 76); fill-opacity: 1; stroke: rgb(170, 170, 170); stroke-width: 0px;" transform="translate(-11, 11)"></path>
  <path id="D_69" class="cls-1" d="M250.7350082397461,219.24500274658203A16,16,0,1,1,282.7350082397461,219.24500274658203A16,16,0,1,1,250.7350082397461,219.24500274658203Z" style="fill: rgb(247, 186, 0); fill-opacity: 1; stroke: rgb(170, 170, 170); stroke-width: 0px;" transform="translate(0, -3)"></path>
  <path id="D_14" class="cls-1" d="M131.02000427246094,103.10499954223633A12,12,0,1,1,155.02000427246094,103.10499954223633A12,12,0,1,1,131.02000427246094,103.10499954223633Z" style="fill: rgb(247, 186, 0); fill-opacity: 1; stroke: rgb(170, 170, 170); stroke-width: 0px;" transform="translate(-5, 1)"></path>
  <path id="D_50" class="cls-1" d="M108.96000289916992,103.05000305175781A10,10,0,1,1,128.96000289916992,103.05000305175781A10,10,0,1,1,108.96000289916992,103.05000305175781Z" style="fill: rgb(247, 186, 0); fill-opacity: 1; stroke: rgb(170, 170, 170); stroke-width: 0px;" transform="translate(-4, 0)"></path>
  <path id="D_61" class="cls-1" d="M145.01499938964844,122.19499969482422A8,8,0,1,1,161.01499938964844,122.19499969482422A8,8,0,1,1,145.01499938964844,122.19499969482422Z" style="fill: rgb(29, 34, 69); fill-opacity: 1; stroke: rgb(170, 170, 170); stroke-width: 0px;" transform=""></path>
  <path id="D_27" class="cls-1" d="M166.36000061035156,103.68500137329102A11,11,0,1,1,188.36000061035156,103.68500137329102A11,11,0,1,1,166.36000061035156,103.68500137329102Z" style="fill: rgb(235, 64, 76); fill-opacity: 1; stroke: rgb(170, 170, 170); stroke-width: 0px;" transform="translate(-17, -1)"></path>
  <path id="D_76" class="cls-1" d="M159.36500549316406,81.78499984741211A15,15,0,1,1,189.36500549316406,81.78499984741211A15,15,0,1,1,159.36500549316406,81.78499984741211Z" style="fill: rgb(235, 64, 76); fill-opacity: 1; stroke: rgb(170, 170, 170); stroke-width: 0px;" transform="translate(-17, -12)"></path>
  <path id="D_04" class="cls-1" d="M296.8450012207031,278.5550079345703A7,7,0,1,1,310.8450012207031,278.5550079345703A7,7,0,1,1,296.8450012207031,278.5550079345703Z" style="fill: rgb(235, 64, 76); fill-opacity: 1; stroke: rgb(170, 170, 170); stroke-width: 0px;" transform="translate(1, 0)"></path>
  <path id="D_05" class="cls-1" d="M297.19000244140625,261.7149963378906A7,7,0,1,1,311.19000244140625,261.7149963378906A7,7,0,1,1,297.19000244140625,261.7149963378906Z" style="fill: rgb(247, 186, 0); fill-opacity: 1; stroke: rgb(170, 170, 170); stroke-width: 0px;" transform=""></path>
  <path id="D_06" class="cls-1" d="M313.05499267578125,286.8500061035156A14,14,0,1,1,341.05499267578125,286.8500061035156A14,14,0,1,1,313.05499267578125,286.8500061035156Z" style="fill: rgb(235, 64, 76); fill-opacity: 1; stroke: rgb(170, 170, 170); stroke-width: 0px;" transform=""></path>
  <path id="D_13" class="cls-1" d="M256.39498138427734,299.63499450683594A18,18,0,1,1,292.39498138427734,299.63499450683594A18,18,0,1,1,256.39498138427734,299.63499450683594Z" style="fill: rgb(235, 64, 76); fill-opacity: 1; stroke: rgb(170, 170, 170); stroke-width: 0px;" transform="translate(-1, 4)"></path>
  <path id="D_83" class="cls-1" d="M291.6800079345703,303.5050048828125A14,14,0,1,1,319.6800079345703,303.5050048828125A14,14,0,1,1,291.6800079345703,303.5050048828125Z" style="fill: rgb(235, 64, 76); fill-opacity: 1; stroke: rgb(170, 170, 170); stroke-width: 0px;" transform=""></path>
  <path id="D_84" class="cls-1" d="M267.8349914550781,282.69500732421875A11,11,0,1,1,289.8349914550781,282.69500732421875A11,11,0,1,1,267.8349914550781,282.69500732421875Z" style="fill: rgb(235, 64, 76); fill-opacity: 1; stroke: rgb(170, 170, 170); stroke-width: 0px;" transform="translate(8, -5)"></path>
  <path id="D_53" class="cls-1" d="M127.95999908447266,137.84500122070312A8,8,0,1,1,143.95999908447266,137.84500122070312A8,8,0,1,1,127.95999908447266,137.84500122070312Z" style="fill: rgb(29, 34, 69); fill-opacity: 1; stroke: rgb(170, 170, 170); stroke-width: 0px;" transform="translate(-2, -1)"></path>
  <path id="D_72" class="cls-1" d="M146.40499877929688,142.4650001525879A11,11,0,1,1,168.40499877929688,142.4650001525879A11,11,0,1,1,146.40499877929688,142.4650001525879Z" style="fill: rgb(29, 34, 69); fill-opacity: 1; stroke: rgb(170, 170, 170); stroke-width: 0px;" transform="translate(-6, 4)"></path>
  <path id="D_44" class="cls-1" d="M93.31000137329102,167.06999969482422A16,16,0,1,1,125.31000137329102,167.06999969482422A16,16,0,1,1,93.31000137329102,167.06999969482422Z" style="fill: rgb(247, 186, 0); fill-opacity: 1; stroke: rgb(170, 170, 170); stroke-width: 0px;" transform="translate(-1, -1)"></path>
  <path id="D_49" class="cls-1" d="M126.03000259399414,165.3949966430664A12,12,0,1,1,150.03000259399414,165.3949966430664A12,12,0,1,1,126.03000259399414,165.3949966430664Z" style="fill: rgb(247, 186, 0); fill-opacity: 1; stroke: rgb(170, 170, 170); stroke-width: 0px;" transform="translate(0, 1)"></path>
  <path id="D_85" class="cls-1" d="M103.89500045776367,190.94000244140625A12,12,0,1,1,127.89500045776367,190.94000244140625A12,12,0,1,1,103.89500045776367,190.94000244140625Z" style="fill: rgb(247, 186, 0); fill-opacity: 1; stroke: rgb(170, 170, 170); stroke-width: 0px;" transform="translate(1, 2)"></path>
  <path id="D_16" class="cls-1" d="M148.72000122070312,226.76000213623047A9,9,0,1,1,166.72000122070312,226.76000213623047A9,9,0,1,1,148.72000122070312,226.76000213623047Z" style="fill: rgb(247, 186, 0); fill-opacity: 1; stroke: rgb(170, 170, 170); stroke-width: 0px;" transform=""></path>
  <path id="D_17" class="cls-1" d="M120.69999694824219,224.625A12,12,0,1,1,144.6999969482422,224.625A12,12,0,1,1,120.69999694824219,224.625Z" style="fill: rgb(247, 186, 0); fill-opacity: 1; stroke: rgb(170, 170, 170); stroke-width: 0px;" transform=""></path>
  <path id="D_19" class="cls-1" d="M189.59000396728516,238.06499481201172A8,8,0,1,1,205.59000396728516,238.06499481201172A8,8,0,1,1,189.59000396728516,238.06499481201172Z" style="fill: rgb(247, 186, 0); fill-opacity: 1; stroke: rgb(170, 170, 170); stroke-width: 0px;" transform=""></path>
  <path id="D_23" class="cls-1" d="M194.4100341796875,212.96500396728516A6,6,0,1,1,206.4100341796875,212.96500396728516A6,6,0,1,1,194.4100341796875,212.96500396728516Z" vector-effect="non-scaling-stroke" style="fill: rgb(247, 186, 0); fill-opacity: 1; stroke: rgb(170, 170, 170); stroke-width: 0px;" transform=""></path>
  <path id="D_24" class="cls-1" d="M158.90499877929688,244.8000030517578A10,10,0,1,1,178.90499877929688,244.8000030517578A10,10,0,1,1,158.90499877929688,244.8000030517578Z" style="fill: rgb(247, 186, 0); fill-opacity: 1; stroke: rgb(170, 170, 170); stroke-width: 0px;" transform=""></path>
  <path id="D_40" class="cls-1" d="M124.73500061035156,283.63999938964844A10,10,0,1,1,144.73500061035156,283.63999938964844A10,10,0,1,1,124.73500061035156,283.63999938964844Z" style="fill: rgb(247, 186, 0); fill-opacity: 1; stroke: rgb(170, 170, 170); stroke-width: 0px;" transform=""></path>
  <path id="D_47" class="cls-1" d="M154.125,271.5399932861328A9,9,0,1,1,172.125,271.5399932861328A9,9,0,1,1,154.125,271.5399932861328Z" style="fill: rgb(235, 64, 76); fill-opacity: 1; stroke: rgb(170, 170, 170); stroke-width: 0px;" transform=""></path>
  <path id="D_79" class="cls-1" d="M134.45000457763672,195.98500061035156A9,9,0,1,1,152.45000457763672,195.98500061035156A9,9,0,1,1,134.45000457763672,195.98500061035156Z" style="fill: rgb(247, 186, 0); fill-opacity: 1; stroke: rgb(170, 170, 170); stroke-width: 0px;" transform=""></path>
  <path id="D_86" class="cls-1" d="M156.2800064086914,193.13500213623047A9,9,0,1,1,174.2800064086914,193.13500213623047A9,9,0,1,1,156.2800064086914,193.13500213623047Z" style="fill: rgb(247, 186, 0); fill-opacity: 1; stroke: rgb(170, 170, 170); stroke-width: 0px;" transform="translate(0, 1)"></path>
  <path id="D_33" class="cls-1" d="M124.14999771118164,253.9949951171875A16,16,0,1,1,156.14999771118164,253.9949951171875A16,16,0,1,1,124.14999771118164,253.9949951171875Z" style="fill: rgb(247, 186, 0); fill-opacity: 1; stroke: rgb(170, 170, 170); stroke-width: 0px;" transform=""></path>
  <path id="D_64" class="cls-1" d="M118.239990234375,311.3299560546875A12,12,0,1,1,142.239990234375,311.3299560546875A12,12,0,1,1,118.239990234375,311.3299560546875Z" style="fill: rgb(247, 186, 0); fill-opacity: 1; stroke: rgb(170, 170, 170); stroke-width: 0px;" transform=""></path>
  <path id="D_87" class="cls-1" d="M173.59500122070312,217.7249984741211A9,9,0,1,1,191.59500122070312,217.7249984741211A9,9,0,1,1,173.59500122070312,217.7249984741211Z" style="fill: rgb(247, 186, 0); fill-opacity: 1; stroke: rgb(170, 170, 170); stroke-width: 0px;" transform=""></path>
  <path id="D_08" class="cls-1" d="M258.7899932861328,80.39500045776367A8,8,0,1,1,274.7899932861328,80.39500045776367A8,8,0,1,1,258.7899932861328,80.39500045776367Z" style="fill: rgb(235, 64, 76); fill-opacity: 1; stroke: rgb(170, 170, 170); stroke-width: 0px;" transform=""></path>
  <path id="D_51" class="cls-1" d="M244.7249984741211,107.9000015258789A10,10,0,1,1,264.7249984741211,107.9000015258789A10,10,0,1,1,244.7249984741211,107.9000015258789Z" style="fill: rgb(235, 64, 76); fill-opacity: 1; stroke: rgb(170, 170, 170); stroke-width: 0px;" transform="translate(7, 4)"></path>
  <path id="D_52" class="cls-1" d="M273.4550018310547,138.4550018310547A7,7,0,1,1,287.4550018310547,138.4550018310547A7,7,0,1,1,273.4550018310547,138.4550018310547Z" style="fill: rgb(235, 64, 76); fill-opacity: 1; stroke: rgb(170, 170, 170); stroke-width: 0px;" transform=""></path>
  <path id="D_55" class="cls-1" d="M275.94500732421875,105.69500350952148A7,7,0,1,1,289.94500732421875,105.69500350952148A7,7,0,1,1,275.94500732421875,105.69500350952148Z" style="fill: rgb(235, 64, 76); fill-opacity: 1; stroke: rgb(170, 170, 170); stroke-width: 0px;" transform="translate(-2, -1)"></path>
  <path id="D_67" class="cls-1" d="M322.8249969482422,121.56499862670898A14,14,0,1,1,350.8249969482422,121.56499862670898A14,14,0,1,1,322.8249969482422,121.56499862670898Z" style="fill: rgb(235, 64, 76); fill-opacity: 1; stroke: rgb(170, 170, 170); stroke-width: 0px;" transform="translate(2, 2)"></path>
  <path id="D_88" class="cls-1" d="M296.74000549316406,137.39999771118164A9,9,0,1,1,314.74000549316406,137.39999771118164A9,9,0,1,1,296.74000549316406,137.39999771118164Z" style="fill: rgb(235, 64, 76); fill-opacity: 1; stroke: rgb(170, 170, 170); stroke-width: 0px;" transform=""></path>
  <path id="D_54" class="cls-1" d="M294.48500061035156,108.02999877929688A11,11,0,1,1,316.48500061035156,108.02999877929688A11,11,0,1,1,294.48500061035156,108.02999877929688Z" style="fill: rgb(235, 64, 76); fill-opacity: 1; stroke: rgb(170, 170, 170); stroke-width: 0px;" transform="translate(-7, 4)"></path>
  <path id="D_57" class="cls-1" d="M302.989990234375,105.85000228881836A14,14,0,1,1,330.989990234375,105.85000228881836A14,14,0,1,1,302.989990234375,105.85000228881836Z" style="fill: rgb(235, 64, 76); fill-opacity: 1; stroke: rgb(170, 170, 170); stroke-width: 0px;" transform="translate(4, -5)"></path>
  <path id="D_68" class="cls-1" d="M316.4700012207031,148.24500274658203A12,12,0,1,1,340.4700012207031,148.24500274658203A12,12,0,1,1,316.4700012207031,148.24500274658203Z" style="fill: rgb(235, 64, 76); fill-opacity: 1; stroke: rgb(170, 170, 170); stroke-width: 0px;" transform="translate(1, -1)"></path>
  <path id="D_10" class="cls-1" d="M244.45000457763672,131.66000366210938A8,8,0,1,1,260.4500045776367,131.66000366210938A8,8,0,1,1,244.45000457763672,131.66000366210938Z" style="fill: rgb(235, 64, 76); fill-opacity: 1; stroke: rgb(170, 170, 170); stroke-width: 0px;" transform="translate(13, 4)"></path>
  <path id="D_75" class="cls-1" d="M192.02000427246094,111.78499984741211A17,17,0,1,1,226.02000427246094,111.78499984741211A17,17,0,1,1,192.02000427246094,111.78499984741211Z" style="fill: rgb(247, 186, 0); fill-opacity: 1; stroke: rgb(170, 170, 170); stroke-width: 0px;" transform="translate(28, -15)"></path>
  <path id="D_77" class="cls-1" d="M209.49500274658203,120.58499908447266A15,15,0,1,1,239.49500274658203,120.58499908447266A15,15,0,1,1,209.49500274658203,120.58499908447266Z" style="fill: rgb(247, 186, 0); fill-opacity: 1; stroke: rgb(170, 170, 170); stroke-width: 0px;" transform="translate(19, 9)"></path>
  <path id="D_78" class="cls-1" d="M181.71500396728516,115.43499755859375A15,15,0,1,1,211.71500396728516,115.43499755859375A15,15,0,1,1,181.71500396728516,115.43499755859375Z" style="fill: rgb(247, 186, 0); fill-opacity: 1; stroke: rgb(170, 170, 170); stroke-width: 0px;" transform="translate(-14, 0)"></path>
  <path id="D_91" class="cls-1" d="M192.5399932861328,123.88999938964844A14,14,0,1,1,220.5399932861328,123.88999938964844A14,14,0,1,1,192.5399932861328,123.88999938964844Z" style="fill: rgb(247, 186, 0); fill-opacity: 1; stroke: rgb(170, 170, 170); stroke-width: 0px;" transform="translate(-13, 19)"></path>
  <path id="D_92" class="cls-1" d="M191.47999572753906,112.27000045776367A15,15,0,1,1,221.47999572753906,112.27000045776367A15,15,0,1,1,191.47999572753906,112.27000045776367Z" style="fill: rgb(247, 186, 0); fill-opacity: 1; stroke: rgb(170, 170, 170); stroke-width: 0px;" transform="translate(7, 9)"></path>
  <path id="D_93" class="cls-1" d="M197.37999725341797,109.93999862670898A14,14,0,1,1,225.37999725341797,109.93999862670898A14,14,0,1,1,197.37999725341797,109.93999862670898Z" style="fill: rgb(36, 88, 165); fill-opacity: 1; stroke: rgb(170, 170, 170); stroke-width: 0px;" transform="translate(-5, -17)"></path>
  <path id="D_95" class="cls-1" d="M190.00499725341797,103.90500259399414A13,13,0,1,1,216.00499725341797,103.90500259399414A13,13,0,1,1,190.00499725341797,103.90500259399414Z" style="fill: rgb(247, 186, 0); fill-opacity: 1; stroke: rgb(170, 170, 170); stroke-width: 0px;" transform="translate(-22, -17)"></path>
  <path id="D_94" class="cls-1" d="M197.76499938964844,114.84000015258789A14,14,0,1,1,225.76499938964844,114.84000015258789A14,14,0,1,1,197.76499938964844,114.84000015258789Z" style="fill: rgb(247, 186, 0); fill-opacity: 1; stroke: rgb(170, 170, 170); stroke-width: 0px;" transform="translate(10, 35)"></path>
  <path id="D_02" class="cls-1" d="M229.91500091552734,89.22000122070312A10,10,0,1,1,249.91500091552734,89.22000122070312A10,10,0,1,1,229.91500091552734,89.22000122070312Z" style="fill: rgb(235, 64, 76); fill-opacity: 1; stroke: rgb(170, 170, 170); stroke-width: 0px;" transform="translate(10, -17)"></path>
  <path id="D_60" class="cls-1" d="M198.94499969482422,91.14500045776367A12,12,0,1,1,222.94499969482422,91.14500045776367A12,12,0,1,1,198.94499969482422,91.14500045776367Z" style="fill: rgb(235, 64, 76); fill-opacity: 1; stroke: rgb(170, 170, 170); stroke-width: 0px;" transform="translate(9, -19)"></path>
  <path id="D_62" class="cls-1" d="M193.18499755859375,48.904998779296875A16,16,0,1,1,225.18499755859375,48.904998779296875A16,16,0,1,1,193.18499755859375,48.904998779296875Z" style="fill: rgb(235, 64, 76); fill-opacity: 1; stroke: rgb(170, 170, 170); stroke-width: 0px;" transform="translate(-8, -7)"></path>
  <path id="D_80" class="cls-1" d="M196.56999969482422,70.09000205993652A11,11,0,1,1,218.56999969482422,70.09000205993652A11,11,0,1,1,196.56999969482422,70.09000205993652Z" style="fill: rgb(235, 64, 76); fill-opacity: 1; stroke: rgb(170, 170, 170); stroke-width: 0px;" transform="translate(-10, -1)"></path>
  <path id="D_59" class="cls-1" d="M208.5749969482422,48.53000068664551A20,20,0,1,1,248.5749969482422,48.53000068664551A20,20,0,1,1,208.5749969482422,48.53000068664551Z" style="fill: rgb(235, 64, 76); fill-opacity: 1; stroke: rgb(170, 170, 170); stroke-width: 0px;" transform="translate(8, -3)"></path>
  <path id="D_ZA" class="cls-1" d="M389.77000427246094,44.7450008392334A10,10,0,1,1,409.77000427246094,44.7450008392334A10,10,0,1,1,389.77000427246094,44.7450008392334Z" style="fill: rgb(247, 186, 0); fill-opacity: 1; stroke: rgb(170, 170, 170); stroke-width: 0px;" transform=""></path>
  <path id="D_ZB" class="cls-1" d="M390.7799987792969,79.02999877929688A9,9,0,1,1,408.7799987792969,79.02999877929688A9,9,0,1,1,390.7799987792969,79.02999877929688Z" style="fill: rgb(36, 88, 165); fill-opacity: 1; stroke: rgb(170, 170, 170); stroke-width: 0px;" transform=""></path>
  <path id="D_ZC" class="cls-1" d="M393.81500244140625,113.27999877929688A6,6,0,1,1,405.81500244140625,113.27999877929688A6,6,0,1,1,393.81500244140625,113.27999877929688Z" style="fill: rgb(235, 64, 76); fill-opacity: 1; stroke: rgb(170, 170, 170); stroke-width: 0px;" transform=""></path>
  <path id="D_ZD" class="cls-1" d="M386.7749938964844,147.51000213623047A13,13,0,1,1,412.7749938964844,147.51000213623047A13,13,0,1,1,386.7749938964844,147.51000213623047Z" style="fill: rgb(36, 88, 165); fill-opacity: 1; stroke: rgb(170, 170, 170); stroke-width: 0px;" transform=""></path>
  <path id="D_ZS" class="cls-1" d="M396.760498046875,181.7045440673828A3,3,0,1,1,402.760498046875,181.7045440673828A3,3,0,1,1,396.760498046875,181.7045440673828Z" style="fill: rgb(36, 88, 165); fill-opacity: 1; stroke: rgb(170, 170, 170); stroke-width: 0px;" transform=""></path>
  <path id="D_ZM" class="cls-1" d="M393.7799987792969,216A6,6,0,1,1,405.7799987792969,216A6,6,0,1,1,393.7799987792969,216Z" style="fill: rgb(29, 34, 69); fill-opacity: 1; stroke: rgb(170, 170, 170); stroke-width: 0px;" transform=""></path>
  <path id="D_ZX" class="cls-1" d="M395.7705078125,250.26868438720703A4,4,0,1,1,403.7705078125,250.26868438720703A4,4,0,1,1,395.7705078125,250.26868438720703Z" style="fill: rgb(29, 34, 69); fill-opacity: 1; stroke: rgb(170, 170, 170); stroke-width: 0px;" transform=""></path>
  <path id="D_ZW" class="cls-1" d="M396.77110290527344,284.48736572265625A3,3,0,1,1,402.77110290527344,284.48736572265625A3,3,0,1,1,396.77110290527344,284.48736572265625Z" style="fill: rgb(247, 186, 0); fill-opacity: 1; stroke: rgb(170, 170, 170); stroke-width: 0px;" transform=""></path>
  <path id="D_ZP" class="cls-1" d="M391.8019714355469,318.7303009033203A8,8,0,1,1,407.8019714355469,318.7303009033203A8,8,0,1,1,391.8019714355469,318.7303009033203Z" style="fill: rgb(29, 34, 69); fill-opacity: 1; stroke: rgb(170, 170, 170); stroke-width: 0px;" transform=""></path>
  <path id="D_ZN" class="cls-1" d="M391.7657012939453,352.9550018310547A8,8,0,1,1,407.7657012939453,352.9550018310547A8,8,0,1,1,391.7657012939453,352.9550018310547Z" style="fill: rgb(29, 34, 69); fill-opacity: 1; stroke: rgb(170, 170, 170); stroke-width: 0px;" transform=""></path>
  <path id="D_ZZ" class="cls-1" d="M383.3699951171875,382.3500061035156A18,18,0,1,1,419.3699951171875,382.3500061035156A18,18,0,1,1,383.3699951171875,382.3500061035156Z" style="fill: rgb(247, 186, 0); fill-opacity: 1; stroke: rgb(170, 170, 170); stroke-width: 0px;" transform=""></path>
</svg>