<svg xmlns="http://www.w3.org/2000/svg" xmlns:xlink="http://www.w3.org/1999/xlink" viewBox="0 0 812.74 33.84"><defs><style>.cls-1{fill:none;}.cls-2{clip-path:url(#clip-path);}.cls-3{fill:#dadada;}.cls-4{fill:#fff;stroke:#7c7c7b;stroke-width:0.5px;}.cls-5{fill:#f9d3db;}.cls-6{fill:#f4a7b7;}.cls-7{fill:#e3234a;}.cls-8{fill:#a70021;}.cls-9{fill:#ff9c76;}</style><clipPath id="clip-path"><rect class="cls-1" x="-26.83" y="319.54" width="750.74" height="629.42"/></clipPath></defs><title>LIB-2020-05-26-legende-carte-confinement</title><g id="HABILLAGE"><path d="M29.58,20.09v4.24H28.11V12.11H31.2c2.05,0,2.89.87,2.89,2.56v2.94c0,1.65-.84,2.48-2.89,2.48Zm0-6.53v5.07h1.59c1,0,1.45-.3,1.45-1.39V15.05c0-1.16-.45-1.49-1.45-1.49Z"/><path d="M37.15,24.41c-1.42,0-2.2-.71-2.2-2.3V20.33c0-2.54,2.65-2.21,4.33-2.69V16.31c0-1.17-.42-1.4-1.41-1.4s-1.27.27-1.27,1v1H35.13V15.71c0-1.52.87-2.27,2.74-2.27,2,0,2.88.71,2.88,2.63v8.26H39.28v-2A1.87,1.87,0,0,1,37.15,24.41ZM39.28,22V18.81c-1.9.33-2.86.39-2.86,1.34V21.9c0,.72.28,1.13,1.09,1.13S39.28,22.85,39.28,22Z"/><path d="M43.23,20.24v1.23c0,1.18.52,1.57,1.54,1.57S46.3,22.77,46.3,22V20.82c0-.79-.21-1-1.75-1.3-2.19-.36-2.79-.78-2.79-2.28V15.9c0-1.72.88-2.44,3-2.44s3,.85,3,2.64v1.45H46.3v-1.3c0-1-.49-1.43-1.54-1.43S43.2,15.14,43.2,16v1.17c0,.61.18.84,1.74,1.11,2.31.45,2.83.87,2.83,2.5V22.1c0,1.69-.93,2.31-3,2.31s-3-.78-3-2.79V20.24Z"/><path d="M56.23,12.11H57.7V24.33H56.23v-2a1.84,1.84,0,0,1-2.07,2.09c-1.84,0-2.62-1.14-2.62-3.26V16.7c0-2.1.78-3.26,2.62-3.26a1.84,1.84,0,0,1,2.07,2.09ZM53,20.88c0,1.67.51,2.15,1.63,2.15.83,0,1.59-.18,1.59-1.07V15.9c0-.9-.76-1.08-1.59-1.08C53.55,14.82,53,15.3,53,17Z"/><path d="M61.84,24.41c-2.25,0-3.09-1.14-3.09-3.26V16.7c0-2.1.86-3.24,3.14-3.24s3,1,3,2.79v3h-4.7v1.59c0,1.58.5,2.06,1.59,2.06s1.64-.32,1.64-1.43V20.37h1.47v1.41C64.92,23.51,64,24.41,61.84,24.41ZM60.22,18h3.23v-1.5c0-1.26-.5-1.62-1.59-1.62s-1.64.48-1.64,2.07Z"/><path d="M73.42,12.11h1.47V24.33H73.42v-2a1.84,1.84,0,0,1-2.07,2.09c-1.84,0-2.62-1.14-2.62-3.26V16.7c0-2.1.78-3.26,2.62-3.26a1.84,1.84,0,0,1,2.07,2.09ZM70.2,20.88c0,1.67.51,2.15,1.63,2.15.83,0,1.59-.18,1.59-1.07V15.9c0-.9-.76-1.08-1.59-1.08-1.09,0-1.63.48-1.63,2.16Z"/><path d="M79,24.41c-2.25,0-3.09-1.14-3.09-3.26V16.7c0-2.1.84-3.24,3.09-3.24s3.08,1.14,3.08,3.24v4.45C82.11,23.27,81.21,24.41,79,24.41Zm0-9.48c-1.09,0-1.59.48-1.59,2.05v3.9c0,1.58.5,2.06,1.59,2.06s1.64-.47,1.64-2.06V17C80.64,15.39,80.13,14.93,79,14.93Z"/><path d="M86.67,13.46c1.48,0,2.29.79,2.29,2.56v8.31H87.49V16.25c0-.89-.31-1.41-1.27-1.41s-1.59.18-1.59,1.06v8.43H83.16V13.53h1.47v2A1.82,1.82,0,0,1,86.67,13.46Z"/><path d="M93.52,13.46c1.49,0,2.3.79,2.3,2.56v8.31H94.35V16.25c0-.89-.32-1.41-1.28-1.41s-1.59.18-1.59,1.06v8.43H90V13.53h1.47v2A1.83,1.83,0,0,1,93.52,13.46Z"/><path d="M100,24.41c-2.25,0-3.09-1.14-3.09-3.26V16.7c0-2.1.85-3.24,3.13-3.24s3,1,3,2.79v3H98.34v1.59c0,1.58.49,2.06,1.59,2.06s1.63-.32,1.63-1.43V20.37H103v1.41C103,23.51,102.13,24.41,100,24.41ZM98.34,18h3.22v-1.5c0-1.26-.49-1.62-1.59-1.62s-1.63.48-1.63,2.07Zm.85-4.84.33-.93h1.92l-1.09.93Z"/><path d="M107.17,24.41c-2.25,0-3.09-1.14-3.09-3.26V16.7c0-2.1.86-3.24,3.14-3.24s3,1,3,2.79v3h-4.7v1.59c0,1.58.5,2.06,1.59,2.06s1.64-.32,1.64-1.43V20.37h1.47v1.41C110.25,23.51,109.35,24.41,107.17,24.41ZM105.55,18h3.23v-1.5c0-1.26-.5-1.62-1.59-1.62s-1.64.48-1.64,2.07Z"/><path d="M112.72,20.24v1.23c0,1.18.53,1.57,1.55,1.57s1.53-.27,1.53-1.06V20.82c0-.79-.21-1-1.76-1.3-2.19-.36-2.79-.78-2.79-2.28V15.9c0-1.72.89-2.44,3-2.44s3,.85,3,2.64v1.45H115.8v-1.3c0-1-.5-1.43-1.55-1.43s-1.56.32-1.56,1.16v1.17c0,.61.18.84,1.74,1.11,2.31.45,2.84.87,2.84,2.5V22.1c0,1.69-.93,2.31-3,2.31s-3-.78-3-2.79V20.24Z"/><path d="M145,20.78h-2.6l-.72,3.55h-1.45l2.49-12.22h2l2.51,12.22h-1.47Zm-1.29-6.42-1,5h2Z"/><path d="M150,24.41c-1.49,0-2.3-.81-2.3-2.57V13.53h1.47v8.1c0,.87.32,1.4,1.28,1.4s1.59-.18,1.59-1.07V13.53h1.47v10.8h-1.47v-2A1.83,1.83,0,0,1,150,24.41Z"/><path d="M160.75,19.74V21.6c0,1.85-.9,2.81-3.07,2.81s-3.09-1.14-3.09-3.26V16.7c0-2.1.84-3.24,3.09-3.24s3.07,1,3.07,2.79v1.83h-1.47V16.53c0-1.24-.51-1.6-1.63-1.6s-1.59.48-1.59,2.05v3.9c0,1.58.49,2.06,1.59,2.06s1.63-.36,1.63-1.61V19.74Z"/><path d="M164.1,24.41c-1.49,0-2.3-.81-2.3-2.57V13.53h1.47v8.1c0,.87.32,1.4,1.28,1.4s1.59-.18,1.59-1.07V13.53h1.46v10.8h-1.46v-2A1.83,1.83,0,0,1,164.1,24.41Z"/><path d="M172.17,13.46c1.48,0,2.29.79,2.29,2.56v8.31H173V16.25c0-.89-.31-1.41-1.27-1.41s-1.59.18-1.59,1.06v8.43h-1.47V13.53h1.47v2A1.82,1.82,0,0,1,172.17,13.46Z"/><path d="M184.44,19.74V21.6c0,1.85-.9,2.81-3.08,2.81s-3.09-1.14-3.09-3.26V16.7c0-2.1.84-3.24,3.09-3.24s3.08,1,3.08,2.79v1.83H183V16.53c0-1.24-.51-1.6-1.64-1.6s-1.59.48-1.59,2.05v3.9c0,1.58.5,2.06,1.59,2.06s1.64-.36,1.64-1.61V19.74Z"/><path d="M187.62,24.41c-1.43,0-2.21-.71-2.21-2.3V20.33c0-2.54,2.66-2.21,4.34-2.69V16.31c0-1.17-.42-1.4-1.41-1.4s-1.28.27-1.28,1v1h-1.47V15.71c0-1.52.87-2.27,2.75-2.27,2,0,2.88.71,2.88,2.63v8.26h-1.47v-2A1.87,1.87,0,0,1,187.62,24.41ZM189.75,22V18.81c-1.91.33-2.87.39-2.87,1.34V21.9c0,.72.29,1.13,1.1,1.13S189.75,22.85,189.75,22Z"/><path d="M193.69,20.24v1.23c0,1.18.53,1.57,1.55,1.57s1.53-.27,1.53-1.06V20.82c0-.79-.21-1-1.76-1.3-2.19-.36-2.79-.78-2.79-2.28V15.9c0-1.72.88-2.44,3-2.44s3,.85,3,2.64v1.45h-1.46v-1.3c0-1-.5-1.43-1.55-1.43s-1.56.32-1.56,1.16v1.17c0,.61.18.84,1.74,1.11,2.31.45,2.83.87,2.83,2.5V22.1c0,1.69-.92,2.31-3,2.31s-3-.78-3-2.79V20.24Z"/><path d="M226,20.78h-2.59l-.72,3.55h-1.46l2.49-12.22h2l2.5,12.22H226.7Zm-1.29-6.42-1,5h2Z"/><path d="M231,24.41c-1.48,0-2.29-.81-2.29-2.57V13.53h1.47v8.1c0,.87.31,1.4,1.27,1.4S233,22.85,233,22V13.53h1.47v10.8H233v-2A1.83,1.83,0,0,1,231,24.41Z"/><path d="M241.82,13.46a2,2,0,0,1,2.27,1.93,1.84,1.84,0,0,1,2.07-1.93c1.48,0,2.29.79,2.29,2.55v8.32H247v-8.1c0-.87-.31-1.39-1.27-1.39s-1.59.18-1.59,1.32v8.17h-1.47v-8.1c0-.87-.3-1.39-1.28-1.39-.81,0-1.59.18-1.59,1.06v8.43h-1.47V13.53h1.47v2A1.83,1.83,0,0,1,241.82,13.46Z"/><path d="M252.59,24.41c-2.25,0-3.09-1.14-3.09-3.26V16.7c0-2.1.84-3.24,3.09-3.24s3.08,1.14,3.08,3.24v4.45C255.67,23.27,254.77,24.41,252.59,24.41Zm0-9.48c-1.09,0-1.59.48-1.59,2.05v3.9c0,1.58.5,2.06,1.59,2.06s1.64-.47,1.64-2.06V17C254.2,15.39,253.69,14.93,252.56,14.93Z"/><path d="M256.72,12.12h1.47v1.1h-1.47Zm0,1.41h1.47v10.8h-1.47Z"/><path d="M262.75,13.46c1.48,0,2.29.79,2.29,2.56v8.31h-1.47V16.25c0-.89-.31-1.41-1.27-1.41s-1.59.18-1.59,1.06v8.43h-1.47V13.53h1.47v2A1.82,1.82,0,0,1,262.75,13.46Z"/><path d="M267.52,20.24v1.23c0,1.18.52,1.57,1.54,1.57s1.53-.27,1.53-1.06V20.82c0-.79-.21-1-1.75-1.3-2.19-.36-2.79-.78-2.79-2.28V15.9c0-1.72.88-2.44,3-2.44s3,.85,3,2.64v1.45h-1.47v-1.3c0-1-.49-1.43-1.54-1.43s-1.56.32-1.56,1.16v1.17c0,.61.18.84,1.74,1.11,2.31.45,2.83.87,2.83,2.5V22.1c0,1.69-.93,2.31-3,2.31s-3-.78-3-2.79V20.24Z"/><path d="M278.12,24.41c-1.48,0-2.29-.81-2.29-2.57V13.53h1.47v8.1c0,.87.31,1.4,1.27,1.4s1.59-.18,1.59-1.07V13.53h1.47v10.8h-1.47v-2A1.83,1.83,0,0,1,278.12,24.41Z"/><path d="M286.19,13.46c1.49,0,2.3.79,2.3,2.56v8.31H287V16.25c0-.89-.32-1.41-1.28-1.41s-1.59.18-1.59,1.06v8.43h-1.47V13.53h1.47v2A1.83,1.83,0,0,1,286.19,13.46Z"/><path d="M298.46,19.74V21.6c0,1.85-.9,2.81-3.07,2.81s-3.09-1.14-3.09-3.26V16.7c0-2.1.84-3.24,3.09-3.24s3.07,1,3.07,2.79v1.83H297V16.53c0-1.24-.51-1.6-1.63-1.6s-1.59.48-1.59,2.05v3.9c0,1.58.49,2.06,1.59,2.06s1.63-.36,1.63-1.61V19.74Z"/><path d="M301.64,24.41c-1.42,0-2.2-.71-2.2-2.3V20.33c0-2.54,2.65-2.21,4.33-2.69V16.31c0-1.17-.42-1.4-1.41-1.4s-1.27.27-1.27,1v1h-1.47V15.71c0-1.52.87-2.27,2.74-2.27,2,0,2.88.71,2.88,2.63v8.26h-1.47v-2A1.87,1.87,0,0,1,301.64,24.41ZM303.77,22V18.81c-1.9.33-2.86.39-2.86,1.34V21.9c0,.72.28,1.13,1.09,1.13S303.77,22.85,303.77,22Z"/><path d="M307.72,20.24v1.23c0,1.18.52,1.57,1.54,1.57s1.53-.27,1.53-1.06V20.82c0-.79-.21-1-1.75-1.3-2.19-.36-2.79-.78-2.79-2.28V15.9c0-1.72.88-2.44,3-2.44s3,.85,3,2.64v1.45h-1.47v-1.3c0-1-.49-1.43-1.54-1.43s-1.56.32-1.56,1.16v1.17c0,.61.18.84,1.74,1.11,2.31.45,2.83.87,2.83,2.5V22.1c0,1.69-.93,2.31-3,2.31s-3-.78-3-2.79V20.24Z"/><path d="M340,20.78h-2.59l-.72,3.55h-1.46l2.49-12.22h2l2.5,12.22h-1.47Zm-1.29-6.42-1,5h2Z"/><path d="M345,24.41c-1.48,0-2.29-.81-2.29-2.57V13.53h1.47v8.1c0,.87.31,1.4,1.27,1.4s1.59-.18,1.59-1.07V13.53h1.47v10.8h-1.47v-2A1.83,1.83,0,0,1,345,24.41Z"/><path d="M355.85,13.46a2,2,0,0,1,2.27,1.93,1.84,1.84,0,0,1,2.07-1.93c1.48,0,2.29.79,2.29,2.55v8.32H361v-8.1c0-.87-.31-1.39-1.27-1.39s-1.59.18-1.59,1.32v8.17h-1.47v-8.1c0-.87-.3-1.39-1.28-1.39-.81,0-1.59.18-1.59,1.06v8.43h-1.47V13.53h1.47v2A1.83,1.83,0,0,1,355.85,13.46Z"/><path d="M366.62,24.41c-2.25,0-3.09-1.14-3.09-3.26V16.7c0-2.1.84-3.24,3.09-3.24s3.08,1.14,3.08,3.24v4.45C369.7,23.27,368.8,24.41,366.62,24.41Zm0-9.48c-1.09,0-1.59.48-1.59,2.05v3.9c0,1.58.5,2.06,1.59,2.06s1.64-.47,1.64-2.06V17C368.23,15.39,367.72,14.93,366.59,14.93Z"/><path d="M370.75,12.12h1.47v1.1h-1.47Zm0,1.41h1.47v10.8h-1.47Z"/><path d="M376.78,13.46c1.48,0,2.29.79,2.29,2.56v8.31H377.6V16.25c0-.89-.31-1.41-1.27-1.41s-1.59.18-1.59,1.06v8.43h-1.47V13.53h1.47v2A1.82,1.82,0,0,1,376.78,13.46Z"/><path d="M381.55,20.24v1.23c0,1.18.52,1.57,1.54,1.57s1.53-.27,1.53-1.06V20.82c0-.79-.21-1-1.75-1.3-2.19-.36-2.79-.78-2.79-2.28V15.9c0-1.72.88-2.44,3-2.44s3,.85,3,2.64v1.45h-1.47v-1.3c0-1-.49-1.43-1.54-1.43s-1.56.32-1.56,1.16v1.17c0,.61.18.84,1.74,1.11,2.31.45,2.83.87,2.83,2.5V22.1c0,1.69-.93,2.31-3,2.31s-3-.78-3-2.79V20.24Z"/><path d="M392.15,24.41c-1.48,0-2.29-.81-2.29-2.57V13.53h1.47v8.1c0,.87.31,1.4,1.27,1.4s1.59-.18,1.59-1.07V13.53h1.47v10.8h-1.47v-2A1.83,1.83,0,0,1,392.15,24.41Z"/><path d="M400.22,13.46c1.49,0,2.3.79,2.3,2.56v8.31h-1.47V16.25c0-.89-.32-1.41-1.28-1.41s-1.59.18-1.59,1.06v8.43h-1.47V13.53h1.47v2A1.83,1.83,0,0,1,400.22,13.46Z"/><path d="M409.84,13.46a2,2,0,0,1,2.26,1.93,1.84,1.84,0,0,1,2.07-1.93c1.48,0,2.3.79,2.3,2.55v8.32H415v-8.1c0-.87-.32-1.39-1.28-1.39s-1.59.18-1.59,1.32v8.17h-1.47v-8.1c0-.87-.3-1.39-1.27-1.39-.81,0-1.59.18-1.59,1.06v8.43h-1.47V13.53h1.47v2A1.82,1.82,0,0,1,409.84,13.46Z"/><path d="M420.6,24.41c-2.25,0-3.08-1.14-3.08-3.26V16.7c0-2.1.83-3.24,3.08-3.24s3.08,1.14,3.08,3.24v4.45C423.68,23.27,422.78,24.41,420.6,24.41Zm0-9.48c-1.1,0-1.59.48-1.59,2.05v3.9c0,1.58.49,2.06,1.59,2.06s1.63-.47,1.63-2.06V17C422.21,15.39,421.7,14.93,420.58,14.93Z"/><path d="M428.18,13.46a1.39,1.39,0,0,1,.38,0v1.68c-.81-.2-2.36-.26-2.36.73v8.43h-1.47V13.53h1.47v2A1.81,1.81,0,0,1,428.18,13.46Z"/><path d="M432.17,14.7v9.63H430.7V14.7h-1.2V13.53h1.2V12.11h1.47v1.42h1.68V14.7Z"/><path d="M456.9,15.66c0-2.26,1-3.61,3.63-3.61s3.59,1.14,3.62,3.24V17.1h-1.47V15.44c0-1.34-.71-1.92-2.18-1.92s-2.13.55-2.13,2.4v4.6c0,1.76.65,2.42,2.13,2.42s2.16-.51,2.18-2V19.07h1.47v2c0,2.37-1,3.32-3.62,3.32s-3.63-.93-3.63-3.68Z"/><path d="M468.29,24.41c-2.25,0-3.09-1.14-3.09-3.26V16.7c0-2.1.84-3.24,3.09-3.24s3.07,1.14,3.07,3.24v4.45C471.36,23.27,470.46,24.41,468.29,24.41Zm0-9.48c-1.1,0-1.59.48-1.59,2.05v3.9c0,1.58.49,2.06,1.59,2.06s1.63-.47,1.63-2.06V17C469.89,15.39,469.38,14.93,468.26,14.93Z"/><path d="M475.92,13.46c1.49,0,2.3.79,2.3,2.56v8.31h-1.47V16.25c0-.89-.32-1.41-1.28-1.41s-1.59.18-1.59,1.06v8.43h-1.47V13.53h1.47v2A1.83,1.83,0,0,1,475.92,13.46Z"/><path d="M481.68,15v9.34h-1.47V15H479V13.8h1.21v-.18a1.35,1.35,0,0,1,1.49-1.51h1.78v1.15H482c-.18,0-.27.12-.27.32v.22h1.76V15Zm2-2.87h1.47v1.1h-1.47Zm0,1.41h1.47v10.8h-1.47Z"/><path d="M489.75,13.46c1.49,0,2.3.79,2.3,2.56v8.31h-1.47V16.25c0-.89-.32-1.41-1.28-1.41s-1.59.18-1.59,1.06v8.43h-1.47V13.53h1.47v2A1.83,1.83,0,0,1,489.75,13.46Z"/><path d="M496.19,24.41c-2.25,0-3.09-1.14-3.09-3.26V16.7c0-2.1.85-3.24,3.13-3.24s3,1,3,2.79v3h-4.69v1.59c0,1.58.49,2.06,1.59,2.06s1.63-.32,1.63-1.43V20.37h1.47v1.41C499.26,23.51,498.36,24.41,496.19,24.41ZM494.57,18h3.22v-1.5c0-1.26-.49-1.62-1.59-1.62s-1.63.48-1.63,2.07Z"/><path d="M503.82,13.46a2,2,0,0,1,2.27,1.93,1.84,1.84,0,0,1,2.07-1.93c1.48,0,2.29.79,2.29,2.55v8.32H509v-8.1c0-.87-.31-1.39-1.27-1.39s-1.59.18-1.59,1.32v8.17h-1.47v-8.1c0-.87-.3-1.39-1.28-1.39-.81,0-1.59.18-1.59,1.06v8.43h-1.47V13.53h1.47v2A1.83,1.83,0,0,1,503.82,13.46Z"/><path d="M514.59,24.41c-2.25,0-3.09-1.14-3.09-3.26V16.7c0-2.1.86-3.24,3.14-3.24s3,1,3,2.79v3H513v1.59c0,1.58.5,2.06,1.59,2.06s1.64-.32,1.64-1.43V20.37h1.47v1.41C517.67,23.51,516.77,24.41,514.59,24.41ZM513,18h3.23v-1.5c0-1.26-.5-1.62-1.59-1.62S513,15.39,513,17Z"/><path d="M522.23,13.46c1.48,0,2.29.79,2.29,2.56v8.31h-1.47V16.25c0-.89-.31-1.41-1.27-1.41s-1.59.18-1.59,1.06v8.43h-1.47V13.53h1.47v2A1.82,1.82,0,0,1,522.23,13.46Z"/><path d="M528,14.7v9.63H526.5V14.7h-1.2V13.53h1.2V12.11H528v1.42h1.68V14.7Z"/><path d="M536.93,13.46c1.84,0,2.62,1.12,2.62,3.21V20.6c0,2.08-.78,3.21-2.62,3.21a1.83,1.83,0,0,1-2.07-2.07v3.34h-1.47V13.53h1.47v2A1.84,1.84,0,0,1,536.93,13.46ZM538.08,17c0-1.63-.52-2.11-1.63-2.11-.83,0-1.59.18-1.59,1.06v5.46c0,.9.76,1.07,1.59,1.07,1.14,0,1.63-.47,1.63-2.1Z"/><path d="M542.73,24.41c-1.42,0-2.2-.71-2.2-2.3V20.33c0-2.54,2.65-2.21,4.33-2.69V16.31c0-1.17-.42-1.4-1.41-1.4s-1.27.27-1.27,1v1h-1.47V15.71c0-1.52.87-2.27,2.74-2.27,2,0,2.88.71,2.88,2.63v8.26h-1.47v-2A1.87,1.87,0,0,1,542.73,24.41ZM544.86,22V18.81c-1.9.33-2.86.39-2.86,1.34V21.9c0,.72.28,1.13,1.09,1.13S544.86,22.85,544.86,22Z"/><path d="M550.83,13.46a1.39,1.39,0,0,1,.38,0v1.68c-.81-.2-2.36-.26-2.36.73v8.43h-1.47V13.53h1.47v2A1.81,1.81,0,0,1,550.83,13.46Z"/><path d="M554.82,14.7v9.63h-1.47V14.7h-1.2V13.53h1.2V12.11h1.47v1.42h1.68V14.7Z"/><path d="M557.48,12.12H559v1.1h-1.47Zm0,1.41H559v10.8h-1.47Z"/><path d="M563.09,24.41c-2.25,0-3.09-1.14-3.09-3.26V16.7c0-2.1.85-3.24,3.13-3.24s3,1,3,2.79v3h-4.69v1.59c0,1.58.49,2.06,1.59,2.06s1.63-.32,1.63-1.43V20.37h1.47v1.41C566.16,23.51,565.26,24.41,563.09,24.41ZM561.47,18h3.22v-1.5c0-1.26-.49-1.62-1.59-1.62s-1.63.48-1.63,2.07Z"/><path d="M567.21,12.11h1.47V24.33h-1.47Z"/><path d="M591.81,15.66c0-2.26,1-3.61,3.63-3.61s3.59,1.14,3.62,3.24V17.1h-1.47V15.44c0-1.34-.71-1.92-2.18-1.92s-2.13.55-2.13,2.4v4.6c0,1.76.65,2.42,2.13,2.42s2.16-.51,2.18-2V19.07h1.47v2c0,2.37-1,3.32-3.62,3.32s-3.63-.93-3.63-3.68Z"/><path d="M603.2,24.41c-2.25,0-3.09-1.14-3.09-3.26V16.7c0-2.1.84-3.24,3.09-3.24s3.07,1.14,3.07,3.24v4.45C606.27,23.27,605.37,24.41,603.2,24.41Zm0-9.48c-1.1,0-1.59.48-1.59,2.05v3.9c0,1.58.49,2.06,1.59,2.06s1.63-.47,1.63-2.06V17C604.8,15.39,604.29,14.93,603.17,14.93Z"/><path d="M610.83,13.46c1.49,0,2.3.79,2.3,2.56v8.31h-1.47V16.25c0-.89-.32-1.41-1.28-1.41s-1.59.18-1.59,1.06v8.43h-1.47V13.53h1.47v2A1.83,1.83,0,0,1,610.83,13.46Z"/><path d="M616.59,15v9.34h-1.47V15h-1.21V13.8h1.21v-.18a1.35,1.35,0,0,1,1.49-1.51h1.78v1.15h-1.53c-.18,0-.27.12-.27.32v.22h1.76V15Zm2-2.87h1.47v1.1h-1.47Zm0,1.41h1.47v10.8h-1.47Z"/><path d="M624.66,13.46c1.49,0,2.3.79,2.3,2.56v8.31h-1.47V16.25c0-.89-.32-1.41-1.28-1.41s-1.59.18-1.59,1.06v8.43h-1.47V13.53h1.47v2A1.83,1.83,0,0,1,624.66,13.46Z"/><path d="M631.1,24.41c-2.25,0-3.09-1.14-3.09-3.26V16.7c0-2.1.85-3.24,3.13-3.24s3,1,3,2.79v3h-4.69v1.59c0,1.58.49,2.06,1.59,2.06s1.63-.32,1.63-1.43V20.37h1.47v1.41C634.17,23.51,633.27,24.41,631.1,24.41ZM629.48,18h3.22v-1.5c0-1.26-.49-1.62-1.59-1.62s-1.63.48-1.63,2.07Z"/><path d="M638.73,13.46A2,2,0,0,1,641,15.39a1.84,1.84,0,0,1,2.07-1.93c1.48,0,2.29.79,2.29,2.55v8.32h-1.47v-8.1c0-.87-.31-1.39-1.27-1.39S641,15,641,16.16v8.17h-1.47v-8.1c0-.87-.3-1.39-1.28-1.39-.81,0-1.59.18-1.59,1.06v8.43h-1.47V13.53h1.47v2A1.83,1.83,0,0,1,638.73,13.46Z"/><path d="M649.5,24.41c-2.25,0-3.09-1.14-3.09-3.26V16.7c0-2.1.86-3.24,3.14-3.24s3,1,3,2.79v3h-4.7v1.59c0,1.58.5,2.06,1.59,2.06s1.64-.32,1.64-1.43V20.37h1.47v1.41C652.58,23.51,651.68,24.41,649.5,24.41ZM647.88,18h3.23v-1.5c0-1.26-.5-1.62-1.59-1.62s-1.64.48-1.64,2.07Z"/><path d="M657.14,13.46c1.48,0,2.29.79,2.29,2.56v8.31H658V16.25c0-.89-.31-1.41-1.27-1.41s-1.59.18-1.59,1.06v8.43h-1.47V13.53h1.47v2A1.82,1.82,0,0,1,657.14,13.46Z"/><path d="M662.88,14.7v9.63h-1.47V14.7h-1.2V13.53h1.2V12.11h1.47v1.42h1.68V14.7Z"/><path d="M670.89,14.7v9.63h-1.47V14.7h-1.2V13.53h1.2V12.11h1.47v1.42h1.68V14.7Z"/><path d="M676.14,24.41c-2.25,0-3.09-1.14-3.09-3.26V16.7c0-2.1.84-3.24,3.09-3.24s3.08,1.14,3.08,3.24v4.45C679.22,23.27,678.32,24.41,676.14,24.41Zm0-9.48c-1.09,0-1.59.48-1.59,2.05v3.9c0,1.58.5,2.06,1.59,2.06s1.64-.47,1.64-2.06V17C677.75,15.39,677.24,14.93,676.11,14.93Z"/><path d="M682.37,14.7v9.63H680.9V14.7h-1.2V13.53h1.2V12.11h1.47v1.42h1.68V14.7Z"/><path d="M686.93,24.41c-1.43,0-2.21-.71-2.21-2.3V20.33c0-2.54,2.66-2.21,4.34-2.69V16.31c0-1.17-.42-1.4-1.41-1.4s-1.28.27-1.28,1v1H684.9V15.71c0-1.52.87-2.27,2.75-2.27,2,0,2.88.71,2.88,2.63v8.26h-1.47v-2A1.87,1.87,0,0,1,686.93,24.41ZM689.06,22V18.81c-1.91.33-2.87.39-2.87,1.34V21.9c0,.72.29,1.13,1.1,1.13S689.06,22.85,689.06,22Z"/><path d="M691.58,12.11h1.47V24.33h-1.47Z"/><path d="M716.18,12.11h3.09c2.54,0,3.61,1.21,3.61,3.46v5.28c0,2.25-1.07,3.48-3.61,3.48h-3.09Zm1.46,1.45v9.3h1.59c1.5,0,2.18-.54,2.18-2.37V16c0-1.85-.68-2.39-2.18-2.39Z"/><path d="M727,24.41c-2.25,0-3.09-1.14-3.09-3.26V16.7c0-2.1.85-3.24,3.13-3.24s3,1,3,2.79v3H725.4v1.59c0,1.58.49,2.06,1.59,2.06s1.63-.32,1.63-1.43V20.37h1.47v1.41C730.09,23.51,729.19,24.41,727,24.41ZM725.4,18h3.22v-1.5c0-1.26-.49-1.62-1.59-1.62s-1.63.48-1.63,2.07Zm.85-4.84.33-.93h1.92l-1.09.93Z"/><path d="M737.31,19.74V21.6c0,1.85-.9,2.81-3.07,2.81s-3.09-1.14-3.09-3.26V16.7c0-2.1.84-3.24,3.09-3.24s3.07,1,3.07,2.79v1.83h-1.47V16.53c0-1.24-.51-1.6-1.63-1.6s-1.59.48-1.59,2.05v3.9c0,1.58.49,2.06,1.59,2.06s1.63-.36,1.63-1.61V19.74Z"/><path d="M741.45,24.41c-2.25,0-3.09-1.14-3.09-3.26V16.7c0-2.1.84-3.24,3.09-3.24s3.07,1.14,3.07,3.24v4.45C744.52,23.27,743.63,24.41,741.45,24.41Zm0-9.48c-1.09,0-1.59.48-1.59,2.05v3.9c0,1.58.5,2.06,1.59,2.06s1.64-.47,1.64-2.06V17C743.06,15.39,742.55,14.93,741.42,14.93Z"/><path d="M749.09,13.46c1.48,0,2.29.79,2.29,2.56v8.31h-1.47V16.25c0-.89-.31-1.41-1.27-1.41s-1.59.18-1.59,1.06v8.43h-1.47V13.53h1.47v2A1.82,1.82,0,0,1,749.09,13.46Z"/><path d="M754.85,15v9.34h-1.47V15h-1.22V13.8h1.22v-.18a1.34,1.34,0,0,1,1.48-1.51h1.78v1.15h-1.52c-.18,0-.27.12-.27.32v.22h1.75V15Zm2-2.87h1.46v1.1h-1.46Zm0,1.41h1.46v10.8h-1.46Z"/><path d="M762.92,13.46c1.48,0,2.29.79,2.29,2.56v8.31h-1.47V16.25c0-.89-.31-1.41-1.27-1.41s-1.59.18-1.59,1.06v8.43h-1.47V13.53h1.47v2A1.82,1.82,0,0,1,762.92,13.46Z"/><path d="M769.35,24.41c-2.25,0-3.09-1.14-3.09-3.26V16.7c0-2.1.85-3.24,3.13-3.24s3,1,3,2.79v3h-4.69v1.59c0,1.58.5,2.06,1.59,2.06s1.63-.32,1.63-1.43V20.37h1.47v1.41C772.42,23.51,771.52,24.41,769.35,24.41ZM767.73,18H771v-1.5c0-1.26-.49-1.62-1.59-1.62s-1.63.48-1.63,2.07Z"/><path d="M777,13.46a2,2,0,0,1,2.26,1.93,1.84,1.84,0,0,1,2.07-1.93c1.49,0,2.3.79,2.3,2.55v8.32h-1.48v-8.1c0-.87-.31-1.39-1.27-1.39s-1.59.18-1.59,1.32v8.17h-1.47v-8.1c0-.87-.3-1.39-1.27-1.39-.81,0-1.59.18-1.59,1.06v8.43h-1.47V13.53H775v2A1.82,1.82,0,0,1,777,13.46Z"/><path d="M787.76,24.41c-2.25,0-3.09-1.14-3.09-3.26V16.7c0-2.1.85-3.24,3.13-3.24s3,1,3,2.79v3h-4.69v1.59c0,1.58.49,2.06,1.59,2.06s1.63-.32,1.63-1.43V20.37h1.47v1.41C790.83,23.51,789.93,24.41,787.76,24.41ZM786.14,18h3.22v-1.5c0-1.26-.5-1.62-1.59-1.62s-1.63.48-1.63,2.07Z"/><path d="M795.39,13.46c1.48,0,2.3.79,2.3,2.56v8.31h-1.48V16.25c0-.89-.31-1.41-1.27-1.41s-1.59.18-1.59,1.06v8.43h-1.47V13.53h1.47v2A1.82,1.82,0,0,1,795.39,13.46Z"/><path d="M801.14,14.7v9.63h-1.47V14.7h-1.2V13.53h1.2V12.11h1.47v1.42h1.67V14.7Z"/><rect class="cls-3" x="11.8" y="12.65" width="11.34" height="11.34"/><rect class="cls-4" x="125.97" y="12.65" width="11.34" height="11.34"/><rect class="cls-5" x="208.42" y="12.65" width="11.34" height="11.34"/><rect class="cls-6" x="321.79" y="12.65" width="11.34" height="11.34"/><rect class="cls-7" x="442.31" y="12.65" width="11.34" height="11.34"/><rect class="cls-8" x="578.5" y="12.65" width="11.34" height="11.34"/><rect class="cls-9" x="701.32" y="12.65" width="11.34" height="11.34"/></g></svg>