<svg xmlns="http://www.w3.org/2000/svg" xmlns:xlink="http://www.w3.org/1999/xlink" viewBox="0 0 489.23 50.77"><defs><style>.cls-1{fill:none;}.cls-2{clip-path:url(#clip-path);}.cls-3{fill:#dadada;}.cls-4{fill:#fff;stroke:#7c7c7b;stroke-width:0.5px;}.cls-5{fill:#f9d3db;}.cls-6{fill:#f4a7b7;}.cls-7{fill:#e3234a;}.cls-8{fill:#a70021;}.cls-9{fill:#ff9c76;}</style><clipPath id="clip-path"><rect class="cls-1" x="62.97" y="309.67" width="750.74" height="629.42"/></clipPath></defs><title>LIB-2020-03-31-maquette-carte-confinement-app</title><g id="HABILLAGE"><path d="M29.58,15.16V19.4H28.11V7.18H31.2c2.05,0,2.89.87,2.89,2.56v2.94c0,1.65-.84,2.48-2.89,2.48Zm0-6.53V13.7h1.59c1,0,1.45-.3,1.45-1.39V10.12c0-1.16-.45-1.49-1.45-1.49Z"/><path d="M37.15,19.48c-1.42,0-2.2-.71-2.2-2.3V15.4c0-2.54,2.65-2.21,4.33-2.69V11.38c0-1.17-.42-1.4-1.41-1.4s-1.27.27-1.27,1v1H35.13V10.78c0-1.52.87-2.27,2.74-2.27,2,0,2.88.71,2.88,2.63V19.4H39.28v-2A1.87,1.87,0,0,1,37.15,19.48ZM39.28,17V13.88c-1.9.33-2.86.39-2.86,1.34V17c0,.72.28,1.13,1.09,1.13S39.28,17.92,39.28,17Z"/><path d="M43.23,15.31v1.23c0,1.18.52,1.57,1.54,1.57s1.53-.27,1.53-1.06V15.89c0-.79-.21-1-1.75-1.3-2.19-.36-2.79-.78-2.79-2.28V11c0-1.72.88-2.44,3-2.44s3,.85,3,2.64v1.45H46.3v-1.3c0-1-.49-1.43-1.54-1.43s-1.56.32-1.56,1.16v1.17c0,.61.18.84,1.74,1.11,2.31.45,2.83.87,2.83,2.5v1.34c0,1.69-.93,2.31-3,2.31s-3-.78-3-2.79V15.31Z"/><path d="M56.23,7.18H57.7V19.4H56.23v-2a1.84,1.84,0,0,1-2.07,2.09c-1.84,0-2.62-1.14-2.62-3.26V11.77c0-2.1.78-3.26,2.62-3.26a1.84,1.84,0,0,1,2.07,2.09ZM53,16c0,1.67.51,2.15,1.63,2.15.83,0,1.59-.18,1.59-1.07V11c0-.9-.76-1.08-1.59-1.08-1.09,0-1.63.48-1.63,2.16Z"/><path d="M61.84,19.48c-2.25,0-3.09-1.14-3.09-3.26V11.77c0-2.1.86-3.24,3.14-3.24s3,1,3,2.79v3h-4.7V16c0,1.58.5,2.06,1.59,2.06s1.64-.32,1.64-1.43V15.44h1.47v1.41C64.92,18.58,64,19.48,61.84,19.48ZM60.22,13.1h3.23V11.6c0-1.26-.5-1.62-1.59-1.62s-1.64.48-1.64,2.07Z"/><path d="M73.42,7.18h1.47V19.4H73.42v-2a1.84,1.84,0,0,1-2.07,2.09c-1.84,0-2.62-1.14-2.62-3.26V11.77c0-2.1.78-3.26,2.62-3.26a1.84,1.84,0,0,1,2.07,2.09ZM70.2,16c0,1.67.51,2.15,1.63,2.15.83,0,1.59-.18,1.59-1.07V11c0-.9-.76-1.08-1.59-1.08-1.09,0-1.63.48-1.63,2.16Z"/><path d="M79,19.48c-2.25,0-3.09-1.14-3.09-3.26V11.77c0-2.1.84-3.24,3.09-3.24s3.08,1.14,3.08,3.24v4.45C82.11,18.34,81.21,19.48,79,19.48ZM79,10c-1.09,0-1.59.48-1.59,2.05V16c0,1.58.5,2.06,1.59,2.06s1.64-.47,1.64-2.06v-3.9C80.64,10.46,80.13,10,79,10Z"/><path d="M86.67,8.53c1.48,0,2.29.79,2.29,2.56V19.4H87.49V11.32c0-.89-.31-1.41-1.27-1.41s-1.59.18-1.59,1.06V19.4H83.16V8.6h1.47v2A1.82,1.82,0,0,1,86.67,8.53Z"/><path d="M93.52,8.53c1.49,0,2.3.79,2.3,2.56V19.4H94.35V11.32c0-.89-.32-1.41-1.28-1.41s-1.59.18-1.59,1.06V19.4H90V8.6h1.47v2A1.83,1.83,0,0,1,93.52,8.53Z"/><path d="M100,19.48c-2.25,0-3.09-1.14-3.09-3.26V11.77c0-2.1.85-3.24,3.13-3.24s3,1,3,2.79v3H98.34V16c0,1.58.49,2.06,1.59,2.06s1.63-.32,1.63-1.43V15.44H103v1.41C103,18.58,102.13,19.48,100,19.48ZM98.34,13.1h3.22V11.6c0-1.26-.49-1.62-1.59-1.62s-1.63.48-1.63,2.07Zm.85-4.84.33-.93h1.92l-1.09.93Z"/><path d="M107.17,19.48c-2.25,0-3.09-1.14-3.09-3.26V11.77c0-2.1.86-3.24,3.14-3.24s3,1,3,2.79v3h-4.7V16c0,1.58.5,2.06,1.59,2.06s1.64-.32,1.64-1.43V15.44h1.47v1.41C110.25,18.58,109.35,19.48,107.17,19.48Zm-1.62-6.38h3.23V11.6c0-1.26-.5-1.62-1.59-1.62s-1.64.48-1.64,2.07Z"/><path d="M112.72,15.31v1.23c0,1.18.53,1.57,1.55,1.57s1.53-.27,1.53-1.06V15.89c0-.79-.21-1-1.76-1.3-2.19-.36-2.79-.78-2.79-2.28V11c0-1.72.89-2.44,3-2.44s3,.85,3,2.64v1.45H115.8v-1.3c0-1-.5-1.43-1.55-1.43s-1.56.32-1.56,1.16v1.17c0,.61.18.84,1.74,1.11,2.31.45,2.84.87,2.84,2.5v1.34c0,1.69-.93,2.31-3,2.31s-3-.78-3-2.79V15.31Z"/><path d="M161.57,15.85H159l-.72,3.55h-1.45l2.48-12.22h2l2.51,12.22h-1.48Zm-1.29-6.42-1,5h2Z"/><path d="M166.58,19.48c-1.48,0-2.29-.81-2.29-2.57V8.6h1.47v8.1c0,.87.31,1.4,1.27,1.4s1.59-.18,1.59-1.07V8.6h1.47V19.4h-1.47v-2A1.83,1.83,0,0,1,166.58,19.48Z"/><path d="M177.31,14.81v1.86c0,1.85-.9,2.81-3.07,2.81s-3.09-1.14-3.09-3.26V11.77c0-2.1.84-3.24,3.09-3.24s3.07,1,3.07,2.79v1.83h-1.47V11.6c0-1.24-.51-1.6-1.64-1.6s-1.59.48-1.59,2.05V16c0,1.58.5,2.06,1.59,2.06s1.64-.36,1.64-1.61V14.81Z"/><path d="M180.66,19.48c-1.49,0-2.3-.81-2.3-2.57V8.6h1.47v8.1c0,.87.32,1.4,1.28,1.4s1.59-.18,1.59-1.07V8.6h1.46V19.4H182.7v-2A1.83,1.83,0,0,1,180.66,19.48Z"/><path d="M188.72,8.53c1.49,0,2.3.79,2.3,2.56V19.4h-1.47V11.32c0-.89-.31-1.41-1.27-1.41s-1.59.18-1.59,1.06V19.4h-1.48V8.6h1.48v2A1.82,1.82,0,0,1,188.72,8.53Z"/><path d="M201,14.81v1.86c0,1.85-.9,2.81-3.07,2.81s-3.09-1.14-3.09-3.26V11.77c0-2.1.84-3.24,3.09-3.24s3.07,1,3.07,2.79v1.83h-1.47V11.6c0-1.24-.51-1.6-1.63-1.6s-1.59.48-1.59,2.05V16c0,1.58.49,2.06,1.59,2.06s1.63-.36,1.63-1.61V14.81Z"/><path d="M204.17,19.48c-1.42,0-2.2-.71-2.2-2.3V15.4c0-2.54,2.65-2.21,4.33-2.69V11.38c0-1.17-.42-1.4-1.41-1.4s-1.27.27-1.27,1v1h-1.47V10.78c0-1.52.87-2.27,2.74-2.27,2,0,2.88.71,2.88,2.63V19.4H206.3v-2A1.87,1.87,0,0,1,204.17,19.48ZM206.3,17V13.88c-1.9.33-2.86.39-2.86,1.34V17c0,.72.28,1.13,1.09,1.13S206.3,17.92,206.3,17Z"/><path d="M210.25,15.31v1.23c0,1.18.53,1.57,1.54,1.57s1.53-.27,1.53-1.06V15.89c0-.79-.21-1-1.75-1.3-2.19-.36-2.79-.78-2.79-2.28V11c0-1.72.88-2.44,3-2.44s3,.85,3,2.64v1.45h-1.47v-1.3c0-1-.49-1.43-1.54-1.43s-1.56.32-1.56,1.16v1.17c0,.61.18.84,1.74,1.11,2.31.45,2.83.87,2.83,2.5v1.34c0,1.69-.93,2.31-3,2.31s-3-.78-3-2.79V15.31Z"/><path d="M259.1,15.85h-2.59l-.72,3.55h-1.46l2.49-12.22h2l2.5,12.22h-1.47Zm-1.29-6.42-1,5h2Z"/><path d="M264.11,19.48c-1.48,0-2.29-.81-2.29-2.57V8.6h1.47v8.1c0,.87.31,1.4,1.27,1.4s1.59-.18,1.59-1.07V8.6h1.47V19.4h-1.47v-2A1.83,1.83,0,0,1,264.11,19.48Z"/><path d="M274.94,8.53a2,2,0,0,1,2.27,1.93,1.84,1.84,0,0,1,2.07-1.93c1.48,0,2.29.79,2.29,2.55V19.4H280.1V11.3c0-.87-.31-1.39-1.27-1.39s-1.59.18-1.59,1.32V19.4h-1.47V11.3c0-.87-.3-1.39-1.28-1.39-.81,0-1.59.18-1.59,1.06V19.4h-1.47V8.6h1.47v2A1.83,1.83,0,0,1,274.94,8.53Z"/><path d="M285.71,19.48c-2.25,0-3.09-1.14-3.09-3.26V11.77c0-2.1.84-3.24,3.09-3.24s3.08,1.14,3.08,3.24v4.45C288.79,18.34,287.89,19.48,285.71,19.48Zm0-9.48c-1.09,0-1.59.48-1.59,2.05V16c0,1.58.5,2.06,1.59,2.06s1.64-.47,1.64-2.06v-3.9C287.32,10.46,286.81,10,285.68,10Z"/><path d="M289.84,7.19h1.47v1.1h-1.47Zm0,1.41h1.47V19.4h-1.47Z"/><path d="M295.87,8.53c1.48,0,2.29.79,2.29,2.56V19.4h-1.47V11.32c0-.89-.31-1.41-1.27-1.41s-1.59.18-1.59,1.06V19.4h-1.47V8.6h1.47v2A1.82,1.82,0,0,1,295.87,8.53Z"/><path d="M300.64,15.31v1.23c0,1.18.52,1.57,1.54,1.57s1.53-.27,1.53-1.06V15.89c0-.79-.21-1-1.75-1.3-2.19-.36-2.79-.78-2.79-2.28V11c0-1.72.88-2.44,3-2.44s3,.85,3,2.64v1.45h-1.47v-1.3c0-1-.49-1.43-1.54-1.43s-1.56.32-1.56,1.16v1.17c0,.61.18.84,1.74,1.11,2.31.45,2.83.87,2.83,2.5v1.34c0,1.69-.93,2.31-3,2.31s-3-.78-3-2.79V15.31Z"/><path d="M311.24,19.48c-1.48,0-2.29-.81-2.29-2.57V8.6h1.47v8.1c0,.87.31,1.4,1.27,1.4s1.59-.18,1.59-1.07V8.6h1.47V19.4h-1.47v-2A1.83,1.83,0,0,1,311.24,19.48Z"/><path d="M319.31,8.53c1.49,0,2.3.79,2.3,2.56V19.4h-1.47V11.32c0-.89-.32-1.41-1.28-1.41s-1.59.18-1.59,1.06V19.4H315.8V8.6h1.47v2A1.83,1.83,0,0,1,319.31,8.53Z"/><path d="M331.58,14.81v1.86c0,1.85-.9,2.81-3.07,2.81s-3.09-1.14-3.09-3.26V11.77c0-2.1.84-3.24,3.09-3.24s3.07,1,3.07,2.79v1.83h-1.47V11.6c0-1.24-.51-1.6-1.63-1.6s-1.59.48-1.59,2.05V16c0,1.58.49,2.06,1.59,2.06s1.63-.36,1.63-1.61V14.81Z"/><path d="M334.76,19.48c-1.42,0-2.2-.71-2.2-2.3V15.4c0-2.54,2.65-2.21,4.33-2.69V11.38c0-1.17-.42-1.4-1.41-1.4s-1.27.27-1.27,1v1h-1.47V10.78c0-1.52.87-2.27,2.74-2.27,2,0,2.88.71,2.88,2.63V19.4h-1.47v-2A1.87,1.87,0,0,1,334.76,19.48ZM336.89,17V13.88c-1.9.33-2.86.39-2.86,1.34V17c0,.72.28,1.13,1.09,1.13S336.89,17.92,336.89,17Z"/><path d="M340.84,15.31v1.23c0,1.18.52,1.57,1.54,1.57s1.53-.27,1.53-1.06V15.89c0-.79-.21-1-1.75-1.3-2.19-.36-2.79-.78-2.79-2.28V11c0-1.72.88-2.44,3-2.44s3,.85,3,2.64v1.45h-1.47v-1.3c0-1-.49-1.43-1.54-1.43s-1.56.32-1.56,1.16v1.17c0,.61.18.84,1.74,1.11,2.31.45,2.83.87,2.83,2.5v1.34c0,1.69-.93,2.31-3,2.31s-3-.78-3-2.79V15.31Z"/><path d="M389.69,15.85h-2.6l-.72,3.55h-1.45l2.49-12.22h2l2.51,12.22h-1.47ZM388.4,9.43l-1,5h2Z"/><path d="M394.7,19.48c-1.49,0-2.3-.81-2.3-2.57V8.6h1.47v8.1c0,.87.32,1.4,1.28,1.4s1.59-.18,1.59-1.07V8.6h1.47V19.4h-1.47v-2A1.83,1.83,0,0,1,394.7,19.48Z"/><path d="M405.53,8.53a2,2,0,0,1,2.26,1.93,1.84,1.84,0,0,1,2.07-1.93c1.49,0,2.3.79,2.3,2.55V19.4h-1.47V11.3c0-.87-.32-1.39-1.28-1.39s-1.59.18-1.59,1.32V19.4h-1.47V11.3c0-.87-.3-1.39-1.27-1.39-.81,0-1.59.18-1.59,1.06V19.4H402V8.6h1.47v2A1.82,1.82,0,0,1,405.53,8.53Z"/><path d="M416.3,19.48c-2.25,0-3.09-1.14-3.09-3.26V11.77c0-2.1.84-3.24,3.09-3.24s3.07,1.14,3.07,3.24v4.45C419.37,18.34,418.47,19.48,416.3,19.48Zm0-9.48c-1.1,0-1.59.48-1.59,2.05V16c0,1.58.49,2.06,1.59,2.06s1.63-.47,1.63-2.06v-3.9C417.9,10.46,417.39,10,416.27,10Z"/><path d="M420.42,7.19h1.47v1.1h-1.47Zm0,1.41h1.47V19.4h-1.47Z"/><path d="M426.45,8.53c1.49,0,2.3.79,2.3,2.56V19.4h-1.47V11.32c0-.89-.32-1.41-1.28-1.41s-1.59.18-1.59,1.06V19.4h-1.47V8.6h1.47v2A1.83,1.83,0,0,1,426.45,8.53Z"/><path d="M431.22,15.31v1.23c0,1.18.53,1.57,1.55,1.57s1.53-.27,1.53-1.06V15.89c0-.79-.21-1-1.76-1.3-2.19-.36-2.79-.78-2.79-2.28V11c0-1.72.89-2.44,3-2.44s3,.85,3,2.64v1.45H434.3v-1.3c0-1-.5-1.43-1.55-1.43s-1.56.32-1.56,1.16v1.17c0,.61.18.84,1.74,1.11,2.31.45,2.84.87,2.84,2.5v1.34c0,1.69-.93,2.31-3,2.31s-3-.78-3-2.79V15.31Z"/><path d="M441.83,19.48c-1.49,0-2.3-.81-2.3-2.57V8.6H441v8.1c0,.87.32,1.4,1.28,1.4s1.59-.18,1.59-1.07V8.6h1.47V19.4h-1.47v-2A1.83,1.83,0,0,1,441.83,19.48Z"/><path d="M449.9,8.53c1.48,0,2.29.79,2.29,2.56V19.4h-1.47V11.32c0-.89-.31-1.41-1.27-1.41s-1.59.18-1.59,1.06V19.4h-1.47V8.6h1.47v2A1.82,1.82,0,0,1,449.9,8.53Z"/><path d="M459.51,8.53a2,2,0,0,1,2.27,1.93,1.84,1.84,0,0,1,2.07-1.93c1.48,0,2.29.79,2.29,2.55V19.4h-1.47V11.3c0-.87-.31-1.39-1.27-1.39s-1.59.18-1.59,1.32V19.4h-1.47V11.3c0-.87-.3-1.39-1.28-1.39-.81,0-1.59.18-1.59,1.06V19.4H456V8.6h1.47v2A1.83,1.83,0,0,1,459.51,8.53Z"/><path d="M470.28,19.48c-2.25,0-3.09-1.14-3.09-3.26V11.77c0-2.1.84-3.24,3.09-3.24s3.08,1.14,3.08,3.24v4.45C473.36,18.34,472.46,19.48,470.28,19.48Zm0-9.48c-1.09,0-1.59.48-1.59,2.05V16c0,1.58.5,2.06,1.59,2.06s1.64-.47,1.64-2.06v-3.9C471.89,10.46,471.38,10,470.25,10Z"/><path d="M477.86,8.53a1.31,1.31,0,0,1,.37,0v1.68c-.81-.2-2.35-.26-2.35.73V19.4h-1.47V8.6h1.47v2C475.88,9.4,476.4,8.53,477.86,8.53Z"/><path d="M481.85,9.77V19.4h-1.47V9.77h-1.2V8.6h1.2V7.18h1.47V8.6h1.68V9.77Z"/><path d="M28.11,32.73c0-2.26,1-3.61,3.63-3.61s3.58,1.14,3.61,3.24v1.81H33.88V32.51c0-1.34-.7-1.92-2.17-1.92s-2.13.55-2.13,2.4v4.6c0,1.76.64,2.42,2.13,2.42s2.16-.51,2.17-2V36.14h1.47v2c0,2.37-1,3.32-3.61,3.32s-3.63-.93-3.63-3.68Z"/><path d="M39.49,41.48c-2.25,0-3.09-1.14-3.09-3.26V33.77c0-2.1.84-3.24,3.09-3.24s3.08,1.14,3.08,3.24v4.45C42.57,40.34,41.67,41.48,39.49,41.48Zm0-9.48c-1.09,0-1.59.48-1.59,2V38c0,1.58.5,2.06,1.59,2.06S41.1,39.54,41.1,38v-3.9C41.1,32.46,40.59,32,39.46,32Z"/><path d="M47.13,30.53c1.48,0,2.29.79,2.29,2.56V41.4H48V33.32c0-.89-.31-1.41-1.27-1.41s-1.59.18-1.59,1.06V41.4H43.62V30.6h1.47v2A1.82,1.82,0,0,1,47.13,30.53Z"/><path d="M52.89,32.06V41.4H51.42V32.06H50.2V30.87h1.22v-.18a1.34,1.34,0,0,1,1.48-1.51h1.79v1.15H53.16c-.18,0-.27.12-.27.32v.22h1.75v1.19Zm2-2.87H56.4v1.1H54.93Zm0,1.41H56.4V41.4H54.93Z"/><path d="M61,30.53c1.48,0,2.29.79,2.29,2.56V41.4H61.78V33.32c0-.89-.31-1.41-1.27-1.41s-1.59.18-1.59,1.06V41.4H57.45V30.6h1.47v2A1.82,1.82,0,0,1,61,30.53Z"/><path d="M67.39,41.48c-2.25,0-3.09-1.14-3.09-3.26V33.77c0-2.1.86-3.24,3.14-3.24s3,1,3,2.79v3h-4.7V38c0,1.58.5,2.06,1.59,2.06S69,39.69,69,38.58V37.44h1.47v1.41C70.47,40.58,69.57,41.48,67.39,41.48ZM65.77,35.1H69V33.6c0-1.26-.5-1.62-1.59-1.62s-1.64.48-1.64,2.07Z"/><path d="M75,30.53a2,2,0,0,1,2.26,1.93,1.84,1.84,0,0,1,2.07-1.93c1.49,0,2.3.79,2.3,2.55V41.4H80.19V33.3c0-.87-.32-1.39-1.28-1.39s-1.59.18-1.59,1.32V41.4H75.85V33.3c0-.87-.3-1.39-1.27-1.39-.81,0-1.59.18-1.59,1.06V41.4H71.52V30.6H73v2A1.82,1.82,0,0,1,75,30.53Z"/><path d="M85.8,41.48c-2.25,0-3.09-1.14-3.09-3.26V33.77c0-2.1.85-3.24,3.13-3.24s3,1,3,2.79v3H84.18V38c0,1.58.49,2.06,1.59,2.06s1.63-.32,1.63-1.43V37.44h1.47v1.41C88.87,40.58,88,41.48,85.8,41.48ZM84.18,35.1H87.4V33.6c0-1.26-.49-1.62-1.59-1.62s-1.63.48-1.63,2.07Z"/><path d="M93.43,30.53c1.49,0,2.3.79,2.3,2.56V41.4H94.26V33.32c0-.89-.32-1.41-1.28-1.41s-1.59.18-1.59,1.06V41.4H89.92V30.6h1.47v2A1.83,1.83,0,0,1,93.43,30.53Z"/><path d="M99.18,31.77V41.4H97.71V31.77h-1.2V30.6h1.2V29.18h1.47V30.6h1.68v1.17Z"/><path d="M108.13,30.53c1.85,0,2.63,1.12,2.63,3.21v3.93c0,2.08-.78,3.21-2.63,3.21a1.83,1.83,0,0,1-2.07-2.07v3.34h-1.47V30.6h1.47v2A1.84,1.84,0,0,1,108.13,30.53ZM109.29,34c0-1.63-.53-2.11-1.64-2.11-.82,0-1.59.18-1.59,1.06v5.46c0,.9.77,1.07,1.59,1.07,1.14,0,1.64-.47,1.64-2.1Z"/><path d="M113.94,41.48c-1.43,0-2.21-.71-2.21-2.3V37.4c0-2.54,2.66-2.21,4.34-2.69V33.38c0-1.17-.42-1.4-1.41-1.4s-1.28.27-1.28,1v1h-1.47V32.78c0-1.52.87-2.27,2.75-2.27,2,0,2.88.71,2.88,2.63V41.4h-1.47v-2A1.87,1.87,0,0,1,113.94,41.48ZM116.07,39V35.88c-1.91.33-2.87.39-2.87,1.34V39c0,.72.29,1.13,1.1,1.13S116.07,39.92,116.07,39Z"/><path d="M122,30.53a1.31,1.31,0,0,1,.37,0v1.68c-.81-.2-2.35-.26-2.35.73V41.4h-1.47V30.6h1.47v2C120.06,31.4,120.58,30.53,122,30.53Z"/><path d="M126,31.77V41.4h-1.47V31.77h-1.2V30.6h1.2V29.18H126V30.6h1.68v1.17Z"/><path d="M128.68,29.19h1.47v1.1h-1.47Zm0,1.41h1.47V41.4h-1.47Z"/><path d="M134.29,41.48c-2.25,0-3.09-1.14-3.09-3.26V33.77c0-2.1.86-3.24,3.14-3.24s3,1,3,2.79v3h-4.7V38c0,1.58.5,2.06,1.59,2.06s1.64-.32,1.64-1.43V37.44h1.47v1.41C137.37,40.58,136.47,41.48,134.29,41.48Zm-1.62-6.38h3.23V33.6c0-1.26-.5-1.62-1.59-1.62s-1.64.48-1.64,2.07Z"/><path d="M138.42,29.18h1.47V41.4h-1.47Z"/><path d="M163,32.73c0-2.26,1-3.61,3.63-3.61s3.58,1.14,3.61,3.24v1.81h-1.47V32.51c0-1.34-.7-1.92-2.17-1.92s-2.13.55-2.13,2.4v4.6c0,1.76.64,2.42,2.13,2.42s2.16-.51,2.17-2V36.14h1.47v2c0,2.37-1,3.32-3.61,3.32S163,40.55,163,37.8Z"/><path d="M174.4,41.48c-2.25,0-3.09-1.14-3.09-3.26V33.77c0-2.1.84-3.24,3.09-3.24s3.08,1.14,3.08,3.24v4.45C177.48,40.34,176.58,41.48,174.4,41.48Zm0-9.48c-1.09,0-1.59.48-1.59,2V38c0,1.58.5,2.06,1.59,2.06S176,39.54,176,38v-3.9C176,32.46,175.5,32,174.37,32Z"/><path d="M182,30.53c1.48,0,2.29.79,2.29,2.56V41.4h-1.47V33.32c0-.89-.31-1.41-1.27-1.41S180,32.09,180,33V41.4h-1.47V30.6H180v2A1.82,1.82,0,0,1,182,30.53Z"/><path d="M187.8,32.06V41.4h-1.47V32.06h-1.22V30.87h1.22v-.18a1.34,1.34,0,0,1,1.48-1.51h1.79v1.15h-1.53c-.18,0-.27.12-.27.32v.22h1.75v1.19Zm2-2.87h1.47v1.1h-1.47Zm0,1.41h1.47V41.4h-1.47Z"/><path d="M195.87,30.53c1.48,0,2.29.79,2.29,2.56V41.4h-1.47V33.32c0-.89-.31-1.41-1.27-1.41s-1.59.18-1.59,1.06V41.4h-1.47V30.6h1.47v2A1.82,1.82,0,0,1,195.87,30.53Z"/><path d="M202.3,41.48c-2.25,0-3.09-1.14-3.09-3.26V33.77c0-2.1.86-3.24,3.14-3.24s3,1,3,2.79v3h-4.7V38c0,1.58.5,2.06,1.59,2.06s1.64-.32,1.64-1.43V37.44h1.47v1.41C205.38,40.58,204.48,41.48,202.3,41.48Zm-1.62-6.38h3.23V33.6c0-1.26-.5-1.62-1.59-1.62s-1.64.48-1.64,2.07Z"/><path d="M209.94,30.53a2,2,0,0,1,2.26,1.93,1.84,1.84,0,0,1,2.07-1.93c1.49,0,2.3.79,2.3,2.55V41.4H215.1V33.3c0-.87-.32-1.39-1.28-1.39s-1.59.18-1.59,1.32V41.4h-1.47V33.3c0-.87-.3-1.39-1.27-1.39-.81,0-1.59.18-1.59,1.06V41.4h-1.47V30.6h1.47v2A1.82,1.82,0,0,1,209.94,30.53Z"/><path d="M220.71,41.48c-2.25,0-3.09-1.14-3.09-3.26V33.77c0-2.1.85-3.24,3.13-3.24s3,1,3,2.79v3h-4.69V38c0,1.58.49,2.06,1.59,2.06s1.63-.32,1.63-1.43V37.44h1.47v1.41C223.78,40.58,222.88,41.48,220.71,41.48Zm-1.62-6.38h3.22V33.6c0-1.26-.49-1.62-1.59-1.62s-1.63.48-1.63,2.07Z"/><path d="M228.34,30.53c1.49,0,2.3.79,2.3,2.56V41.4h-1.47V33.32c0-.89-.32-1.41-1.28-1.41s-1.59.18-1.59,1.06V41.4h-1.47V30.6h1.47v2A1.83,1.83,0,0,1,228.34,30.53Z"/><path d="M234.09,31.77V41.4h-1.47V31.77h-1.2V30.6h1.2V29.18h1.47V30.6h1.68v1.17Z"/><path d="M242.1,31.77V41.4h-1.47V31.77h-1.2V30.6h1.2V29.18h1.47V30.6h1.68v1.17Z"/><path d="M247.35,41.48c-2.25,0-3.09-1.14-3.09-3.26V33.77c0-2.1.84-3.24,3.09-3.24s3.07,1.14,3.07,3.24v4.45C250.42,40.34,249.52,41.48,247.35,41.48Zm0-9.48c-1.1,0-1.59.48-1.59,2V38c0,1.58.49,2.06,1.59,2.06S249,39.54,249,38v-3.9C249,32.46,248.44,32,247.32,32Z"/><path d="M253.57,31.77V41.4H252.1V31.77h-1.2V30.6h1.2V29.18h1.47V30.6h1.68v1.17Z"/><path d="M258.13,41.48c-1.42,0-2.2-.71-2.2-2.3V37.4c0-2.54,2.65-2.21,4.33-2.69V33.38c0-1.17-.42-1.4-1.41-1.4s-1.27.27-1.27,1v1h-1.47V32.78c0-1.52.87-2.27,2.74-2.27,2,0,2.88.71,2.88,2.63V41.4h-1.47v-2A1.87,1.87,0,0,1,258.13,41.48ZM260.26,39V35.88c-1.9.33-2.86.39-2.86,1.34V39c0,.72.28,1.13,1.09,1.13S260.26,39.92,260.26,39Z"/><path d="M262.78,29.18h1.47V41.4h-1.47Z"/><path d="M287.38,29.18h3.09c2.55,0,3.61,1.21,3.61,3.46v5.28c0,2.25-1.06,3.48-3.61,3.48h-3.09Zm1.47,1.45v9.3h1.59c1.5,0,2.17-.54,2.17-2.37V33c0-1.85-.67-2.39-2.17-2.39Z"/><path d="M298.22,41.48c-2.25,0-3.09-1.14-3.09-3.26V33.77c0-2.1.86-3.24,3.14-3.24s3,1,3,2.79v3h-4.7V38c0,1.58.5,2.06,1.59,2.06s1.64-.32,1.64-1.43V37.44h1.47v1.41C301.3,40.58,300.4,41.48,298.22,41.48ZM296.6,35.1h3.23V33.6c0-1.26-.5-1.62-1.59-1.62s-1.64.48-1.64,2.07Zm.86-4.84.33-.93h1.92l-1.1.93Z"/><path d="M308.51,36.81v1.86c0,1.85-.9,2.81-3.07,2.81s-3.09-1.14-3.09-3.26V33.77c0-2.1.84-3.24,3.09-3.24s3.07,1,3.07,2.79v1.83H307V33.6c0-1.24-.51-1.6-1.63-1.6s-1.59.48-1.59,2V38c0,1.58.49,2.06,1.59,2.06S307,39.65,307,38.4V36.81Z"/><path d="M312.65,41.48c-2.25,0-3.09-1.14-3.09-3.26V33.77c0-2.1.84-3.24,3.09-3.24s3.08,1.14,3.08,3.24v4.45C315.73,40.34,314.83,41.48,312.65,41.48Zm0-9.48c-1.09,0-1.59.48-1.59,2V38c0,1.58.5,2.06,1.59,2.06s1.64-.47,1.64-2.06v-3.9C314.26,32.46,313.75,32,312.62,32Z"/><path d="M320.29,30.53c1.48,0,2.29.79,2.29,2.56V41.4h-1.47V33.32c0-.89-.31-1.41-1.27-1.41s-1.59.18-1.59,1.06V41.4h-1.47V30.6h1.47v2A1.82,1.82,0,0,1,320.29,30.53Z"/><path d="M326.05,32.06V41.4h-1.47V32.06h-1.22V30.87h1.22v-.18a1.34,1.34,0,0,1,1.48-1.51h1.79v1.15h-1.53c-.18,0-.27.12-.27.32v.22h1.75v1.19Zm2-2.87h1.47v1.1h-1.47Zm0,1.41h1.47V41.4h-1.47Z"/><path d="M334.12,30.53c1.48,0,2.29.79,2.29,2.56V41.4h-1.47V33.32c0-.89-.31-1.41-1.27-1.41s-1.59.18-1.59,1.06V41.4h-1.47V30.6h1.47v2A1.82,1.82,0,0,1,334.12,30.53Z"/><path d="M340.55,41.48c-2.25,0-3.09-1.14-3.09-3.26V33.77c0-2.1.86-3.24,3.14-3.24s3,1,3,2.79v3h-4.7V38c0,1.58.5,2.06,1.59,2.06s1.64-.32,1.64-1.43V37.44h1.47v1.41C343.63,40.58,342.73,41.48,340.55,41.48Zm-1.62-6.38h3.23V33.6c0-1.26-.5-1.62-1.59-1.62s-1.64.48-1.64,2.07Z"/><path d="M348.19,30.53a2,2,0,0,1,2.26,1.93,1.84,1.84,0,0,1,2.07-1.93c1.49,0,2.3.79,2.3,2.55V41.4h-1.47V33.3c0-.87-.32-1.39-1.28-1.39s-1.59.18-1.59,1.32V41.4H349V33.3c0-.87-.3-1.39-1.27-1.39-.81,0-1.59.18-1.59,1.06V41.4h-1.47V30.6h1.47v2A1.82,1.82,0,0,1,348.19,30.53Z"/><path d="M359,41.48c-2.25,0-3.09-1.14-3.09-3.26V33.77c0-2.1.85-3.24,3.13-3.24s3,1,3,2.79v3h-4.69V38c0,1.58.49,2.06,1.59,2.06s1.63-.32,1.63-1.43V37.44H362v1.41C362,40.58,361.13,41.48,359,41.48Zm-1.62-6.38h3.22V33.6c0-1.26-.49-1.62-1.59-1.62s-1.63.48-1.63,2.07Z"/><path d="M366.59,30.53c1.49,0,2.3.79,2.3,2.56V41.4h-1.47V33.32c0-.89-.32-1.41-1.28-1.41s-1.59.18-1.59,1.06V41.4h-1.47V30.6h1.47v2A1.83,1.83,0,0,1,366.59,30.53Z"/><path d="M372.34,31.77V41.4h-1.47V31.77h-1.2V30.6h1.2V29.18h1.47V30.6H374v1.17Z"/><path d="M381.29,30.53c1.85,0,2.63,1.12,2.63,3.21v3.93c0,2.08-.78,3.21-2.63,3.21a1.83,1.83,0,0,1-2.07-2.07v3.34h-1.47V30.6h1.47v2A1.84,1.84,0,0,1,381.29,30.53ZM382.45,34c0-1.63-.53-2.11-1.64-2.11-.82,0-1.59.18-1.59,1.06v5.46c0,.9.77,1.07,1.59,1.07,1.14,0,1.64-.47,1.64-2.1Z"/><path d="M388.42,30.53a1.31,1.31,0,0,1,.37,0v1.68c-.81-.2-2.35-.26-2.35.73V41.4H385V30.6h1.47v2C386.44,31.4,387,30.53,388.42,30.53Z"/><path d="M392.53,41.48c-2.25,0-3.09-1.14-3.09-3.26V33.77c0-2.1.84-3.24,3.09-3.24s3.07,1.14,3.07,3.24v4.45C395.6,40.34,394.7,41.48,392.53,41.48Zm0-9.48c-1.1,0-1.59.48-1.59,2V38c0,1.58.49,2.06,1.59,2.06s1.63-.47,1.63-2.06v-3.9C394.13,32.46,393.62,32,392.5,32Z"/><path d="M401.35,30.6h1.47v9.75c0,1.14-.68,1.88-3,1.88s-3-.71-3-1.79v-.51h1.47v.32c0,.72.47.85,1.55.85s1.53-.16,1.53-.94V37.73a1.83,1.83,0,0,1-2.07,2.07c-1.85,0-2.63-1-2.63-2.84v-3.6c0-1.86.78-2.85,2.63-2.85a1.85,1.85,0,0,1,2.07,2.09Zm0,6.75V33c0-.89-.77-1.07-1.59-1.07-1.1,0-1.64.38-1.64,1.74v3c0,1.36.51,1.75,1.64,1.75C400.58,38.43,401.35,38.25,401.35,37.35Z"/><path d="M407.32,30.53a1.31,1.31,0,0,1,.37,0v1.68c-.81-.2-2.35-.26-2.35.73V41.4h-1.47V30.6h1.47v2C405.34,31.4,405.86,30.53,407.32,30.53Z"/><path d="M411.43,41.48c-2.25,0-3.09-1.14-3.09-3.26V33.77c0-2.1.85-3.24,3.13-3.24s3,1,3,2.79v3h-4.69V38c0,1.58.49,2.06,1.59,2.06s1.63-.32,1.63-1.43V37.44h1.47v1.41C414.5,40.58,413.6,41.48,411.43,41.48Zm-1.62-6.38H413V33.6c0-1.26-.49-1.62-1.59-1.62s-1.63.48-1.63,2.07Z"/><path d="M417,37.31v1.23c0,1.18.52,1.57,1.54,1.57s1.53-.27,1.53-1.06V37.89c0-.79-.21-1-1.75-1.3-2.19-.36-2.79-.78-2.79-2.28V33c0-1.72.88-2.44,3-2.44s3,.85,3,2.64v1.45h-1.47v-1.3c0-1-.49-1.43-1.54-1.43s-1.56.32-1.56,1.16v1.17c0,.61.18.84,1.74,1.11,2.31.45,2.83.87,2.83,2.5v1.34c0,1.69-.93,2.31-3,2.31s-3-.78-3-2.79V37.31Z"/><path d="M424,37.31v1.23c0,1.18.53,1.57,1.55,1.57s1.53-.27,1.53-1.06V37.89c0-.79-.21-1-1.76-1.3-2.19-.36-2.79-.78-2.79-2.28V33c0-1.72.89-2.44,3-2.44s3,.85,3,2.64v1.45H427v-1.3c0-1-.5-1.43-1.55-1.43s-1.56.32-1.56,1.16v1.17c0,.61.18.84,1.74,1.11,2.31.45,2.84.87,2.84,2.5v1.34c0,1.69-.93,2.31-3,2.31s-3-.78-3-2.79V37.31Z"/><path d="M429.5,29.19H431v1.1H429.5Zm0,1.41H431V41.4H429.5Z"/><path d="M434.63,32.06V41.4h-1.47V32.06H432V30.87h1.21v-.18a1.35,1.35,0,0,1,1.49-1.51h1.78v1.15H434.9c-.18,0-.27.12-.27.32v.22h1.76v1.19Z"/><path d="M443.26,41.48c-2.25,0-3.09-1.14-3.09-3.26V33.77c0-2.1.84-3.24,3.09-3.24s3.07,1.14,3.07,3.24v4.45C446.33,40.34,445.43,41.48,443.26,41.48Zm0-9.48c-1.1,0-1.59.48-1.59,2V38c0,1.58.49,2.06,1.59,2.06s1.63-.47,1.63-2.06v-3.9C444.86,32.46,444.35,32,443.23,32Z"/><path d="M449.68,41.48c-1.49,0-2.3-.81-2.3-2.57V30.6h1.47v8.1c0,.87.32,1.4,1.28,1.4s1.59-.18,1.59-1.07V30.6h1.47V41.4h-1.47v-2A1.83,1.83,0,0,1,449.68,41.48Z"/><path d="M459.59,31.77V41.4h-1.47V31.77h-1.2V30.6h1.2V29.18h1.47V30.6h1.68v1.17Z"/><path d="M464.84,41.48c-2.25,0-3.09-1.14-3.09-3.26V33.77c0-2.1.84-3.24,3.09-3.24s3.08,1.14,3.08,3.24v4.45C467.92,40.34,467,41.48,464.84,41.48Zm0-9.48c-1.09,0-1.59.48-1.59,2V38c0,1.58.5,2.06,1.59,2.06s1.64-.47,1.64-2.06v-3.9C466.45,32.46,465.94,32,464.81,32Z"/><path d="M471.07,31.77V41.4H469.6V31.77h-1.2V30.6h1.2V29.18h1.47V30.6h1.68v1.17Z"/><path d="M475.63,41.48c-1.43,0-2.21-.71-2.21-2.3V37.4c0-2.54,2.66-2.21,4.34-2.69V33.38c0-1.17-.42-1.4-1.41-1.4s-1.28.27-1.28,1v1H473.6V32.78c0-1.52.87-2.27,2.75-2.27,2,0,2.88.71,2.88,2.63V41.4h-1.47v-2A1.87,1.87,0,0,1,475.63,41.48ZM477.76,39V35.88c-1.91.33-2.87.39-2.87,1.34V39c0,.72.29,1.13,1.1,1.13S477.76,39.92,477.76,39Z"/><path d="M480.28,29.18h1.47V41.4h-1.47Z"/><rect class="cls-3" x="11.8" y="7.72" width="11.34" height="11.34"/><rect class="cls-4" x="141.97" y="7.72" width="11.34" height="11.34"/><rect class="cls-5" x="239.42" y="7.72" width="11.34" height="11.34"/><rect class="cls-6" x="370.79" y="7.72" width="11.34" height="11.34"/><rect class="cls-7" x="11.8" y="30.5" width="11.34" height="11.34"/><rect class="cls-8" x="148.11" y="30.5" width="11.34" height="11.34"/><rect class="cls-9" x="272.82" y="30.5" width="11.34" height="11.34"/></g></svg>