<svg id="legend" viewBox="-10 0 500 55" preserveAspectRatio="xMinYMin meet"><g transform="translate(45,15)"><text style="fill: black;">Variation du taux d'incidence sur une semaine</text></g><g class="mapLegend" transform="translate(10,22)"><g class="legendCells">
        <g class="cell" transform="translate(0,0)"><rect class="swatch" height="15" width="44" style="fill: rgb(0, 71, 122);"></rect><text class="label" height="15" width="44" transform="translate(22,30)" style="text-anchor: middle;">-30</text></g><g class="cell" transform="translate(42,0)"><rect class="swatch" height="15" width="44" style="fill: rgb(51, 133, 166);"></rect><text class="label" height="15" width="44" transform="translate(22,30)" style="text-anchor: middle;">-20</text></g><g class="cell" transform="translate(84,0)"><rect class="swatch" height="15" width="44" style="fill: rgb(153, 194, 211);"></rect><text class="label" height="15" width="44" transform="translate(22,30)" style="text-anchor: middle;">-10</text></g><g class="cell" transform="translate(126,0)"><rect class="swatch" height="15" width="44" style="fill: rgb(255, 255, 255);"></rect><text class="label" height="15" width="44" transform="translate(22,30)" style="text-anchor: middle;">0</text></g><g class="cell" transform="translate(168,0)"><rect class="swatch" height="15" width="44" style="fill: rgb(255, 219, 219);"></rect><text class="label" height="15" width="44" transform="translate(22,30)" style="text-anchor: middle;">10</text></g><g class="cell" transform="translate(210,0)"><rect class="swatch" height="15" width="44" style="fill: rgb(255, 182, 182);"></rect><text class="label" height="15" width="44" transform="translate(22,30)" style="text-anchor: middle;">20</text></g><g class="cell" transform="translate(252,0)"><rect class="swatch" height="15" width="44" style="fill: rgb(255, 146, 146);"></rect><text class="label" height="15" width="44" transform="translate(22,30)" style="text-anchor: middle;">30</text></g><g class="cell" transform="translate(294,0)"><rect class="swatch" height="15" width="44" style="fill: rgb(255, 109, 109);"></rect><text class="label" height="15" width="44" transform="translate(22,30)" style="text-anchor: middle;">40</text></g><g class="cell" transform="translate(336,0)"><rect class="swatch" height="15" width="44" style="fill: rgb(255, 73, 73);"></rect><text class="label" height="15" width="44" transform="translate(22,30)" style="text-anchor: middle;">50</text></g><g class="cell" transform="translate(378,0)"><rect class="swatch" height="15" width="44" style="fill: rgb(255, 36, 36);"></rect><text class="label" height="15" width="44" transform="translate(22,30)" style="text-anchor: middle;">60</text></g><g class="cell" transform="translate(420,0)"><rect class="swatch" height="15" width="44" style="fill: rgb(255, 0, 0);"></rect><text class="label" height="15" width="44" transform="translate(22,30)" style="text-anchor: middle;">70</text></g></g></g></svg>