<svg xmlns="http://www.w3.org/2000/svg" viewBox="0 0 59.24 83"><defs><style>.cls-1{fill:#f66;}.cls-2{fill:#ef4848;}.cls-3{fill:#fff;}</style></defs><g id="Calque_2" data-name="Calque 2"><g id="Calque_1-2" data-name="Calque 1"><path class="cls-1" d="M29.62,82.19C26.13,77.75.5,44.61.5,29.62a29.12,29.12,0,0,1,58.24,0C58.74,44.61,33.12,77.75,29.62,82.19Z"/><path class="cls-2" d="M29.62,1A28.65,28.65,0,0,1,58.24,29.62c0,14.36-24,45.78-28.62,51.76C25,75.4,1,44,1,29.62A28.65,28.65,0,0,1,29.62,1m0-1A29.62,29.62,0,0,0,0,29.62C0,46,29.62,83,29.62,83S59.24,46,59.24,29.62A29.62,29.62,0,0,0,29.62,0Z"/><path class="cls-3" d="M29.62,43a14.2,14.2,0,1,1,14.2-14.2A14.21,14.21,0,0,1,29.62,43Z"/><path class="cls-2" d="M29.62,15.14A13.7,13.7,0,1,1,15.93,28.83,13.71,13.71,0,0,1,29.62,15.14m0-1a14.7,14.7,0,1,0,14.7,14.69,14.69,14.69,0,0,0-14.7-14.69Z"/></g></g></svg>