<svg viewBox="0 0 600 400" preserveAspectRatio="xMinYMid" width="1000" height="667" class="sightline-svg"><g class="graphContainer" transform="translate(50,20)" style="nullanimation-fill-mode:none;display:inline;fill:rgb(0, 0, 0);fill-opacity:1;fill-rule:nonzero;stroke:none;stroke-dasharray:none;stroke-dashoffset:0px;stroke-linecap:butt;stroke-linejoin:miter;stroke-miterlimit:4;stroke-opacity:1;stroke-width:1px;-webkit-text-fill-color:rgb(34, 34, 34);-webkit-text-stroke-color:rgb(34, 34, 34);-webkit-text-stroke-width:0px;"><g class="axis axis--x" transform="translate(0,310)" fill="none" font-size="10" font-family="sans-serif" text-anchor="middle" style="nullanimation-fill-mode:none;display:inline;fill:none;fill-opacity:1;fill-rule:nonzero;stroke:none;stroke-dasharray:none;stroke-dashoffset:0px;stroke-linecap:butt;stroke-linejoin:miter;stroke-miterlimit:4;stroke-opacity:1;stroke-width:1px;-webkit-text-fill-color:rgb(34, 34, 34);-webkit-text-stroke-color:rgb(34, 34, 34);-webkit-text-stroke-width:0px;"><path class="domain" stroke="#fff" d="M0.5,6V0.5H470.5V6" style="nullanimation-fill-mode:none;display:none;fill:none;fill-opacity:0.8;fill-rule:nonzero;stroke:rgb(255, 255, 255);stroke-dasharray:none;stroke-dashoffset:0px;stroke-linecap:butt;stroke-linejoin:miter;stroke-miterlimit:4;stroke-opacity:1;stroke-width:0.5px;-webkit-text-fill-color:rgb(34, 34, 34);-webkit-text-stroke-color:rgb(34, 34, 34);-webkit-text-stroke-width:0px;"></path><g class="tick" opacity="1" transform="translate(19.285501770525315,0)" style="nullanimation-fill-mode:none;display:inline;fill:none;fill-opacity:1;fill-rule:nonzero;stroke:none;stroke-dasharray:none;stroke-dashoffset:0px;stroke-linecap:butt;stroke-linejoin:miter;stroke-miterlimit:4;stroke-opacity:1;stroke-width:1px;-webkit-text-fill-color:rgb(34, 34, 34);-webkit-text-stroke-color:rgb(34, 34, 34);-webkit-text-stroke-width:0px;"><line stroke="#e4e4e4" y2="6" y1="-320" style="nullanimation-fill-mode:none;display:inline;fill:none;fill-opacity:1;fill-rule:nonzero;stroke:rgb(228, 228, 228);stroke-dasharray:none;stroke-dashoffset:0px;stroke-linecap:butt;stroke-linejoin:miter;stroke-miterlimit:4;stroke-opacity:1;stroke-width:1px;-webkit-text-fill-color:rgb(34, 34, 34);-webkit-text-stroke-color:rgb(34, 34, 34);-webkit-text-stroke-width:0px;"></line><text fill="#000" y="9" dy="0.71em" style="nullanimation-fill-mode:none;display:block;fill:rgb(0, 0, 0);fill-opacity:1;fill-rule:nonzero;stroke:none;stroke-dasharray:none;stroke-dashoffset:0px;stroke-linecap:butt;stroke-linejoin:miter;stroke-miterlimit:4;stroke-opacity:1;stroke-width:1px;-webkit-text-fill-color:rgb(34, 34, 34);-webkit-text-stroke-color:rgb(34, 34, 34);-webkit-text-stroke-width:0px;">1996</text></g><g class="tick" opacity="1" transform="translate(56.91226773263243,0)" style="nullanimation-fill-mode:none;display:inline;fill:none;fill-opacity:1;fill-rule:nonzero;stroke:none;stroke-dasharray:none;stroke-dashoffset:0px;stroke-linecap:butt;stroke-linejoin:miter;stroke-miterlimit:4;stroke-opacity:1;stroke-width:1px;-webkit-text-fill-color:rgb(34, 34, 34);-webkit-text-stroke-color:rgb(34, 34, 34);-webkit-text-stroke-width:0px;"><line stroke="#e4e4e4" y2="6" y1="-320" style="nullanimation-fill-mode:none;display:inline;fill:none;fill-opacity:1;fill-rule:nonzero;stroke:rgb(228, 228, 228);stroke-dasharray:none;stroke-dashoffset:0px;stroke-linecap:butt;stroke-linejoin:miter;stroke-miterlimit:4;stroke-opacity:1;stroke-width:1px;-webkit-text-fill-color:rgb(34, 34, 34);-webkit-text-stroke-color:rgb(34, 34, 34);-webkit-text-stroke-width:0px;"></line><text fill="#000" y="9" dy="0.71em" style="nullanimation-fill-mode:none;display:block;fill:rgb(0, 0, 0);fill-opacity:1;fill-rule:nonzero;stroke:none;stroke-dasharray:none;stroke-dashoffset:0px;stroke-linecap:butt;stroke-linejoin:miter;stroke-miterlimit:4;stroke-opacity:1;stroke-width:1px;-webkit-text-fill-color:rgb(34, 34, 34);-webkit-text-stroke-color:rgb(34, 34, 34);-webkit-text-stroke-width:0px;">1998</text></g><g class="tick" opacity="1" transform="translate(94.4875606906874,0)" style="nullanimation-fill-mode:none;display:inline;fill:none;fill-opacity:1;fill-rule:nonzero;stroke:none;stroke-dasharray:none;stroke-dashoffset:0px;stroke-linecap:butt;stroke-linejoin:miter;stroke-miterlimit:4;stroke-opacity:1;stroke-width:1px;-webkit-text-fill-color:rgb(34, 34, 34);-webkit-text-stroke-color:rgb(34, 34, 34);-webkit-text-stroke-width:0px;"><line stroke="#e4e4e4" y2="6" y1="-320" style="nullanimation-fill-mode:none;display:inline;fill:none;fill-opacity:1;fill-rule:nonzero;stroke:rgb(228, 228, 228);stroke-dasharray:none;stroke-dashoffset:0px;stroke-linecap:butt;stroke-linejoin:miter;stroke-miterlimit:4;stroke-opacity:1;stroke-width:1px;-webkit-text-fill-color:rgb(34, 34, 34);-webkit-text-stroke-color:rgb(34, 34, 34);-webkit-text-stroke-width:0px;"></line><text fill="#000" y="9" dy="0.71em" style="nullanimation-fill-mode:none;display:block;fill:rgb(0, 0, 0);fill-opacity:1;fill-rule:nonzero;stroke:none;stroke-dasharray:none;stroke-dashoffset:0px;stroke-linecap:butt;stroke-linejoin:miter;stroke-miterlimit:4;stroke-opacity:1;stroke-width:1px;-webkit-text-fill-color:rgb(34, 34, 34);-webkit-text-stroke-color:rgb(34, 34, 34);-webkit-text-stroke-width:0px;">2000</text></g><g class="tick" opacity="1" transform="translate(132.11432665279452,0)" style="nullanimation-fill-mode:none;display:inline;fill:none;fill-opacity:1;fill-rule:nonzero;stroke:none;stroke-dasharray:none;stroke-dashoffset:0px;stroke-linecap:butt;stroke-linejoin:miter;stroke-miterlimit:4;stroke-opacity:1;stroke-width:1px;-webkit-text-fill-color:rgb(34, 34, 34);-webkit-text-stroke-color:rgb(34, 34, 34);-webkit-text-stroke-width:0px;"><line stroke="#e4e4e4" y2="6" y1="-320" style="nullanimation-fill-mode:none;display:inline;fill:none;fill-opacity:1;fill-rule:nonzero;stroke:rgb(228, 228, 228);stroke-dasharray:none;stroke-dashoffset:0px;stroke-linecap:butt;stroke-linejoin:miter;stroke-miterlimit:4;stroke-opacity:1;stroke-width:1px;-webkit-text-fill-color:rgb(34, 34, 34);-webkit-text-stroke-color:rgb(34, 34, 34);-webkit-text-stroke-width:0px;"></line><text fill="#000" y="9" dy="0.71em" style="nullanimation-fill-mode:none;display:block;fill:rgb(0, 0, 0);fill-opacity:1;fill-rule:nonzero;stroke:none;stroke-dasharray:none;stroke-dashoffset:0px;stroke-linecap:butt;stroke-linejoin:miter;stroke-miterlimit:4;stroke-opacity:1;stroke-width:1px;-webkit-text-fill-color:rgb(34, 34, 34);-webkit-text-stroke-color:rgb(34, 34, 34);-webkit-text-stroke-width:0px;">2002</text></g><g class="tick" opacity="1" transform="translate(169.6896196108495,0)" style="nullanimation-fill-mode:none;display:inline;fill:none;fill-opacity:1;fill-rule:nonzero;stroke:none;stroke-dasharray:none;stroke-dashoffset:0px;stroke-linecap:butt;stroke-linejoin:miter;stroke-miterlimit:4;stroke-opacity:1;stroke-width:1px;-webkit-text-fill-color:rgb(34, 34, 34);-webkit-text-stroke-color:rgb(34, 34, 34);-webkit-text-stroke-width:0px;"><line stroke="#e4e4e4" y2="6" y1="-320" style="nullanimation-fill-mode:none;display:inline;fill:none;fill-opacity:1;fill-rule:nonzero;stroke:rgb(228, 228, 228);stroke-dasharray:none;stroke-dashoffset:0px;stroke-linecap:butt;stroke-linejoin:miter;stroke-miterlimit:4;stroke-opacity:1;stroke-width:1px;-webkit-text-fill-color:rgb(34, 34, 34);-webkit-text-stroke-color:rgb(34, 34, 34);-webkit-text-stroke-width:0px;"></line><text fill="#000" y="9" dy="0.71em" style="nullanimation-fill-mode:none;display:block;fill:rgb(0, 0, 0);fill-opacity:1;fill-rule:nonzero;stroke:none;stroke-dasharray:none;stroke-dashoffset:0px;stroke-linecap:butt;stroke-linejoin:miter;stroke-miterlimit:4;stroke-opacity:1;stroke-width:1px;-webkit-text-fill-color:rgb(34, 34, 34);-webkit-text-stroke-color:rgb(34, 34, 34);-webkit-text-stroke-width:0px;">2004</text></g><g class="tick" opacity="1" transform="translate(207.31638557295662,0)" style="nullanimation-fill-mode:none;display:inline;fill:none;fill-opacity:1;fill-rule:nonzero;stroke:none;stroke-dasharray:none;stroke-dashoffset:0px;stroke-linecap:butt;stroke-linejoin:miter;stroke-miterlimit:4;stroke-opacity:1;stroke-width:1px;-webkit-text-fill-color:rgb(34, 34, 34);-webkit-text-stroke-color:rgb(34, 34, 34);-webkit-text-stroke-width:0px;"><line stroke="#e4e4e4" y2="6" y1="-320" style="nullanimation-fill-mode:none;display:inline;fill:none;fill-opacity:1;fill-rule:nonzero;stroke:rgb(228, 228, 228);stroke-dasharray:none;stroke-dashoffset:0px;stroke-linecap:butt;stroke-linejoin:miter;stroke-miterlimit:4;stroke-opacity:1;stroke-width:1px;-webkit-text-fill-color:rgb(34, 34, 34);-webkit-text-stroke-color:rgb(34, 34, 34);-webkit-text-stroke-width:0px;"></line><text fill="#000" y="9" dy="0.71em" style="nullanimation-fill-mode:none;display:block;fill:rgb(0, 0, 0);fill-opacity:1;fill-rule:nonzero;stroke:none;stroke-dasharray:none;stroke-dashoffset:0px;stroke-linecap:butt;stroke-linejoin:miter;stroke-miterlimit:4;stroke-opacity:1;stroke-width:1px;-webkit-text-fill-color:rgb(34, 34, 34);-webkit-text-stroke-color:rgb(34, 34, 34);-webkit-text-stroke-width:0px;">2006</text></g><g class="tick" opacity="1" transform="translate(244.89167853101156,0)" style="nullanimation-fill-mode:none;display:inline;fill:none;fill-opacity:1;fill-rule:nonzero;stroke:none;stroke-dasharray:none;stroke-dashoffset:0px;stroke-linecap:butt;stroke-linejoin:miter;stroke-miterlimit:4;stroke-opacity:1;stroke-width:1px;-webkit-text-fill-color:rgb(34, 34, 34);-webkit-text-stroke-color:rgb(34, 34, 34);-webkit-text-stroke-width:0px;"><line stroke="#e4e4e4" y2="6" y1="-320" style="nullanimation-fill-mode:none;display:inline;fill:none;fill-opacity:1;fill-rule:nonzero;stroke:rgb(228, 228, 228);stroke-dasharray:none;stroke-dashoffset:0px;stroke-linecap:butt;stroke-linejoin:miter;stroke-miterlimit:4;stroke-opacity:1;stroke-width:1px;-webkit-text-fill-color:rgb(34, 34, 34);-webkit-text-stroke-color:rgb(34, 34, 34);-webkit-text-stroke-width:0px;"></line><text fill="#000" y="9" dy="0.71em" style="nullanimation-fill-mode:none;display:block;fill:rgb(0, 0, 0);fill-opacity:1;fill-rule:nonzero;stroke:none;stroke-dasharray:none;stroke-dashoffset:0px;stroke-linecap:butt;stroke-linejoin:miter;stroke-miterlimit:4;stroke-opacity:1;stroke-width:1px;-webkit-text-fill-color:rgb(34, 34, 34);-webkit-text-stroke-color:rgb(34, 34, 34);-webkit-text-stroke-width:0px;">2008</text></g><g class="tick" opacity="1" transform="translate(282.5184444931187,0)" style="nullanimation-fill-mode:none;display:inline;fill:none;fill-opacity:1;fill-rule:nonzero;stroke:none;stroke-dasharray:none;stroke-dashoffset:0px;stroke-linecap:butt;stroke-linejoin:miter;stroke-miterlimit:4;stroke-opacity:1;stroke-width:1px;-webkit-text-fill-color:rgb(34, 34, 34);-webkit-text-stroke-color:rgb(34, 34, 34);-webkit-text-stroke-width:0px;"><line stroke="#e4e4e4" y2="6" y1="-320" style="nullanimation-fill-mode:none;display:inline;fill:none;fill-opacity:1;fill-rule:nonzero;stroke:rgb(228, 228, 228);stroke-dasharray:none;stroke-dashoffset:0px;stroke-linecap:butt;stroke-linejoin:miter;stroke-miterlimit:4;stroke-opacity:1;stroke-width:1px;-webkit-text-fill-color:rgb(34, 34, 34);-webkit-text-stroke-color:rgb(34, 34, 34);-webkit-text-stroke-width:0px;"></line><text fill="#000" y="9" dy="0.71em" style="nullanimation-fill-mode:none;display:block;fill:rgb(0, 0, 0);fill-opacity:1;fill-rule:nonzero;stroke:none;stroke-dasharray:none;stroke-dashoffset:0px;stroke-linecap:butt;stroke-linejoin:miter;stroke-miterlimit:4;stroke-opacity:1;stroke-width:1px;-webkit-text-fill-color:rgb(34, 34, 34);-webkit-text-stroke-color:rgb(34, 34, 34);-webkit-text-stroke-width:0px;">2010</text></g><g class="tick" opacity="1" transform="translate(320.09373745117364,0)" style="nullanimation-fill-mode:none;display:inline;fill:none;fill-opacity:1;fill-rule:nonzero;stroke:none;stroke-dasharray:none;stroke-dashoffset:0px;stroke-linecap:butt;stroke-linejoin:miter;stroke-miterlimit:4;stroke-opacity:1;stroke-width:1px;-webkit-text-fill-color:rgb(34, 34, 34);-webkit-text-stroke-color:rgb(34, 34, 34);-webkit-text-stroke-width:0px;"><line stroke="#e4e4e4" y2="6" y1="-320" style="nullanimation-fill-mode:none;display:inline;fill:none;fill-opacity:1;fill-rule:nonzero;stroke:rgb(228, 228, 228);stroke-dasharray:none;stroke-dashoffset:0px;stroke-linecap:butt;stroke-linejoin:miter;stroke-miterlimit:4;stroke-opacity:1;stroke-width:1px;-webkit-text-fill-color:rgb(34, 34, 34);-webkit-text-stroke-color:rgb(34, 34, 34);-webkit-text-stroke-width:0px;"></line><text fill="#000" y="9" dy="0.71em" style="nullanimation-fill-mode:none;display:block;fill:rgb(0, 0, 0);fill-opacity:1;fill-rule:nonzero;stroke:none;stroke-dasharray:none;stroke-dashoffset:0px;stroke-linecap:butt;stroke-linejoin:miter;stroke-miterlimit:4;stroke-opacity:1;stroke-width:1px;-webkit-text-fill-color:rgb(34, 34, 34);-webkit-text-stroke-color:rgb(34, 34, 34);-webkit-text-stroke-width:0px;">2012</text></g><g class="tick" opacity="1" transform="translate(357.72050341328077,0)" style="nullanimation-fill-mode:none;display:inline;fill:none;fill-opacity:1;fill-rule:nonzero;stroke:none;stroke-dasharray:none;stroke-dashoffset:0px;stroke-linecap:butt;stroke-linejoin:miter;stroke-miterlimit:4;stroke-opacity:1;stroke-width:1px;-webkit-text-fill-color:rgb(34, 34, 34);-webkit-text-stroke-color:rgb(34, 34, 34);-webkit-text-stroke-width:0px;"><line stroke="#e4e4e4" y2="6" y1="-320" style="nullanimation-fill-mode:none;display:inline;fill:none;fill-opacity:1;fill-rule:nonzero;stroke:rgb(228, 228, 228);stroke-dasharray:none;stroke-dashoffset:0px;stroke-linecap:butt;stroke-linejoin:miter;stroke-miterlimit:4;stroke-opacity:1;stroke-width:1px;-webkit-text-fill-color:rgb(34, 34, 34);-webkit-text-stroke-color:rgb(34, 34, 34);-webkit-text-stroke-width:0px;"></line><text fill="#000" y="9" dy="0.71em" style="nullanimation-fill-mode:none;display:block;fill:rgb(0, 0, 0);fill-opacity:1;fill-rule:nonzero;stroke:none;stroke-dasharray:none;stroke-dashoffset:0px;stroke-linecap:butt;stroke-linejoin:miter;stroke-miterlimit:4;stroke-opacity:1;stroke-width:1px;-webkit-text-fill-color:rgb(34, 34, 34);-webkit-text-stroke-color:rgb(34, 34, 34);-webkit-text-stroke-width:0px;">2014</text></g><g class="tick" opacity="1" transform="translate(395.2957963713357,0)" style="nullanimation-fill-mode:none;display:inline;fill:none;fill-opacity:1;fill-rule:nonzero;stroke:none;stroke-dasharray:none;stroke-dashoffset:0px;stroke-linecap:butt;stroke-linejoin:miter;stroke-miterlimit:4;stroke-opacity:1;stroke-width:1px;-webkit-text-fill-color:rgb(34, 34, 34);-webkit-text-stroke-color:rgb(34, 34, 34);-webkit-text-stroke-width:0px;"><line stroke="#e4e4e4" y2="6" y1="-320" style="nullanimation-fill-mode:none;display:inline;fill:none;fill-opacity:1;fill-rule:nonzero;stroke:rgb(228, 228, 228);stroke-dasharray:none;stroke-dashoffset:0px;stroke-linecap:butt;stroke-linejoin:miter;stroke-miterlimit:4;stroke-opacity:1;stroke-width:1px;-webkit-text-fill-color:rgb(34, 34, 34);-webkit-text-stroke-color:rgb(34, 34, 34);-webkit-text-stroke-width:0px;"></line><text fill="#000" y="9" dy="0.71em" style="nullanimation-fill-mode:none;display:block;fill:rgb(0, 0, 0);fill-opacity:1;fill-rule:nonzero;stroke:none;stroke-dasharray:none;stroke-dashoffset:0px;stroke-linecap:butt;stroke-linejoin:miter;stroke-miterlimit:4;stroke-opacity:1;stroke-width:1px;-webkit-text-fill-color:rgb(34, 34, 34);-webkit-text-stroke-color:rgb(34, 34, 34);-webkit-text-stroke-width:0px;">2016</text></g><g class="tick" opacity="1" transform="translate(432.92256233344284,0)" style="nullanimation-fill-mode:none;display:inline;fill:none;fill-opacity:1;fill-rule:nonzero;stroke:none;stroke-dasharray:none;stroke-dashoffset:0px;stroke-linecap:butt;stroke-linejoin:miter;stroke-miterlimit:4;stroke-opacity:1;stroke-width:1px;-webkit-text-fill-color:rgb(34, 34, 34);-webkit-text-stroke-color:rgb(34, 34, 34);-webkit-text-stroke-width:0px;"><line stroke="#e4e4e4" y2="6" y1="-320" style="nullanimation-fill-mode:none;display:inline;fill:none;fill-opacity:1;fill-rule:nonzero;stroke:rgb(228, 228, 228);stroke-dasharray:none;stroke-dashoffset:0px;stroke-linecap:butt;stroke-linejoin:miter;stroke-miterlimit:4;stroke-opacity:1;stroke-width:1px;-webkit-text-fill-color:rgb(34, 34, 34);-webkit-text-stroke-color:rgb(34, 34, 34);-webkit-text-stroke-width:0px;"></line><text fill="#000" y="9" dy="0.71em" style="nullanimation-fill-mode:none;display:block;fill:rgb(0, 0, 0);fill-opacity:1;fill-rule:nonzero;stroke:none;stroke-dasharray:none;stroke-dashoffset:0px;stroke-linecap:butt;stroke-linejoin:miter;stroke-miterlimit:4;stroke-opacity:1;stroke-width:1px;-webkit-text-fill-color:rgb(34, 34, 34);-webkit-text-stroke-color:rgb(34, 34, 34);-webkit-text-stroke-width:0px;">2018</text></g><g class="tick" opacity="1" transform="translate(470.49785529149784,0)" style="nullanimation-fill-mode:none;display:inline;fill:none;fill-opacity:1;fill-rule:nonzero;stroke:none;stroke-dasharray:none;stroke-dashoffset:0px;stroke-linecap:butt;stroke-linejoin:miter;stroke-miterlimit:4;stroke-opacity:1;stroke-width:1px;-webkit-text-fill-color:rgb(34, 34, 34);-webkit-text-stroke-color:rgb(34, 34, 34);-webkit-text-stroke-width:0px;"><line stroke="#e4e4e4" y2="6" y1="-320" style="nullanimation-fill-mode:none;display:inline;fill:none;fill-opacity:1;fill-rule:nonzero;stroke:rgb(228, 228, 228);stroke-dasharray:none;stroke-dashoffset:0px;stroke-linecap:butt;stroke-linejoin:miter;stroke-miterlimit:4;stroke-opacity:1;stroke-width:1px;-webkit-text-fill-color:rgb(34, 34, 34);-webkit-text-stroke-color:rgb(34, 34, 34);-webkit-text-stroke-width:0px;"></line><text fill="#000" y="9" dy="0.71em" style="nullanimation-fill-mode:none;display:block;fill:rgb(0, 0, 0);fill-opacity:1;fill-rule:nonzero;stroke:none;stroke-dasharray:none;stroke-dashoffset:0px;stroke-linecap:butt;stroke-linejoin:miter;stroke-miterlimit:4;stroke-opacity:1;stroke-width:1px;-webkit-text-fill-color:rgb(34, 34, 34);-webkit-text-stroke-color:rgb(34, 34, 34);-webkit-text-stroke-width:0px;">2020</text></g></g><g class="axis axis--y" transform="translate(0,0)" style="nullanimation-fill-mode:none;display:inline;fill:rgb(0, 0, 0);fill-opacity:1;fill-rule:nonzero;stroke:none;stroke-dasharray:none;stroke-dashoffset:0px;stroke-linecap:butt;stroke-linejoin:miter;stroke-miterlimit:4;stroke-opacity:1;stroke-width:1px;-webkit-text-fill-color:rgb(34, 34, 34);-webkit-text-stroke-color:rgb(34, 34, 34);-webkit-text-stroke-width:0px;"></g><g class="innerGraph" style="nullanimation-fill-mode:none;display:inline;fill:rgb(0, 0, 0);fill-opacity:1;fill-rule:nonzero;stroke:none;stroke-dasharray:none;stroke-dashoffset:0px;stroke-linecap:butt;stroke-linejoin:miter;stroke-miterlimit:4;stroke-opacity:1;stroke-width:1px;-webkit-text-fill-color:rgb(34, 34, 34);-webkit-text-stroke-color:rgb(34, 34, 34);-webkit-text-stroke-width:0px;"><path fill="red" stroke="#1f77b4" d="M0,221.29644453591172L3.1312744131712478,221.15307408648164C6.2625488263424955,221.00970363705153,12.525097652684991,220.72296273819134,18.796225313036174,220.083681751319C25.067352973387358,219.44440076444675,31.347059467747233,218.45257968956238,37.61818712809842,217.53856407199234C43.88931478844961,216.6245484544223,50.1518636147921,215.78833829416658,56.4144124411346,215.3884202400011C62.67696126747709,214.9885021858357,68.93951009381959,215.02487623776042,75.20205892016209,214.504963952088C81.46460774650458,213.98505166641553,87.72715657284708,212.9088530431458,93.99828423319826,212.1954058405057C100.26941189354945,211.48195863786557,106.54911838790933,211.13126285585508,112.82024604826051,210.56457995884134C119.0913737086117,209.99789706182764,125.35392253495418,209.21522704981066,131.61647136129668,208.21148548328276C137.87902018763918,207.20774391675482,144.14156901398167,205.9829307957159,150.40411784032418,204.7599159269312C156.66666666666666,203.53690105814658,162.9292154930092,202.3156844416162,169.20034315336036,202.26938056397464C175.47147081371153,202.223076686333,181.75117730807142,203.35168554758013,188.02230496842262,204.5954928127948C194.2934326287738,205.83930007800942,200.55598145511627,207.19830574719154,206.81853028145875,207.81482701947286C213.0810791078013,208.43134829175406,219.3436279341438,208.30538516713446,225.60617676048628,208.03885334848175C231.86872558682876,207.77232152982904,238.13127441317124,207.36522101714323,244.40240207352244,207.03846697282663C250.6735297338736,206.71171292850997,256.9532362282335,206.46530535256247,263.22436388858466,205.5841701307817C269.49549154893583,204.70303490900096,275.75804037527837,203.18717204138696,282.02058920162085,202.477457154958C288.28313802796333,201.76774226852908,294.54568685430587,201.86417536328517,300.80823568064835,202.18167021272154C307.07078450699083,202.499165062158,313.3333333333333,203.03772166627473,319.6044609936845,202.77569360804253C325.8755886540357,202.5136655498103,332.1552951483956,201.4510528292291,338.42642280874674,200.8421816989787C344.69755046909796,200.23331056872826,350.96009929544044,200.07818102880864,357.2226481217829,199.94521697998456C363.4851969481254,199.8122529311605,369.7477457744679,199.70145437343197,376.01029460081037,199.38571366845395C382.27284342715296,199.06997296347595,388.53539225349544,198.5492901112484,394.8065199138466,197.82308625032383C401.0776475741978,197.09688238939927,407.3573540685577,196.16515751977764,413.62848172890887,195.65814800080238C419.89960938926,195.15113848182713,426.16215821560246,195.0688443134982,432.42470704194506,194.78374956621633C438.68725586828754,194.49865481893448,444.9498046946301,194.01075949269963,451.21235352097256,193.06982340611523C457.47490234731504,192.12888731953083,463.7374511736575,190.7349104725969,466.86872558682876,190.03792204912995L470,189.34093362566296L470,240L466.86872558682876,239.85267065056135C463.7374511736575,239.70534130112273,457.47490234731504,239.41068260224543,451.21235352097256,238.66298314301858C444.9498046946301,237.91528368379173,438.68725586828754,236.71454346421535,432.42470704194506,235.42113107084762C426.16215821560246,234.12771867747983,419.89960938926,232.74163411032075,413.62848172890887,231.56000808348475C407.3573540685577,230.37838205664877,401.0776475741978,229.40121457013592,394.8065199138466,229.3932290633165C388.53539225349544,229.38524355649702,382.27284342715296,230.346440029371,376.0102946008105,230.18495764531542C369.7477457744679,230.02347526125982,363.4851969481254,228.73931402027472,357.2226481217829,227.84441295425714C350.96009929544044,226.9495118882396,344.69755046909796,226.4438709971896,338.42642280874674,226.4286811648576C332.1552951483956,226.4134913325256,325.8755886540357,226.88875255891162,319.6044609936845,227.33432795907984C313.3333333333333,227.7799033592481,307.07078450699083,228.19579293319853,300.80823568064835,227.6580412734389C294.54568685430587,227.12028961367926,288.28313802796333,225.62889672020955,282.02058920162085,225.49429383373288C275.75804037527837,225.35969094725624,269.49549154893583,226.58187806777264,263.22436388858466,227.27946594761738C256.9532362282335,227.9770538274621,250.6735297338736,228.1500424666352,244.40240207352244,227.9995734219182C238.13127441317124,227.84910437720126,231.86872558682876,227.37517764859425,225.60617676048628,226.87081063111577C219.3436279341438,226.36644361363724,213.0810791078013,225.83163630728723,206.81853028145875,224.55434460403637C200.55598145511627,223.2770529007855,194.2934326287738,221.25727680063378,188.02230496842262,219.71979378832148C181.75117730807142,218.18231077600925,175.47147081371153,217.1271208515365,169.20034315336036,216.80633004530614C162.9292154930092,216.4855392390757,156.66666666666666,216.89914755108768,150.40411784032418,216.8373310263203C144.14156901398167,216.77551450155292,137.87902018763918,216.2382731400062,131.61647136129668,215.9204738445949C125.35392253495418,215.60267454918366,119.0913737086117,215.50431731990776,112.82024604826051,215.52035819111347C106.54911838790933,215.5363990623192,100.26941189354945,215.66683803400647,93.99828423319826,216.1967378947106C87.72715657284708,216.72663775541469,81.46460774650458,217.65599850513559,75.20205892016209,218.0290729172593C68.93951009381959,218.40214732938293,62.67696126747709,218.21893540390934,56.4144124411346,218.6188534580748C50.1518636147921,219.01877151224025,43.88931478844961,220.00181954604474,37.61818712809842,221.06267303716356C31.347059467747233,222.12352652828244,25.067352973387358,223.26218547671564,18.796225313036174,223.93817593197514C12.525097652684991,224.61416638723463,6.2625488263424955,224.82748834932042,3.1312744131712478,224.9341493303633L0,225.0408103114062Z" style="display: inline; fill: red; fill-opacity: 0.8; fill-rule: nonzero; stroke: rgb(31, 119, 180); stroke-dasharray: none; stroke-dashoffset: 0px; stroke-linecap: butt; stroke-linejoin: miter; stroke-miterlimit: 4; stroke-opacity: 1; stroke-width: 0.5px; -webkit-text-fill-color: rgb(34, 34, 34); -webkit-text-stroke: 0px rgb(34, 34, 34);"><title style="nullanimation-fill-mode:none;display:inline;fill:rgb(31, 119, 180);fill-opacity:0.8;fill-rule:nonzero;stroke:rgb(31, 119, 180);stroke-dasharray:none;stroke-dashoffset:0px;stroke-linecap:butt;stroke-linejoin:miter;stroke-miterlimit:4;stroke-opacity:1;stroke-width:0.5px;-webkit-text-fill-color:rgb(34, 34, 34);-webkit-text-stroke-color:rgb(34, 34, 34);-webkit-text-stroke-width:0px;">Chine</title></path><path fill="#9467bd" stroke="#9467bd" d="M0,42.007400932823145L3.1312744131712478,41.86403048339305C6.2625488263424955,41.72066003396296,12.525097652684991,41.43391913510277,18.796225313036174,40.94147602177928C25.067352973387358,40.44903290845579,31.347059467747233,39.750887580669,37.61818712809842,39.46093292568138C43.88931478844961,39.17097827069375,50.1518636147921,39.28921428850529,56.4144124411346,39.51335719692225C62.67696126747709,39.7375001053392,68.93951009381959,40.06754990436158,75.20205892016209,39.988151239335515C81.46460774650458,39.90875257430945,87.72715657284708,39.41990544523495,93.99828423319826,39.36722867356446C100.26941189354945,39.314551901893964,106.54911838790933,39.69804548762747,112.82024604826051,39.60858567964736C119.0913737086117,39.519125871667256,125.35392253495418,38.95671266997354,131.61647136129668,39.23780249699764C137.87902018763918,39.51889232402174,144.14156901398167,40.64348517976365,150.40411784032418,41.659747882598246C156.66666666666666,42.676010585432834,162.9292154930092,43.5839431353601,169.20034315336036,43.64776766288009C175.47147081371153,43.71159219040009,181.75117730807142,42.931308695512804,188.02230496842262,43.037122440724225C194.2934326287738,43.14293618593564,200.55598145511627,44.13484717124575,206.81853028145875,44.1273074809446C213.0810791078013,44.119767790643444,219.3436279341438,43.11277742473103,225.60617676048628,42.84624560607832C231.86872558682876,42.57971378742562,238.13127441317124,43.05364051603263,244.40240207352244,43.461075839459994C250.6735297338736,43.86851116288736,256.9532362282335,44.209455081135076,263.22436388858466,44.796698594842354C269.49549154893583,45.38394210854963,275.75804037527837,46.21748521771647,282.02058920162085,46.82931119322675C288.28313802796333,47.44113716873702,294.54568685430587,47.83124601059074,300.80823568064835,48.03861245486556C307.07078450699083,48.245978899140376,313.3333333333333,48.27060294583631,319.6044609936845,48.192122229540075C325.8755886540357,48.113641513243856,332.1552951483956,47.93205603395547,338.42642280874674,47.80040799273866C344.69755046909796,47.66875995152186,350.96009929544044,47.58704934837663,357.2226481217829,47.821179983424564C363.4851969481254,48.055310618472504,369.7477457744679,48.60528249171361,376.01029460081037,48.950312217705196C382.27284342715296,49.29534194369679,388.53539225349544,49.43542952243886,394.8065199138466,49.48012449764551C401.0776475741978,49.524819472852165,407.3573540685577,49.4741218445234,413.62848172890887,49.774720630066554C419.89960938926,50.07531941560972,426.16215821560246,50.7272146150248,432.42470704194506,51.17630923548694C438.68725586828754,51.62540385594907,444.9498046946301,51.871697897458255,451.21235352097256,52.14217426765148C457.47490234731504,52.41265063784471,463.7374511736575,52.707309336722,466.86872558682876,52.85463868616063L470,53.001968035599276L470,93.08870751442251L466.86872558682876,92.97808763337106C463.7374511736575,92.86746775231966,457.47490234731504,92.64622799021679,451.21235352097256,92.48588002518515C444.9498046946301,92.32553206015352,438.68725586828754,92.22607589219312,432.42470704194506,92.2542043607646C426.16215821560246,92.28233282933608,419.89960938926,92.4380459344394,413.62848172890887,92.17415661728346C407.3573540685577,91.91026730012749,401.0776475741978,91.22677556071226,394.8065199138466,90.888404838408C388.53539225349544,90.55003411610373,382.27284342715296,90.55678441091048,376.0102946008105,90.35859255846769C369.7477457744679,90.16040070602492,363.4851969481254,89.7572667063326,357.2226481217829,89.59655500805904C350.96009929544044,89.43584330978551,344.69755046909796,89.51755391293072,338.42642280874674,89.02514099156512C332.1552951483956,88.53272807019952,325.8755886540357,87.46619162432309,319.6044609936845,87.43454393545771C313.3333333333333,87.40289624659233,307.07078450699083,88.40613731473799,300.80823568064835,88.63928449110956C294.54568685430587,88.87243166748117,288.28313802796333,88.33548495207867,282.02058920162085,87.5401116346324C275.75804037527837,86.7447383171861,269.49549154893583,85.69093839769606,263.22436388858466,85.10369488398878C256.9532362282335,84.5164513702815,250.6735297338736,84.39576426235699,244.40240207352244,83.84149106538085C238.13127441317124,83.28721786840468,231.86872558682876,82.29935858237688,225.60617676048628,81.42789688102636C219.3436279341438,80.55643517967583,213.0810791078013,79.8013710630026,206.81853028145875,79.33168766427015C200.55598145511627,78.86200426553768,194.2934326287738,78.67770158474599,188.02230496842262,78.57188783953457C181.75117730807142,78.46607409432316,175.47147081371153,78.43874928469201,169.20034315336036,77.4204785791048C162.9292154930092,76.40220787351758,156.66666666666666,74.39299127197431,150.40411784032418,73.63369484785012C144.14156901398167,72.87439842372594,137.87902018763918,73.36502217702083,131.61647136129668,73.19406075515833C125.35392253495418,73.02309933329585,119.0913737086117,72.19055273627595,112.82024604826051,71.39898530296324C106.54911838790933,70.60741786965055,100.26941189354945,69.85682960004503,93.99828423319826,68.80822232009952C87.72715657284708,67.759615040154,81.46460774650458,66.41298874986846,75.20205892016209,65.46452230005289C68.93951009381959,64.51605585023732,62.67696126747709,63.96574924089172,56.4144124411346,62.933998027956335C50.1518636147921,61.90224681502095,43.88931478844961,60.38905099849578,37.61818712809842,59.35746479154418C31.347059467747233,58.325878584592594,25.067352973387358,57.77590198721456,18.796225313036174,57.27718945408364C12.525097652684991,56.77847692095272,6.2625488263424955,56.3310284520689,3.1312744131712478,56.107304217627L0,55.883579983185086Z" style="display: inline; fill: rgb(255, 101, 102); fill-opacity: 0.8; fill-rule: nonzero; stroke: rgb(148, 103, 189); stroke-dasharray: none; stroke-dashoffset: 0px; stroke-linecap: butt; stroke-linejoin: miter; stroke-miterlimit: 4; stroke-opacity: 1; stroke-width: 0.5px; -webkit-text-fill-color: rgb(34, 34, 34); -webkit-text-stroke: 0px rgb(34, 34, 34);"><title style="nullanimation-fill-mode:none;display:inline;fill:rgb(148, 103, 189);fill-opacity:0.8;fill-rule:nonzero;stroke:rgb(148, 103, 189);stroke-dasharray:none;stroke-dashoffset:0px;stroke-linecap:butt;stroke-linejoin:miter;stroke-miterlimit:4;stroke-opacity:1;stroke-width:0.5px;-webkit-text-fill-color:rgb(34, 34, 34);-webkit-text-stroke-color:rgb(34, 34, 34);-webkit-text-stroke-width:0px;">Taiwan</title></path><path fill="#8c564b" stroke="#8c564b" d="M0,19.76146309017949L3.1312744131712478,18.883903273005384C6.2625488263424955,18.006343455831274,12.525097652684991,16.251223821483062,18.796225313036174,14.290401972671546C25.067352973387358,12.329580123860032,31.347059467747233,10.163056060585214,37.61818712809842,9.138912037853567C43.88931478844961,8.11476801512192,50.1518636147921,8.233004032933442,56.4144124411346,8.273599599414391C62.67696126747709,8.314195165895342,68.93951009381959,8.27715028104572,75.20205892016209,8.161042147632466C81.46460774650458,8.044934014219214,87.72715657284708,7.849762632242327,93.99828423319826,8.054052139282229C100.26941189354945,8.258341646322132,106.54911838790933,8.862092042378825,112.82024604826051,9.213145855045118C119.0913737086117,9.564199667711412,125.35392253495418,9.662556896987306,131.61647136129668,10.310741407883418C137.87902018763918,10.958925918779528,144.14156901398167,12.156937711295853,150.40411784032418,12.659267856709633C156.66666666666666,13.161598002123412,162.9292154930092,12.968246500434645,169.20034315336036,13.472584648601043C175.47147081371153,13.97692279676744,181.75117730807142,15.178950594789,188.02230496842262,16.67972413871405C194.2934326287738,18.1804976826391,200.55598145511627,19.980016972467638,206.81853028145875,20.89021399184651C213.0810791078013,21.80041101122539,219.3436279341438,21.8212857601546,225.60617676048628,21.885139156986693C231.86872558682876,21.948992553818783,238.13127441317124,22.055824598553755,244.40240207352244,22.756935669078718C250.6735297338736,23.458046739603684,256.9532362282335,24.753436835918638,263.22436388858466,25.157133007689918C269.49549154893583,25.560829179461194,275.75804037527837,25.072831426688793,282.02058920162085,25.721366870586266C288.28313802796333,26.36990231448374,294.54568685430587,28.154970955051084,300.80823568064835,28.76614155158512C307.07078450699083,29.37731214811916,313.3333333333333,28.81458470061989,319.6044609936845,28.112043021741258C325.8755886540357,27.409501342862626,332.1552951483956,26.567145432604633,338.42642280874674,26.251950049451825C344.69755046909796,25.93675466629902,350.96009929544044,26.148719810251396,357.2226481217829,26.603107255622533C363.4851969481254,27.05749470099367,369.7477457744679,27.754304447783557,376.01029460081037,28.429719389259944C382.27284342715296,29.10513433073633,388.53539225349544,29.759154466899208,394.8065199138466,30.17094412597787C401.0776475741978,30.58273378505653,407.3573540685577,30.752292967050966,413.62848172890887,31.309858031304543C419.89960938926,31.86742309555812,426.16215821560246,32.812994042070834,432.42470704194506,33.59247387801778C438.68725586828754,34.37195371396473,444.9498046946301,34.985342439345914,451.21235352097256,35.51278508824955C457.47490234731504,36.040227737153195,463.7374511736575,36.481724309579285,466.86872558682876,36.70247259579234L470,36.92322088200538L470,53.001968035599276L466.86872558682876,52.85463868616063C463.7374511736575,52.707309336722,457.47490234731504,52.41265063784471,451.21235352097256,52.14217426765148C444.9498046946301,51.871697897458255,438.68725586828754,51.62540385594907,432.42470704194506,51.17630923548693C426.16215821560246,50.7272146150248,419.89960938926,50.07531941560972,413.62848172890887,49.774720630066554C407.3573540685577,49.4741218445234,401.0776475741978,49.524819472852165,394.8065199138466,49.48012449764551C388.53539225349544,49.43542952243886,382.27284342715296,49.29534194369679,376.0102946008105,48.950312217705196C369.7477457744679,48.60528249171361,363.4851969481254,48.055310618472504,357.2226481217829,47.821179983424564C350.96009929544044,47.58704934837663,344.69755046909796,47.66875995152186,338.42642280874674,47.80040799273866C332.1552951483956,47.93205603395547,325.8755886540357,48.113641513243856,319.6044609936845,48.192122229540075C313.3333333333333,48.27060294583631,307.07078450699083,48.245978899140376,300.80823568064835,48.03861245486556C294.54568685430587,47.83124601059074,288.28313802796333,47.44113716873702,282.02058920162085,46.82931119322675C275.75804037527837,46.21748521771647,269.49549154893583,45.38394210854963,263.22436388858466,44.796698594842354C256.9532362282335,44.209455081135076,250.6735297338736,43.86851116288736,244.40240207352244,43.461075839459994C238.13127441317124,43.05364051603263,231.86872558682876,42.57971378742562,225.60617676048628,42.84624560607832C219.3436279341438,43.11277742473103,213.0810791078013,44.119767790643444,206.81853028145875,44.1273074809446C200.55598145511627,44.13484717124575,194.2934326287738,43.14293618593564,188.02230496842262,43.037122440724225C181.75117730807142,42.931308695512804,175.47147081371153,43.71159219040009,169.20034315336036,43.64776766288009C162.9292154930092,43.5839431353601,156.66666666666666,42.676010585432834,150.40411784032418,41.659747882598246C144.14156901398167,40.64348517976365,137.87902018763918,39.51889232402174,131.61647136129668,39.23780249699764C125.35392253495418,38.95671266997354,119.0913737086117,39.519125871667256,112.82024604826051,39.60858567964736C106.54911838790933,39.69804548762747,100.26941189354945,39.314551901893964,93.99828423319826,39.36722867356446C87.72715657284708,39.41990544523495,81.46460774650458,39.90875257430945,75.20205892016209,39.988151239335515C68.93951009381959,40.06754990436158,62.67696126747709,39.7375001053392,56.4144124411346,39.51335719692225C50.1518636147921,39.28921428850529,43.88931478844961,39.17097827069375,37.61818712809842,39.46093292568138C31.347059467747233,39.750887580669,25.067352973387358,40.44903290845579,18.796225313036174,40.94147602177928C12.525097652684991,41.43391913510277,6.2625488263424955,41.72066003396296,3.1312744131712478,41.86403048339305L0,42.007400932823145Z" style="display: inline; fill: rgb(106, 186, 182); fill-opacity: 0.8; fill-rule: nonzero; stroke: rgb(140, 86, 75); stroke-dasharray: none; stroke-dashoffset: 0px; stroke-linecap: butt; stroke-linejoin: miter; stroke-miterlimit: 4; stroke-opacity: 1; stroke-width: 0.5px; -webkit-text-fill-color: rgb(34, 34, 34); -webkit-text-stroke: 0px rgb(34, 34, 34);"><title style="nullanimation-fill-mode:none;display:inline;fill:rgb(140, 86, 75);fill-opacity:0.8;fill-rule:nonzero;stroke:rgb(140, 86, 75);stroke-dasharray:none;stroke-dashoffset:0px;stroke-linecap:butt;stroke-linejoin:miter;stroke-miterlimit:4;stroke-opacity:1;stroke-width:0.5px;-webkit-text-fill-color:rgb(34, 34, 34);-webkit-text-stroke-color:rgb(34, 34, 34);-webkit-text-stroke-width:0px;">Union européenne</title></path><path fill="#2ca02c" stroke="#2ca02c" d="M0,113.37060747754147L3.1312744131712478,113.59433171198339C6.2625488263424955,113.8180559464253,12.525097652684991,114.26550441530912,18.796225313036174,115.13131163231208C25.067352973387358,115.99711884931502,31.347059467747233,117.28128481443706,37.61818712809842,117.94577633751663C43.88931478844961,118.61026786059624,50.1518636147921,118.65508494163335,56.4144124411346,118.73238997650151C62.67696126747709,118.80969501136967,68.93951009381959,118.91948800006885,75.20205892016209,119.17047455052762C81.46460774650458,119.42146110098638,87.72715657284708,119.81364121320468,93.99828423319826,119.76096444153417C100.26941189354945,119.70828766986365,106.54911838790933,119.21075401430433,112.82024604826051,119.45167942180903C119.0913737086117,119.69260482931372,125.35392253495418,120.67198929988244,131.61647136129668,121.13662646884252C137.87902018763918,121.60126363780263,144.14156901398167,121.55115350515412,150.40411784032418,121.53955109314711C156.66666666666666,121.52794868114007,162.9292154930092,121.55485398977453,169.20034315336036,121.25158383342252C175.47147081371153,120.94831367707052,181.75117730807142,120.31486805573202,188.02230496842262,119.64978296481223C194.2934326287738,118.98469787389242,200.55598145511627,118.2879733133913,206.81853028145875,117.83992000244376C213.0810791078013,117.39186669149619,219.3436279341438,117.19248463010219,225.60617676048628,116.99937174822388C231.86872558682876,116.80625886634557,238.13127441317124,116.61941516398296,244.40240207352244,116.4027895248279C250.6735297338736,116.18616388567284,256.9532362282335,115.93975630972534,263.22436388858466,116.34345248149664C269.49549154893583,116.74714865326791,275.75804037527837,117.80094857275795,282.02058920162085,118.08238933278342C288.28313802796333,118.3638300928089,294.54568685430587,117.87291169336977,300.80823568064835,117.3827982382878C307.07078450699083,116.89268478320581,313.3333333333333,116.40337627248094,319.6044609936845,116.65528077166952C325.8755886540357,116.90718527085811,332.1552951483956,117.90030277996016,338.42642280874674,118.31929676455137C344.69755046909796,118.73829074914256,350.96009929544044,118.58316120922292,357.2226481217829,118.48690662878606C363.4851969481254,118.3906520483492,369.7477457744679,118.35327242739508,376.01029460081037,118.07424119080427C382.27284342715296,117.79520995421343,388.53539225349544,117.27452710198588,394.8065199138466,117.13567473525653C401.0776475741978,116.99682236852716,407.3573540685577,117.23980048729601,413.62848172890887,117.13659512057995C419.89960938926,117.03338975386391,426.16215821560246,116.58400090166299,432.42470704194506,116.33561562276832C438.68725586828754,116.08723034387363,444.9498046946301,116.0398486382852,451.21235352097256,116.09006819815524C457.47490234731504,116.14028775802525,463.7374511736575,116.28810858335373,466.86872558682876,116.36201899601798L470,116.43592940868221L470,155.86189845653584L466.86872558682876,155.5310217651612C463.7374511736575,155.20014507378656,457.47490234731504,154.53839169103728,451.21235352097256,154.59830053632882C444.9498046946301,154.6582093816204,438.68725586828754,155.43978045495285,432.42470704194506,156.42235510159153C426.16215821560246,157.40492974823022,419.89960938926,158.58850796817515,413.62848172890887,159.46261217102244C407.3573540685577,160.3367163738697,401.0776475741978,160.9013465596193,394.8065199138466,160.78323264763824C388.53539225349544,160.66511873565722,382.27284342715296,159.8642607259455,376.0102946008105,160.21671089931075C369.7477457744679,160.56916107267597,363.4851969481254,162.0749194291181,357.2226481217829,162.79523497213737C350.96009929544044,163.51555051515666,344.69755046909796,163.45042324475307,338.42642280874674,163.5453618175827C332.1552951483956,163.6403003904123,325.8755886540357,163.89530480647508,319.6044609936845,163.4231434969633C313.3333333333333,162.9509821874515,307.07078450699083,161.75165515236515,300.80823568064835,162.05822126551115C294.54568685430587,162.36478737865713,288.28313802796333,164.17724664003546,282.02058920162085,165.4376035522724C275.75804037527837,166.69796046450938,269.49549154893583,167.406215027605,263.22436388858466,167.95696503390093C256.9532362282335,168.50771504019687,250.6735297338736,168.90096048969315,244.40240207352244,169.52139028110741C238.13127441317124,170.14182007252168,231.86872558682876,170.98943420585388,225.60617676048628,171.329384961281C219.3436279341438,171.66933571670813,213.0810791078013,171.50162309423013,206.81853028145875,172.5003184309857C200.55598145511627,173.49901376774127,194.2934326287738,175.6641170637304,188.02230496842262,176.84313471207102C181.75117730807142,178.0221523604116,175.47147081371153,178.2150843611037,169.20034315336036,179.1791249484253C162.9292154930092,180.143165535747,156.66666666666666,181.87831470969817,150.40411784032418,182.99120117332117C144.14156901398167,184.10408763694423,137.87902018763918,184.59471139023913,131.61647136129668,185.56174348837988C125.35392253495418,186.52877558652062,119.0913737086117,187.97221602950717,112.82024604826051,188.9059936103929C106.54911838790933,189.83977119127863,100.26941189354945,190.26388591006355,93.99828423319826,190.94062364431647C87.72715657284708,191.61736137856937,81.46460774650458,192.5467221282903,75.20205892016209,193.39701962944756C68.93951009381959,194.24731713060484,62.67696126747709,195.01855138319846,56.4144124411346,196.00582093155913C50.1518636147921,196.9930904799198,43.88931478844961,198.19639532404747,37.61818712809842,199.14712041000473C31.347059467747233,200.09784549596193,25.067352973387358,200.79599082374875,18.796225313036174,201.21501500029785C12.525097652684991,201.63403917684695,6.2625488263424955,201.77394220215834,3.1312744131712478,201.84389371481402L0,201.91384522746972Z" style="display: inline; fill: rgb(255, 167, 121); fill-opacity: 0.8; fill-rule: nonzero; stroke: rgb(44, 160, 44); stroke-dasharray: none; stroke-dashoffset: 0px; stroke-linecap: butt; stroke-linejoin: miter; stroke-miterlimit: 4; stroke-opacity: 1; stroke-width: 0.5px; -webkit-text-fill-color: rgb(34, 34, 34); -webkit-text-stroke: 0px rgb(34, 34, 34);"><title style="nullanimation-fill-mode:none;display:inline;fill:rgb(44, 160, 44);fill-opacity:0.8;fill-rule:nonzero;stroke:rgb(44, 160, 44);stroke-dasharray:none;stroke-dashoffset:0px;stroke-linecap:butt;stroke-linejoin:miter;stroke-miterlimit:4;stroke-opacity:1;stroke-width:0.5px;-webkit-text-fill-color:rgb(34, 34, 34);-webkit-text-stroke-color:rgb(34, 34, 34);-webkit-text-stroke-width:0px;">Japon</title></path><path fill="#ff7f0e" stroke="#ff7f0e" d="M0,201.91384522746972L3.1312744131712478,201.84389371481402C6.2625488263424955,201.77394220215834,12.525097652684991,201.63403917684695,18.796225313036174,201.21501500029785C25.067352973387358,200.79599082374875,31.347059467747233,200.09784549596193,37.61818712809842,199.1471204100047C43.88931478844961,198.19639532404747,50.1518636147921,196.9930904799198,56.4144124411346,196.00582093155913C62.67696126747709,195.01855138319846,68.93951009381959,194.24731713060484,75.20205892016209,193.39701962944756C81.46460774650458,192.5467221282903,87.72715657284708,191.61736137856937,93.99828423319826,190.94062364431647C100.26941189354945,190.26388591006355,106.54911838790933,189.83977119127863,112.82024604826051,188.9059936103929C119.0913737086117,187.97221602950717,125.35392253495418,186.52877558652062,131.61647136129668,185.56174348837988C137.87902018763918,184.59471139023913,144.14156901398167,184.10408763694423,150.40411784032418,182.9912011733212C156.66666666666666,181.87831470969817,162.9292154930092,180.143165535747,169.20034315336036,179.1791249484253C175.47147081371153,178.2150843611037,181.75117730807142,178.0221523604116,188.02230496842262,176.84313471207102C194.2934326287738,175.6641170637304,200.55598145511627,173.49901376774127,206.81853028145875,172.5003184309857C213.0810791078013,171.50162309423013,219.3436279341438,171.66933571670813,225.60617676048628,171.32938496128102C231.86872558682876,170.98943420585388,238.13127441317124,170.14182007252168,244.40240207352244,169.52139028110741C250.6735297338736,168.90096048969315,256.9532362282335,168.50771504019687,263.22436388858466,167.95696503390093C269.49549154893583,167.406215027605,275.75804037527837,166.69796046450938,282.02058920162085,165.4376035522724C288.28313802796333,164.17724664003546,294.54568685430587,162.36478737865713,300.80823568064835,162.05822126551115C307.07078450699083,161.75165515236515,313.3333333333333,162.9509821874515,319.6044609936845,163.42314349696332C325.8755886540357,163.89530480647508,332.1552951483956,163.6403003904123,338.42642280874674,163.5453618175827C344.69755046909796,163.45042324475307,350.96009929544044,163.51555051515666,357.2226481217829,162.79523497213737C363.4851969481254,162.0749194291181,369.7477457744679,160.56916107267597,376.01029460081037,160.21671089931075C382.27284342715296,159.8642607259455,388.53539225349544,160.66511873565722,394.8065199138466,160.78323264763824C401.0776475741978,160.9013465596193,407.3573540685577,160.3367163738697,413.62848172890887,159.4626121710224C419.89960938926,158.58850796817515,426.16215821560246,157.40492974823022,432.42470704194506,156.42235510159153C438.68725586828754,155.43978045495285,444.9498046946301,154.6582093816204,451.21235352097256,154.59830053632882C457.47490234731504,154.53839169103728,463.7374511736575,155.20014507378656,466.86872558682876,155.5310217651612L470,155.86189845653584L470,189.34093362566296L466.86872558682876,190.03792204912995C463.7374511736575,190.7349104725969,457.47490234731504,192.12888731953083,451.21235352097256,193.06982340611523C444.9498046946301,194.01075949269963,438.68725586828754,194.49865481893448,432.42470704194506,194.78374956621636C426.16215821560246,195.0688443134982,419.89960938926,195.15113848182713,413.62848172890887,195.65814800080238C407.3573540685577,196.16515751977764,401.0776475741978,197.09688238939927,394.8065199138466,197.82308625032383C388.53539225349544,198.5492901112484,382.27284342715296,199.06997296347595,376.0102946008105,199.38571366845397C369.7477457744679,199.70145437343197,363.4851969481254,199.8122529311605,357.2226481217829,199.94521697998456C350.96009929544044,200.07818102880864,344.69755046909796,200.23331056872826,338.42642280874674,200.8421816989787C332.1552951483956,201.4510528292291,325.8755886540357,202.5136655498103,319.6044609936845,202.7756936080425C313.3333333333333,203.03772166627473,307.07078450699083,202.499165062158,300.80823568064835,202.18167021272157C294.54568685430587,201.86417536328517,288.28313802796333,201.76774226852908,282.02058920162085,202.477457154958C275.75804037527837,203.18717204138696,269.49549154893583,204.70303490900096,263.22436388858466,205.5841701307817C256.9532362282335,206.46530535256247,250.6735297338736,206.71171292850997,244.40240207352244,207.03846697282663C238.13127441317124,207.36522101714323,231.86872558682876,207.77232152982904,225.60617676048628,208.03885334848178C219.3436279341438,208.30538516713446,213.0810791078013,208.43134829175406,206.81853028145875,207.81482701947286C200.55598145511627,207.19830574719154,194.2934326287738,205.83930007800942,188.02230496842262,204.59549281279476C181.75117730807142,203.35168554758013,175.47147081371153,202.223076686333,169.20034315336036,202.26938056397458C162.9292154930092,202.3156844416162,156.66666666666666,203.53690105814658,150.40411784032418,204.75991592693126C144.14156901398167,205.9829307957159,137.87902018763918,207.20774391675482,131.61647136129668,208.21148548328276C125.35392253495418,209.21522704981066,119.0913737086117,209.99789706182764,112.82024604826051,210.56457995884134C106.54911838790933,211.13126285585508,100.26941189354945,211.48195863786557,93.99828423319826,212.19540584050569C87.72715657284708,212.9088530431458,81.46460774650458,213.98505166641553,75.20205892016209,214.504963952088C68.93951009381959,215.02487623776042,62.67696126747709,214.9885021858357,56.4144124411346,215.3884202400011C50.1518636147921,215.78833829416658,43.88931478844961,216.6245484544223,37.61818712809842,217.53856407199234C31.347059467747233,218.45257968956238,25.067352973387358,219.44440076444675,18.796225313036174,220.083681751319C12.525097652684991,220.72296273819134,6.2625488263424955,221.00970363705153,3.1312744131712478,221.1530740864816L0,221.29644453591172Z" style="display: inline; fill: rgb(110, 139, 239); fill-opacity: 0.8; fill-rule: nonzero; stroke: rgb(255, 127, 14); stroke-dasharray: none; stroke-dashoffset: 0px; stroke-linecap: butt; stroke-linejoin: miter; stroke-miterlimit: 4; stroke-opacity: 1; stroke-width: 0.5px; -webkit-text-fill-color: rgb(34, 34, 34); -webkit-text-stroke: 0px rgb(34, 34, 34);"><title style="nullanimation-fill-mode:none;display:inline;fill:rgb(255, 127, 14);fill-opacity:0.8;fill-rule:nonzero;stroke:rgb(255, 127, 14);stroke-dasharray:none;stroke-dashoffset:0px;stroke-linecap:butt;stroke-linejoin:miter;stroke-miterlimit:4;stroke-opacity:1;stroke-width:0.5px;-webkit-text-fill-color:rgb(34, 34, 34);-webkit-text-stroke-color:rgb(34, 34, 34);-webkit-text-stroke-width:0px;">Corée du sud</title></path><path fill="#e377c2" stroke="#e377c2" d="M0,15.136070073392233L3.1312744131712478,14.258510256218122C6.2625488263424955,13.380950439044009,12.525097652684991,11.625830804695786,18.796225313036174,9.48146161394826C25.067352973387358,7.337092423200734,31.347059467747233,4.803473676053907,37.61818712809842,3.595782311386254C43.88931478844961,2.388090946718601,50.1518636147921,2.5063269645301225,56.4144124411346,2.400084657462268C62.67696126747709,2.2938423503944136,68.93951009381959,1.9631217184471836,75.20205892016209,1.553337837936321C81.46460774650458,1.143553957425458,87.72715657284708,0.6547068283509626,93.99828423319826,0.45519218313165766C100.26941189354945,0.25567753791235265,106.54911838790933,0.3454953765482382,112.82024604826051,0.5497113156657273C119.0913737086117,0.7539272547832164,125.35392253495418,1.0725412943823092,131.61647136129668,1.7207258052784198C137.87902018763918,2.36891031617453,144.14156901398167,3.346665298367659,150.40411784032418,3.114806076037425C156.66666666666666,2.882946853707191,162.9292154930092,1.4414734268535956,169.20034315336036,1.5052979543735887C175.47147081371153,1.5691224818935818,181.75117730807142,3.1382449637871637,188.02230496842262,5.006113191584229C194.2934326287738,6.873981419381295,200.55598145511627,9.040595393081844,206.81853028145875,10.244468159558318C213.0810791078013,11.448340926034794,219.3436279341438,11.689472485287192,225.60617676048628,11.90016375566808C231.86872558682876,12.110855026048966,238.13127441317124,12.29110600755834,244.40240207352244,12.661831862598499C250.6735297338736,13.032557717638658,256.9532362282335,13.5937584462096,263.22436388858466,13.226555781849664C269.49549154893583,12.859353117489727,275.75804037527837,11.563747060198912,282.02058920162085,11.588221541513974C288.28313802796333,11.612696022829036,294.54568685430587,12.957251042749979,300.80823568064835,13.458293234122422C307.07078450699083,13.959335425494865,313.3333333333333,13.616864788318813,319.6044609936845,13.171289388150578C325.8755886540357,12.725713987982346,332.1552951483956,12.177033824821933,338.42642280874674,12.118804720379524C344.69755046909796,12.060575615937116,350.96009929544044,12.49279757021271,357.2226481217829,12.910475547196654C363.4851969481254,13.328153524180598,369.7477457744679,13.731287523872888,376.01029460081037,14.11302671825167C382.27284342715296,14.49476591263045,388.53539225349544,14.855110301695722,394.8065199138466,15.413737834323186C401.0776475741978,15.97236536695065,407.3573540685577,16.729276043140306,413.62848172890887,17.764064196427487C419.89960938926,18.798852349714668,426.16215821560246,20.111517980099375,432.42470704194506,21.44163984185433C438.68725586828754,22.771761703609286,444.9498046946301,24.119339796734494,451.21235352097256,24.903748724348535C457.47490234731504,25.68815765196258,463.7374511736575,25.909397414065456,466.86872558682876,26.020017295116897L470,26.130637176168335L470,36.92322088200538L466.86872558682876,36.70247259579234C463.7374511736575,36.481724309579285,457.47490234731504,36.040227737153195,451.21235352097256,35.51278508824955C444.9498046946301,34.985342439345914,438.68725586828754,34.37195371396473,432.42470704194506,33.59247387801778C426.16215821560246,32.812994042070834,419.89960938926,31.86742309555812,413.62848172890887,31.309858031304543C407.3573540685577,30.752292967050966,401.0776475741978,30.58273378505653,394.8065199138466,30.17094412597787C388.53539225349544,29.759154466899208,382.27284342715296,29.10513433073633,376.0102946008105,28.429719389259944C369.7477457744679,27.754304447783557,363.4851969481254,27.05749470099367,357.2226481217829,26.603107255622533C350.96009929544044,26.148719810251396,344.69755046909796,25.93675466629902,338.42642280874674,26.251950049451825C332.1552951483956,26.567145432604633,325.8755886540357,27.409501342862626,319.6044609936845,28.112043021741258C313.3333333333333,28.81458470061989,307.07078450699083,29.37731214811916,300.80823568064835,28.76614155158512C294.54568685430587,28.154970955051084,288.28313802796333,26.36990231448374,282.02058920162085,25.721366870586266C275.75804037527837,25.072831426688793,269.49549154893583,25.560829179461194,263.22436388858466,25.157133007689918C256.9532362282335,24.753436835918638,250.6735297338736,23.458046739603684,244.40240207352244,22.756935669078718C238.13127441317124,22.055824598553755,231.86872558682876,21.948992553818783,225.60617676048628,21.885139156986693C219.3436279341438,21.8212857601546,213.0810791078013,21.80041101122539,206.81853028145875,20.89021399184651C200.55598145511627,19.980016972467638,194.2934326287738,18.1804976826391,188.02230496842262,16.67972413871405C181.75117730807142,15.178950594789,175.47147081371153,13.97692279676744,169.20034315336036,13.472584648601043C162.9292154930092,12.968246500434645,156.66666666666666,13.161598002123412,150.40411784032418,12.659267856709633C144.14156901398167,12.156937711295853,137.87902018763918,10.958925918779528,131.61647136129668,10.310741407883418C125.35392253495418,9.662556896987306,119.0913737086117,9.564199667711412,112.82024604826051,9.213145855045118C106.54911838790933,8.862092042378825,100.26941189354945,8.258341646322132,93.99828423319826,8.054052139282229C87.72715657284708,7.849762632242327,81.46460774650458,8.044934014219214,75.20205892016209,8.161042147632466C68.93951009381959,8.27715028104572,62.67696126747709,8.314195165895342,56.4144124411346,8.273599599414391C50.1518636147921,8.233004032933442,43.88931478844961,8.11476801512192,37.61818712809842,9.138912037853567C31.347059467747233,10.163056060585214,25.067352973387358,12.329580123860032,18.796225313036174,14.290401972671546C12.525097652684991,16.251223821483062,6.2625488263424955,18.006343455831274,3.1312744131712478,18.883903273005384L0,19.76146309017949Z" style="display: inline; fill: rgb(147, 123, 218); fill-opacity: 0.8; fill-rule: nonzero; stroke: rgb(227, 119, 194); stroke-dasharray: none; stroke-dashoffset: 0px; stroke-linecap: butt; stroke-linejoin: miter; stroke-miterlimit: 4; stroke-opacity: 1; stroke-width: 0.5px; -webkit-text-fill-color: rgb(34, 34, 34); -webkit-text-stroke: 0px rgb(34, 34, 34);"><title style="nullanimation-fill-mode:none;display:inline;fill:rgb(227, 119, 194);fill-opacity:0.8;fill-rule:nonzero;stroke:rgb(227, 119, 194);stroke-dasharray:none;stroke-dashoffset:0px;stroke-linecap:butt;stroke-linejoin:miter;stroke-miterlimit:4;stroke-opacity:1;stroke-width:0.5px;-webkit-text-fill-color:rgb(34, 34, 34);-webkit-text-stroke-color:rgb(34, 34, 34);-webkit-text-stroke-width:0px;">Singapour</title></path><path fill="#d62728" stroke="#d62728" d="M0,55.883579983185086L3.1312744131712478,56.107304217627C6.2625488263424955,56.3310284520689,12.525097652684991,56.77847692095272,18.796225313036174,57.27718945408364C25.067352973387358,57.77590198721456,31.347059467747233,58.325878584592594,37.61818712809842,59.357464791544196C43.88931478844961,60.38905099849578,50.1518636147921,61.90224681502095,56.4144124411346,62.933998027956335C62.67696126747709,63.96574924089172,68.93951009381959,64.51605585023732,75.20205892016209,65.4645223000529C81.46460774650458,66.41298874986846,87.72715657284708,67.759615040154,93.99828423319826,68.80822232009952C100.26941189354945,69.85682960004503,106.54911838790933,70.60741786965055,112.82024604826051,71.39898530296324C119.0913737086117,72.19055273627595,125.35392253495418,73.02309933329585,131.61647136129668,73.19406075515835C137.87902018763918,73.36502217702083,144.14156901398167,72.87439842372594,150.40411784032418,73.63369484785012C156.66666666666666,74.39299127197431,162.9292154930092,76.40220787351758,169.20034315336036,77.4204785791048C175.47147081371153,78.43874928469201,181.75117730807142,78.46607409432316,188.02230496842262,78.57188783953457C194.2934326287738,78.67770158474599,200.55598145511627,78.86200426553768,206.81853028145875,79.33168766427013C213.0810791078013,79.8013710630026,219.3436279341438,80.55643517967583,225.60617676048628,81.42789688102636C231.86872558682876,82.29935858237688,238.13127441317124,83.28721786840468,244.40240207352244,83.84149106538085C250.6735297338736,84.39576426235699,256.9532362282335,84.5164513702815,263.22436388858466,85.10369488398878C269.49549154893583,85.69093839769606,275.75804037527837,86.7447383171861,282.02058920162085,87.5401116346324C288.28313802796333,88.33548495207867,294.54568685430587,88.87243166748117,300.80823568064835,88.63928449110956C307.07078450699083,88.40613731473799,313.3333333333333,87.40289624659233,319.6044609936845,87.43454393545771C325.8755886540357,87.46619162432309,332.1552951483956,88.53272807019952,338.42642280874674,89.02514099156512C344.69755046909796,89.51755391293072,350.96009929544044,89.43584330978551,357.2226481217829,89.59655500805906C363.4851969481254,89.7572667063326,369.7477457744679,90.16040070602492,376.01029460081037,90.35859255846769C382.27284342715296,90.55678441091048,388.53539225349544,90.55003411610373,394.8065199138466,90.888404838408C401.0776475741978,91.22677556071226,407.3573540685577,91.91026730012749,413.62848172890887,92.17415661728346C419.89960938926,92.4380459344394,426.16215821560246,92.28233282933608,432.42470704194506,92.2542043607646C438.68725586828754,92.22607589219312,444.9498046946301,92.32553206015352,451.21235352097256,92.48588002518515C457.47490234731504,92.64622799021679,463.7374511736575,92.86746775231966,466.86872558682876,92.97808763337106L470,93.08870751442251L470,116.43592940868221L466.86872558682876,116.36201899601797C463.7374511736575,116.28810858335373,457.47490234731504,116.14028775802525,451.21235352097256,116.09006819815522C444.9498046946301,116.0398486382852,438.68725586828754,116.08723034387363,432.42470704194506,116.33561562276832C426.16215821560246,116.58400090166299,419.89960938926,117.03338975386391,413.62848172890887,117.13659512057995C407.3573540685577,117.23980048729601,401.0776475741978,116.99682236852716,394.8065199138466,117.13567473525653C388.53539225349544,117.27452710198588,382.27284342715296,117.79520995421343,376.0102946008105,118.07424119080427C369.7477457744679,118.35327242739508,363.4851969481254,118.3906520483492,357.2226481217829,118.48690662878606C350.96009929544044,118.58316120922292,344.69755046909796,118.73829074914256,338.42642280874674,118.31929676455137C332.1552951483956,117.90030277996016,325.8755886540357,116.90718527085811,319.6044609936845,116.65528077166952C313.3333333333333,116.40337627248094,307.07078450699083,116.89268478320581,300.80823568064835,117.38279823828778C294.54568685430587,117.87291169336977,288.28313802796333,118.3638300928089,282.02058920162085,118.08238933278342C275.75804037527837,117.80094857275795,269.49549154893583,116.74714865326791,263.22436388858466,116.34345248149663C256.9532362282335,115.93975630972534,250.6735297338736,116.18616388567284,244.40240207352244,116.4027895248279C238.13127441317124,116.61941516398296,231.86872558682876,116.80625886634557,225.60617676048628,116.99937174822388C219.3436279341438,117.19248463010219,213.0810791078013,117.39186669149619,206.81853028145875,117.83992000244375C200.55598145511627,118.2879733133913,194.2934326287738,118.98469787389242,188.02230496842262,119.64978296481223C181.75117730807142,120.31486805573202,175.47147081371153,120.94831367707052,169.20034315336036,121.2515838334225C162.9292154930092,121.55485398977453,156.66666666666666,121.52794868114007,150.40411784032418,121.53955109314711C144.14156901398167,121.55115350515412,137.87902018763918,121.60126363780263,131.61647136129668,121.13662646884252C125.35392253495418,120.67198929988244,119.0913737086117,119.69260482931372,112.82024604826051,119.45167942180905C106.54911838790933,119.21075401430433,100.26941189354945,119.70828766986365,93.99828423319826,119.76096444153417C87.72715657284708,119.81364121320468,81.46460774650458,119.42146110098638,75.20205892016209,119.17047455052762C68.93951009381959,118.91948800006885,62.67696126747709,118.80969501136967,56.4144124411346,118.73238997650151C50.1518636147921,118.65508494163335,43.88931478844961,118.61026786059624,37.61818712809842,117.94577633751665C31.347059467747233,117.28128481443706,25.067352973387358,115.99711884931502,18.796225313036174,115.13131163231208C12.525097652684991,114.26550441530912,6.2625488263424955,113.8180559464253,3.1312744131712478,113.59433171198339L0,113.37060747754147Z" style="display: inline; fill: rgb(71, 116, 123); fill-opacity: 0.8; fill-rule: nonzero; stroke: rgb(214, 39, 40); stroke-dasharray: none; stroke-dashoffset: 0px; stroke-linecap: butt; stroke-linejoin: miter; stroke-miterlimit: 4; stroke-opacity: 1; stroke-width: 0.5px; -webkit-text-fill-color: rgb(34, 34, 34); -webkit-text-stroke: 0px rgb(34, 34, 34);"><title style="nullanimation-fill-mode:none;display:inline;fill:rgb(214, 39, 40);fill-opacity:0.8;fill-rule:nonzero;stroke:rgb(214, 39, 40);stroke-dasharray:none;stroke-dashoffset:0px;stroke-linecap:butt;stroke-linejoin:miter;stroke-miterlimit:4;stroke-opacity:1;stroke-width:0.5px;-webkit-text-fill-color:rgb(34, 34, 34);-webkit-text-stroke-color:rgb(34, 34, 34);-webkit-text-stroke-width:0px;">Etats-Unis</title></path><text class="area-label" transform="translate(397.0770770770771,222.76239750108329) scale(1.5038468917418304)" style="nullanimation-fill-mode:none;display:block;fill:rgb(255, 255, 255);fill-opacity:0.7;fill-rule:nonzero;stroke:none;stroke-dasharray:none;stroke-dashoffset:0px;stroke-linecap:butt;stroke-linejoin:miter;stroke-miterlimit:4;stroke-opacity:1;stroke-width:1px;-webkit-text-fill-color:rgb(34, 34, 34);-webkit-text-stroke-color:rgb(34, 34, 34);-webkit-text-stroke-width:0px;">Chine</text><text class="area-label" transform="translate(337.32732732732734,82.0855868723095) scale(1.8175441883124548)" style="nullanimation-fill-mode:none;display:block;fill:rgb(255, 255, 255);fill-opacity:0.7;fill-rule:nonzero;stroke:none;stroke-dasharray:none;stroke-dashoffset:0px;stroke-linecap:butt;stroke-linejoin:miter;stroke-miterlimit:4;stroke-opacity:1;stroke-width:1px;-webkit-text-fill-color:rgb(34, 34, 34);-webkit-text-stroke-color:rgb(34, 34, 34);-webkit-text-stroke-width:0px;">Taiwan</text><text class="area-label" transform="translate(15.055055055055055,34.000309023882345) scale(1.1036379961075684)" style="nullanimation-fill-mode:none;display:block;fill:rgb(255, 255, 255);fill-opacity:0.7;fill-rule:nonzero;stroke:none;stroke-dasharray:none;stroke-dashoffset:0px;stroke-linecap:butt;stroke-linejoin:miter;stroke-miterlimit:4;stroke-opacity:1;stroke-width:1px;-webkit-text-fill-color:rgb(34, 34, 34);-webkit-text-stroke-color:rgb(34, 34, 34);-webkit-text-stroke-width:0px;">Union européenne</text><text class="area-label" transform="translate(0,171.44602431552323) scale(2.9868009931297417)" style="nullanimation-fill-mode:none;display:block;fill:rgb(255, 255, 255);fill-opacity:0.7;fill-rule:nonzero;stroke:none;stroke-dasharray:none;stroke-dashoffset:0px;stroke-linecap:butt;stroke-linejoin:miter;stroke-miterlimit:4;stroke-opacity:1;stroke-width:1px;-webkit-text-fill-color:rgb(34, 34, 34);-webkit-text-stroke-color:rgb(34, 34, 34);-webkit-text-stroke-width:0px;">Japon</text><text class="area-label" transform="translate(288.3983983983984,188.01493201998926) scale(1.4318151473624938)" style="nullanimation-fill-mode:none;display:block;fill:rgb(255, 255, 255);fill-opacity:0.7;fill-rule:nonzero;stroke:none;stroke-dasharray:none;stroke-dashoffset:0px;stroke-linecap:butt;stroke-linejoin:miter;stroke-miterlimit:4;stroke-opacity:1;stroke-width:1px;-webkit-text-fill-color:rgb(34, 34, 34);-webkit-text-stroke-color:rgb(34, 34, 34);-webkit-text-stroke-width:0px;">Corée du sud</text><text class="area-label" transform="translate(315.68568568568566,23.365556179113902) scale(0.5922455582214874)" style="nullanimation-fill-mode:none;display:block;fill:rgb(255, 255, 255);fill-opacity:0.7;fill-rule:nonzero;stroke:none;stroke-dasharray:none;stroke-dashoffset:0px;stroke-linecap:butt;stroke-linejoin:miter;stroke-miterlimit:4;stroke-opacity:1;stroke-width:1px;-webkit-text-fill-color:rgb(34, 34, 34);-webkit-text-stroke-color:rgb(34, 34, 34);-webkit-text-stroke-width:0px;">Singapour</text><text class="area-label" transform="translate(36.6966966966967,110.66905766709928) scale(1.9080663016840154)" style="nullanimation-fill-mode:none;display:block;fill:rgb(255, 255, 255);fill-opacity:0.7;fill-rule:nonzero;stroke:none;stroke-dasharray:none;stroke-dashoffset:0px;stroke-linecap:butt;stroke-linejoin:miter;stroke-miterlimit:4;stroke-opacity:1;stroke-width:1px;-webkit-text-fill-color:rgb(34, 34, 34);-webkit-text-stroke-color:rgb(34, 34, 34);-webkit-text-stroke-width:0px;">Etats-Unis</text></g><g class="annotation-group" style="nullanimation-fill-mode:none;display:inline;fill:rgb(0, 0, 0);fill-opacity:1;fill-rule:nonzero;stroke:none;stroke-dasharray:none;stroke-dashoffset:0px;stroke-linecap:butt;stroke-linejoin:miter;stroke-miterlimit:4;stroke-opacity:1;stroke-width:1px;-webkit-text-fill-color:rgb(34, 34, 34);-webkit-text-stroke-color:rgb(34, 34, 34);-webkit-text-stroke-width:0px;"><g class="annotations" style="nullanimation-fill-mode:none;display:inline;fill:rgb(0, 0, 0);fill-opacity:1;fill-rule:nonzero;stroke:none;stroke-dasharray:none;stroke-dashoffset:0px;stroke-linecap:butt;stroke-linejoin:miter;stroke-miterlimit:4;stroke-opacity:1;stroke-width:1px;-webkit-text-fill-color:rgb(34, 34, 34);-webkit-text-stroke-color:rgb(34, 34, 34);-webkit-text-stroke-width:0px;"></g></g></g></svg>