<svg viewBox="0 0 600 400" preserveAspectRatio="xMinYMid" width="1000" height="667" class="sightline-svg"><g class="graphContainer" transform="translate(50,20)" style="nullanimation-fill-mode:none;display:inline;fill:rgb(0, 0, 0);fill-opacity:1;fill-rule:nonzero;stroke:none;stroke-dasharray:none;stroke-dashoffset:0px;stroke-linecap:butt;stroke-linejoin:miter;stroke-miterlimit:4;stroke-opacity:1;stroke-width:1px;-webkit-text-fill-color:rgb(34, 34, 34);-webkit-text-stroke-color:rgb(34, 34, 34);-webkit-text-stroke-width:0px;"><g class="axis axis--x" transform="translate(0,250)" fill="none" font-size="10" font-family="sans-serif" text-anchor="middle" style="nullanimation-fill-mode:none;display:inline;fill:none;fill-opacity:1;fill-rule:nonzero;stroke:none;stroke-dasharray:none;stroke-dashoffset:0px;stroke-linecap:butt;stroke-linejoin:miter;stroke-miterlimit:4;stroke-opacity:1;stroke-width:1px;-webkit-text-fill-color:rgb(34, 34, 34);-webkit-text-stroke-color:rgb(34, 34, 34);-webkit-text-stroke-width:0px;"><path class="domain" stroke="black" d="M0.5,6V0.5H470.5V6" style="nullanimation-fill-mode:none;display:none;fill:none;fill-opacity:0.8;fill-rule:nonzero;stroke:rgb(0, 0, 0);stroke-dasharray:none;stroke-dashoffset:0px;stroke-linecap:butt;stroke-linejoin:miter;stroke-miterlimit:4;stroke-opacity:1;stroke-width:0.5px;-webkit-text-fill-color:rgb(34, 34, 34);-webkit-text-stroke-color:rgb(34, 34, 34);-webkit-text-stroke-width:0px;"></path><g class="tick" opacity="1" transform="translate(19.285501770525315,0)" style="nullanimation-fill-mode:none;display:inline;fill:none;fill-opacity:1;fill-rule:nonzero;stroke:none;stroke-dasharray:none;stroke-dashoffset:0px;stroke-linecap:butt;stroke-linejoin:miter;stroke-miterlimit:4;stroke-opacity:1;stroke-width:1px;-webkit-text-fill-color:rgb(34, 34, 34);-webkit-text-stroke-color:rgb(34, 34, 34);-webkit-text-stroke-width:0px;"><line stroke="black" y2="6" y1="0" style="nullanimation-fill-mode:none;display:inline;fill:none;fill-opacity:1;fill-rule:nonzero;stroke:rgb(0, 0, 0);stroke-dasharray:none;stroke-dashoffset:0px;stroke-linecap:butt;stroke-linejoin:miter;stroke-miterlimit:4;stroke-opacity:1;stroke-width:1px;-webkit-text-fill-color:rgb(34, 34, 34);-webkit-text-stroke-color:rgb(34, 34, 34);-webkit-text-stroke-width:0px;"></line><text fill="#000" y="9" dy="0.71em" style="nullanimation-fill-mode:none;display:block;fill:rgb(0, 0, 0);fill-opacity:1;fill-rule:nonzero;stroke:none;stroke-dasharray:none;stroke-dashoffset:0px;stroke-linecap:butt;stroke-linejoin:miter;stroke-miterlimit:4;stroke-opacity:1;stroke-width:1px;-webkit-text-fill-color:rgb(34, 34, 34);-webkit-text-stroke-color:rgb(34, 34, 34);-webkit-text-stroke-width:0px;">1996</text></g><g class="tick" opacity="1" transform="translate(56.91226773263243,0)" style="nullanimation-fill-mode:none;display:inline;fill:none;fill-opacity:1;fill-rule:nonzero;stroke:none;stroke-dasharray:none;stroke-dashoffset:0px;stroke-linecap:butt;stroke-linejoin:miter;stroke-miterlimit:4;stroke-opacity:1;stroke-width:1px;-webkit-text-fill-color:rgb(34, 34, 34);-webkit-text-stroke-color:rgb(34, 34, 34);-webkit-text-stroke-width:0px;"><line stroke="black" y2="6" y1="0" style="nullanimation-fill-mode:none;display:inline;fill:none;fill-opacity:1;fill-rule:nonzero;stroke:rgb(0, 0, 0);stroke-dasharray:none;stroke-dashoffset:0px;stroke-linecap:butt;stroke-linejoin:miter;stroke-miterlimit:4;stroke-opacity:1;stroke-width:1px;-webkit-text-fill-color:rgb(34, 34, 34);-webkit-text-stroke-color:rgb(34, 34, 34);-webkit-text-stroke-width:0px;"></line><text fill="#000" y="9" dy="0.71em" style="nullanimation-fill-mode:none;display:block;fill:rgb(0, 0, 0);fill-opacity:1;fill-rule:nonzero;stroke:none;stroke-dasharray:none;stroke-dashoffset:0px;stroke-linecap:butt;stroke-linejoin:miter;stroke-miterlimit:4;stroke-opacity:1;stroke-width:1px;-webkit-text-fill-color:rgb(34, 34, 34);-webkit-text-stroke-color:rgb(34, 34, 34);-webkit-text-stroke-width:0px;">1998</text></g><g class="tick" opacity="1" transform="translate(94.4875606906874,0)" style="nullanimation-fill-mode:none;display:inline;fill:none;fill-opacity:1;fill-rule:nonzero;stroke:none;stroke-dasharray:none;stroke-dashoffset:0px;stroke-linecap:butt;stroke-linejoin:miter;stroke-miterlimit:4;stroke-opacity:1;stroke-width:1px;-webkit-text-fill-color:rgb(34, 34, 34);-webkit-text-stroke-color:rgb(34, 34, 34);-webkit-text-stroke-width:0px;"><line stroke="black" y2="6" y1="0" style="nullanimation-fill-mode:none;display:inline;fill:none;fill-opacity:1;fill-rule:nonzero;stroke:rgb(0, 0, 0);stroke-dasharray:none;stroke-dashoffset:0px;stroke-linecap:butt;stroke-linejoin:miter;stroke-miterlimit:4;stroke-opacity:1;stroke-width:1px;-webkit-text-fill-color:rgb(34, 34, 34);-webkit-text-stroke-color:rgb(34, 34, 34);-webkit-text-stroke-width:0px;"></line><text fill="#000" y="9" dy="0.71em" style="nullanimation-fill-mode:none;display:block;fill:rgb(0, 0, 0);fill-opacity:1;fill-rule:nonzero;stroke:none;stroke-dasharray:none;stroke-dashoffset:0px;stroke-linecap:butt;stroke-linejoin:miter;stroke-miterlimit:4;stroke-opacity:1;stroke-width:1px;-webkit-text-fill-color:rgb(34, 34, 34);-webkit-text-stroke-color:rgb(34, 34, 34);-webkit-text-stroke-width:0px;">2000</text></g><g class="tick" opacity="1" transform="translate(132.11432665279452,0)" style="nullanimation-fill-mode:none;display:inline;fill:none;fill-opacity:1;fill-rule:nonzero;stroke:none;stroke-dasharray:none;stroke-dashoffset:0px;stroke-linecap:butt;stroke-linejoin:miter;stroke-miterlimit:4;stroke-opacity:1;stroke-width:1px;-webkit-text-fill-color:rgb(34, 34, 34);-webkit-text-stroke-color:rgb(34, 34, 34);-webkit-text-stroke-width:0px;"><line stroke="black" y2="6" y1="0" style="nullanimation-fill-mode:none;display:inline;fill:none;fill-opacity:1;fill-rule:nonzero;stroke:rgb(0, 0, 0);stroke-dasharray:none;stroke-dashoffset:0px;stroke-linecap:butt;stroke-linejoin:miter;stroke-miterlimit:4;stroke-opacity:1;stroke-width:1px;-webkit-text-fill-color:rgb(34, 34, 34);-webkit-text-stroke-color:rgb(34, 34, 34);-webkit-text-stroke-width:0px;"></line><text fill="#000" y="9" dy="0.71em" style="nullanimation-fill-mode:none;display:block;fill:rgb(0, 0, 0);fill-opacity:1;fill-rule:nonzero;stroke:none;stroke-dasharray:none;stroke-dashoffset:0px;stroke-linecap:butt;stroke-linejoin:miter;stroke-miterlimit:4;stroke-opacity:1;stroke-width:1px;-webkit-text-fill-color:rgb(34, 34, 34);-webkit-text-stroke-color:rgb(34, 34, 34);-webkit-text-stroke-width:0px;">2002</text></g><g class="tick" opacity="1" transform="translate(169.6896196108495,0)" style="nullanimation-fill-mode:none;display:inline;fill:none;fill-opacity:1;fill-rule:nonzero;stroke:none;stroke-dasharray:none;stroke-dashoffset:0px;stroke-linecap:butt;stroke-linejoin:miter;stroke-miterlimit:4;stroke-opacity:1;stroke-width:1px;-webkit-text-fill-color:rgb(34, 34, 34);-webkit-text-stroke-color:rgb(34, 34, 34);-webkit-text-stroke-width:0px;"><line stroke="black" y2="6" y1="0" style="nullanimation-fill-mode:none;display:inline;fill:none;fill-opacity:1;fill-rule:nonzero;stroke:rgb(0, 0, 0);stroke-dasharray:none;stroke-dashoffset:0px;stroke-linecap:butt;stroke-linejoin:miter;stroke-miterlimit:4;stroke-opacity:1;stroke-width:1px;-webkit-text-fill-color:rgb(34, 34, 34);-webkit-text-stroke-color:rgb(34, 34, 34);-webkit-text-stroke-width:0px;"></line><text fill="#000" y="9" dy="0.71em" style="nullanimation-fill-mode:none;display:block;fill:rgb(0, 0, 0);fill-opacity:1;fill-rule:nonzero;stroke:none;stroke-dasharray:none;stroke-dashoffset:0px;stroke-linecap:butt;stroke-linejoin:miter;stroke-miterlimit:4;stroke-opacity:1;stroke-width:1px;-webkit-text-fill-color:rgb(34, 34, 34);-webkit-text-stroke-color:rgb(34, 34, 34);-webkit-text-stroke-width:0px;">2004</text></g><g class="tick" opacity="1" transform="translate(207.31638557295662,0)" style="nullanimation-fill-mode:none;display:inline;fill:none;fill-opacity:1;fill-rule:nonzero;stroke:none;stroke-dasharray:none;stroke-dashoffset:0px;stroke-linecap:butt;stroke-linejoin:miter;stroke-miterlimit:4;stroke-opacity:1;stroke-width:1px;-webkit-text-fill-color:rgb(34, 34, 34);-webkit-text-stroke-color:rgb(34, 34, 34);-webkit-text-stroke-width:0px;"><line stroke="black" y2="6" y1="0" style="nullanimation-fill-mode:none;display:inline;fill:none;fill-opacity:1;fill-rule:nonzero;stroke:rgb(0, 0, 0);stroke-dasharray:none;stroke-dashoffset:0px;stroke-linecap:butt;stroke-linejoin:miter;stroke-miterlimit:4;stroke-opacity:1;stroke-width:1px;-webkit-text-fill-color:rgb(34, 34, 34);-webkit-text-stroke-color:rgb(34, 34, 34);-webkit-text-stroke-width:0px;"></line><text fill="#000" y="9" dy="0.71em" style="nullanimation-fill-mode:none;display:block;fill:rgb(0, 0, 0);fill-opacity:1;fill-rule:nonzero;stroke:none;stroke-dasharray:none;stroke-dashoffset:0px;stroke-linecap:butt;stroke-linejoin:miter;stroke-miterlimit:4;stroke-opacity:1;stroke-width:1px;-webkit-text-fill-color:rgb(34, 34, 34);-webkit-text-stroke-color:rgb(34, 34, 34);-webkit-text-stroke-width:0px;">2006</text></g><g class="tick" opacity="1" transform="translate(244.89167853101156,0)" style="nullanimation-fill-mode:none;display:inline;fill:none;fill-opacity:1;fill-rule:nonzero;stroke:none;stroke-dasharray:none;stroke-dashoffset:0px;stroke-linecap:butt;stroke-linejoin:miter;stroke-miterlimit:4;stroke-opacity:1;stroke-width:1px;-webkit-text-fill-color:rgb(34, 34, 34);-webkit-text-stroke-color:rgb(34, 34, 34);-webkit-text-stroke-width:0px;"><line stroke="black" y2="6" y1="0" style="nullanimation-fill-mode:none;display:inline;fill:none;fill-opacity:1;fill-rule:nonzero;stroke:rgb(0, 0, 0);stroke-dasharray:none;stroke-dashoffset:0px;stroke-linecap:butt;stroke-linejoin:miter;stroke-miterlimit:4;stroke-opacity:1;stroke-width:1px;-webkit-text-fill-color:rgb(34, 34, 34);-webkit-text-stroke-color:rgb(34, 34, 34);-webkit-text-stroke-width:0px;"></line><text fill="#000" y="9" dy="0.71em" style="nullanimation-fill-mode:none;display:block;fill:rgb(0, 0, 0);fill-opacity:1;fill-rule:nonzero;stroke:none;stroke-dasharray:none;stroke-dashoffset:0px;stroke-linecap:butt;stroke-linejoin:miter;stroke-miterlimit:4;stroke-opacity:1;stroke-width:1px;-webkit-text-fill-color:rgb(34, 34, 34);-webkit-text-stroke-color:rgb(34, 34, 34);-webkit-text-stroke-width:0px;">2008</text></g><g class="tick" opacity="1" transform="translate(282.5184444931187,0)" style="nullanimation-fill-mode:none;display:inline;fill:none;fill-opacity:1;fill-rule:nonzero;stroke:none;stroke-dasharray:none;stroke-dashoffset:0px;stroke-linecap:butt;stroke-linejoin:miter;stroke-miterlimit:4;stroke-opacity:1;stroke-width:1px;-webkit-text-fill-color:rgb(34, 34, 34);-webkit-text-stroke-color:rgb(34, 34, 34);-webkit-text-stroke-width:0px;"><line stroke="black" y2="6" y1="0" style="nullanimation-fill-mode:none;display:inline;fill:none;fill-opacity:1;fill-rule:nonzero;stroke:rgb(0, 0, 0);stroke-dasharray:none;stroke-dashoffset:0px;stroke-linecap:butt;stroke-linejoin:miter;stroke-miterlimit:4;stroke-opacity:1;stroke-width:1px;-webkit-text-fill-color:rgb(34, 34, 34);-webkit-text-stroke-color:rgb(34, 34, 34);-webkit-text-stroke-width:0px;"></line><text fill="#000" y="9" dy="0.71em" style="nullanimation-fill-mode:none;display:block;fill:rgb(0, 0, 0);fill-opacity:1;fill-rule:nonzero;stroke:none;stroke-dasharray:none;stroke-dashoffset:0px;stroke-linecap:butt;stroke-linejoin:miter;stroke-miterlimit:4;stroke-opacity:1;stroke-width:1px;-webkit-text-fill-color:rgb(34, 34, 34);-webkit-text-stroke-color:rgb(34, 34, 34);-webkit-text-stroke-width:0px;">2010</text></g><g class="tick" opacity="1" transform="translate(320.09373745117364,0)" style="nullanimation-fill-mode:none;display:inline;fill:none;fill-opacity:1;fill-rule:nonzero;stroke:none;stroke-dasharray:none;stroke-dashoffset:0px;stroke-linecap:butt;stroke-linejoin:miter;stroke-miterlimit:4;stroke-opacity:1;stroke-width:1px;-webkit-text-fill-color:rgb(34, 34, 34);-webkit-text-stroke-color:rgb(34, 34, 34);-webkit-text-stroke-width:0px;"><line stroke="black" y2="6" y1="0" style="nullanimation-fill-mode:none;display:inline;fill:none;fill-opacity:1;fill-rule:nonzero;stroke:rgb(0, 0, 0);stroke-dasharray:none;stroke-dashoffset:0px;stroke-linecap:butt;stroke-linejoin:miter;stroke-miterlimit:4;stroke-opacity:1;stroke-width:1px;-webkit-text-fill-color:rgb(34, 34, 34);-webkit-text-stroke-color:rgb(34, 34, 34);-webkit-text-stroke-width:0px;"></line><text fill="#000" y="9" dy="0.71em" style="nullanimation-fill-mode:none;display:block;fill:rgb(0, 0, 0);fill-opacity:1;fill-rule:nonzero;stroke:none;stroke-dasharray:none;stroke-dashoffset:0px;stroke-linecap:butt;stroke-linejoin:miter;stroke-miterlimit:4;stroke-opacity:1;stroke-width:1px;-webkit-text-fill-color:rgb(34, 34, 34);-webkit-text-stroke-color:rgb(34, 34, 34);-webkit-text-stroke-width:0px;">2012</text></g><g class="tick" opacity="1" transform="translate(357.72050341328077,0)" style="nullanimation-fill-mode:none;display:inline;fill:none;fill-opacity:1;fill-rule:nonzero;stroke:none;stroke-dasharray:none;stroke-dashoffset:0px;stroke-linecap:butt;stroke-linejoin:miter;stroke-miterlimit:4;stroke-opacity:1;stroke-width:1px;-webkit-text-fill-color:rgb(34, 34, 34);-webkit-text-stroke-color:rgb(34, 34, 34);-webkit-text-stroke-width:0px;"><line stroke="black" y2="6" y1="0" style="nullanimation-fill-mode:none;display:inline;fill:none;fill-opacity:1;fill-rule:nonzero;stroke:rgb(0, 0, 0);stroke-dasharray:none;stroke-dashoffset:0px;stroke-linecap:butt;stroke-linejoin:miter;stroke-miterlimit:4;stroke-opacity:1;stroke-width:1px;-webkit-text-fill-color:rgb(34, 34, 34);-webkit-text-stroke-color:rgb(34, 34, 34);-webkit-text-stroke-width:0px;"></line><text fill="#000" y="9" dy="0.71em" style="nullanimation-fill-mode:none;display:block;fill:rgb(0, 0, 0);fill-opacity:1;fill-rule:nonzero;stroke:none;stroke-dasharray:none;stroke-dashoffset:0px;stroke-linecap:butt;stroke-linejoin:miter;stroke-miterlimit:4;stroke-opacity:1;stroke-width:1px;-webkit-text-fill-color:rgb(34, 34, 34);-webkit-text-stroke-color:rgb(34, 34, 34);-webkit-text-stroke-width:0px;">2014</text></g><g class="tick" opacity="1" transform="translate(395.2957963713357,0)" style="nullanimation-fill-mode:none;display:inline;fill:none;fill-opacity:1;fill-rule:nonzero;stroke:none;stroke-dasharray:none;stroke-dashoffset:0px;stroke-linecap:butt;stroke-linejoin:miter;stroke-miterlimit:4;stroke-opacity:1;stroke-width:1px;-webkit-text-fill-color:rgb(34, 34, 34);-webkit-text-stroke-color:rgb(34, 34, 34);-webkit-text-stroke-width:0px;"><line stroke="black" y2="6" y1="0" style="nullanimation-fill-mode:none;display:inline;fill:none;fill-opacity:1;fill-rule:nonzero;stroke:rgb(0, 0, 0);stroke-dasharray:none;stroke-dashoffset:0px;stroke-linecap:butt;stroke-linejoin:miter;stroke-miterlimit:4;stroke-opacity:1;stroke-width:1px;-webkit-text-fill-color:rgb(34, 34, 34);-webkit-text-stroke-color:rgb(34, 34, 34);-webkit-text-stroke-width:0px;"></line><text fill="#000" y="9" dy="0.71em" style="nullanimation-fill-mode:none;display:block;fill:rgb(0, 0, 0);fill-opacity:1;fill-rule:nonzero;stroke:none;stroke-dasharray:none;stroke-dashoffset:0px;stroke-linecap:butt;stroke-linejoin:miter;stroke-miterlimit:4;stroke-opacity:1;stroke-width:1px;-webkit-text-fill-color:rgb(34, 34, 34);-webkit-text-stroke-color:rgb(34, 34, 34);-webkit-text-stroke-width:0px;">2016</text></g><g class="tick" opacity="1" transform="translate(432.92256233344284,0)" style="nullanimation-fill-mode:none;display:inline;fill:none;fill-opacity:1;fill-rule:nonzero;stroke:none;stroke-dasharray:none;stroke-dashoffset:0px;stroke-linecap:butt;stroke-linejoin:miter;stroke-miterlimit:4;stroke-opacity:1;stroke-width:1px;-webkit-text-fill-color:rgb(34, 34, 34);-webkit-text-stroke-color:rgb(34, 34, 34);-webkit-text-stroke-width:0px;"><line stroke="black" y2="6" y1="0" style="nullanimation-fill-mode:none;display:inline;fill:none;fill-opacity:1;fill-rule:nonzero;stroke:rgb(0, 0, 0);stroke-dasharray:none;stroke-dashoffset:0px;stroke-linecap:butt;stroke-linejoin:miter;stroke-miterlimit:4;stroke-opacity:1;stroke-width:1px;-webkit-text-fill-color:rgb(34, 34, 34);-webkit-text-stroke-color:rgb(34, 34, 34);-webkit-text-stroke-width:0px;"></line><text fill="#000" y="9" dy="0.71em" style="nullanimation-fill-mode:none;display:block;fill:rgb(0, 0, 0);fill-opacity:1;fill-rule:nonzero;stroke:none;stroke-dasharray:none;stroke-dashoffset:0px;stroke-linecap:butt;stroke-linejoin:miter;stroke-miterlimit:4;stroke-opacity:1;stroke-width:1px;-webkit-text-fill-color:rgb(34, 34, 34);-webkit-text-stroke-color:rgb(34, 34, 34);-webkit-text-stroke-width:0px;">2018</text></g><g class="tick" opacity="1" transform="translate(470.49785529149784,0)" style="nullanimation-fill-mode:none;display:inline;fill:none;fill-opacity:1;fill-rule:nonzero;stroke:none;stroke-dasharray:none;stroke-dashoffset:0px;stroke-linecap:butt;stroke-linejoin:miter;stroke-miterlimit:4;stroke-opacity:1;stroke-width:1px;-webkit-text-fill-color:rgb(34, 34, 34);-webkit-text-stroke-color:rgb(34, 34, 34);-webkit-text-stroke-width:0px;"><line stroke="black" y2="6" y1="0" style="nullanimation-fill-mode:none;display:inline;fill:none;fill-opacity:1;fill-rule:nonzero;stroke:rgb(0, 0, 0);stroke-dasharray:none;stroke-dashoffset:0px;stroke-linecap:butt;stroke-linejoin:miter;stroke-miterlimit:4;stroke-opacity:1;stroke-width:1px;-webkit-text-fill-color:rgb(34, 34, 34);-webkit-text-stroke-color:rgb(34, 34, 34);-webkit-text-stroke-width:0px;"></line><text fill="#000" y="9" dy="0.71em" style="nullanimation-fill-mode:none;display:block;fill:rgb(0, 0, 0);fill-opacity:1;fill-rule:nonzero;stroke:none;stroke-dasharray:none;stroke-dashoffset:0px;stroke-linecap:butt;stroke-linejoin:miter;stroke-miterlimit:4;stroke-opacity:1;stroke-width:1px;-webkit-text-fill-color:rgb(34, 34, 34);-webkit-text-stroke-color:rgb(34, 34, 34);-webkit-text-stroke-width:0px;">2020</text></g></g><g class="axis axis--y" transform="translate(0,0)" style="nullanimation-fill-mode:none;display:inline;fill:rgb(0, 0, 0);fill-opacity:1;fill-rule:nonzero;stroke:none;stroke-dasharray:none;stroke-dashoffset:0px;stroke-linecap:butt;stroke-linejoin:miter;stroke-miterlimit:4;stroke-opacity:1;stroke-width:1px;-webkit-text-fill-color:rgb(34, 34, 34);-webkit-text-stroke-color:rgb(34, 34, 34);-webkit-text-stroke-width:0px;"></g><g class="innerGraph" style="nullanimation-fill-mode:none;display:inline;fill:rgb(0, 0, 0);fill-opacity:1;fill-rule:nonzero;stroke:none;stroke-dasharray:none;stroke-dashoffset:0px;stroke-linecap:butt;stroke-linejoin:miter;stroke-miterlimit:4;stroke-opacity:1;stroke-width:1px;-webkit-text-fill-color:rgb(34, 34, 34);-webkit-text-stroke-color:rgb(34, 34, 34);-webkit-text-stroke-width:0px;"><path fill="#8c564b" stroke="#8c564b" d="M0,128.50460936057226L3.1312744131712478,128.09223259873076C6.2625488263424955,127.67985583688927,12.525097652684991,126.8551023132063,18.796225313036174,125.99182968517528C25.067352973387358,125.12855705714428,31.347059467747233,124.22676532476525,37.61818712809842,123.42844580948707C43.88931478844961,122.63012629420888,50.1518636147921,121.93527899603156,56.4144124411346,121.09942965345601C62.67696126747709,120.26358031088047,68.93951009381959,119.28672892390672,75.20205892016209,118.27960419376608C81.46460774650458,117.2724794636254,87.72715657284708,116.23508139031782,93.99828423319826,115.40188524901738C100.26941189354945,114.56868910771693,106.54911838790933,113.93969489842364,112.82024604826051,113.24113068868685C119.0913737086117,112.54256647895006,125.35392253495418,111.77443226876977,131.61647136129668,111.08541910210857C137.87902018763918,110.39640593544736,144.14156901398167,109.78651381230524,150.40411784032418,108.57190579211277C156.66666666666666,107.35729777192029,162.9292154930092,105.53797385467745,169.20034315336036,103.47103189387387C175.47147081371153,101.40408993307028,181.75117730807142,99.08952992870593,188.02230496842262,96.07676534553622C194.2934326287738,93.0640007623665,200.55598145511627,89.35303160039145,206.81853028145875,85.3555945563042C213.0810791078013,81.35815751221693,219.3436279341438,77.07425258601748,225.60617676048628,74.27813817639337C231.86872558682876,71.48202376676927,238.13127441317124,70.17369987372051,244.40240207352244,68.75206711668301C250.6735297338736,67.33043435964551,256.9532362282335,65.79549273861925,263.22436388858466,64.55803270898407C269.49549154893583,63.32057267934891,275.75804037527837,62.38059424110483,282.02058920162085,62.05364409301569C288.28313802796333,61.72669394492655,294.54568685430587,62.012772086992356,300.80823568064835,60.851763379545865C307.07078450699083,59.69075467209938,313.3333333333333,57.08265911514059,319.6044609936845,56.26568942686688C325.8755886540357,55.448719738593155,332.1552951483956,56.4228759190045,338.42642280874674,56.174537206710454C344.69755046909796,55.92619849441641,350.96009929544044,54.455364889416984,357.2226481217829,52.68770794277426C363.4851969481254,50.92005099613155,369.7477457744679,48.855570707845544,376.01029460081037,47.16497001292898C382.27284342715296,45.47436931801241,388.53539225349544,44.157648216465276,394.8065199138466,41.89962336736007C401.0776475741978,39.641598518254874,407.3573540685577,36.442269921591596,413.62848172890887,32.937303295000795C419.89960938926,29.432336668409988,426.16215821560246,25.621732011891652,432.42470704194506,22.921201098506916C438.68725586828754,20.220670185122184,444.9498046946301,18.63021301487105,451.21235352097256,17.013388712684122C457.47490234731504,15.396564410497197,463.7374511736575,13.753372976374473,466.86872558682876,12.931777259313114L470,12.110181542251752L470,69.05207182475925L466.86872558682876,68.56620427171542C463.7374511736575,68.0803367186716,457.47490234731504,67.10860161258394,451.21235352097256,66.47820397458024C444.9498046946301,65.84780633657654,438.68725586828754,65.5587461666568,432.42470704194506,66.08325460863817C426.16215821560246,66.60776305061954,419.89960938926,67.94584010450204,413.62848172890887,68.9534146885078C407.3573540685577,69.96098927251357,401.0776475741978,70.63806138664263,394.8065199138466,71.43313387603955C388.53539225349544,72.22820636543646,382.27284342715296,73.14127923010123,376.0102946008105,73.91624834467267C369.7477457744679,74.69121745924409,363.4851969481254,75.32808282372216,357.2226481217829,75.95724481798972C350.96009929544044,76.58640681225728,344.69755046909796,77.20786543631434,338.42642280874674,76.95900569688352C332.1552951483956,76.71014595745271,325.8755886540357,75.59096785453403,319.6044609936845,76.24186908064233C313.3333333333333,76.89277030675062,307.07078450699083,79.31375086188588,300.80823568064835,80.0983889185374C294.54568685430587,80.8830269751889,288.28313802796333,80.03132253335664,282.02058920162085,79.76332432455824C275.75804037527837,79.49532611575981,269.49549154893583,79.81103413999523,263.22436388858466,80.53451590040481C256.9532362282335,81.25799766081441,250.6735297338736,82.38925315739816,244.40240207352244,83.25178647551037C238.13127441317124,84.11431979362256,231.86872558682876,84.7081309332632,225.60617676048628,86.61443267756412C219.3436279341438,88.52073442186504,213.0810791078013,91.73952677082623,206.81853028145875,94.80972989788222C200.55598145511627,97.87993302493821,194.2934326287738,100.80154693008899,188.02230496842262,103.30956469378275C181.75117730807142,105.81758245747652,175.47147081371153,107.91200407971327,169.20034315336036,109.59421389664162C162.9292154930092,111.27642371356997,156.66666666666666,112.54642172518993,150.40411784032418,113.14001037547656C144.14156901398167,113.73359902576323,137.87902018763918,113.65077831471659,131.61647136129668,113.82295853021701C125.35392253495418,113.99513874571743,119.0913737086117,114.4223198877649,112.82024604826051,114.90231950633377C106.54911838790933,115.38231912490265,100.26941189354945,115.91513721999293,93.99828423319826,116.66324518728688C87.72715657284708,117.41135315458082,81.46460774650458,118.37475099407845,75.20205892016209,119.30884162319275C68.93951009381959,120.24293225230703,62.67696126747709,121.14771567103799,56.4144124411346,121.95872243187212C50.1518636147921,122.76972919270624,43.88931478844961,123.48695929564354,37.61818712809842,124.29414595720847C31.347059467747233,125.10133261877341,25.067352973387358,125.99847583896597,18.796225313036174,126.83904070354811C12.525097652684991,127.67960556813023,6.2625488263424955,128.46359207710194,3.1312744131712478,128.85558533158783L0,129.24757858607367Z" style="nullanimation-fill-mode:none;display:inline;fill:rgb(140, 86, 75);fill-opacity:0.8;fill-rule:nonzero;stroke:rgb(140, 86, 75);stroke-dasharray:none;stroke-dashoffset:0px;stroke-linecap:butt;stroke-linejoin:miter;stroke-miterlimit:4;stroke-opacity:1;stroke-width:0.5px;-webkit-text-fill-color:rgb(34, 34, 34);-webkit-text-stroke-color:rgb(34, 34, 34);-webkit-text-stroke-width:0px;"><title style="nullanimation-fill-mode:none;display:inline;fill:rgb(140, 86, 75);fill-opacity:0.8;fill-rule:nonzero;stroke:rgb(140, 86, 75);stroke-dasharray:none;stroke-dashoffset:0px;stroke-linecap:butt;stroke-linejoin:miter;stroke-miterlimit:4;stroke-opacity:1;stroke-width:0.5px;-webkit-text-fill-color:rgb(34, 34, 34);-webkit-text-stroke-color:rgb(34, 34, 34);-webkit-text-stroke-width:0px;">Chine</title></path><path fill="#d62728" stroke="#d62728" d="M0,133.09871501068943L3.1312744131712478,132.76555822267417C6.2625488263424955,132.43240143465897,12.525097652684991,131.7660878586285,18.796225313036174,131.03649420048427C25.067352973387358,130.30690054234006,31.347059467747233,129.5140268020821,37.61818712809842,128.8616865988117C43.88931478844961,128.20934639554136,50.1518636147921,127.69753972925857,56.4144124411346,127.1943111060126C62.67696126747709,126.69108248276665,68.93951009381959,126.19643190255749,75.20205892016209,125.54017366638179C81.46460774650458,124.88391543020607,87.72715657284708,124.06604953806384,93.99828423319826,123.46101811278538C100.26941189354945,122.85598668750696,106.54911838790933,122.4637897290923,112.82024604826051,122.209111802321C119.0913737086117,121.95443387554974,125.35392253495418,121.83727498042181,131.61647136129668,121.76752232654762C137.87902018763918,121.6977696726734,144.14156901398167,121.67542326005288,150.40411784032418,121.3152292663015C156.66666666666666,120.95503527255009,162.9292154930092,120.25699369766777,169.20034315336036,119.37060479542309C175.47147081371153,118.48421589317839,181.75117730807142,117.40947966357135,188.02230496842262,116.77234233355024C194.2934326287738,116.13520500352915,200.55598145511627,115.93566657309401,206.81853028145875,114.79845762013348C213.0810791078013,113.66124866717293,219.3436279341438,111.58636919168698,225.60617676048628,110.5145045291361C231.86872558682876,109.4426398665852,238.13127441317124,109.37379001696934,244.40240207352244,109.15825964895015C250.6735297338736,108.94272928093096,256.9532362282335,108.58051839450845,263.22436388858466,108.24360923906863C269.49549154893583,107.90670008362882,275.75804037527837,107.5950926591717,282.02058920162085,108.19370646103994C288.28313802796333,108.79232026290818,294.54568685430587,110.3011552911018,300.80823568064835,110.3413002744337C307.07078450699083,110.38144525776563,313.3333333333333,108.95290019623587,319.6044609936845,108.24352680711986C325.8755886540357,107.53415341800384,332.1552951483956,107.54395170130157,338.42642280874674,107.36927077756236C344.69755046909796,107.19458985382317,350.96009929544044,106.83542972304707,357.2226481217829,107.08222229037436C363.4851969481254,107.32901485770162,369.7477457744679,108.18176012313229,376.01029460081037,108.01922301723947C382.27284342715296,107.85668591134662,388.53539225349544,106.67886643413026,394.8065199138466,105.91909057864585C401.0776475741978,105.15931472316144,407.3573540685577,104.81758248940896,413.62848172890887,105.04326547454535C419.89960938926,105.26894845968172,426.16215821560246,106.06204666370697,432.42470704194506,106.81305644977687C438.68725586828754,107.56406623584677,444.9498046946301,108.27298760396131,451.21235352097256,108.25181101201964C457.47490234731504,108.23063442007799,463.7374511736575,107.47935986808012,466.86872558682876,107.10372259208118L470,106.72808531608226L470,151.60247002119482L466.86872558682876,151.7303445120821C463.7374511736575,151.85821900296943,457.47490234731504,152.11396798474402,451.21235352097256,151.95017750807938C444.9498046946301,151.7863870314147,438.68725586828754,151.2030570963108,432.42470704194506,150.36684547355398C426.16215821560246,149.53063385079716,419.89960938926,148.44154054038748,413.62848172890887,147.3013203425085C407.3573540685577,146.16110014462947,401.0776475741978,144.96975305928115,394.8065199138466,144.54135317054912C388.53539225349544,144.11295328181714,382.27284342715296,144.44750058970143,376.0102946008105,144.06722407867403C369.7477457744679,143.6869475676466,363.4851969481254,142.59184723770744,357.2226481217829,141.97797230067502C350.96009929544044,141.3640973636426,344.69755046909796,141.23144781951694,338.42642280874674,140.9013367501508C332.1552951483956,140.57122568078464,325.8755886540357,140.043653086178,319.6044609936845,140.13943598160347C313.3333333333333,140.23521887702893,307.07078450699083,140.95435726248644,300.80823568064835,140.91571029499391C294.54568685430587,140.87706332750142,288.28313802796333,140.08063100705886,282.02058920162085,139.44223963868455C275.75804037527837,138.80384827031025,269.49549154893583,138.3234978540042,263.22436388858466,137.99552695982004C256.9532362282335,137.66755606563592,250.6735297338736,137.4919646935737,244.40240207352244,137.12987297740037C238.13127441317124,136.76778126122707,231.86872558682876,136.21918920094268,225.60617676048628,135.783201830591C219.3436279341438,135.34721446023931,213.0810791078013,135.02383177982037,206.81853028145875,134.67556713299675C200.55598145511627,134.32730248617312,194.2934326287738,133.95415587294482,188.02230496842262,133.80572670215568C181.75117730807142,133.65729753136654,175.47147081371153,133.73358580301655,169.20034315336036,133.63237279000134C162.9292154930092,133.53115977698613,156.66666666666666,133.25244547930575,150.40411784032418,133.2919431346749C144.14156901398167,133.33144079004407,137.87902018763918,133.68915039846277,131.61647136129668,133.6330886656071C125.35392253495418,133.5770269327514,119.0913737086117,133.1071938586213,112.82024604826051,132.92014946499663C106.54911838790933,132.73310507137197,100.26941189354945,132.8288493582528,93.99828423319826,132.88226850937528C87.72715657284708,132.93568766049773,81.46460774650458,132.94678167586184,75.20205892016209,133.06318589644977C68.93951009381959,133.17959011703772,62.67696126747709,133.40130454284954,56.4144124411346,133.52127863706573C50.1518636147921,133.64125273128195,43.88931478844961,133.65948649390256,37.61818712809842,133.8369789915033C31.347059467747233,134.01447148910407,25.067352973387358,134.35122272168496,18.796225313036174,134.71633076520754C12.525097652684991,135.0814388087301,6.2625488263424955,135.47490366319434,3.1312744131712478,135.67163609042643L0,135.86836851765855Z" style="nullanimation-fill-mode:none;display:inline;fill:rgb(214, 39, 40);fill-opacity:0.8;fill-rule:nonzero;stroke:rgb(214, 39, 40);stroke-dasharray:none;stroke-dashoffset:0px;stroke-linecap:butt;stroke-linejoin:miter;stroke-miterlimit:4;stroke-opacity:1;stroke-width:0.5px;-webkit-text-fill-color:rgb(34, 34, 34);-webkit-text-stroke-color:rgb(34, 34, 34);-webkit-text-stroke-width:0px;"><title style="nullanimation-fill-mode:none;display:inline;fill:rgb(214, 39, 40);fill-opacity:0.8;fill-rule:nonzero;stroke:rgb(214, 39, 40);stroke-dasharray:none;stroke-dashoffset:0px;stroke-linecap:butt;stroke-linejoin:miter;stroke-miterlimit:4;stroke-opacity:1;stroke-width:0.5px;-webkit-text-fill-color:rgb(34, 34, 34);-webkit-text-stroke-color:rgb(34, 34, 34);-webkit-text-stroke-width:0px;">Taiwan</title></path><path fill="#1f77b4" stroke="#1f77b4" d="M0,165.0508332950693L3.1312744131712478,165.3253958861367C6.2625488263424955,165.59995847720413,12.525097652684991,166.1490836593389,18.796225313036174,166.76334281560108C25.067352973387358,167.3776019718632,31.347059467747233,168.0569951022527,37.61818712809842,168.48581285794012C43.88931478844961,168.91463061362754,50.1518636147921,169.0928729946129,56.4144124411346,169.41366237407829C62.67696126747709,169.7344517535437,68.93951009381959,170.19778813148915,75.20205892016209,170.65361430384291C81.46460774650458,171.10944047619668,87.72715657284708,171.55775644295878,93.99828423319826,171.8676454776659C100.26941189354945,172.177534512373,106.54911838790933,172.3489966150252,112.82024604826051,172.48067271114596C119.0913737086117,172.6123488072667,125.35392253495418,172.70423889685603,131.61647136129668,172.98893311138008C137.87902018763918,173.27362732590407,144.14156901398167,173.75112566536288,150.40411784032418,174.2632490274328C156.66666666666666,174.77537238950276,162.9292154930092,175.32212077418384,169.20034315336036,176.38789715146572C175.47147081371153,177.45367352874766,181.75117730807142,179.03847789863036,188.02230496842262,180.78418248753692C194.2934326287738,182.52988707644354,200.55598145511627,184.43649188437402,206.81853028145875,186.98709191311863C213.0810791078013,189.53769194186324,219.3436279341438,192.732287191422,225.60617676048628,194.28657398738005C231.86872558682876,195.84086078333812,238.13127441317124,195.75483912569544,244.40240207352244,196.3283419702394C250.6735297338736,196.9018448147833,256.9532362282335,198.13487216151373,263.22436388858466,198.98847466409438C269.49549154893583,199.84207716667504,275.75804037527837,200.31625482510586,282.02058920162085,199.31050532068267C288.28313802796333,198.30475581625944,294.54568685430587,195.81907914898218,300.80823568064835,196.48627636756544C307.07078450699083,197.15347358614864,313.3333333333333,200.97354469059235,319.6044609936845,202.16807802988077C325.8755886540357,203.36261136916917,332.1552951483956,201.9316069433023,338.42642280874674,201.74607123358285C344.69755046909796,201.56053552386336,350.96009929544044,202.62046853029128,357.2226481217829,203.17430479942553C363.4851969481254,203.7281410685598,369.7477457744679,203.77588060040043,376.01029460081037,204.84303817578268C382.27284342715296,205.91019575116493,388.53539225349544,207.9967713700888,394.8065199138466,209.71116248282326C401.0776475741978,211.42555359555772,407.3573540685577,212.76776020210272,413.62848172890887,214.34388843710994C419.89960938926,215.92001667211716,426.16215821560246,217.73006653558653,432.42470704194506,218.4933038030849C438.68725586828754,219.25654107058324,444.9498046946301,218.97296574211052,451.21235352097256,219.39560402965563C457.47490234731504,219.81824231720074,463.7374511736575,220.9470942207637,466.86872558682876,221.51152017254518L470,222.07594612432663L470,240L466.86872558682876,239.4068538204181C463.7374511736575,238.8137076408362,457.47490234731504,237.62741528167246,451.21235352097256,237.35904493852283C444.9498046946301,237.0906745953732,438.68725586828754,237.7402262682377,432.42470704194506,237.09713482558672C426.16215821560246,236.45404338293574,419.89960938926,234.51830882476918,413.62848172890887,232.78659532404467C407.3573540685577,231.0548818233202,401.0776475741978,229.52718938003764,394.8065199138466,227.71112991409368C388.53539225349544,225.89507044814968,382.27284342715296,223.79064395954416,376.0102946008105,222.6964448667185C369.7477457744679,221.60224577389283,363.4851969481254,221.518274076847,357.2226481217829,220.9356665774275C350.96009929544044,220.35305907800807,344.69755046909796,219.27181577621494,338.42642280874674,219.31122353811375C332.1552951483956,219.35063130001254,325.8755886540357,220.5106901256033,319.6044609936845,218.56791098945692C313.3333333333333,216.6251318533106,307.07078450699083,211.57951475542723,300.80823568064835,211.04989018214215C294.54568685430587,210.5202656088571,288.28313802796333,214.50663356017037,282.02058920162085,215.59799875001434C275.75804037527837,216.68936393985828,269.49549154893583,214.88572636823292,263.22436388858466,213.52421780654618C256.9532362282335,212.16270924485943,250.6735297338736,211.24332969311118,244.40240207352244,210.64423088726463C238.13127441317124,210.04513208141807,231.86872558682876,209.76631402147314,225.60617676048628,207.936516174242C219.3436279341438,206.1067183270109,213.0810791078013,202.72594069249362,206.81853028145875,199.9523446852585C200.55598145511627,197.17874867802337,194.2934326287738,195.0123342980704,188.02230496842262,193.3204315017773C181.75117730807142,191.6285287054842,175.47147081371153,190.4111374928509,169.20034315336036,189.0607060473774C162.9292154930092,187.71027460190393,156.66666666666666,186.22680292359018,150.40411784032418,185.16017326065506C144.14156901398167,184.09354359771996,137.87902018763918,183.44375595016342,131.61647136129668,183.12731778909696C125.35392253495418,182.81087962803053,119.0913737086117,182.82779095345415,112.82024604826051,182.69971708997448C106.54911838790933,182.57164322649479,100.26941189354945,182.29858417411177,93.99828423319826,181.84226117667515C87.72715657284708,181.38593817923854,81.46460774650458,180.7463512367483,75.20205892016209,180.01748253338602C68.93951009381959,179.2886138300237,62.67696126747709,178.4704633657894,56.4144124411346,177.86942261839184C50.1518636147921,177.26838187099426,43.88931478844961,176.88445084043337,37.61818712809842,176.04392645526448C31.347059467747233,175.20340207009556,25.067352973387358,173.90628433031864,18.796225313036174,172.73464524747604C12.525097652684991,171.56300616463344,6.2625488263424955,170.51684573872515,3.1312744131712478,169.993765525771L0,169.47068531281687Z" style="nullanimation-fill-mode:none;display:inline;fill:rgb(31, 119, 180);fill-opacity:0.8;fill-rule:nonzero;stroke:rgb(31, 119, 180);stroke-dasharray:none;stroke-dashoffset:0px;stroke-linecap:butt;stroke-linejoin:miter;stroke-miterlimit:4;stroke-opacity:1;stroke-width:0.5px;-webkit-text-fill-color:rgb(34, 34, 34);-webkit-text-stroke-color:rgb(34, 34, 34);-webkit-text-stroke-width:0px;"><title style="nullanimation-fill-mode:none;display:inline;fill:rgb(31, 119, 180);fill-opacity:0.8;fill-rule:nonzero;stroke:rgb(31, 119, 180);stroke-dasharray:none;stroke-dashoffset:0px;stroke-linecap:butt;stroke-linejoin:miter;stroke-miterlimit:4;stroke-opacity:1;stroke-width:0.5px;-webkit-text-fill-color:rgb(34, 34, 34);-webkit-text-stroke-color:rgb(34, 34, 34);-webkit-text-stroke-width:0px;">Union européenne</title></path><path fill="#2ca02c" stroke="#2ca02c" d="M0,135.86836851765855L3.1312744131712478,135.67163609042646C6.2625488263424955,135.47490366319434,12.525097652684991,135.0814388087301,18.796225313036174,134.71633076520754C25.067352973387358,134.35122272168496,31.347059467747233,134.01447148910407,37.61818712809842,133.8369789915033C43.88931478844961,133.65948649390256,50.1518636147921,133.64125273128195,56.4144124411346,133.52127863706573C62.67696126747709,133.40130454284954,68.93951009381959,133.17959011703772,75.20205892016209,133.06318589644977C81.46460774650458,132.94678167586184,87.72715657284708,132.93568766049773,93.99828423319826,132.88226850937528C100.26941189354945,132.8288493582528,106.54911838790933,132.73310507137197,112.82024604826051,132.92014946499663C119.0913737086117,133.1071938586213,125.35392253495418,133.5770269327514,131.61647136129668,133.6330886656071C137.87902018763918,133.68915039846277,144.14156901398167,133.33144079004407,150.40411784032418,133.29194313467494C156.66666666666666,133.25244547930575,162.9292154930092,133.53115977698613,169.20034315336036,133.63237279000134C175.47147081371153,133.73358580301655,181.75117730807142,133.65729753136654,188.02230496842262,133.80572670215568C194.2934326287738,133.95415587294482,200.55598145511627,134.32730248617312,206.81853028145875,134.67556713299675C213.0810791078013,135.02383177982037,219.3436279341438,135.34721446023931,225.60617676048628,135.783201830591C231.86872558682876,136.21918920094268,238.13127441317124,136.76778126122707,244.40240207352244,137.12987297740037C250.6735297338736,137.4919646935737,256.9532362282335,137.66755606563592,263.22436388858466,137.99552695982004C269.49549154893583,138.3234978540042,275.75804037527837,138.80384827031025,282.02058920162085,139.44223963868455C288.28313802796333,140.08063100705886,294.54568685430587,140.87706332750142,300.80823568064835,140.91571029499394C307.07078450699083,140.95435726248644,313.3333333333333,140.23521887702893,319.6044609936845,140.13943598160347C325.8755886540357,140.043653086178,332.1552951483956,140.57122568078464,338.42642280874674,140.9013367501508C344.69755046909796,141.23144781951694,350.96009929544044,141.3640973636426,357.2226481217829,141.97797230067502C363.4851969481254,142.59184723770744,369.7477457744679,143.6869475676466,376.01029460081037,144.06722407867403C382.27284342715296,144.44750058970143,388.53539225349544,144.11295328181714,394.8065199138466,144.54135317054912C401.0776475741978,144.96975305928115,407.3573540685577,146.16110014462947,413.62848172890887,147.30132034250846C419.89960938926,148.44154054038748,426.16215821560246,149.53063385079716,432.42470704194506,150.36684547355398C438.68725586828754,151.2030570963108,444.9498046946301,151.7863870314147,451.21235352097256,151.95017750807935C457.47490234731504,152.11396798474402,463.7374511736575,151.85821900296943,466.86872558682876,151.73034451208213L470,151.60247002119482L470,195.9033915304472L466.86872558682876,195.47638667372334C463.7374511736575,195.04938181699944,457.47490234731504,194.1953721035517,451.21235352097256,193.83837838559168C444.9498046946301,193.4813846676317,438.68725586828754,193.62140694515946,432.42470704194506,192.95652286935834C426.16215821560246,192.29163879355724,419.89960938926,190.8218483644273,413.62848172890887,189.4621819610002C407.3573540685577,188.10251555757313,401.0776475741978,186.85297317984885,394.8065199138466,185.26704566862645C388.53539225349544,183.68111815740406,382.27284342715296,181.7588055126835,376.0102946008105,180.71201832973222C369.7477457744679,179.66523114678094,363.4851969481254,179.49396942559892,357.2226481217829,179.00498208728683C350.96009929544044,178.51599474897475,344.69755046909796,177.70928179353257,338.42642280874674,177.816066752286C332.1552951483956,177.92285171103939,325.8755886540357,178.94313458398844,319.6044609936845,178.28703156235474C313.3333333333333,177.6309285407211,307.07078450699083,175.29843962450477,300.80823568064835,174.6881888660267C294.54568685430587,174.07793810754865,288.28313802796333,175.1899255068088,282.02058920162085,175.78129876597447C275.75804037527837,176.37267202514013,269.49549154893583,176.4434311442113,263.22436388858466,176.001899574575C256.9532362282335,175.5603680049387,250.6735297338736,174.60654574659506,244.40240207352244,173.8869324407967C238.13127441317124,173.16731913499834,231.86872558682876,172.6819147817453,225.60617676048628,171.20461987963446C219.3436279341438,169.72732497752364,213.0810791078013,167.25813952655497,206.81853028145875,165.41131695677404C200.55598145511627,163.56449438699312,194.2934326287738,162.34003469839988,188.02230496842262,161.16204313949515C181.75117730807142,159.98405158059043,175.47147081371153,158.85252815137426,169.20034315336036,158.00697613183718C162.9292154930092,157.16142411230012,156.66666666666666,156.60184350244216,150.40411784032418,156.3394851373159C144.14156901398167,156.07712677218964,137.87902018763918,156.11199065179503,131.61647136129668,156.196942046141C125.35392253495418,156.281893440487,119.0913737086117,156.41693234957359,112.82024604826051,156.32114160176138C106.54911838790933,156.22535085394918,100.26941189354945,155.8987304492382,93.99828423319826,155.60628572154812C87.72715657284708,155.313840993858,81.46460774650458,155.0555719431888,75.20205892016209,154.8551093833964C68.93951009381959,154.654646823604,62.67696126747709,154.51199075468844,56.4144124411346,154.35505487233408C50.1518636147921,154.19811898997975,43.88931478844961,154.0269032941866,37.61818712809842,153.95682535890415C31.347059467747233,153.8867474236217,25.067352973387358,153.91780724884987,18.796225313036174,153.8683554381696C12.525097652684991,153.81890362748933,6.2625488263424955,153.68894018090063,3.1312744131712478,153.62395845760625L0,153.5589767343119Z" style="nullanimation-fill-mode:none;display:inline;fill:rgb(44, 160, 44);fill-opacity:0.8;fill-rule:nonzero;stroke:rgb(44, 160, 44);stroke-dasharray:none;stroke-dashoffset:0px;stroke-linecap:butt;stroke-linejoin:miter;stroke-miterlimit:4;stroke-opacity:1;stroke-width:0.5px;-webkit-text-fill-color:rgb(34, 34, 34);-webkit-text-stroke-color:rgb(34, 34, 34);-webkit-text-stroke-width:0px;"><title style="nullanimation-fill-mode:none;display:inline;fill:rgb(44, 160, 44);fill-opacity:0.8;fill-rule:nonzero;stroke:rgb(44, 160, 44);stroke-dasharray:none;stroke-dashoffset:0px;stroke-linecap:butt;stroke-linejoin:miter;stroke-miterlimit:4;stroke-opacity:1;stroke-width:0.5px;-webkit-text-fill-color:rgb(34, 34, 34);-webkit-text-stroke-color:rgb(34, 34, 34);-webkit-text-stroke-width:0px;">Japon</title></path><path fill="#9467bd" stroke="#9467bd" d="M0,129.24757858607367L3.1312744131712478,128.85558533158783C6.2625488263424955,128.46359207710194,12.525097652684991,127.67960556813023,18.796225313036174,126.83904070354811C25.067352973387358,125.99847583896597,31.347059467747233,125.10133261877341,37.61818712809842,124.29414595720847C43.88931478844961,123.48695929564354,50.1518636147921,122.76972919270624,56.4144124411346,121.9587224318721C62.67696126747709,121.14771567103799,68.93951009381959,120.24293225230703,75.20205892016209,119.30884162319273C81.46460774650458,118.37475099407845,87.72715657284708,117.41135315458082,93.99828423319826,116.66324518728688C100.26941189354945,115.91513721999293,106.54911838790933,115.38231912490265,112.82024604826051,114.90231950633377C119.0913737086117,114.4223198877649,125.35392253495418,113.99513874571743,131.61647136129668,113.82295853021701C137.87902018763918,113.65077831471659,144.14156901398167,113.73359902576323,150.40411784032418,113.14001037547659C156.66666666666666,112.54642172518993,162.9292154930092,111.27642371356997,169.20034315336036,109.59421389664162C175.47147081371153,107.91200407971327,181.75117730807142,105.81758245747652,188.02230496842262,103.30956469378276C194.2934326287738,100.80154693008899,200.55598145511627,97.87993302493821,206.81853028145875,94.80972989788222C213.0810791078013,91.73952677082623,219.3436279341438,88.52073442186504,225.60617676048628,86.61443267756412C231.86872558682876,84.7081309332632,238.13127441317124,84.11431979362256,244.40240207352244,83.25178647551036C250.6735297338736,82.38925315739816,256.9532362282335,81.25799766081441,263.22436388858466,80.53451590040481C269.49549154893583,79.81103413999523,275.75804037527837,79.49532611575981,282.02058920162085,79.76332432455824C288.28313802796333,80.03132253335664,294.54568685430587,80.8830269751889,300.80823568064835,80.0983889185374C307.07078450699083,79.31375086188588,313.3333333333333,76.89277030675062,319.6044609936845,76.24186908064233C325.8755886540357,75.59096785453403,332.1552951483956,76.71014595745271,338.42642280874674,76.95900569688352C344.69755046909796,77.20786543631434,350.96009929544044,76.58640681225728,357.2226481217829,75.95724481798972C363.4851969481254,75.32808282372216,369.7477457744679,74.69121745924409,376.01029460081037,73.91624834467267C382.27284342715296,73.14127923010123,388.53539225349544,72.22820636543646,394.8065199138466,71.43313387603955C401.0776475741978,70.63806138664263,407.3573540685577,69.96098927251357,413.62848172890887,68.9534146885078C419.89960938926,67.94584010450204,426.16215821560246,66.60776305061954,432.42470704194506,66.08325460863817C438.68725586828754,65.5587461666568,444.9498046946301,65.84780633657654,451.21235352097256,66.47820397458024C457.47490234731504,67.10860161258394,463.7374511736575,68.0803367186716,466.86872558682876,68.56620427171542L470,69.05207182475925L470,106.72808531608226L466.86872558682876,107.10372259208118C463.7374511736575,107.47935986808012,457.47490234731504,108.23063442007799,451.21235352097256,108.25181101201964C444.9498046946301,108.27298760396131,438.68725586828754,107.56406623584677,432.42470704194506,106.81305644977687C426.16215821560246,106.06204666370697,419.89960938926,105.26894845968172,413.62848172890887,105.04326547454535C407.3573540685577,104.81758248940896,401.0776475741978,105.15931472316144,394.8065199138466,105.91909057864585C388.53539225349544,106.67886643413026,382.27284342715296,107.85668591134662,376.0102946008105,108.01922301723944C369.7477457744679,108.18176012313229,363.4851969481254,107.32901485770162,357.2226481217829,107.08222229037433C350.96009929544044,106.83542972304707,344.69755046909796,107.19458985382317,338.42642280874674,107.36927077756236C332.1552951483956,107.54395170130157,325.8755886540357,107.53415341800384,319.6044609936845,108.24352680711986C313.3333333333333,108.95290019623587,307.07078450699083,110.38144525776563,300.80823568064835,110.3413002744337C294.54568685430587,110.3011552911018,288.28313802796333,108.79232026290818,282.02058920162085,108.19370646103994C275.75804037527837,107.5950926591717,269.49549154893583,107.90670008362882,263.22436388858466,108.24360923906863C256.9532362282335,108.58051839450845,250.6735297338736,108.94272928093096,244.40240207352244,109.15825964895015C238.13127441317124,109.37379001696934,231.86872558682876,109.4426398665852,225.60617676048628,110.5145045291361C219.3436279341438,111.58636919168698,213.0810791078013,113.66124866717293,206.81853028145875,114.79845762013348C200.55598145511627,115.93566657309401,194.2934326287738,116.13520500352915,188.02230496842262,116.77234233355023C181.75117730807142,117.40947966357135,175.47147081371153,118.48421589317839,169.20034315336036,119.37060479542309C162.9292154930092,120.25699369766777,156.66666666666666,120.95503527255009,150.40411784032418,121.31522926630147C144.14156901398167,121.67542326005288,137.87902018763918,121.6977696726734,131.61647136129668,121.76752232654759C125.35392253495418,121.83727498042181,119.0913737086117,121.95443387554974,112.82024604826051,122.209111802321C106.54911838790933,122.4637897290923,100.26941189354945,122.85598668750696,93.99828423319826,123.4610181127854C87.72715657284708,124.06604953806384,81.46460774650458,124.88391543020607,75.20205892016209,125.54017366638179C68.93951009381959,126.19643190255749,62.67696126747709,126.69108248276665,56.4144124411346,127.1943111060126C50.1518636147921,127.69753972925857,43.88931478844961,128.20934639554136,37.61818712809842,128.86168659881173C31.347059467747233,129.5140268020821,25.067352973387358,130.30690054234006,18.796225313036174,131.0364942004843C12.525097652684991,131.7660878586285,6.2625488263424955,132.43240143465897,3.1312744131712478,132.76555822267417L0,133.09871501068943Z" style="nullanimation-fill-mode:none;display:inline;fill:rgb(148, 103, 189);fill-opacity:0.8;fill-rule:nonzero;stroke:rgb(148, 103, 189);stroke-dasharray:none;stroke-dashoffset:0px;stroke-linecap:butt;stroke-linejoin:miter;stroke-miterlimit:4;stroke-opacity:1;stroke-width:0.5px;-webkit-text-fill-color:rgb(34, 34, 34);-webkit-text-stroke-color:rgb(34, 34, 34);-webkit-text-stroke-width:0px;"><title style="nullanimation-fill-mode:none;display:inline;fill:rgb(148, 103, 189);fill-opacity:0.8;fill-rule:nonzero;stroke:rgb(148, 103, 189);stroke-dasharray:none;stroke-dashoffset:0px;stroke-linecap:butt;stroke-linejoin:miter;stroke-miterlimit:4;stroke-opacity:1;stroke-width:0.5px;-webkit-text-fill-color:rgb(34, 34, 34);-webkit-text-stroke-color:rgb(34, 34, 34);-webkit-text-stroke-width:0px;">Corée du sud</title></path><path fill="#e377c2" stroke="#e377c2" d="M0,127.5857864818922L3.1312744131712478,127.1562626846594C6.2625488263424955,126.72673888742658,12.525097652684991,125.86769129296097,18.796225313036174,124.92035054061957C25.067352973387358,123.97300978827816,31.347059467747233,122.93737587806096,37.61818712809842,122.050505848665C43.88931478844961,121.16363581926902,50.1518636147921,120.42552967069425,56.4144124411346,119.50891862203751C62.67696126747709,118.59230757338077,68.93951009381959,117.49719162464204,75.20205892016209,116.34338666263096C81.46460774650458,115.18958170061988,87.72715657284708,113.97708772533645,93.99828423319826,112.955112443994C100.26941189354945,111.93313716265156,106.54911838790933,111.1016805752501,112.82024604826051,110.32811502578734C119.0913737086117,109.55454947632457,125.35392253495418,108.8388749648005,131.61647136129668,108.10060796995653C137.87902018763918,107.36234097511256,144.14156901398167,106.60148149694874,150.40411784032418,104.97803318692077C156.66666666666666,103.35458487689284,162.9292154930092,100.86854773500079,169.20034315336036,98.4388688161974C175.47147081371153,96.00918989739402,181.75117730807142,93.63586920167934,188.02230496842262,90.51840380327498C194.2934326287738,87.40093840487062,200.55598145511627,83.53932830377661,206.81853028145875,79.36398293498C213.0810791078013,75.18863756618337,219.3436279341438,70.69955692968416,225.60617676048628,67.78540819808363C231.86872558682876,64.8712594664831,238.13127441317124,63.53204263978126,244.40240207352244,61.73712706810022C250.6735297338736,59.9422114964192,256.9532362282335,57.69159717975898,263.22436388858466,55.67587566235145C269.49549154893583,53.66015414494393,275.75804037527837,51.87932542678911,282.02058920162085,51.139437303513915C288.28313802796333,50.39954918023872,294.54568685430587,50.70060165184316,300.80823568064835,49.33088931936228C307.07078450699083,47.961176986881384,313.3333333333333,44.920699850315174,319.6044609936845,44.112404956099795C325.8755886540357,43.30411006188442,332.1552951483956,44.72799741001989,338.42642280874674,44.70452428158791C344.69755046909796,44.68105115315592,350.96009929544044,43.21021754815649,357.2226481217829,41.25858735275422C363.4851969481254,39.306957157351945,369.7477457744679,36.874530371546825,376.01029460081037,34.678640773601536C382.27284342715296,32.48275117565624,388.53539225349544,30.52339876557078,394.8065199138466,28.11018064127435C401.0776475741978,25.69696251697792,407.3573540685577,22.82987867847052,413.62848172890887,19.486936745607064C419.89960938926,16.143994812743603,426.16215821560246,12.325194785524085,432.42470704194506,10.025297133562821C438.68725586828754,7.725399481601556,444.9498046946301,6.944404204898547,451.21235352097256,5.526671745181119C457.47490234731504,4.108939285463691,463.7374511736575,2.0544696427318456,466.86872558682876,1.0272348213659228L470,0L470,12.110181542251752L466.86872558682876,12.931777259313114C463.7374511736575,13.753372976374473,457.47490234731504,15.396564410497197,451.21235352097256,17.013388712684122C444.9498046946301,18.63021301487105,438.68725586828754,20.220670185122184,432.42470704194506,22.921201098506916C426.16215821560246,25.621732011891652,419.89960938926,29.432336668409988,413.62848172890887,32.937303295000795C407.3573540685577,36.442269921591596,401.0776475741978,39.641598518254874,394.8065199138466,41.89962336736007C388.53539225349544,44.157648216465276,382.27284342715296,45.47436931801241,376.0102946008105,47.16497001292898C369.7477457744679,48.855570707845544,363.4851969481254,50.92005099613155,357.2226481217829,52.68770794277426C350.96009929544044,54.455364889416984,344.69755046909796,55.92619849441641,338.42642280874674,56.174537206710454C332.1552951483956,56.4228759190045,325.8755886540357,55.448719738593155,319.6044609936845,56.26568942686688C313.3333333333333,57.08265911514059,307.07078450699083,59.69075467209938,300.80823568064835,60.851763379545865C294.54568685430587,62.012772086992356,288.28313802796333,61.72669394492655,282.02058920162085,62.05364409301569C275.75804037527837,62.38059424110483,269.49549154893583,63.32057267934891,263.22436388858466,64.55803270898407C256.9532362282335,65.79549273861925,250.6735297338736,67.33043435964551,244.40240207352244,68.75206711668301C238.13127441317124,70.17369987372051,231.86872558682876,71.48202376676927,225.60617676048628,74.27813817639337C219.3436279341438,77.07425258601748,213.0810791078013,81.35815751221693,206.81853028145875,85.3555945563042C200.55598145511627,89.35303160039145,194.2934326287738,93.0640007623665,188.02230496842262,96.07676534553622C181.75117730807142,99.08952992870593,175.47147081371153,101.40408993307028,169.20034315336036,103.47103189387387C162.9292154930092,105.53797385467745,156.66666666666666,107.35729777192029,150.40411784032418,108.57190579211276C144.14156901398167,109.78651381230524,137.87902018763918,110.39640593544736,131.61647136129668,111.08541910210857C125.35392253495418,111.77443226876977,119.0913737086117,112.54256647895006,112.82024604826051,113.24113068868685C106.54911838790933,113.93969489842364,100.26941189354945,114.56868910771693,93.99828423319826,115.40188524901737C87.72715657284708,116.23508139031782,81.46460774650458,117.2724794636254,75.20205892016209,118.27960419376608C68.93951009381959,119.28672892390672,62.67696126747709,120.26358031088047,56.4144124411346,121.09942965345601C50.1518636147921,121.93527899603156,43.88931478844961,122.63012629420888,37.61818712809842,123.42844580948706C31.347059467747233,124.22676532476525,25.067352973387358,125.12855705714428,18.796225313036174,125.99182968517528C12.525097652684991,126.8551023132063,6.2625488263424955,127.67985583688927,3.1312744131712478,128.09223259873076L0,128.50460936057226Z" style="nullanimation-fill-mode:none;display:inline;fill:rgb(227, 119, 194);fill-opacity:0.8;fill-rule:nonzero;stroke:rgb(227, 119, 194);stroke-dasharray:none;stroke-dashoffset:0px;stroke-linecap:butt;stroke-linejoin:miter;stroke-miterlimit:4;stroke-opacity:1;stroke-width:0.5px;-webkit-text-fill-color:rgb(34, 34, 34);-webkit-text-stroke-color:rgb(34, 34, 34);-webkit-text-stroke-width:0px;"><title style="nullanimation-fill-mode:none;display:inline;fill:rgb(227, 119, 194);fill-opacity:0.8;fill-rule:nonzero;stroke:rgb(227, 119, 194);stroke-dasharray:none;stroke-dashoffset:0px;stroke-linecap:butt;stroke-linejoin:miter;stroke-miterlimit:4;stroke-opacity:1;stroke-width:0.5px;-webkit-text-fill-color:rgb(34, 34, 34);-webkit-text-stroke-color:rgb(34, 34, 34);-webkit-text-stroke-width:0px;">Singapour</title></path><path fill="#ff7f0e" stroke="#ff7f0e" d="M0,153.5589767343119L3.1312744131712478,153.62395845760628C6.2625488263424955,153.68894018090063,12.525097652684991,153.81890362748933,18.796225313036174,153.86835543816963C25.067352973387358,153.91780724884987,31.347059467747233,153.8867474236217,37.61818712809842,153.95682535890415C43.88931478844961,154.0269032941866,50.1518636147921,154.19811898997975,56.4144124411346,154.35505487233408C62.67696126747709,154.51199075468844,68.93951009381959,154.654646823604,75.20205892016209,154.8551093833964C81.46460774650458,155.0555719431888,87.72715657284708,155.313840993858,93.99828423319826,155.60628572154812C100.26941189354945,155.8987304492382,106.54911838790933,156.22535085394918,112.82024604826051,156.32114160176138C119.0913737086117,156.41693234957359,125.35392253495418,156.281893440487,131.61647136129668,156.196942046141C137.87902018763918,156.11199065179503,144.14156901398167,156.07712677218964,150.40411784032418,156.3394851373159C156.66666666666666,156.60184350244216,162.9292154930092,157.16142411230012,169.20034315336036,158.00697613183718C175.47147081371153,158.85252815137426,181.75117730807142,159.98405158059043,188.02230496842262,161.16204313949515C194.2934326287738,162.34003469839988,200.55598145511627,163.56449438699312,206.81853028145875,165.41131695677404C213.0810791078013,167.25813952655497,219.3436279341438,169.72732497752364,225.60617676048628,171.2046198796345C231.86872558682876,172.6819147817453,238.13127441317124,173.16731913499834,244.40240207352244,173.8869324407967C250.6735297338736,174.60654574659506,256.9532362282335,175.5603680049387,263.22436388858466,176.001899574575C269.49549154893583,176.4434311442113,275.75804037527837,176.37267202514013,282.02058920162085,175.78129876597447C288.28313802796333,175.1899255068088,294.54568685430587,174.07793810754865,300.80823568064835,174.6881888660267C307.07078450699083,175.29843962450477,313.3333333333333,177.6309285407211,319.6044609936845,178.28703156235477C325.8755886540357,178.94313458398844,332.1552951483956,177.92285171103939,338.42642280874674,177.816066752286C344.69755046909796,177.70928179353257,350.96009929544044,178.51599474897475,357.2226481217829,179.00498208728683C363.4851969481254,179.49396942559892,369.7477457744679,179.66523114678094,376.01029460081037,180.71201832973222C382.27284342715296,181.7588055126835,388.53539225349544,183.68111815740406,394.8065199138466,185.26704566862645C401.0776475741978,186.85297317984885,407.3573540685577,188.10251555757313,413.62848172890887,189.4621819610002C419.89960938926,190.8218483644273,426.16215821560246,192.29163879355724,432.42470704194506,192.95652286935834C438.68725586828754,193.62140694515946,444.9498046946301,193.4813846676317,451.21235352097256,193.83837838559168C457.47490234731504,194.1953721035517,463.7374511736575,195.04938181699944,466.86872558682876,195.47638667372334L470,195.9033915304472L470,222.07594612432663L466.86872558682876,221.51152017254515C463.7374511736575,220.9470942207637,457.47490234731504,219.81824231720074,451.21235352097256,219.39560402965563C444.9498046946301,218.97296574211052,438.68725586828754,219.25654107058324,432.42470704194506,218.4933038030849C426.16215821560246,217.73006653558653,419.89960938926,215.92001667211716,413.62848172890887,214.34388843710994C407.3573540685577,212.76776020210272,401.0776475741978,211.42555359555772,394.8065199138466,209.71116248282326C388.53539225349544,207.9967713700888,382.27284342715296,205.91019575116493,376.0102946008105,204.84303817578268C369.7477457744679,203.77588060040043,363.4851969481254,203.7281410685598,357.2226481217829,203.17430479942553C350.96009929544044,202.62046853029128,344.69755046909796,201.56053552386336,338.42642280874674,201.74607123358285C332.1552951483956,201.9316069433023,325.8755886540357,203.36261136916917,319.6044609936845,202.16807802988077C313.3333333333333,200.97354469059235,307.07078450699083,197.15347358614864,300.80823568064835,196.48627636756544C294.54568685430587,195.81907914898218,288.28313802796333,198.30475581625944,282.02058920162085,199.31050532068267C275.75804037527837,200.31625482510586,269.49549154893583,199.84207716667504,263.22436388858466,198.98847466409438C256.9532362282335,198.13487216151373,250.6735297338736,196.9018448147833,244.40240207352244,196.3283419702394C238.13127441317124,195.75483912569544,231.86872558682876,195.84086078333812,225.60617676048628,194.28657398738005C219.3436279341438,192.732287191422,213.0810791078013,189.53769194186324,206.81853028145875,186.98709191311863C200.55598145511627,184.43649188437402,194.2934326287738,182.52988707644354,188.02230496842262,180.78418248753692C181.75117730807142,179.03847789863036,175.47147081371153,177.45367352874766,169.20034315336036,176.38789715146572C162.9292154930092,175.32212077418384,156.66666666666666,174.77537238950276,150.40411784032418,174.2632490274328C144.14156901398167,173.75112566536288,137.87902018763918,173.27362732590407,131.61647136129668,172.98893311138002C125.35392253495418,172.70423889685603,119.0913737086117,172.6123488072667,112.82024604826051,172.48067271114596C106.54911838790933,172.3489966150252,100.26941189354945,172.177534512373,93.99828423319826,171.8676454776659C87.72715657284708,171.55775644295878,81.46460774650458,171.10944047619668,75.20205892016209,170.65361430384294C68.93951009381959,170.19778813148915,62.67696126747709,169.7344517535437,56.4144124411346,169.41366237407829C50.1518636147921,169.0928729946129,43.88931478844961,168.91463061362754,37.61818712809842,168.48581285794012C31.347059467747233,168.0569951022527,25.067352973387358,167.3776019718632,18.796225313036174,166.76334281560108C12.525097652684991,166.1490836593389,6.2625488263424955,165.59995847720413,3.1312744131712478,165.3253958861367L0,165.0508332950693Z" style="nullanimation-fill-mode:none;display:inline;fill:rgb(255, 127, 14);fill-opacity:0.8;fill-rule:nonzero;stroke:rgb(255, 127, 14);stroke-dasharray:none;stroke-dashoffset:0px;stroke-linecap:butt;stroke-linejoin:miter;stroke-miterlimit:4;stroke-opacity:1;stroke-width:0.5px;-webkit-text-fill-color:rgb(34, 34, 34);-webkit-text-stroke-color:rgb(34, 34, 34);-webkit-text-stroke-width:0px;"><title style="nullanimation-fill-mode:none;display:inline;fill:rgb(255, 127, 14);fill-opacity:0.8;fill-rule:nonzero;stroke:rgb(255, 127, 14);stroke-dasharray:none;stroke-dashoffset:0px;stroke-linecap:butt;stroke-linejoin:miter;stroke-miterlimit:4;stroke-opacity:1;stroke-width:0.5px;-webkit-text-fill-color:rgb(34, 34, 34);-webkit-text-stroke-color:rgb(34, 34, 34);-webkit-text-stroke-width:0px;">Etats-Unis</title></path><text class="area-label" transform="translate(405.07507507507506,59.92644171154264) scale(1.3388666084808434)" style="nullanimation-fill-mode:none;display:block;fill:rgb(255, 255, 255);fill-opacity:0.7;fill-rule:nonzero;stroke:none;stroke-dasharray:none;stroke-dashoffset:0px;stroke-linecap:butt;stroke-linejoin:miter;stroke-miterlimit:4;stroke-opacity:1;stroke-width:1px;-webkit-text-fill-color:rgb(34, 34, 34);-webkit-text-stroke-color:rgb(34, 34, 34);-webkit-text-stroke-width:0px;">Chine</text><text class="area-label" transform="translate(370.7307307307307,137.05235941847093) scale(1.6813986552183695)" style="nullanimation-fill-mode:none;display:block;fill:rgb(255, 255, 255);fill-opacity:0.7;fill-rule:nonzero;stroke:none;stroke-dasharray:none;stroke-dashoffset:0px;stroke-linecap:butt;stroke-linejoin:miter;stroke-miterlimit:4;stroke-opacity:1;stroke-width:1px;-webkit-text-fill-color:rgb(34, 34, 34);-webkit-text-stroke-color:rgb(34, 34, 34);-webkit-text-stroke-width:0px;">Taiwan</text><text class="area-label" transform="translate(315.2152152152152,216.20733194048265) scale(0.4816142930640294)" style="nullanimation-fill-mode:none;display:block;fill:rgb(255, 255, 255);fill-opacity:0.7;fill-rule:nonzero;stroke:none;stroke-dasharray:none;stroke-dashoffset:0px;stroke-linecap:butt;stroke-linejoin:miter;stroke-miterlimit:4;stroke-opacity:1;stroke-width:1px;-webkit-text-fill-color:rgb(34, 34, 34);-webkit-text-stroke-color:rgb(34, 34, 34);-webkit-text-stroke-width:0px;">Union européenne</text><text class="area-label" transform="translate(311.4514514514515,170.70172848656847) scale(1.5557898864768944)" style="nullanimation-fill-mode:none;display:block;fill:rgb(255, 255, 255);fill-opacity:0.7;fill-rule:nonzero;stroke:none;stroke-dasharray:none;stroke-dashoffset:0px;stroke-linecap:butt;stroke-linejoin:miter;stroke-miterlimit:4;stroke-opacity:1;stroke-width:1px;-webkit-text-fill-color:rgb(34, 34, 34);-webkit-text-stroke-color:rgb(34, 34, 34);-webkit-text-stroke-width:0px;">Japon</text><text class="area-label" transform="translate(311.4514514514515,99.31747188661805) scale(1.2906684630374794)" style="nullanimation-fill-mode:none;display:block;fill:rgb(255, 255, 255);fill-opacity:0.7;fill-rule:nonzero;stroke:none;stroke-dasharray:none;stroke-dashoffset:0px;stroke-linecap:butt;stroke-linejoin:miter;stroke-miterlimit:4;stroke-opacity:1;stroke-width:1px;-webkit-text-fill-color:rgb(34, 34, 34);-webkit-text-stroke-color:rgb(34, 34, 34);-webkit-text-stroke-width:0px;">Corée du sud</text><text class="area-label" transform="translate(310.980980980981,52.89529222443852) scale(0.406745689999851)" style="nullanimation-fill-mode:none;display:block;fill:rgb(255, 255, 255);fill-opacity:0.7;fill-rule:nonzero;stroke:none;stroke-dasharray:none;stroke-dashoffset:0px;stroke-linecap:butt;stroke-linejoin:miter;stroke-miterlimit:4;stroke-opacity:1;stroke-width:1px;-webkit-text-fill-color:rgb(34, 34, 34);-webkit-text-stroke-color:rgb(34, 34, 34);-webkit-text-stroke-width:0px;">Singapour</text><text class="area-label" transform="translate(223.00300300300302,191.0372837293733) scale(0.8712696123062509)" style="nullanimation-fill-mode:none;display:block;fill:rgb(255, 255, 255);fill-opacity:0.7;fill-rule:nonzero;stroke:none;stroke-dasharray:none;stroke-dashoffset:0px;stroke-linecap:butt;stroke-linejoin:miter;stroke-miterlimit:4;stroke-opacity:1;stroke-width:1px;-webkit-text-fill-color:rgb(34, 34, 34);-webkit-text-stroke-color:rgb(34, 34, 34);-webkit-text-stroke-width:0px;">Etats-Unis</text></g><g class="annotation-group" style="nullanimation-fill-mode:none;display:inline;fill:rgb(0, 0, 0);fill-opacity:1;fill-rule:nonzero;stroke:none;stroke-dasharray:none;stroke-dashoffset:0px;stroke-linecap:butt;stroke-linejoin:miter;stroke-miterlimit:4;stroke-opacity:1;stroke-width:1px;-webkit-text-fill-color:rgb(34, 34, 34);-webkit-text-stroke-color:rgb(34, 34, 34);-webkit-text-stroke-width:0px;"><g class="annotations" style="nullanimation-fill-mode:none;display:inline;fill:rgb(0, 0, 0);fill-opacity:1;fill-rule:nonzero;stroke:none;stroke-dasharray:none;stroke-dashoffset:0px;stroke-linecap:butt;stroke-linejoin:miter;stroke-miterlimit:4;stroke-opacity:1;stroke-width:1px;-webkit-text-fill-color:rgb(34, 34, 34);-webkit-text-stroke-color:rgb(34, 34, 34);-webkit-text-stroke-width:0px;"></g></g></g></svg>