<?xml version="1.0" encoding="utf-8"?>
<!-- Generator: Adobe Illustrator 24.0.3, SVG Export Plug-In . SVG Version: 6.00 Build 0)  -->
<svg version="1.1" xmlns="http://www.w3.org/2000/svg" xmlns:xlink="http://www.w3.org/1999/xlink" x="0px" y="0px"
	 viewBox="0 0 629.9 28.4" style="enable-background:new 0 0 629.9 28.4;" xml:space="preserve">
<style type="text/css">
	.st0{fill:#DADADA;stroke:#1D1D1B;stroke-width:0.25;stroke-miterlimit:10;}
	.st1{fill:#FFFFFF;stroke:#1D1D1B;stroke-width:0.25;stroke-miterlimit:10;}
	.st2{fill:#F9D3DB;stroke:#1D1D1B;stroke-width:0.25;stroke-miterlimit:10;}
	.st3{fill:#F4A7B7;stroke:#1D1D1B;stroke-width:0.25;stroke-miterlimit:10;}
	.st4{fill:#E3234A;stroke:#1D1D1B;stroke-width:0.25;stroke-miterlimit:10;}
	.st5{fill:#A70021;stroke:#1D1D1B;stroke-width:0.25;stroke-miterlimit:10;}
</style>
<g id="Calque_1">
	<title>LIB-2020-03-23-Plan de travail 1</title>
	<rect x="1.4" y="6.1" class="st0" width="13.9" height="13.9"/>
	<path d="M21.7,14.6v3.7h-1.3V7.7h2.7c1.8,0,2.5,0.7,2.5,2.2v2.6c0,1.4-0.7,2.1-2.5,2.1L21.7,14.6z M21.7,9v4.4h1.4
		c0.9,0,1.3-0.3,1.3-1.2v-1.9c0-1-0.4-1.3-1.3-1.3L21.7,9z"/>
	<path d="M28.3,18.4c-1.2,0-1.9-0.6-1.9-2v-1.5c0-2.2,2.3-1.9,3.8-2.3v-1.2c0-1-0.4-1.2-1.2-1.2s-1.1,0.2-1.1,0.9v0.9h-1.3v-1.1
		c0-1.3,0.8-2,2.4-2c1.8,0,2.5,0.6,2.5,2.3v7.2h-1.3v-1.7c0.1,0.9-0.5,1.7-1.4,1.8C28.6,18.4,28.4,18.4,28.3,18.4z M30.1,16.3v-2.7
		c-1.7,0.3-2.5,0.3-2.5,1.2v1.5c0,0.6,0.2,1,1,1S30.1,17,30.1,16.3z"/>
	<path d="M33.5,14.8v1.1c0,1,0.5,1.4,1.3,1.4s1.3-0.2,1.3-0.9v-1c0-0.7-0.2-0.9-1.5-1.1c-1.9-0.3-2.4-0.7-2.4-2V11
		c0-1.5,0.8-2.1,2.6-2.1s2.6,0.7,2.6,2.3v1.3h-1.3v-1.1c0-0.9-0.4-1.2-1.3-1.2s-1.3,0.3-1.3,1v1c0,0.5,0.2,0.7,1.5,1
		c2,0.4,2.5,0.8,2.5,2.2v1.2c0,1.5-0.8,2-2.6,2s-2.6-0.7-2.6-2.4v-1.2H33.5z"/>
	<path d="M44.8,7.7h1.3v10.6h-1.3v-1.7c0.1,0.9-0.5,1.7-1.4,1.8c-0.2,0-0.3,0-0.5,0c-1.6,0-2.3-1-2.3-2.8v-3.9
		c0-1.8,0.7-2.8,2.3-2.8c0.9-0.1,1.7,0.5,1.8,1.4c0,0.1,0,0.3,0,0.4L44.8,7.7z M42,15.3c0,1.5,0.4,1.9,1.4,1.9
		c0.7,0,1.4-0.1,1.4-0.9V11c0-0.8-0.7-0.9-1.4-0.9c-1,0-1.4,0.4-1.4,1.9V15.3z"/>
	<path d="M49.7,18.4c-2,0-2.7-1-2.7-2.8v-3.9c0-1.8,0.7-2.8,2.7-2.8s2.6,0.8,2.6,2.4V14h-4.1v1.4c0,1.4,0.4,1.8,1.4,1.8
		s1.4-0.3,1.4-1.2v-1h1.3v1.2C52.3,17.6,51.6,18.4,49.7,18.4z M48.3,12.8h2.8v-1.3c0-1.1-0.4-1.4-1.4-1.4s-1.4,0.4-1.4,1.8V12.8z"/>
	<path d="M59.7,7.7H61v10.6h-1.3v-1.7c0.1,0.9-0.5,1.7-1.3,1.8c-0.1,0-0.3,0-0.5,0c-1.6,0-2.3-1-2.3-2.8v-3.9c0-1.8,0.7-2.8,2.3-2.8
		c0.9-0.1,1.7,0.5,1.8,1.4c0,0.1,0,0.3,0,0.4V7.7z M56.9,15.3c0,1.5,0.4,1.9,1.4,1.9c0.7,0,1.4-0.1,1.4-0.9V11
		c0-0.8-0.7-0.9-1.4-0.9c-0.9,0-1.4,0.4-1.4,1.9V15.3z"/>
	<path d="M64.6,18.4c-2,0-2.7-1-2.7-2.8v-3.9c0-1.8,0.7-2.8,2.7-2.8c1.9,0,2.7,1,2.7,2.8v3.9C67.2,17.4,66.5,18.4,64.6,18.4z
		 M64.6,10.2c-1,0-1.4,0.4-1.4,1.8v3.4c0,1.4,0.4,1.8,1.4,1.8c0.9,0,1.4-0.4,1.4-1.8v-3.4C66,10.6,65.5,10.2,64.6,10.2L64.6,10.2z"
		/>
	<path d="M71.2,8.9c1.3,0,2,0.7,2,2.2v7.2h-1.3v-7c0-0.8-0.3-1.2-1.1-1.2s-1.4,0.1-1.4,0.9v7.3h-1.3V9h1.3v1.7
		c-0.1-0.9,0.5-1.7,1.3-1.8C70.9,8.9,71,8.9,71.2,8.9z"/>
	<path d="M77.1,8.9c1.3,0,2,0.7,2,2.2v7.2h-1.3v-7c0-0.8-0.3-1.2-1.1-1.2s-1.4,0.1-1.4,0.9v7.3h-1.3V9h1.3v1.7
		c-0.1-0.9,0.5-1.7,1.3-1.8C76.8,8.9,77,8.9,77.1,8.9z"/>
	<path d="M82.7,18.4c-1.9,0-2.7-1-2.7-2.8v-3.9c0-1.8,0.7-2.8,2.7-2.8s2.6,0.8,2.6,2.4V14h-4.1v1.4c0,1.4,0.4,1.8,1.4,1.8
		s1.4-0.3,1.4-1.2v-1h1.3v1.2C85.4,17.6,84.6,18.4,82.7,18.4z M81.3,12.8h2.8v-1.3c0-1.1-0.4-1.4-1.4-1.4s-1.4,0.4-1.4,1.8V12.8z
		 M82,8.7l0.3-0.8H84l-1,0.8H82z"/>
	<path d="M89,18.4c-1.9,0-2.7-1-2.7-2.8v-3.9c0-1.8,0.7-2.8,2.7-2.8s2.6,0.8,2.6,2.4V14h-4.1v1.4c0,1.4,0.4,1.8,1.4,1.8
		s1.4-0.3,1.4-1.2v-1h1.3v1.2C91.6,17.6,90.8,18.4,89,18.4z M87.6,12.8h2.8v-1.3c0-1.1-0.4-1.4-1.4-1.4s-1.4,0.4-1.4,1.8V12.8z"/>
	<path d="M93.8,14.8v1.1c0,1,0.5,1.4,1.3,1.4s1.3-0.2,1.3-0.9v-1c0-0.7-0.2-0.9-1.5-1.1c-1.9-0.3-2.4-0.7-2.4-2V11
		c0-1.5,0.8-2.1,2.6-2.1s2.6,0.7,2.6,2.3v1.3h-1.3v-1.1c0-0.9-0.4-1.2-1.3-1.2s-1.3,0.3-1.3,1v1c0,0.5,0.2,0.7,1.5,1
		c2,0.4,2.5,0.8,2.5,2.2v1.2c0,1.5-0.8,2-2.6,2s-2.6-0.7-2.6-2.4v-1.2H93.8z"/>
	<rect x="106.9" y="6.1" class="st1" width="13.9" height="13.9"/>
	<path d="M127.7,15.2h-2.2l-0.6,3.1h-1.3l2.2-10.6h1.7l2.2,10.6h-1.3L127.7,15.2z M126.6,9.7l-0.9,4.3h1.7L126.6,9.7z"/>
	<path d="M132.1,18.4c-1.3,0-2-0.7-2-2.2V9h1.3v7c0,0.8,0.3,1.2,1.1,1.2s1.4-0.1,1.4-0.9V9h1.3v9.4h-1.3v-1.8
		c0.1,0.9-0.5,1.7-1.3,1.8C132.4,18.4,132.2,18.4,132.1,18.4z"/>
	<path d="M141.4,14.3V16c0,1.6-0.8,2.4-2.7,2.4s-2.7-1-2.7-2.8v-3.9c0-1.8,0.7-2.8,2.7-2.8s2.7,0.8,2.7,2.4v1.6h-1.3v-1.3
		c0-1.1-0.4-1.4-1.4-1.4s-1.4,0.4-1.4,1.8v3.4c0,1.4,0.4,1.8,1.4,1.8s1.4-0.3,1.4-1.4v-1.4H141.4z"/>
	<path d="M144.3,18.4c-1.3,0-2-0.7-2-2.2V9h1.3v7c0,0.8,0.3,1.2,1.1,1.2s1.3-0.2,1.3-0.9V9h1.3v9.4H146v-1.8
		c0.1,0.9-0.5,1.7-1.3,1.8C144.5,18.4,144.4,18.4,144.3,18.4z"/>
	<path d="M151.3,8.9c1.3,0,2,0.7,2,2.2v7.2H152v-7c0-0.8-0.3-1.2-1.1-1.2s-1.4,0.1-1.4,0.9v7.3h-1.3V9h1.3v1.7
		c-0.1-0.9,0.5-1.7,1.3-1.8C151,8.9,151.1,8.9,151.3,8.9z"/>
	<path d="M161.9,14.3V16c0,1.6-0.8,2.4-2.7,2.4s-2.7-1-2.7-2.8v-3.9c0-1.8,0.7-2.8,2.7-2.8s2.7,0.8,2.7,2.4v1.6h-1.3v-1.3
		c0-1.1-0.4-1.4-1.4-1.4s-1.4,0.4-1.4,1.8v3.4c0,1.4,0.4,1.8,1.4,1.8s1.4-0.3,1.4-1.4v-1.4H161.9z"/>
	<path d="M164.6,18.4c-1.2,0-1.9-0.6-1.9-2v-1.5c0-2.2,2.3-1.9,3.8-2.3v-1.2c0-1-0.4-1.2-1.2-1.2s-1.1,0.2-1.1,0.9v0.9h-1.3v-1.1
		c0-1.3,0.8-2,2.4-2s2.5,0.6,2.5,2.3v7.2h-1.3v-1.7c0.1,0.9-0.5,1.7-1.4,1.8C165,18.4,164.8,18.4,164.6,18.4z M166.5,16.3v-2.7
		c-1.7,0.3-2.5,0.3-2.5,1.2v1.5c0,0.6,0.2,1,1,1S166.5,17,166.5,16.3z"/>
	<path d="M169.9,14.8v1.1c0,1,0.5,1.4,1.3,1.4s1.3-0.2,1.3-0.9v-1c0-0.7-0.2-0.9-1.5-1.1c-1.9-0.3-2.4-0.7-2.4-2V11
		c0-1.5,0.8-2.1,2.6-2.1s2.6,0.7,2.6,2.3v1.3h-1.3v-1.1c0-0.9-0.4-1.2-1.3-1.2s-1.4,0.3-1.4,1v1c0,0.5,0.1,0.7,1.5,1
		c2,0.4,2.4,0.8,2.4,2.2v1.2c0,1.5-0.8,2-2.6,2s-2.6-0.7-2.6-2.4v-1.2H169.9z"/>
	<rect x="183" y="6.1" class="st2" width="13.9" height="13.9"/>
	<path d="M203.9,15.2h-2.2l-0.6,3.1h-1.3l2.1-10.6h1.7l2.2,10.6h-1.3L203.9,15.2z M202.8,9.7l-0.9,4.3h1.7L202.8,9.7z"/>
	<path d="M208.2,18.4c-1.3,0-2-0.7-2-2.2V9h1.3v7c0,0.8,0.3,1.2,1.1,1.2s1.4-0.2,1.4-0.9V9h1.3v9.4H210v-1.8
		c0.1,0.9-0.5,1.7-1.3,1.8C208.5,18.4,208.4,18.4,208.2,18.4z"/>
	<path d="M217.6,8.9c1-0.1,1.9,0.5,2,1.5c0,0.1,0,0.1,0,0.2c-0.1-0.9,0.6-1.6,1.5-1.7c0.1,0,0.2,0,0.3,0c1.3,0,2,0.7,2,2.2v7.2h-1.3
		v-7c0-0.8-0.3-1.2-1.1-1.2s-1.4,0.1-1.4,1.1v7.1h-1.3v-7c0-0.8-0.3-1.2-1.1-1.2s-1.4,0.1-1.4,0.9v7.3h-1.3V9h1.3v1.7
		c-0.1-0.9,0.4-1.7,1.3-1.8C217.3,8.9,217.5,8.9,217.6,8.9z"/>
	<path d="M226.9,18.4c-2,0-2.7-1-2.7-2.8v-3.9c0-1.8,0.7-2.8,2.7-2.8s2.7,1,2.7,2.8v3.9C229.6,17.4,228.8,18.4,226.9,18.4z
		 M226.9,10.2c-0.9,0-1.4,0.4-1.4,1.8v3.4c0,1.4,0.4,1.8,1.4,1.8s1.4-0.4,1.4-1.8v-3.4C228.3,10.6,227.9,10.2,226.9,10.2L226.9,10.2
		z"/>
	<path d="M230.5,7.7h1.3v1h-1.3V7.7z M230.5,8.9h1.3v9.4h-1.3V8.9z"/>
	<path d="M235.7,8.9c1.3,0,2,0.7,2,2.2v7.2h-1.3v-7c0-0.8-0.3-1.2-1.1-1.2S234,10.2,234,11v7.3h-1.3V9h1.3v1.7
		c-0.1-0.9,0.5-1.7,1.3-1.8C235.5,8.9,235.6,8.9,235.7,8.9z"/>
	<path d="M239.9,14.8v1.1c0,1,0.4,1.4,1.3,1.4s1.3-0.2,1.3-0.9v-1c0-0.7-0.2-0.9-1.5-1.1c-1.9-0.3-2.4-0.7-2.4-2V11
		c0-1.5,0.8-2.1,2.6-2.1s2.6,0.7,2.6,2.3v1.3h-1.3v-1.1c0-0.9-0.4-1.2-1.3-1.2s-1.4,0.3-1.4,1v1c0,0.5,0.2,0.7,1.5,1
		c2,0.4,2.4,0.8,2.4,2.2v1.2c0,1.5-0.8,2-2.6,2s-2.6-0.7-2.6-2.4v-1.2H239.9z"/>
	<path d="M249.1,18.4c-1.3,0-2-0.7-2-2.2V9h1.3v7c0,0.8,0.3,1.2,1.1,1.2s1.4-0.1,1.4-0.9V9h1.3v9.4h-1.3v-1.8
		c0.1,0.9-0.5,1.7-1.3,1.8C249.3,18.4,249.2,18.4,249.1,18.4z"/>
	<path d="M256,8.9c1.3,0,2,0.7,2,2.2v7.2h-1.3v-7c0-0.8-0.3-1.2-1.1-1.2s-1.4,0.1-1.4,0.9v7.3H253V9h1.3v1.7
		c-0.1-0.9,0.5-1.7,1.3-1.8C255.8,8.9,255.9,8.9,256,8.9z"/>
	<path d="M266.7,14.3V16c0,1.6-0.8,2.4-2.7,2.4s-2.7-1-2.7-2.8v-3.9c0-1.8,0.7-2.8,2.7-2.8s2.7,0.8,2.7,2.4v1.6h-1.3v-1.3
		c0-1.1-0.4-1.4-1.4-1.4s-1.4,0.4-1.4,1.8v3.4c0,1.4,0.4,1.8,1.4,1.8s1.4-0.3,1.4-1.4v-1.4H266.7z"/>
	<path d="M269.4,18.4c-1.2,0-1.9-0.6-1.9-2v-1.5c0-2.2,2.3-1.9,3.8-2.3v-1.2c0-1-0.4-1.2-1.2-1.2S269,10.4,269,11v0.9h-1.3v-1.1
		c0-1.3,0.8-2,2.4-2s2.5,0.6,2.5,2.3v7.2h-1.3v-1.7c0.1,0.9-0.5,1.7-1.4,1.8C269.7,18.4,269.6,18.4,269.4,18.4z M271.3,16.3v-2.7
		c-1.6,0.3-2.5,0.3-2.5,1.2v1.5c0,0.6,0.2,1,1,1S271.3,17,271.3,16.3z"/>
	<path d="M274.7,14.8v1.1c0,1,0.5,1.4,1.3,1.4s1.3-0.2,1.3-0.9v-1c0-0.7-0.2-0.9-1.5-1.1c-1.9-0.3-2.4-0.7-2.4-2V11
		c0-1.5,0.8-2.1,2.6-2.1s2.6,0.7,2.6,2.3v1.3h-1.3v-1.1c0-0.9-0.4-1.2-1.3-1.2s-1.4,0.3-1.4,1v1c0,0.5,0.2,0.7,1.5,1
		c2,0.4,2.5,0.8,2.5,2.2v1.2c0,1.5-0.8,2-2.6,2s-2.6-0.7-2.6-2.4v-1.2H274.7z"/>
	<rect x="287.8" y="6.1" class="st3" width="13.9" height="13.9"/>
	<path d="M308.7,15.2h-2.2l-0.6,3.1h-1.3l2.1-10.6h1.7l2.2,10.6h-1.3L308.7,15.2z M307.5,9.7l-0.9,4.3h1.7L307.5,9.7z"/>
	<path d="M313,18.4c-1.3,0-2-0.7-2-2.2V9h1.3v7c0,0.8,0.3,1.2,1.1,1.2s1.4-0.1,1.4-0.9V9h1.2v9.4h-1.3v-1.8c0.1,0.9-0.5,1.7-1.3,1.8
		C313.3,18.4,313.1,18.4,313,18.4z"/>
	<path d="M322.4,8.9c1-0.1,1.8,0.5,2,1.5c0,0.1,0,0.1,0,0.2c-0.1-0.9,0.6-1.6,1.5-1.7c0.1,0,0.2,0,0.3,0c1.3,0,2,0.7,2,2.2v7.2h-1.3
		v-7c0-0.8-0.3-1.2-1.1-1.2s-1.4,0.1-1.4,1.1v7.1h-1.3v-7c0-0.8-0.3-1.2-1.1-1.2s-1.4,0.1-1.4,0.9v7.3h-1.3V9h1.3v1.7
		c-0.2-0.9,0.4-1.7,1.3-1.8C322.1,8.9,322.2,8.9,322.4,8.9z"/>
	<path d="M331.7,18.4c-2,0-2.7-1-2.7-2.8v-3.9c0-1.8,0.7-2.8,2.7-2.8s2.7,1,2.7,2.8v3.9C334.4,17.4,333.6,18.4,331.7,18.4z
		 M331.7,10.2c-1,0-1.4,0.4-1.4,1.8v3.4c0,1.4,0.4,1.8,1.4,1.8s1.4-0.4,1.4-1.8v-3.4C333.1,10.6,332.7,10.2,331.7,10.2L331.7,10.2z"
		/>
	<path d="M335.3,7.7h1.3v1h-1.3V7.7z M335.3,8.9h1.3v9.4h-1.3V8.9z"/>
	<path d="M340.5,8.9c1.3,0,2,0.7,2,2.2v7.2h-1.3v-7c0-0.8-0.3-1.2-1.1-1.2s-1.4,0.1-1.4,0.9v7.3h-1.3V9h1.3v1.7
		c-0.1-0.9,0.5-1.7,1.3-1.8C340.2,8.9,340.4,8.9,340.5,8.9z"/>
	<path d="M344.7,14.8v1.1c0,1,0.5,1.4,1.3,1.4s1.3-0.2,1.3-0.9v-1c0-0.7-0.2-0.9-1.5-1.1c-1.9-0.3-2.4-0.7-2.4-2V11
		c0-1.5,0.8-2.1,2.6-2.1s2.6,0.7,2.6,2.3v1.3h-1.3v-1.1c0-0.9-0.4-1.2-1.3-1.2s-1.4,0.3-1.4,1v1c0,0.5,0.2,0.7,1.5,1
		c2,0.4,2.5,0.8,2.5,2.2v1.2c0,1.5-0.8,2-2.6,2s-2.6-0.7-2.6-2.4v-1.2H344.7z"/>
	<path d="M353.9,18.4c-1.3,0-2-0.7-2-2.2V9h1.3v7c0,0.8,0.3,1.2,1.1,1.2s1.4-0.1,1.4-0.9V9h1.3v9.4h-1.3v-1.8
		c0.1,0.9-0.5,1.7-1.3,1.8C354.1,18.4,354,18.4,353.9,18.4z"/>
	<path d="M360.8,8.9c1.3,0,2,0.7,2,2.2v7.2h-1.3v-7c0-0.8-0.3-1.2-1.1-1.2s-1.4,0.1-1.4,0.9v7.3h-1.3V9h1.3v1.7
		c-0.1-0.9,0.5-1.7,1.3-1.8C360.6,8.9,360.7,8.9,360.8,8.9z"/>
	<path d="M369.2,8.9c1-0.1,1.9,0.5,2,1.5c0,0.1,0,0.1,0,0.2c-0.1-0.9,0.6-1.6,1.5-1.7c0.1,0,0.2,0,0.3,0c1.3,0,2,0.7,2,2.2v7.2h-1.3
		v-7c0-0.8-0.3-1.2-1.1-1.2s-1.4,0.1-1.4,1.1v7.1h-1.3v-7c0-0.8-0.3-1.2-1.1-1.2s-1.4,0.1-1.4,0.9v7.3h-1.3V9h1.3v1.7
		c-0.2-0.9,0.4-1.7,1.3-1.8C368.9,8.9,369,8.9,369.2,8.9z"/>
	<path d="M378.5,18.4c-2,0-2.7-1-2.7-2.8v-3.9c0-1.8,0.7-2.8,2.7-2.8s2.7,1,2.7,2.8v3.9C381.2,17.4,380.4,18.4,378.5,18.4z
		 M378.5,10.2c-1,0-1.4,0.4-1.4,1.8v3.4c0,1.4,0.4,1.8,1.4,1.8s1.4-0.4,1.4-1.8v-3.4C379.9,10.6,379.5,10.2,378.5,10.2L378.5,10.2z"
		/>
	<path d="M385.1,8.9c0.1,0,0.2,0,0.3,0v1.4c-0.7-0.2-2-0.2-2,0.6v7.3h-1.3V9h1.3v1.7C383.4,9.6,383.8,8.9,385.1,8.9z"/>
	<path d="M388.5,10v8.3h-1.3V10h-1V9h1V7.7h1.3V9h1.5v1H388.5z"/>
	<rect x="399.1" y="6.1" class="st4" width="13.9" height="13.9"/>
	<path d="M415.9,10.8c0-2,0.9-3.1,3.1-3.1s3.1,1,3.1,2.8V12h-1.3v-1.4c0-1.2-0.6-1.7-1.9-1.7s-1.9,0.5-1.9,2.1v4
		c0,1.5,0.6,2.1,1.9,2.1s1.9-0.5,1.9-1.7v-1.6h1.3v1.8c0,2-0.9,2.9-3.1,2.9s-3.1-0.8-3.1-3.2V10.8z"/>
	<path d="M425.8,18.4c-2,0-2.7-1-2.7-2.8v-3.9c0-1.8,0.7-2.8,2.7-2.8s2.7,1,2.7,2.8v3.9C428.5,17.4,427.7,18.4,425.8,18.4z
		 M425.8,10.2c-1,0-1.4,0.4-1.4,1.8v3.4c0,1.4,0.4,1.8,1.4,1.8s1.4-0.4,1.4-1.8v-3.4C427.2,10.6,426.8,10.2,425.8,10.2L425.8,10.2z"
		/>
	<path d="M432.4,8.9c1.3,0,2,0.7,2,2.2v7.2h-1.3v-7c0-0.8-0.3-1.2-1.1-1.2s-1.4,0.1-1.4,0.9v7.3h-1.3V9h1.3v1.7
		c-0.1-0.9,0.5-1.7,1.3-1.8C432.1,8.9,432.3,8.9,432.4,8.9z"/>
	<path d="M437.4,10.2v8.1h-1.3v-8.1h-1.1v-1h1.1V9c-0.1-0.6,0.4-1.2,1-1.3c0.1,0,0.2,0,0.3,0h1.6v1h-1.3c-0.2,0-0.2,0.1-0.2,0.3v0.2
		h1.5v1L437.4,10.2z M439.2,7.7h1.3v1h-1.3V7.7z M439.2,8.9h1.3v9.4h-1.3V8.9z"/>
	<path d="M444.4,8.9c1.3,0,2,0.7,2,2.2v7.2h-1.3v-7c0-0.8-0.3-1.2-1.1-1.2s-1.4,0.1-1.4,0.9v7.3h-1.3V9h1.3v1.7
		c-0.1-0.9,0.5-1.7,1.3-1.8C444.1,8.9,444.3,8.9,444.4,8.9z"/>
	<path d="M450,18.4c-2,0-2.7-1-2.7-2.8v-3.9c0-1.8,0.8-2.8,2.7-2.8s2.6,0.8,2.6,2.4V14h-4.1v1.4c0,1.4,0.4,1.8,1.4,1.8
		s1.4-0.3,1.4-1.2v-1h1.3v1.2C452.6,17.6,451.9,18.4,450,18.4z M448.6,12.8h2.8v-1.3c0-1.1-0.4-1.4-1.4-1.4s-1.4,0.4-1.4,1.8V12.8z"
		/>
	<path d="M456.6,8.9c1-0.1,1.8,0.5,2,1.5c0,0.1,0,0.1,0,0.2c0-0.9,0.6-1.6,1.5-1.7c0.1,0,0.2,0,0.3,0c1.3,0,2,0.7,2,2.2v7.2h-1.3v-7
		c0-0.8-0.3-1.2-1.1-1.2s-1.4,0.1-1.4,1.1v7.1h-1.3v-7c0-0.8-0.3-1.2-1.1-1.2s-1.4,0.1-1.4,0.9v7.3h-1.3V9h1.3v1.7
		c-0.1-0.9,0.4-1.7,1.3-1.8C456.3,8.9,456.5,8.9,456.6,8.9z"/>
	<path d="M465.9,18.4c-2,0-2.7-1-2.7-2.8v-3.9c0-1.8,0.7-2.8,2.7-2.8s2.6,0.8,2.6,2.4V14h-4.1v1.4c0,1.4,0.4,1.8,1.4,1.8
		s1.4-0.3,1.4-1.2v-1h1.3v1.2C468.6,17.6,467.8,18.4,465.9,18.4z M464.5,12.8h2.8v-1.3c0-1.1-0.4-1.4-1.4-1.4s-1.4,0.4-1.4,1.8
		L464.5,12.8z"/>
	<path d="M472.5,8.9c1.3,0,2,0.7,2,2.2v7.2h-1.3v-7c0-0.8-0.3-1.2-1.1-1.2s-1.4,0.1-1.4,0.9v7.3h-1.3V9h1.3v1.7
		c-0.1-0.9,0.5-1.7,1.3-1.8C472.3,8.9,472.4,8.9,472.5,8.9z"/>
	<path d="M477.5,10v8.3h-1.3V10h-1V9h1V7.7h1.3V9h1.5v1H477.5z"/>
	<path d="M485.3,8.9c1.6,0,2.3,1,2.3,2.8v3.4c0,1.8-0.7,2.8-2.3,2.8c-0.9,0.1-1.7-0.5-1.8-1.3c0-0.2,0-0.3,0-0.5V19h-1.3V9h1.3v1.7
		c-0.1-0.9,0.5-1.7,1.4-1.8C485,8.9,485.1,8.9,485.3,8.9z M486.3,11.9c0-1.4-0.5-1.8-1.4-1.8c-0.7,0-1.4,0.1-1.4,0.9v4.7
		c0,0.8,0.7,0.9,1.4,0.9c1,0,1.4-0.4,1.4-1.8V11.9z"/>
	<path d="M490.3,18.4c-1.2,0-1.9-0.6-1.9-2v-1.5c0-2.2,2.3-1.9,3.8-2.3v-1.2c0-1-0.4-1.2-1.2-1.2s-1.1,0.2-1.1,0.9v0.9h-1.3v-1.1
		c0-1.3,0.8-2,2.4-2s2.5,0.6,2.5,2.3v7.2h-1.3v-1.7c0.1,0.9-0.5,1.7-1.4,1.8C490.6,18.4,490.5,18.4,490.3,18.4z M492.2,16.3v-2.7
		c-1.6,0.3-2.5,0.3-2.5,1.2v1.5c0,0.6,0.2,1,1,1S492.2,17,492.2,16.3z"/>
	<path d="M497.3,8.9c0.1,0,0.2,0,0.3,0v1.4c-0.7-0.2-2-0.2-2,0.6v7.3h-1.3V9h1.3v1.7C495.6,9.6,496.1,8.9,497.3,8.9z"/>
	<path d="M500.8,10v8.3h-1.3V10h-1V9h1V7.7h1.3V9h1.5v1H500.8z"/>
	<path d="M503.1,7.7h1.3v1h-1.3V7.7z M503.1,8.9h1.3v9.4h-1.3V8.9z"/>
	<path d="M508,18.4c-2,0-2.7-1-2.7-2.8v-3.9c0-1.8,0.8-2.8,2.7-2.8s2.6,0.8,2.6,2.4V14h-4.1v1.4c0,1.4,0.4,1.8,1.4,1.8
		s1.4-0.3,1.4-1.2v-1h1.3v1.2C510.6,17.6,509.9,18.4,508,18.4z M506.6,12.8h2.8v-1.3c0-1.1-0.4-1.4-1.4-1.4s-1.4,0.4-1.4,1.8V12.8z"
		/>
	<path d="M511.5,7.7h1.3v10.6h-1.3V7.7z"/>
	<rect x="522" y="6.1" class="st5" width="13.9" height="13.9"/>
	<path d="M538.8,10.8c0-2,0.9-3.1,3.2-3.1s3.1,1,3.1,2.8V12h-1.3v-1.4c0-1.2-0.6-1.7-1.9-1.7s-1.8,0.5-1.8,2.1v4
		c0,1.5,0.6,2.1,1.8,2.1s1.9-0.5,1.9-1.7v-1.6h1.3v1.8c0,2-0.9,2.9-3.1,2.9s-3.2-0.8-3.2-3.2V10.8z"/>
	<path d="M548.7,18.4c-2,0-2.7-1-2.7-2.8v-3.9c0-1.8,0.7-2.8,2.7-2.8s2.7,1,2.7,2.8v3.9C551.4,17.4,550.6,18.4,548.7,18.4z
		 M548.7,10.2c-1,0-1.4,0.4-1.4,1.8v3.4c0,1.4,0.4,1.8,1.4,1.8s1.4-0.4,1.4-1.8v-3.4C550.1,10.6,549.6,10.2,548.7,10.2L548.7,10.2z"
		/>
	<path d="M555.3,8.9c1.3,0,2,0.7,2,2.2v7.2H556v-7c0-0.8-0.3-1.2-1.1-1.2s-1.4,0.1-1.4,0.9v7.3h-1.3V9h1.3v1.7
		c-0.1-0.9,0.5-1.7,1.3-1.8C555,8.9,555.2,8.9,555.3,8.9z"/>
	<path d="M560.3,10.2v8.1H559v-8.1h-1v-1h1V9c-0.1-0.6,0.4-1.2,1-1.3c0.1,0,0.2,0,0.3,0h1.5v1h-1.3c-0.2,0-0.2,0.1-0.2,0.3v0.2h1.5
		v1L560.3,10.2z M562.1,7.7h1.3v1h-1.3V7.7z M562.1,8.9h1.3v9.4h-1.3V8.9z"/>
	<path d="M567.3,8.9c1.3,0,2,0.7,2,2.2v7.2H568v-7c0-0.8-0.3-1.2-1.1-1.2s-1.4,0.1-1.4,0.9v7.3h-1.3V9h1.3v1.7
		c-0.1-0.9,0.5-1.7,1.3-1.8C567,8.9,567.1,8.9,567.3,8.9z"/>
	<path d="M572.9,18.4c-2,0-2.7-1-2.7-2.8v-3.9c0-1.8,0.7-2.8,2.7-2.8s2.6,0.8,2.6,2.4V14h-4.1v1.4c0,1.4,0.4,1.8,1.4,1.8
		s1.4-0.3,1.4-1.2v-1h1.3v1.2C575.5,17.6,574.8,18.4,572.9,18.4z M571.5,12.8h2.8v-1.3c0-1.1-0.4-1.4-1.4-1.4s-1.4,0.4-1.4,1.8V12.8
		z"/>
	<path d="M579.5,8.9c1-0.1,1.9,0.5,2,1.5c0,0.1,0,0.1,0,0.2c-0.1-0.9,0.6-1.6,1.5-1.7c0.1,0,0.2,0,0.3,0c1.3,0,2,0.7,2,2.2v7.2H584
		v-7c0-0.8-0.3-1.2-1.1-1.2s-1.4,0.1-1.4,1.1v7.1h-1.3v-7c0-0.8-0.3-1.2-1.1-1.2s-1.4,0.1-1.4,0.9v7.3h-1.3V9h1.3v1.7
		c-0.2-0.9,0.4-1.7,1.3-1.8C579.2,8.9,579.3,8.9,579.5,8.9z"/>
	<path d="M588.8,18.4c-2,0-2.7-1-2.7-2.8v-3.9c0-1.8,0.7-2.8,2.7-2.8s2.6,0.8,2.6,2.4V14h-4.1v1.4c0,1.4,0.4,1.8,1.4,1.8
		s1.4-0.3,1.4-1.2v-1h1.3v1.2C591.5,17.6,590.7,18.4,588.8,18.4z M587.4,12.8h2.8v-1.3c0-1.1-0.4-1.4-1.4-1.4s-1.4,0.4-1.4,1.8V12.8
		z"/>
	<path d="M595.4,8.9c1.3,0,2,0.7,2,2.2v7.2h-1.3v-7c0-0.8-0.3-1.2-1.1-1.2s-1.4,0.1-1.4,0.9v7.3h-1.3V9h1.3v1.7
		c-0.1-0.9,0.5-1.7,1.3-1.8C595.2,8.9,595.3,8.9,595.4,8.9z"/>
	<path d="M600.4,10v8.3h-1.3V10h-1V9h1V7.7h1.3V9h1.5v1H600.4z"/>
	<path d="M607.4,10v8.3h-1.3V10h-1V9h1V7.7h1.3V9h1.5v1H607.4z"/>
	<path d="M611.9,18.4c-2,0-2.7-1-2.7-2.8v-3.9c0-1.8,0.7-2.8,2.7-2.8s2.7,1,2.7,2.8v3.9C614.6,17.4,613.8,18.4,611.9,18.4z
		 M611.9,10.2c-1,0-1.4,0.4-1.4,1.8v3.4c0,1.4,0.4,1.8,1.4,1.8s1.4-0.4,1.4-1.8v-3.4C613.3,10.6,612.9,10.2,611.9,10.2L611.9,10.2z"
		/>
	<path d="M617.3,10v8.3H616V10h-1V9h1V7.7h1.3V9h1.5v1H617.3z"/>
	<path d="M621.3,18.4c-1.2,0-1.9-0.6-1.9-2v-1.5c0-2.2,2.3-1.9,3.8-2.3v-1.2c0-1-0.4-1.2-1.2-1.2s-1.1,0.2-1.1,0.9v0.9h-1.3v-1.1
		c0-1.3,0.8-2,2.4-2s2.5,0.6,2.5,2.3v7.2h-1.3v-1.7c0.1,0.9-0.5,1.7-1.4,1.8C621.6,18.4,621.4,18.4,621.3,18.4z M623.1,16.3v-2.7
		c-1.7,0.3-2.5,0.3-2.5,1.2v1.5c0,0.6,0.2,1,1,1S623.1,17,623.1,16.3L623.1,16.3z"/>
	<path d="M625.3,7.7h1.3v10.6h-1.3V7.7z"/>
</g>
<g id="Carte">
</g>
<g id="Calque_10_1_">
	<text transform="matrix(1 0 0 1 40.4235 194.9482)"><tspan x="0" y="0" style="fill:#1D1D1B;stroke:#1D1D1B;stroke-width:0.25; font-family:'Produkt-Semibold'; font-size:8px;">X : Pas de données</tspan><tspan x="0" y="18" style="fill:#1D1D1B;stroke:#1D1D1B;stroke-width:0.25; font-family:'Produkt-Semibold'; font-size:8px;">0 : Aucun cas</tspan><tspan x="0" y="36" style="fill:#1D1D1B;stroke:#1D1D1B;stroke-width:0.25; font-family:'Produkt-Semibold'; font-size:8px;">1 : Au moins un cas</tspan><tspan x="0" y="54" style="fill:#1D1D1B;stroke:#1D1D1B;stroke-width:0.25; font-family:'Produkt-Semibold'; font-size:8px;">2 : Au moins un mort</tspan><tspan x="0" y="72" style="fill:#1D1D1B;stroke:#1D1D1B;stroke-width:0.25; font-family:'Produkt-Semibold'; font-size:8px;">4 : Confinement partiel</tspan><tspan x="0" y="90" style="fill:#1D1D1B;stroke:#1D1D1B;stroke-width:0.25; font-family:'Produkt-Semibold'; font-size:8px;">5 : Confinement total</tspan></text>
	<rect x="33.5" y="275" class="st5" width="13.9" height="13.9"/>
	<rect x="33.5" y="256.6" class="st4" width="13.9" height="13.9"/>
	<rect x="33.5" y="238.2" class="st3" width="13.9" height="13.9"/>
	<rect x="33.5" y="221.9" class="st2" width="13.9" height="13.9"/>
</g>
</svg>
