<svg xmlns="http://www.w3.org/2000/svg" viewBox="0 0 21.06 21.06"><defs><style>.cls-1{fill:#fff;}.cls-2{fill:#e5e5e5;}.cls-3{fill:#666;}</style></defs><g id="Calque_2" data-name="Calque 2"><g id="charte"><circle class="cls-1" cx="10.53" cy="10.53" r="9.53"/><path class="cls-2" d="M10.53,21.06A10.53,10.53,0,1,1,21.06,10.53,10.54,10.54,0,0,1,10.53,21.06ZM10.53,1a9.53,9.53,0,1,0,9.53,9.53A9.53,9.53,0,0,0,10.53,1Z"/><path class="cls-3" d="M8.64,13.7c0-.16.09-.36.16-.6l.92-3.37,0-.12s0-.08,0-.11c0-.2-.07-.33-.19-.37a2.69,2.69,0,0,0-.7-.1V8.64c.28,0,.69-.06,1.23-.13s.91-.11,1.13-.15l.64-.13L10.71,12.5c-.1.37-.16.62-.2.76a3.84,3.84,0,0,0-.13.71.25.25,0,0,0,.07.21.33.33,0,0,0,.17,0c.15,0,.34-.13.56-.38a5.94,5.94,0,0,0,.6-.82l.32.21A9.71,9.71,0,0,1,11,14.69a1.93,1.93,0,0,1-1.36.61,1.16,1.16,0,0,1-.74-.25.92.92,0,0,1-.32-.78A2.67,2.67,0,0,1,8.64,13.7Zm3.53-8.52a.94.94,0,0,1,.29.71,1,1,0,0,1-2,0,1,1,0,0,1,1.72-.71Z"/></g></g></svg>