<svg id="legend" viewBox="-10 0 500 55" preserveAspectRatio="xMinYMin meet"><g transform="translate(45,15)"><text style="fill: black;">Taux de vaccination complète</text></g><g class="mapLegend" transform="translate(10,22)"><g class="legendCells">
        <g class="cell" transform="translate(0,0)"><rect class="swatch" height="15" width="44" style="fill: rgb(255, 255, 255);"></rect><text class="label" height="15" width="44" transform="translate(22,30)" style="text-anchor: middle;">0</text></g><g class="cell" transform="translate(46,0)"><rect class="swatch" height="15" width="44" style="fill: rgb(249, 211, 219);"></rect><text class="label" height="15" width="44" transform="translate(22,30)" style="text-anchor: middle;">10</text></g><g class="cell" transform="translate(92,0)"><rect class="swatch" height="15" width="44" style="fill: rgb(246, 188, 200);"></rect><text class="label" height="15" width="44" transform="translate(22,30)" style="text-anchor: middle;">20</text></g><g class="cell" transform="translate(138,0)"><rect class="swatch" height="15" width="44" style="fill: rgb(243, 164, 180);"></rect><text class="label" height="15" width="44" transform="translate(22,30)" style="text-anchor: middle;">30</text></g><g class="cell" transform="translate(184,0)"><rect class="swatch" height="15" width="44" style="fill: rgb(240, 141, 161);"></rect><text class="label" height="15" width="44" transform="translate(22,30)" style="text-anchor: middle;">40</text></g><g class="cell" transform="translate(230,0)"><rect class="swatch" height="15" width="44" style="fill: rgb(237, 117, 142);"></rect><text class="label" height="15" width="44" transform="translate(22,30)" style="text-anchor: middle;">50</text></g><g class="cell" transform="translate(276,0)"><rect class="swatch" height="15" width="44" style="fill: rgb(234, 94, 122);"></rect><text class="label" height="15" width="44" transform="translate(22,30)" style="text-anchor: middle;">60</text></g><g class="cell" transform="translate(322,0)"><rect class="swatch" height="15" width="44" style="fill: rgb(231, 70, 103);"></rect><text class="label" height="15" width="44" transform="translate(22,30)" style="text-anchor: middle;">70</text></g><g class="cell" transform="translate(368,0)"><rect class="swatch" height="15" width="44" style="fill: rgb(228, 47, 84);"></rect><text class="label" height="15" width="44" transform="translate(22,30)" style="text-anchor: middle;">80</text></g></g></g></svg>