<?xml version="1.0" encoding="utf-8"?>
<!-- Generator: Adobe Illustrator 24.3.2, SVG Export Plug-In . SVG Version: 6.00 Build 0)  -->
<svg version="1.1" id="Calque_1" xmlns="http://www.w3.org/2000/svg" xmlns:xlink="http://www.w3.org/1999/xlink" x="0px" y="0px"
	 viewBox="0 0 14.3 20" style="enable-background:new 0 0 14.3 20;" xml:space="preserve">
<style type="text/css">
	.st0{fill:#FF6666;}
	.st1{fill:#EF4848;}
	.st2{fill:#FFFFFF;}
</style>
<g id="Calque_2_1_">
	<g id="Calque_1-2">
		<path class="st0" d="M7.1,19.8c-0.8-1.1-7-9.1-7-12.7c0-3.9,3.1-7,7-7s7,3.1,7,7C14.2,10.7,8,18.7,7.1,19.8z"/>
		<path class="st1" d="M7.1,0.2c3.8,0,6.9,3.1,6.9,6.9c0,3.5-5.8,11-6.9,12.5c-1.1-1.4-6.9-9-6.9-12.5C0.2,3.3,3.3,0.2,7.1,0.2
			 M7.1,0C3.2,0,0,3.2,0,7.1c0,0,0,0,0,0C0,11.1,7.1,20,7.1,20s7.1-8.9,7.1-12.9C14.3,3.2,11.1,0,7.1,0C7.1,0,7.1,0,7.1,0z"/>
		<path class="st2" d="M7.1,10.4c-1.9,0-3.4-1.5-3.4-3.4c0-1.9,1.5-3.4,3.4-3.4c1.9,0,3.4,1.5,3.4,3.4l0,0C10.6,8.8,9,10.4,7.1,10.4
			z"/>
		<path class="st1" d="M7.1,3.6c1.8,0,3.3,1.5,3.3,3.3S9,10.2,7.1,10.3c-1.8,0-3.3-1.5-3.3-3.3c0,0,0,0,0,0C3.8,5.1,5.3,3.7,7.1,3.6
			 M7.1,3.4c-2,0-3.5,1.6-3.5,3.5s1.6,3.5,3.5,3.5s3.5-1.6,3.5-3.5c0,0,0,0,0,0C10.7,5,9.1,3.4,7.1,3.4C7.1,3.4,7.1,3.4,7.1,3.4z"/>
	</g>
</g>
</svg>
