<svg xmlns="http://www.w3.org/2000/svg" viewBox="0 0 59.24 83"><defs><style>.cls-1{fill:#927ad9;}.cls-2{fill:#614db5;}.cls-3{fill:#fff;stroke:#614db5;stroke-miterlimit:10;}</style></defs><g id="Calque_2" data-name="Calque 2"><g id="Calque_1-2" data-name="Calque 1"><path class="cls-1" d="M29.62,82.19C26.13,77.75.5,44.61.5,29.62a29.12,29.12,0,0,1,58.24,0C58.74,44.61,33.12,77.75,29.62,82.19Z"/><path class="cls-2" d="M29.62,1A28.65,28.65,0,0,1,58.24,29.62c0,14.36-24,45.78-28.62,51.76C25,75.4,1,44,1,29.62A28.65,28.65,0,0,1,29.62,1m0-1A29.62,29.62,0,0,0,0,29.62C0,46,29.62,83,29.62,83S59.24,46,59.24,29.62A29.62,29.62,0,0,0,29.62,0Z"/><circle class="cls-3" cx="29.62" cy="28.83" r="14.7"/></g></g></svg>