<?xml version="1.0" encoding="utf-8"?>
<!-- Generator: Adobe Illustrator 21.0.0, SVG Export Plug-In . SVG Version: 6.00 Build 0)  -->
<svg version="1.1" id="Calque_1" xmlns="http://www.w3.org/2000/svg" xmlns:xlink="http://www.w3.org/1999/xlink" x="0px" y="0px"
	 viewBox="0 0 460 230" style="enable-background:new 0 0 460 230;" xml:space="preserve">
<style type="text/css">
	.st0{fill:#E61E49;}
	.st1{fill:#1D1D1B;}
</style>
<g>
	<path class="st0" d="M269.2,212.5c-1.5,0-2.9-0.8-3.6-2.2c-1-2-0.2-4.4,1.8-5.4c4.3-2.2,96.9-48.5,161.4-62.6
		c-52.6-15-156.2-59.1-161.2-61.2c-2-0.9-3-3.2-2.1-5.2s3.2-3,5.2-2.1c1.4,0.6,141.9,60.4,179.3,65.2c2,0.3,3.5,2,3.5,4
		c0,2-1.6,3.7-3.6,3.9c-25.5,2.6-64.4,14.7-112.7,34.9c-36.6,15.3-66,30.1-66.2,30.2C270.4,212.4,269.8,212.5,269.2,212.5z"/>
	<path class="st0" d="M190.8,212.5c-0.6,0-1.2-0.1-1.8-0.4c-0.3-0.1-29.6-14.9-66.2-30.2C74.5,161.7,35.5,149.6,10.1,147
		c-2-0.2-3.6-1.9-3.6-3.9s1.5-3.8,3.5-4c37.4-4.8,177.8-64.6,179.3-65.2c2-0.9,4.4,0.1,5.2,2.1s-0.1,4.4-2.1,5.2
		c-5,2.2-108.6,46.3-161.2,61.2c64.6,14,157.1,60.4,161.4,62.6c2,1,2.8,3.4,1.8,5.4C193.7,211.7,192.3,212.5,190.8,212.5z"/>
	<g>
		<g>
			<path class="st0" d="M229.9,166.3c-2.2,0-4-1.8-4-4v-38.5c0-2.2,1.8-4,4-4s4,1.8,4,4v38.5C233.9,164.5,232.1,166.3,229.9,166.3z"
				/>
			<path class="st0" d="M249.2,147h-38.5c-2.2,0-4-1.8-4-4s1.8-4,4-4h38.5c2.2,0,4,1.8,4,4C253.2,145.2,251.4,147,249.2,147z"/>
		</g>
		<path class="st1" d="M229.9,223.4c-44.3,0-80.4-36-80.4-80.3s36-80.4,80.4-80.4c44.3,0,80.3,36,80.3,80.4
			C310.3,187.3,274.2,223.4,229.9,223.4z M229.9,70.7c-39.9,0-72.4,32.5-72.4,72.4s32.5,72.3,72.4,72.3s72.3-32.5,72.3-72.3
			C302.3,103.1,269.8,70.7,229.9,70.7z"/>
		<g>
			<path class="st1" d="M153.8,147c-1.8,0-3.5-1.2-3.9-3.1c-0.4-1.5-7.9-38.8,77.6-136c1.5-1.7,4-1.8,5.6-0.4c1.7,1.5,1.8,4,0.4,5.6
				c-24,27.4-55.6,67.2-69.5,101.4c-7.7,19-6.3,27.4-6.3,27.5c0.5,2.2-0.8,4.3-3,4.8C154.4,147,154.1,147,153.8,147z"/>
		</g>
	</g>
</g>
</svg>
