<?xml version="1.0" encoding="utf-8"?>
<!-- Generator: Adobe Illustrator 19.1.0, SVG Export Plug-In . SVG Version: 6.00 Build 0)  -->
<svg version="1.1" id="Calque_1" xmlns="http://www.w3.org/2000/svg" xmlns:xlink="http://www.w3.org/1999/xlink" x="0px" y="0px"
	 viewBox="0 0 500 500" style="enable-background:new 0 0 500 500;" xml:space="preserve">
<style type="text/css">
	.st0{fill:#fff;}
	.st1{fill:#fff;}
	.st2{fill:none;stroke:#FF2948;stroke-width:8;stroke-linecap:round;stroke-linejoin:round;stroke-miterlimit:10;}
	.st3{fill:none;stroke:#317187;stroke-width:8;stroke-linecap:round;stroke-linejoin:round;stroke-miterlimit:10;}
	.st4{fill:none;stroke:#FFFFFF;stroke-width:7;stroke-linecap:round;stroke-linejoin:round;stroke-miterlimit:10;}
</style>
<g>
	<path class="st0" d="M289.7,326.1c-1.5,0-2.9-0.8-3.6-2.2c-1-2-0.2-4.4,1.8-5.4c4.3-2.2,96.9-48.5,161.4-62.6
		c-52.6-15-156.2-59.1-161.2-61.2c-2-0.9-3-3.2-2.1-5.2c0.9-2,3.2-3,5.2-2.1c1.4,0.6,141.9,60.4,179.3,65.2c2,0.3,3.5,2,3.5,4
		c0,2-1.6,3.7-3.6,3.9c-25.5,2.6-64.4,14.7-112.7,34.9c-36.6,15.3-66,30.1-66.2,30.2C290.9,326,290.3,326.1,289.7,326.1z"/>
	<path class="st0" d="M211.3,326.1c-0.6,0-1.2-0.1-1.8-0.4c-0.3-0.1-29.6-14.9-66.2-30.2C95,275.3,56,263.2,30.6,260.6
		c-2-0.2-3.6-1.9-3.6-3.9c0-2,1.5-3.8,3.5-4c37.4-4.8,177.8-64.6,179.3-65.2c2-0.9,4.4,0.1,5.2,2.1s-0.1,4.4-2.1,5.2
		c-5,2.2-108.6,46.3-161.2,61.2c64.6,14,157.1,60.4,161.4,62.6c2,1,2.8,3.4,1.8,5.4C214.2,325.3,212.8,326.1,211.3,326.1z"/>
	<g>
		<g>
			<path class="st0" d="M250.4,279.9c-2.2,0-4-1.8-4-4v-38.5c0-2.2,1.8-4,4-4s4,1.8,4,4v38.5C254.4,278.1,252.6,279.9,250.4,279.9z"
				/>
			<path class="st0" d="M269.7,260.6h-38.5c-2.2,0-4-1.8-4-4s1.8-4,4-4h38.5c2.2,0,4,1.8,4,4S271.9,260.6,269.7,260.6z"/>
		</g>
		<path class="st1" d="M250.4,337c-44.3,0-80.4-36-80.4-80.3c0-44.3,36-80.4,80.4-80.4c44.3,0,80.3,36,80.3,80.4
			C330.8,300.9,294.7,337,250.4,337z M250.4,184.3c-39.9,0-72.4,32.5-72.4,72.4c0,39.9,32.5,72.3,72.4,72.3
			c39.9,0,72.3-32.5,72.3-72.3C322.8,216.7,290.3,184.3,250.4,184.3z"/>
		<g>
			<path class="st1" d="M174.3,260.6c-1.8,0-3.5-1.2-3.9-3.1c-0.4-1.5-7.9-38.8,77.6-136c1.5-1.7,4-1.8,5.6-0.4
				c1.7,1.5,1.8,4,0.4,5.6c-24,27.4-55.6,67.2-69.5,101.4c-7.7,19-6.3,27.4-6.3,27.5c0.5,2.2-0.8,4.3-3,4.8
				C174.9,260.6,174.6,260.6,174.3,260.6z"/>
		</g>
	</g>
</g>
</svg>
